<?xml version="1.0" encoding="UTF-8"?>
<svg xmlns="http://www.w3.org/2000/svg" version="1.1" viewBox="0 0 512 512">
  <defs>
    <style>
      .cls-1 {
        fill: #fff;
        fill-rule: evenodd;
      }
    </style>
  </defs>
  <!-- Generator: Adobe Illustrator 28.7.1, SVG Export Plug-In . SVG Version: 1.2.0 Build 142)  -->
  <g>
    <g id="Layer_1">
      <g id="Layer_1-2" data-name="Layer_1">
        <path class="cls-1" d="M329.2,460c.4.4.6.9.8.9,1.1,0,3.4-.4,3.4-.4l2.3-1,6.4-2.5,16-7.6,2.8-1.5,1.5-.6,1.7-1.2,2.8-1.7,3.4-1.8,4.3-2.8,7.5-5.3,3.7-2.9,5.3-3.8,4.8-3.6,2.3-1.7,3.2-3,3.3-3.3,5.3-5.7,6.2-6,7.2-8.2,3.9-5.2,1.4-1.9,4.2-5.2,8.2-11.8,2.3-3.9,5.5-10.9,3.2-5.9,5.3-10.8,2.9-6.5,3.1-10s3.7-13.3,5.7-20.2c.2-.8.3-1.5-.2-2.2-1.1-1.6-2-3.6-3-5.4-.6-.9-1.4-1.9-1.9-2.6-.5-.8-1.9-2.5-2.5-3.2s-1.3-1.3-2-1.8c-1.7-1.6-3.2-3.2-4.7-4.2-.7-.4-1.3-.9-1.9-1.4-4.5-3.4-9-6.2-14.1-8.4-2.1-.9-4.3-1.7-6.6-2.5-1.5-.5-4-1.1-5.7-1.4-.9-.2-1.7-.2-2.4.3-.7.5-.7,1.6-.8,2.6-.3,2.8-.4,5.8-.6,8.6-.3,2.9-.5,5.7-.7,8.6-.2,2.6-.4,5.2-.7,7.8-.4,3.4-.9,6.8-1.5,10.2-1.2,6.3-2.6,12.6-3.9,19-.4,1.7-.6,3.5-1.3,5.2-1.2,2.7-2,5.4-2.5,8.3-1.2,6-3.4,11.7-5.4,17.3-1.7,4.6-3.3,9.4-6,13.6-.2.3-.3.6-.4.9-1.3,2.9-2.4,5.9-3.7,8.8-.8,1.9-2.1,3.6-2.9,5.5-1,2.4-2.4,4.6-3.7,6.7-2.2,3.4-4.5,6.8-6.5,10.3-1.3,2.5-2.9,4.9-4.5,7.2-.4.6-.8,1.2-1.2,1.8-1.3,2-2.5,4-4,5.8-2.8,3.5-5.7,7-8.6,10.4-1.8,2.2-3.9,4.1-5.8,6.2-1.8,1.9-3.5,3.7-5.3,5.6-.4.4-.9.7-1.3,1.1-1.1.9-2.2,1.7-3.2,2.7-2.3,2.3-4.7,4.5-7.4,6.3-1.2.8-2.3,1.5-3.4,2.4-2.9,2.5-6.1,4.3-9.7,6.1v-.2Z"/>
        <path class="cls-1" d="M470.6,289.5c.1,0,.2-.2.2-.4,0-.5.2-1.5.2-1.5l1.5-13.9.9-13v-15l-1.5-14.7s-1.8-13.2-3.1-20c-.5-2.4-1.9-3.6-3.9-4.6s-1.3-.7-2-.9c-1.4-.4-3-1.2-4.4-1.5-3.2-.8-6.3-1.9-9.6-2.5-3.9-.7-7.8-1.1-11.7-1.5-3.2-.3-6.5-.4-9.7-.5h-6.7c-2.6,0-2.8,0-3.5.9-.6.9-.2,2.4,0,4,.5,3.2,1,4.8,1.5,8,1.6,9.4,3.2,18.8,3.5,28.4.2,4.3.4,8.6.6,12.9v3.2c0,.7.2,1.6.5,2.1.4.6,1,.7,1.6.9.8.3,1.6.3,2.4.5s2.3.5,3.3.9c3.7,1.2,7.7,2.6,11.4,4.1,2.6,1.1,5,2.6,7.4,3.9.3.1.6.3.8.5,1.4,1.1,2.9,2.2,4.3,3.3,3.4,2.5,6.9,5,9.5,8.5.5.7,1.1,1.3,1.7,1.8,1,.9,2.7,4.2,4,5.7.2.3.4.3.5.3h.3Z"/>
        <path class="cls-1" d="M374,132.4c1.3,0,2.5-.1,3.5-.2.8,0,1.4-.1,1.8-.9.3-.8-.3-1.6-.4-1.9-.3-.6-2.8-5-2.8-5l-2.4-3.8-10.3-14.6-2.1-2.5-2-2.7-11.7-12.7-3.6-3.5-12.9-11.8-10.6-8.1-3.8-2-12.4-7.5-8.7-4.6-1.7-.7-7.1-2.5-10.5-3.9-.8-.2-3.4-.8-.9-.2-2.9-.8-6.2-1.1h-3l-5.6-1.1-6.7-.4-2.3-.3h-11.2c0,0-6.9.9-6.9.9h-5.3c0,0-4.7.6-4.7.6l-4.9,1-3.7,1.1-6,1.1h-1.4l-5.6,1.9-3.3.9-2,1.2-4.9,1.3-2.3,1.3-2.9,1.1-7.2,3-9.2,3.5-3,1.4-6.4,3.4-5.6,3.6-5.2,2.7-1.9,1.1-5.7,3-.9.6-6.5,5-5.4,3.6-1.1.7-6.1,4.7-2.2,1.8s-3.3,2.8-3.4,3.1l2.3-.7s4.2-1.5,4.3-1.5h.8l6-2.4h.9l6.6-2.6s3.5-1.2,3.5-1.1,3.5-1.3,3.5-1.3l4.9-1.7,11.9-4.5h1.1l6.1-2.2,4.8-2,.7.5s9.2.2,9.3.2l5.9.5h.2l12,1h.1c0,0,16.5.7,16.5.7v.4l6,5h.4l6,5.7.5-.3,8.2.2.4-.3,20.7,1.2v.5c.1,0,9.3,5.3,9.3,5.3h.4l16.3,7.8v.9c.1,0,9.4-3.6,9.4-3.6l13.5,4.5,2.3,3.7,5,.3,4.8,5.3h.5l3.9,4.4v.3h.6l10.7,2.4,3.9,6,9.9,3.5s10.6,2.7,16,3.4c4.8.6,10.5.4,14.3.1v.6Z"/>
        <path class="cls-1" d="M467.2,196.8c-.3-1.6-1.4-4.7-1.4-4.7l-.6-1.7-.6-2.1-1.8-5.2-1.6-4.5-5.1-11.2-2.3-5.5-2.9-6.4-3.5-5.6-.8-1.6-2.3-4.6-2.2-3.5-15.8-21s-1.4-1.7-2.2-2.5c-.3-.4-.5-.8-.9-.8s0,0-.1,0c0,0-4.6,7.3-6.5,9.5-1.9,2.1-5.7,5.5-5.7,5.5,0,0-3.2,2.6-3.8,3-.5.4-3,2-3,2l-3.4,1.9s-2.6,1.2-3,1.3c-.4.2-.9.3-1.2.7-.2.3-.3.6-.2,1.1,0,.4.2.9.4,1.3,1.4,2.8,2.6,5.7,4.1,8.5,2.3,4.1,3.7,8.5,5.6,12.8.6,1.4,1.3,2.8,1.7,4.3,1.3,3.8,2.5,7.6,3.7,11.4.5,1.7,1.1,3.4,1.6,5.1.5,1.7.9,3.4,1.4,5.1.3,1.1,1.1,1.6,2.2,1.6h3.4c4-.1,8-.2,12-.3,1.1,0,9.1.7,9.1.7,0,0,2.9.3,4.3.5,3,.6,6.1,1.2,9.1,1.8,2.5.5,5.2,1.4,7.5,2.4,1.1.5,2.4.8,3.7,1.2.4.1,1,.2,1.1.1,0,0,.2-.5.2-.7h-.2Z"/>
        <path class="cls-1" d="M414.9,109.2c-.1-.6-1.2-2.1-1.2-2.1l-.8-1.3-2.2-2.4-1.4-2.1-2.7-2.6s-.6-.5-.9-.7c-4.7-3.8-14.2-11.3-14.2-11.4l-2.6-2-4.9-4.3-24.6-14.6-19.4-9.1-10.3-4s-3.7-1.3-3.8-1.3l-12.7-4.3-8.9-2.2-8.7-1.8h-1.4c0,0-.8.6-.8.6l.3.4s.9.4,1.3.6c2.7,1.1,5.4,2,8.1,3.1,1.8.7,3.4,1.6,5.2,2.1,1.3.4,2.4.8,3.5,1.5,4.1,2.3,8.2,4.7,12.3,7.1,2.4,1.5,4.7,3.1,6.8,5.1,1.6,1.4,3.3,2.8,5.2,3.9.9.4,1.6,1.2,2.3,1.8.4.3.9.7,1.3,1.1,2.4,2,5,3.6,7.2,5.9,2.3,2.4,4.7,4.7,7.1,7,2.3,2.2,4.6,4.4,6.5,6.9,1.6,2.1,3.3,4.1,5.1,5.9,3.6,3.5,6.3,7.6,9.5,11.3.4.4.6,1,1,1.6,2.1,3.2,4,6.6,6.5,9.6,1.8,2.1,3.4,4.3,4.5,6.8.7,1.5,1.8,2.8,2.7,4.2.5.8,1.5,1.2,2,1.2s1.4-.4,1.4-.4l1.7-.7s2.3-1,3.1-1.3c.7-.4,2.3-1.2,2.8-1.7.6-.5,2.9-2.1,4.2-3.2,1.3-1.2,3.9-4.2,3.9-4.2l1.9-2.5,3.3-5.4s.7-1.2.5-1.8l.3-.3Z"/>
        <path class="cls-1" d="M404.3,190.7c-1.3-4.1-2.3-7.9-3.8-11.9-1.2-3.3-2.1-6.7-3.7-9.8-.9-1.9-1.4-4-2.1-6-.4-1-.9-1.9-1.2-2.9-1.8-5.1-4.2-9.3-6.7-14.1-.1-.3-.2-.5-.5-.9-.2-.4-.4-.9-1-1.2s-1.1-.1-2.2,0c-2.1.2-4.7.5-5.8.5s-5.1.3-8.4.6l-.8-.2h-4l-10.5-1.4c-3.8-.6-12.7-2.8-12.7-2.8l-6.5-2.2-7.9-2.7-.6.3-12.4-1-.4.2-7-5.3h-.8l-4.3-4-.2-.8-4.8-.7-.4.2-4-1.4-.4-.4-9.1.7-8.2-3.4-28.6,1.5-.5-.3-5.4.4-.6.4-14.1,1.1-.4-.3-20.1,11.6-.2.9-.9.8-.5-.3-10.1-1-.6.2h-17.8c0,.1-.4,0-.4,0l-5.1-.2-1.5-.9-18.7,14.5v.4l-6.6,5.2-7.3-3.5-.4.2-2.7-.8s-13.5,3.4-13.4,3.5c0,0-12.6-2-12.6-2l-.9-.7-2.4,2.4-5,2.4v.4c0,0-10.2,7.7-10.2,7.7l-14.3,10.3-16.1,12-7.2,5.3-.4,3.1-3,7.1-1.3,6.1-2,12.3-1.2,5.3-.4,6.4-1.8,13.3-.8,29.1.8,1.7.5,8s0,1.4.4,1.5h0l35.6-36.9,11.7-4.7,9.8-.5,5.9-6.8.6-1.3.7.3,16-1.8.7-.5h6l.9.3,1.9-2.5,7.2-4.4,7.7-5.3,21.6.3v.4c.1,0,8.6.8,8.6.8l6.6-1.3,12.1-12.4h.2l9.6-9.2,14.4-1.9.6-.4.7.6,7.5,3.5.5-.5,6.6-.8.3-.4,6.2-1.1.6-.3,6.8,5.8.4-.4,13.9-.2,1.2-.9,11.2.5.6.2,1.7-.4.3-.5,4.5-2h.5l5.2-2.3.4-.5,5.5-2.1.4-.6,15.2-5.8v-.2c.1,0,2.8-.9,2.8-.9l.6-.6.8.8,4.4,2.2h1.4l4.9,2.8.4-.5,1.5-.7h.1l2.5-1.1v-.2c.1,0,3.7-.8,3.7-.8l9.1,2.4,1.9-.4,1.7,1.1,6.7,1,6.5,2.5,3.8-.3,1.2.8,1-.6s12.9-1.6,19.3-2.2c4.2-.3,8.4-.8,12.6-1.2,2.4-.2,4.7-.4,7.1-.7,1.3-.1,1.9-.7,1.5-2.1v.4Z"/>
        <path class="cls-1" d="M412.8,256.7c0-.9-.2-1.4-.2-2.3-.1-2.5-.3-5-.4-7.5,0-.8-.1-1.7-.2-2.5-.2-3.1-.3-6.2-.6-9.3-.4-4-1-7.8-1.6-11.7-.4-3-1-6.1-1.6-9.1-.6-3.1-1.1-6-1.8-9.2-.7-3.2-1.4-3.6-4.6-3.2-.3,0-.5,0-.8.1-1.2.2-2.9.4-4.1.6-6.3.8-12.3,1.2-18.6,1.9l-18.2,6.4-26.2-.7-2.9-.9v.5l-7.7,5.7h-1.1c0,.1-6.1,5.8-6.1,5.8l-.3.8-15.7,2.1-14.3,11.1h-1.5l-7.6,4.5-3,.4-3,2.6-.8-.6-14.6-1-2.5,2.9v.5l-12.6,13.8v.8c-.1,0-.6.1-.6.1l-16.1,18.5h-4.4l-.3.5-13.2,2.3h-1l-.3.6-21.8,12.2-9.8-1.2-2.1.7-9.7-.6-9.7,10.5-5.8,1.2h-3.3c0-.1-3.4,1.3-3.4,1.3l-2-.2v.4c.1,0-11.9,9.3-11.9,9.3l-1.1.2-18.8,14.7.2.9-11.6,28.2.5,1.2-19.1,1.8-6.3,5.4-.6,2,8.5,11.9,6.3,9.7,5.4,7,8.8,9.6s0,.7.2.7,1.2.1,1.2.2l5.3,1.8,6.5,2s0,.3,0,.3h.7l10.8,4.2h.8l.6.7h1l2.6,1.7,4.5-2.5h.2l2-1.3,16.4,4.2,12-6.2,26.7-2.6,10.9-17.7c1.8-1.7,4.9-4.9,4.9-4.9h.4s3.8-3.5,3.8-3.6v-.5l6.9-6.3,3.2-3.4s.7-.4.8-.5l3.7-3.9,3-3.1h.8c0-.1-.8-2.9-.8-2.9l3.1-11.4,6-1.8.2-.2,1.8-.4v-1l8.1-13.1.7-.3,3.3-6.4,5.5-3.1.7-.9,1.1.2s3.2-1.9,3.3-1.9h.4l5.9-2.6.5-.7,19.6-9.1h1.2c0-.1.2-1.2.2-1.2l.8-.6,2-6.9,6.2-2.7,7.2-.9,6.5-4.5,9.3.4.9.8.5-.6,13-5.8v-1.7l3.1-6,6.4-1.7.3-.4,8.7-1.8,3.4-4h.4s2-2.1,2.1-2.1l6,.8.3.2,3.3.5,2,.2s8.8-4.2,12.5-5.6c1.6-.6,3.1-1,4.5-1.5,2-.7,4.1-1.5,6.1-2.1,1.1-.3,2-.6,3.1-.9l4.1-.8,4.8-.8,2.9-.2s1.4-.2,1.9-.3c.5-.1,1.3-.1,2-.6.6-.6.6-1.2.7-1.7v-1.9Z"/>
        <path class="cls-1" d="M412.8,273.8c0-.7.1-1.8-.4-2.5-.5-.6-1.3-.7-1.7-.7s-2.7.3-2.7.3l-3.8.6c-.4,0-.9.1-1.3.2-2.3.5-4.6,1-6.8,1.6-2.5.7-5.1,1.4-7.4,2.4-2.5,1.1-5.3,2-7.9,3.2-.9.4-9.4,4.6-13.2,6.5l-4.9,5.3-.2,1.2-.7-.3-3.1.2-.2.3-10,3.3v1.1l-1,1v.6l-4.7,8.3h-.7v.9s-1,1.6-2,3.3l-21.2,13.6h-.4l-3.2,2.6-2.2,8.9-2.1,2-8.3,30.6,1.1,3.5-12.2,5.9h-2l-2.3,10.7-.4.3-3,9.7.2.5-1.2,8.3-.5.6.4.8-11.8,18.7-.9.3-2.9,4.5v.9s-10.1,14.2-10.1,14.1l-10.6,6.3.6.9c0,.1-.6,4.3-.6,4.3l.9,1.6-1.5.5-7.7,4.5-.8-.2-11.3,6.7-1.3,2.1c0,.2,4.4.6,4.4.6l7.3.6,5,.2h5.8l2.7.2h4.4c0,.1,4.3,0,4.3,0l15.7-1.9,9.4-1.6,7.1-1.9,7.7-2.2,9.8-3.9.7-.4,2.8-1.6s7.9-4.2,11.5-6.8c6.1-4.6,12.2-9.2,17.8-14.4,1.9-1.8,3.8-3.6,5.6-5.5,1.8-1.8,3.5-3.6,5.3-5.3.3-.3.7-.6.8-1,.6-1.5,1.7-2.4,2.8-3.5.7-.8,1.5-1.5,2.1-2.4,1.2-1.9,3-3.3,4.5-4.8s2.4-2.6,3.4-4.1c1.9-2.6,3.6-5.4,5.4-8.1,2.4-3.6,5-7.1,7-10.8,2.2-4,4.3-8.1,6.6-12,1.9-3.4,3.9-6.8,5.4-10.3,2.5-5.9,5-11.8,7.3-17.8,2.4-6.4,4.3-12.9,6.1-19.5,1.3-4.9,2-9.9,3.9-14.7.2-.6.3-1.3.4-1.9.7-4,1.4-8,2-12,.6-3.8,1.1-7.6,1.7-11.4.4-2.6.8-5.2,1-7.8.3-3.6.5-7.2.6-10.8v-3l-.3-.2Z"/>
      </g>
    </g>
  </g>
</svg>