<?xml version="1.0" encoding="UTF-8"?>
<svg xmlns="http://www.w3.org/2000/svg" xmlns:xlink="http://www.w3.org/1999/xlink" version="1.1" viewBox="0 0 512 512">
  <defs>
    <style>
      .cls-1 {
        mask: url(#mask);
      }

      .cls-2 {
        fill: #fff;
        fill-rule: evenodd;
      }
    </style>
    <mask id="mask" x="74.5" y="16" width="362.9" height="480" maskUnits="userSpaceOnUse">
      <g id="mask0_4191_12086">
        <path class="cls-2" d="M74.5,16h362.8v480H74.5V16Z"/>
      </g>
    </mask>
  </defs>
  <!-- Generator: Adobe Illustrator 28.7.1, SVG Export Plug-In . SVG Version: 1.2.0 Build 142)  -->
  <g>
    <g id="Layer_1">
      <g class="cls-1">
        <path class="cls-2" d="M316.6,291.6h0s.6-50.2.6-50.2h0c45.8,5.9,83.5,12.4,83.6,23.4,0,12.6-34.4,22.3-84.2,26.8ZM281.7,205.9l-.8,87.8h0c0,0,0,0,0,0-8.4.3-17,.4-25.8.4s-18.1-.2-26.7-.5h0s.4-10.9.4-10.9c-.2-5.2-.2-10.6-.2-16.2,0-25.1,1.3-54.6,1.7-85.6h0c0,0,0,0,0,0,22.5,2.3,51.6,8.4,51.6,24.5v.4ZM227.5,96.9h0c0,0,0,0,0,0,31.9,3.1,59.9,10.7,62.3,28,.3,2.2.4,4.4.4,6.4,0,31.9-34.7,42.8-60.1,46.5h0s0,0,0,0c0-4.6,0-9.3,0-14,0-22.1-.6-44.7-2.7-66.8ZM193.7,241.4c0,13.4-.3,28-.7,44l.2,6.1h0c0,0,0,0,0,0-49.2-4.5-82.7-14.2-82.7-26.7,0-11.3,41.6-17.2,83.2-23.5h0s0,0,0,0ZM334.8,240.8c-5.7,0-11.6.1-17.5.4h0l.5-43.5c0-19.7-19.8-23.5-35.3-23.5s-10.7.5-14,.9h0c0,0,0,0,0,0h0s0,0,0,0c13.9-2.5,60-13.9,60-55.1s0-2.6-.1-3.9c-1.7-25.1-28.7-39.4-74.5-39.4s-16.3.4-25.3,1.3c-1,0-2,.2-3,.3h0s0,0,0,0c-2.9-21.7-7.3-42.7-14-62.2-8.5,26.3-13.4,47-16.2,66.3-18.9,3.2-35.1,6.9-46.5,9.9-9.7,2.5-16,4.5-17.7,5,3.5-.3,26.8-2.2,54.5-2.2s5.3,0,8.1,0h0,0c-1.2,12.7-1.6,25.1-1.6,38.6,0,26.6,1.6,57.3,1.6,101.5s0,4,0,6h0c0,0,0,0,0,0-5-.2-10-.3-14.8-.3-28.7,0-54.7,2.9-73.7,8.1-18.9,5.1-30.7,12.4-30.7,21v.3c.5,16.5,49.9,31.8,119.2,37.7l2.9,93.2,4.8-62.9c0-3.9,1.6-5.8,3.1-5.8s3.2,1.9,3.2,5.4l2.1,83.1,5.1-67.4c0,0,0-.1,0-.2,0-4.5,1.6-6.7,3.2-6.7,1.6,0,3.1,2.1,3.1,5.9v.4l2.3,85.9,4.2-129h0c8.9.3,18,.5,27.3.5s17.4-.1,25.9-.4h0l4.1,131.8,3.5-68.4c0-4.5,1.5-6.6,3.1-6.6s3,2.1,3,6h0s3.6,96.4,3.6,96.4l3.6-83.1c.1-4.1,1.8-6.1,3.6-6.1,1.8,0,3.5,2.1,3.6,6.1l2.9,109.8,4.4-187.8v-.2c70.2-5.8,121-21.1,121-37.6-.7-16.5-46-29.6-102.6-29.6Z"/>
      </g>
    </g>
  </g>
</svg>