<?xml version="1.0" encoding="UTF-8"?>
<svg xmlns="http://www.w3.org/2000/svg" xmlns:xlink="http://www.w3.org/1999/xlink" version="1.1" viewBox="0 0 512 512">
  <defs>
    <style>
      .cls-1 {
        mask: url(#mask);
      }

      .cls-2 {
        fill: #fff;
      }

      .cls-2, .cls-3 {
        fill-rule: evenodd;
      }
    </style>
    <mask id="mask" x="60.5" y="16" width="391.1" height="480" maskUnits="userSpaceOnUse">
      <g id="mask0_4191_12485">
        <path class="cls-2" d="M60.5,16h391.1v480H60.5V16Z"/>
      </g>
    </mask>
  </defs>
  <!-- Generator: Adobe Illustrator 28.7.1, SVG Export Plug-In . SVG Version: 1.2.0 Build 142)  -->
  <g>
    <g id="Layer_1">
      <g class="cls-1">
        <g>
          <path class="cls-3" d="M397.3,20.8l-28.6,50.7-5,40.5-51.1,91h-66.9l49.9-88.2V20.8h-51.8l-27.4,50.3-4.7,41-72.8,129.7,12.2,30.6h45.3l-20.6,52.2-38.6-41.8,4.5,61.3-66.9,2.8,53.2,37.5-37.9,56.5,61.2-20,25.2,60.6,19.2-66,68.3,17.6-44.1-50.9,54.2-44.8-56,3.5,60.6-68.4h79.7l88.3-156.5V20.8h-49.5Z"/>
          <path class="cls-3" d="M397.3,25.6v-4.8,4.8ZM148.6,426.9l-70.2,23,43.1-64.2-61-42.9,76.1-3.2-5.2-70.1,42.8,46.3,15.2-38.6h-41.5l-14.3-35.7,73.4-130.9,4.6-41,29.2-53.6h59.5v100.1l-46.5,82.2h55.8l49.2-87.7,5-40.6,30.5-54h57.1v101.2l-90.3,160h-80.4s-51.4,58.1-51.4,58.1l59.1-3.7-61.9,51.1,50.9,58.9-78.7-20.3-21.7,74.6-28.8-69.1Z"/>
        </g>
      </g>
      <path class="cls-2" d="M397.3,20.8l-28.6,50.7-5,40.5-51.1,91h-66.9l49.9-88.2V20.8h-51.8l-27.4,50.3-4.7,41-72.8,129.7,12.2,30.6h45.3l-20.6,52.2-38.6-41.8,4.5,61.3-66.9,2.8,53.2,37.5-37.9,56.5,61.2-20,25.2,60.6,19.2-66,68.3,17.6-44.1-50.9,54.2-44.8-56,3.5,60.6-68.4h79.7l88.3-156.5V20.8h-49.5Z"/>
      <path class="cls-3" d="M386.5,66.1h24.2l16.8-31.6h-23.3l-17.7,31.6Z"/>
      <path class="cls-3" d="M234.5,66.1h26c0,0,16.6-31.7,16.6-31.7h-25.1s-17.5,31.7-17.5,31.7Z"/>
      <path class="cls-3" d="M228.3,105.9h23.5c0,0,2.2-27.1,2.2-27.1h-22.7l-2.9,27.1Z"/>
      <path class="cls-3" d="M379.8,105.9h23.5c0,0,2.2-27.1,2.2-27.1h-22.7l-2.9,27.1Z"/>
      <path class="cls-3" d="M167,388.9c-6,0-10.8-4.8-10.8-10.7s4.8-10.7,10.8-10.7,10.8,4.8,10.8,10.7-4.8,10.7-10.8,10.7ZM374.8,122.2l-52.9,93.2h-127l53-93.2h-24.9l-63.9,112.8h70.9l-53.7,120.2-22.2-24.7,1.2,29.1-35.8,2,28.9,20.3-20.6,30.6,33.2-10.8,13.7,32.8,10.4-35.8,37,9.5-23.9-27.6,29.4-24.3-45.4,2,83.5-123.3h71l62.8-112.8h-24.5Z"/>
    </g>
  </g>
</svg>