<svg width="251" height="308" viewBox="0 0 251 308" fill="none" xmlns="http://www.w3.org/2000/svg">
<path d="M202.6 182.2C189.5 182.2 176.1 187.4 169 198.4H168.8L170.1 179.4C170.9 166.6 173.8 131.7 191.6 131.7C200.2 131.7 198.2 143.1 199.2 148.2C201.6 160.3 206.8 174.1 223.4 174.1C234.7 174.1 246.5 166.6 246.5 151.4C246.5 127.9 226.8 112.4 202.9 112.4C141.6 112.4 116.9 159.2 116.9 215.9C116.9 265.1 136 307.6 188.7 307.6C222.9 307.6 250.6 283.3 250.6 242.4C250.6 207.9 232.3 182.2 202.6 182.2ZM184.4 288.4C169.8 288.4 170.4 269.6 170.4 248C170.4 226.3 172.5 207.6 184.4 207.6C199.1 207.6 199.9 226.3 199.9 248C199.9 269.6 196.8 288.4 184.4 288.4Z" fill="#1D428A"/>
<path d="M0 111.4V184.4C40.9 190.4 89.8 186.4 124.3 135.9C125.7 133.8 126.6 135.3 125.7 137.1C116.1 156.7 93.2 174.9 73.5 190.4C54.5 205.3 3.69999 258.6 4.39999 305.5C4.39999 309.1 4.6 308.1 7.7 305.8C23.1 294.3 53.3 294 71.9 302.9C74.5 304.1 74.7 303.7 74.4 300.4C70.8 264 79 224.3 94.6 201.3C105.3 185.3 134.2 144.2 139.2 111.9C139.7 108.6 138 109.1 133.8 113.5C101.1 148.1 41.9 147.2 3.7 110.6C1.3 108.3 0.2 109.4 0 111.4Z" fill="#C8102E"/>
<path d="M70.9001 0L73.3001 7.5H81.2001L74.7001 12.1L77.1001 19.5L70.9001 15L64.7001 19.5L67.0001 12.1L60.6001 7.5H68.5001L70.9001 0Z" fill="#1D428A"/>
<path d="M117.5 27.2L119.9 34.6H127.9L121.4 39.3L123.8 46.6L117.6 42.1L111.3 46.6L113.7 39.3L107.2 34.6H115.2L117.5 27.2Z" fill="#1D428A"/>
<path d="M97.5003 6.20001L99.9003 13.7H107.9L101.4 18.4L103.8 25.7L97.6003 21.1L91.3003 25.7L93.7003 18.3L87.3003 13.7H95.2003L97.5003 6.20001Z" fill="#1D428A"/>
<path d="M125.2 52.9L127.5 60.3H135.5L129.1 65L131.4 72.3L125.2 67.8L119 72.3L121.4 65L114.9 60.3H122.8L125.2 52.9Z" fill="#1D428A"/>
<path d="M121.8 80.1L124.2 87.5H132.1L125.7 92.2L128.1 99.5L121.8 95L115.7 99.5L118 92.1L111.6 87.5H119.5L121.8 80.1Z" fill="#1D428A"/>
<path d="M106.8 101.7L109.2 109.2H117.1L110.7 113.9L113 121.2L106.9 116.7L100.6 121.2L103 113.9L96.5 109.2H104.5L106.8 101.7Z" fill="#1D428A"/>
<path d="M83.3 113.9L85.7 121.3H93.5L87.1 126L89.5 133.3L83.3 128.8L77.1 133.3L79.4 126L73 121.3H80.9L83.3 113.9Z" fill="#1D428A"/>
<path d="M23.4001 24.8L21.0001 32.2H13.1001L19.5001 36.9L17.2001 44.2L23.4001 39.7L29.7001 44.2L27.3001 36.9L33.8001 32.2H25.8001L23.4001 24.8Z" fill="#1D428A"/>
<path d="M42.9001 6.20001L40.6001 13.7H32.6001L39.1001 18.4L36.7001 25.7L42.9001 21.1L49.2001 25.7L46.8001 18.3L53.3001 13.7H45.3001L42.9001 6.20001Z" fill="#1D428A"/>
<path d="M14.3001 49.6L12.0001 57H4.1001L10.5001 61.6L8.2001 69L14.3001 64.5L20.6001 69L18.2001 61.6L24.7001 57H16.8001L14.3001 49.6Z" fill="#1D428A"/>
<path d="M16.8 76.7L14.4 84.1H6.5L12.9 88.8L10.6 96.2L16.7 91.6L23 96.2L20.6 88.8L27 84.1H19.1L16.8 76.7Z" fill="#1D428A"/>
<path d="M31.7 98.9L29.4 106.3H21.5L27.9 111L25.5 118.3L31.7 113.8L38 118.3L35.6 111L42.1 106.3H34.1L31.7 98.9Z" fill="#1D428A"/>
<path d="M55.3 112.9L53 120.4H45L51.5 125.1L49.1 132.4L55.3 127.9L61.6 132.4L59.2 125L65.6 120.4H57.7L55.3 112.9Z" fill="#1D428A"/>
</svg>
