<svg width="310" height="279" viewBox="0 0 310 279" fill="none" xmlns="http://www.w3.org/2000/svg">
<path d="M309.007 58.7C307.807 37.2 298.107 17.9 292.407 6.4L291.707 5L289.207 0L289.707 5.6C290.407 13.3 292.107 39.7 284.207 54.7C274.407 74.9 245.807 73 236.407 72.3L235.707 72.2C220.207 71.2 169.907 69.3 154.507 69.4C134.107 69.5 111.607 71.1 93.5075 72.5C84.7075 73.2 77.0074 73.7 71.9074 73.9C71.5074 73.9 70.9074 74 70.0074 74.1C44.7074 76.4 28.6074 69 22.4074 51.9C18.6074 41.4 18.7074 20.7 18.7074 10.7V7.8V3.6L16.7074 7.3C11.9074 16.1 3.10745 32.5 0.107451 59.7C-1.49255 91.8 15.1075 103.2 27.8075 109.1C41.0075 115.2 54.5075 116.1 59.0075 116.4H59.3075H59.2075C60.2075 116.6 61.2075 116.6 62.2075 116.7C63.6075 116.8 65.1074 116.9 66.5074 117.1C64.1074 117.5 61.0075 118.1 58.2075 118.6C55.3075 119.1 52.5075 119.6 51.0075 119.9C48.0075 120.5 35.3075 123.5 28.3075 125.9C22.4075 127.9 16.2075 130.8 16.1075 130.9L15.0074 131.4L15.8075 132.4C15.9075 132.5 18.0075 135.4 20.2075 137.6C24.7075 142 37.2075 149.9 52.3075 148.1C64.3075 146.6 70.8074 143.8 73.3074 142.5C74.1074 145.1 76.0074 151.1 77.8074 155.8C83.3074 169.3 95.6074 195.1 100.307 204C104.107 211.3 107.807 217.7 110.207 221.9L111.107 223.5C110.307 226.3 108.307 228 106.907 229.3C106.507 229.6 106.207 229.9 105.907 230.3L105.607 230.6V231C105.507 233.5 104.907 255.9 120.107 272.3L120.307 272.5L120.607 272.6C128.207 275.5 138.107 278.5 154.007 278.5C170.307 278.5 183.907 274.6 188.807 272.2L189.007 272.1L189.207 271.9C199.807 259.4 204.707 240.4 204.807 233.6V233L204.507 232.7C204.207 232.4 204.007 232.2 203.607 231.9C202.007 230.3 199.907 228.4 198.807 223.7C200.107 221.5 202.607 216.2 204.707 211.8C205.807 209.4 206.907 207.3 207.407 206.3C211.907 197.6 225.007 169.4 230.207 156.1C233.507 147.7 235.307 143.5 236.207 141.7C238.507 142.9 244.707 145.7 256.407 146.9C271.607 148.5 286.107 138.2 290.107 132.7C290.807 131.7 291.907 130.5 291.907 130.5L292.907 129.5L291.607 128.9C291.507 128.9 291.007 128.6 288.707 127.9L280.307 125L271.907 122.1C269.707 121.3 259.407 119.1 251.807 117.4L246.107 116.2L247.907 115.9C265.507 112.6 311.607 104.5 309.007 58.7Z" fill="black"/>
<path d="M4.20742 49.5C6.70742 36.4 10.9074 24.2 16.7074 12.4L16.8074 12.2H16.9074H17.0074H17.3074V12.5C17.1074 16 17.0074 19.6 17.0074 23.3C17.0074 32 17.6074 40.8 19.5074 48.7L19.7074 49.5L19.1074 49C16.6074 46.8 14.1074 44.2 11.5074 41.9C9.20742 44.5 7.00742 47.3 4.70742 49.8L4.10742 50.4L4.20742 49.5Z" fill="#CD1F43"/>
<path d="M304.508 44.1C301.108 33 298.208 21.9 292.608 11.7L292.208 11.8C292.408 15.3 292.508 18.8 292.508 22.3C292.508 30.8 291.808 39.1 290.408 47.2L290.308 47.6L290.708 47.4C293.408 46.1 296.008 44.4 298.708 43.2L305.408 48L304.508 44.1Z" fill="#CD1F43"/>
<path d="M196.308 162.5L195.808 162.8C192.008 164.4 188.208 166.1 184.108 167C181.408 167.7 178.708 168 176.108 168C167.808 168 159.908 164.5 155.008 157.1L154.808 156.8L154.608 157C153.608 157.9 153.008 158.9 152.008 159.9C146.808 165.9 139.208 168.2 131.508 168.2C125.508 168.2 119.408 166.8 114.308 164.7L113.808 164.4L114.008 164.9C117.908 175.3 120.308 186.8 120.308 198.3C120.308 203.5 119.808 208.7 118.708 213.8C118.008 217.3 116.808 221.1 115.808 224.6L115.608 225.1L116.108 224.8C127.108 218.9 140.608 216 154.108 216C166.808 216 179.508 218.7 190.108 224C191.808 224.7 193.508 225.9 195.008 226.4L195.408 226.6L195.208 226.2C192.108 217.1 190.308 207.4 190.308 197.2C190.308 197 190.308 196.9 190.308 196.8C190.308 196.1 190.308 195.5 190.308 194.9C190.308 183.8 192.608 172.9 195.908 163.1L196.308 162.5Z" fill="#CD1F43"/>
<path d="M88.3075 173.2C87.1075 171.7 86.1075 170.2 85.8075 168.3L85.7075 167.7L86.2075 168C88.2075 169.3 90.4075 169.8 92.6075 169.8C97.2075 169.8 102.008 167.6 105.708 165L105.908 164.9L106.108 165.1L106.208 165.2L106.308 165.3V165.4C105.808 170.1 104.108 175.5 99.1075 177.3C98.3075 177.5 97.6075 177.6 96.9075 177.6C93.5075 177.5 90.7075 175.6 88.3075 173.2Z" fill="#CD1F43"/>
<path d="M205.607 171.4C204.607 169.8 204.007 168.1 203.607 166.1L203.507 165.5L204.007 165.9C206.507 167.9 209.607 168.7 212.807 168.7C216.507 168.7 220.407 167.5 223.407 165.6L224.007 165.3L223.707 166C222.207 170.2 218.507 174.7 214.007 175.6C213.607 175.7 213.207 175.7 212.907 175.7C210.007 175.5 207.307 174 205.607 171.4Z" fill="#CD1F43"/>
<path d="M211.307 177.6C211.907 177.7 212.507 177.8 213.007 177.8C214.707 177.8 216.407 177.4 218.007 176.8L218.507 176.6L218.307 177.1C212.107 192.6 204.607 207.6 196.907 222.4L196.607 222.9L196.407 222.4C194.807 218.2 194.407 213.6 194.407 209C194.407 205.6 194.707 202.2 194.807 198.7C195.907 188.8 198.307 179.1 201.307 169.9L201.507 169.4L201.807 169.9C203.907 173.4 207.407 177 211.307 177.6Z" fill="#CD1F43"/>
<path d="M113.607 222.5C104.307 208.2 97.2073 193.2 90.3073 177.9L90.0073 177.2L90.6073 177.5C92.4073 178.5 94.9073 179.3 97.3073 179.3C98.9073 179.3 100.407 179 101.707 178.1C104.707 176 106.507 172.7 107.707 169.4L107.907 168.9L108.207 169.4C113.307 179.8 115.807 192.4 115.807 204.9C115.807 210.8 115.307 216.7 114.207 222.3V222.4L114.107 222.5L113.807 222.8L113.607 222.5Z" fill="#CD1F43"/>
<path d="M121.807 270.2C112.207 259.7 108.707 246.3 108.107 232V231.9L108.207 231.8C120.707 222.7 137.407 217.9 154.007 217.9C164.807 217.9 175.507 220 184.907 224.3C190.907 227 196.707 229.9 201.907 234.2L202.007 234.3V234.5C200.407 247.8 195.607 259.8 187.207 270.1V270.2H187.107C177.107 274.1 165.207 276.3 153.407 276.3C142.307 276.1 131.207 274.2 121.807 270.2Z" fill="#CD1F43"/>
<path d="M289.108 129.9C289.108 129.9 283.208 127.7 281.708 127C265.608 120.9 244.808 117.2 227.208 116.8C225.508 97.2 223.208 84.9 219.408 73.8L219.308 73.6H219.108C210.008 73.1 169.708 71.4 154.108 71.4C138.508 71.4 99.0075 73.8 89.9075 74.3L89.8075 74.5C86.2075 85.1 82.0075 98.2 80.0075 117.7C62.2075 118.8 38.2075 123.9 22.1075 130C21.0075 130.4 20.1075 130.9 19.5075 131.1C19.2075 131.3 19.0075 131.4 18.8075 131.4C18.8075 131.4 18.7075 131.4 18.7075 131.5L18.2075 131L18.4075 131.9C18.4075 132 18.4075 132 18.5075 132C21.0075 134.8 30.1075 145.7 47.0075 146.1C47.3075 146.1 47.6075 146.1 47.9075 146.1C53.4075 146.1 62.8075 145.1 69.0075 142.3C70.6075 141.6 73.5075 140.4 74.3075 140.1C74.6075 140.7 75.5075 142.3 75.9075 143.6C77.7075 148.6 79.9075 155.9 81.4075 159C83.7075 163.7 87.5075 167.5 93.8075 167.6C93.9075 167.6 94.0075 167.6 94.1075 167.6C99.7075 167.6 103.508 163.1 104.208 162.1L104.508 161.8H104.108C88.5075 161 82.1075 152.7 81.1075 140.3V140.1H80.9075C79.1075 139.8 77.9075 139.5 77.2075 139.1C76.5075 138.7 76.2075 138.2 75.9075 137.3C75.8075 136.9 75.7075 136.4 75.7075 136C75.7075 134.4 76.3075 132.8 77.4075 130.9C78.6075 129.3 80.4075 127.7 83.9075 127.7C85.4075 127.7 87.1075 128 89.3075 128.7C94.1075 130.3 98.0075 133.4 100.708 135.7C103.908 138.6 113.308 148.3 119.008 151.8C122.408 153.8 127.508 155.7 132.708 155.7C136.908 155.7 141.108 154.5 144.508 151.2C151.808 144.1 152.608 138 153.608 134.2L153.708 133.9H153.408C140.908 133.6 129.008 132.3 118.108 130.8C116.808 130.6 116.508 130.1 116.508 129.7C116.508 129.2 117.108 128.5 118.108 128.5C118.308 128.5 118.508 128.5 118.708 128.6C118.708 128.6 139.408 131.4 153.708 131.5H154.008V131.2C154.108 129.5 154.208 126.5 154.308 123.2V122.9H154.008C145.408 122.7 131.108 121.8 117.508 119.1C116.308 118.8 115.908 118.1 115.908 117.5C115.908 116.9 116.308 116.5 117.108 116.4C117.308 116.4 117.508 116.4 117.708 116.5C119.708 117 141.908 120.1 153.908 120.1H154.008H154.308V119.8C154.408 117.2 154.408 113.6 154.408 110.1V109.8H153.908C153.608 109.8 153.408 109.8 153.108 109.8C145.308 109.8 134.008 109 118.008 106.6C116.708 106.4 116.208 105.7 116.208 105.3C116.208 104.8 116.608 104.3 117.708 104.3C117.808 104.3 117.908 104.3 118.008 104.3C118.008 104.3 137.608 107.2 152.908 107.2C153.208 107.2 153.608 107.2 153.908 107.2H154.208V107C154.208 104.7 154.208 101.9 154.208 99.1V99C154.208 97.5 154.908 96.9 155.308 96.9C155.708 96.9 156.308 97.4 156.308 98.8C156.308 99.8 156.408 102.9 156.408 106.6V106.8V107.1H156.708C171.508 106.7 184.508 104.9 190.608 103.8C190.908 103.7 191.308 103.7 191.608 103.7C192.808 103.7 193.208 104.2 193.208 104.7C193.208 105.2 192.808 105.7 192.208 105.8C190.208 106.1 173.108 109.4 156.808 109.9H156.508V110.2C156.508 113.1 156.608 116.8 156.708 119.9V120.2H157.008C168.008 119.8 180.608 119.4 191.508 117C192.008 116.9 192.508 116.8 192.808 116.8C194.108 116.8 194.508 117.3 194.508 117.8C194.508 118.3 193.908 119 192.308 119.3C181.708 121.1 166.308 122.9 156.908 123H156.608V123.3C156.708 126 156.708 129.2 156.908 131.3V131.6H157.208C174.708 131.2 191.208 128.7 194.108 128.2C194.308 128.2 194.508 128.1 194.708 128.1C195.808 128.1 196.308 128.7 196.308 129.2C196.308 129.7 195.808 130.4 194.508 130.6C191.408 131 170.908 133.6 157.808 134H157.508L157.608 134.3C158.908 138.7 159.208 145.2 165.608 150.7C168.708 153.4 173.008 154.6 177.408 154.6C181.708 154.6 186.108 153.4 189.908 151.3C195.708 147.9 204.808 138 208.008 135.1C210.708 132.8 216.808 127.1 225.008 127.1C225.108 127.1 225.308 127.1 225.308 127.1C229.508 127.2 231.508 128.3 232.708 129.5C233.708 130.7 233.908 132 234.208 132.8C234.408 133.3 234.508 134 234.508 134.7C234.508 135.7 234.208 136.8 233.208 137.4C231.708 138.3 230.408 138.1 228.908 138.8L228.808 138.9V139.1C227.808 145.9 225.608 153.7 220.208 157.8C217.308 160 213.508 161.3 210.608 162C207.608 162.7 205.308 162.8 205.308 162.8H204.808L205.108 163.1C205.108 163.1 206.408 164.5 206.808 164.9C207.808 165.8 210.408 167.1 214.008 167.1C214.308 167.1 214.808 167.1 215.108 167C219.008 166.7 223.408 163.7 225.308 161.8C228.208 158.1 230.808 150.3 232.708 145.4C233.408 143.6 234.908 140.6 235.608 139C237.208 139.8 238.108 140.2 241.108 141.5C247.408 144 255.408 145.1 260.708 145.1C261.008 145.1 261.308 145.1 261.608 145.1C270.308 144.8 280.308 139.6 286.308 134C287.308 133 289.308 130.6 289.308 130.6L289.508 130.3L289.108 129.9Z" fill="#CD1F43"/>
<path d="M163.608 237.6C162.608 239.2 162.308 241 162.308 242.8C162.308 245.7 163.408 248.8 165.108 250.9C165.208 251.1 165.408 251.1 165.508 251.1C165.708 251.1 165.908 251 166.008 250.8V250.6C166.008 248.9 164.908 247.3 164.908 245.4C164.908 245 165.008 244.4 165.208 244L165.408 243.5L165.708 243.9C167.408 246.8 170.208 248.5 173.108 249.4C174.208 249.7 175.308 249.8 176.508 249.8C180.308 249.8 183.908 248.1 186.408 245C187.608 243.4 188.508 241.2 188.508 239.1C188.508 238.1 188.308 237.2 187.808 236.2C186.008 232.7 182.308 230.7 178.608 230.1C178.008 230 177.308 230 176.708 230C171.208 230.3 166.308 232.7 163.608 237.6Z" fill="black"/>
<path d="M142.707 252.3C143.007 252.3 143.407 252 143.707 251.5C145.107 249.3 146.007 246.4 146.007 243.6C146.007 241.8 145.607 240 144.607 238.4C143.107 235.5 140.107 233.3 137.207 232.3C135.607 231.8 133.807 231.5 132.107 231.5C128.007 231.5 124.007 233.1 121.507 236.4C120.507 237.7 120.007 239.3 120.007 241C120.007 241.9 120.207 242.7 120.407 243.5C121.807 247.2 125.307 250.2 129.107 250.9C130.007 251.1 130.807 251.2 131.607 251.2C136.007 251.2 139.907 249 142.707 245.2L143.007 244.9L143.207 245.3C143.307 245.6 143.407 246 143.407 246.3C143.407 247.1 143.207 247.9 143.107 248.5C143.007 249.6 142.107 250.5 142.107 251.3C142.107 251.6 142.207 251.8 142.407 252.1C142.507 252.3 142.607 252.3 142.707 252.3Z" fill="black"/>
<path d="M122.808 266.9C132.408 262.8 143.908 260.5 155.308 260.5C164.008 260.5 172.508 261.8 180.108 264.7C182.008 265.6 184.108 266.2 186.008 266.8C186.508 266.2 186.708 266 187.008 265.5C177.708 260.9 166.608 258.8 155.508 258.8C143.608 258.8 131.808 261.2 121.808 265.7C122.208 266.2 122.408 266.5 122.808 266.9Z" fill="black"/>
<path d="M131.107 195.8C136.807 203 145.507 206.1 154.207 206.2C157.407 206.2 160.707 205.8 163.807 205C178.407 200.9 187.207 185 190.307 171C189.907 170.6 189.507 170.5 188.907 170.3C187.107 178.5 183.507 186.6 178.407 193.4C172.207 200.9 163.107 204.7 154.007 204.7C150.807 204.7 147.607 204.2 144.607 203.2C131.207 199 124.307 184.3 123.007 171C122.507 171 122.007 171 121.607 171.3C122.707 180.6 125.407 188.8 131.107 195.8Z" fill="black"/>
<path d="M22.3077 58C30.0077 72.8 45.5077 77.6 61.2077 76.9C70.0077 76.8 78.5077 75.9 87.2077 75.3V75.9C82.8077 88.4 79.9077 101.1 78.1077 114.1C55.3077 115 31.9077 113.1 15.1077 97.9C3.70769 86.3 0.707685 70.4 3.20768 54.6C5.90768 51.4 8.70769 48.6 11.6077 45.4C15.3077 49.4 21.3077 52.5 22.3077 58Z" fill="white"/>
<path d="M305.807 51.3C306.407 53.5 306.507 55.7 306.707 58.1C307.807 75.7 300.207 91.8 285.207 100.7C268.907 110.6 249.907 114 229.907 114.5C229.607 112.7 229.307 110.4 229.107 108.4C227.507 96.9 225.407 85.2 222.107 74.1C243.607 73.8 269.807 79.6 284.007 59.7C285.907 56.9 287.807 54.4 289.507 51.5C292.707 50.1 295.707 48 298.807 46.4C301.207 47.8 303.207 49.8 305.807 51.3Z" fill="white"/>
<path d="M224.108 140.1C224.208 146.8 222.008 153.8 216.108 157C213.208 158.6 210.008 159.2 206.808 159C206.708 158.4 206.508 157.7 206.708 156.9C211.608 157.1 216.308 155.3 219.008 151.2C220.808 148.2 221.508 144.9 221.508 141.2C222.208 140.7 223.108 140.3 224.108 140.1Z" fill="white"/>
<path d="M102.707 158.4C101.807 158.6 101.407 158.7 99.8075 158.4C91.9075 158.4 83.6075 152.1 84.1075 141.4C85.1075 141.1 86.1075 141.1 87.0075 141.5C87.0075 147.6 89.4075 155.9 102.407 155.9C103.307 157.2 102.407 157.4 102.707 158.4Z" fill="white"/>
</svg>
