<svg width="289" height="321" viewBox="0 0 289 321" fill="none" xmlns="http://www.w3.org/2000/svg">
<path d="M288.6 150.7C288.6 112.2 273.6 76 246.3 48.8C222.9 25.3 192.7 10.8 159.9 7.4C159.1 6.6 158.2 5.9 157.4 5.4C145.9 -2.1 136.3 3.5 129.6 6.7C129.2 6.9 128.5 7.1 127.9 7.6C115.4 9.1 103.2 12.2 91.8 16.5C90.5 14.5 88.9 12.6 87.1 10.8C80.2 3.9 70.9 0 60.9 0C40.6 0 24 16.5 24 36.9C24 45.4 26.9 53.6 32.2 60C12.1 84.7 0 116.3 0 150.8C0 189.3 15 225.5 42.3 252.7C55.6 266 71 276.4 87.9 283.6C86.9 291.2 88.2 296.3 89.6 298.5C87.5 300.3 86.6 301.4 86.2 303.4C82.8 308 91 313.8 94.4 316.4C101.2 321.7 104.8 320.8 110.3 320.5C116.9 320.2 123.2 312.5 126.6 307.4C133.8 306.4 135.1 307.5 135.3 308.4C137.5 308.1 140.7 307.5 144.9 305.7C154.6 301.7 151.7 296.8 150.8 295.9C150.5 295.7 150.4 295.3 150.1 294.9C172.9 294 194.9 287.9 214.4 276.9C215.1 277.7 215.9 278.6 216.5 279.6C218.6 282.7 219.7 292.9 220.2 298C220.6 303.3 221.5 306.8 224.1 315C226.7 323.3 227.7 317.2 227.8 315C227.9 312.8 228.4 304.7 228 298.9C227.7 293.1 227.6 284.8 228.7 281.2C229.8 277.6 227.8 276.7 227.2 276.1C226.6 275.4 227.2 275.2 225.7 270.7C225.6 270.4 225.5 270.3 225.5 269.9C232.9 264.9 239.7 259.2 246.2 252.7C273.6 225.4 288.6 189.2 288.6 150.7Z" fill="black"/>
<path d="M130.9 288.1C129.2 286.6 126.5 284.7 126.1 284.4C125.8 284.1 124.8 284.5 124 284.8C124 284.8 124.7 285.1 125.2 285.8C126 286.6 128.2 288.3 129.1 289.2C130 290 129.7 291 129.4 291.7C129.3 292.4 130.4 291.6 131.7 290.8C133.1 290 132.6 289.5 130.9 288.1Z" fill="#BB9753"/>
<path d="M125.2 293.7C124.3 294 123.3 293.7 122.7 293.1C122 292.4 118.3 289.3 117.7 288.6C117 287.9 117.1 287 117.7 286.6C116.5 286.7 115.7 286.7 114.8 286.7C114 286.8 112.7 286.8 113.7 287.8C114.6 288.7 119.6 293.4 120.5 294.3C121.4 295.2 122.3 295.2 123.2 295C124.1 294.9 126.2 293.4 125.2 293.7Z" fill="#BB9753"/>
<path d="M143.7 106.8C144.1 105.7 145 103.4 145.7 101.7C144.1 101.7 141.9 101.9 140.6 101.9C139.4 101.9 139.8 103.7 139.6 104.8C139.4 106.1 141.7 105 141.4 106.7C141.3 107.4 143.3 107.9 143.7 106.8Z" fill="#BB9753"/>
<path d="M111.8 264.6C111.5 264.6 110.7 264.5 110.3 264.3H110.1L109.3 264.2C109.7 264.5 110 265.2 109.4 265.5C108.5 266.1 105.6 266.5 102.6 266.3C99.6 266.2 98.9 264.5 98.8 263.4C98.8 262.7 98.9 262.1 98.9 260.9C98.9 259.7 98.6 258.8 99.2 258.3C99.9 257.9 99.8 259 100.2 259C102.1 259 108.7 259.7 110.3 259.9C111.9 260 111.8 259.2 111.4 258.1C111.3 257.8 111 257.9 111.2 258.1C111 258.7 109.5 258.4 109.5 258.4C109.5 258.4 106.6 258.2 104.7 258.1C102.7 258 101.2 257.8 100.1 257.5C99 257.3 97.5 257.3 97.6 257.8C97.7 258.4 97.9 265.3 98 266.3C98 267.3 98.1 267.6 98.6 267.6C99.8 267.6 108.4 267.7 110.4 267.7C112.4 267.7 112.2 267.5 112.3 266.4C112.5 265.5 112.2 264.6 111.8 264.6Z" fill="#BB9753"/>
<path d="M121.6 48.3C122.2 49 122.8 49.5 123.6 50.1C124.9 48.6 126.2 47.4 127.5 46.2C127.5 46.2 127.5 46.2 127.5 46.1C128.3 45.3 129.2 44.4 130.2 43.4C133.1 40.7 135.9 38.5 139.1 36.4C140.9 35.3 142.3 34.2 144 33.2C144 33.1 144 33.1 144 33C145.9 31.9 147.2 31.2 147.2 31.2C147.2 31.2 149.1 30.4 151.6 29.3C154.4 28.3 157.7 27.4 162 26.5C162.3 25.5 162.3 23.1 162.1 22.3C162 19.2 158.6 16.2 158.6 16.2C158.9 16 158.4 14.4 158.2 13C154.3 14.1 149.3 16.2 144.9 18.4C144.2 18.7 144.2 18.7 142.6 19.6V19.5C141.8 19.8 140.9 20.4 140.3 20.7C139 21.4 136.9 22.6 134.8 24.2C131.7 26.3 127.9 29.1 124.4 32.2C122.4 33.9 118.9 38.1 118.9 38.1C118.3 38.9 117.8 39.6 117.4 40.3C117.7 41.1 117.8 41.8 118.1 42.4C118.4 43.3 119.6 46.6 121.6 48.3Z" fill="#BB9753"/>
<path d="M137.4 101.9C134.9 100.8 132.7 98.1 131.1 95.1C131.1 95.1 131.2 94.7 130.5 94.7C129.8 94.7 127.4 94.5 123.2 93C119 91.5 118.5 92.4 117.9 94.2C117.3 96 116.9 99.2 116.8 104.6C116.7 110 119 113.3 120.5 112.8C121.2 112.5 123 111.7 125 110.7L130.5 108.4C132.8 107.6 135.5 106.1 136.4 105.5L137.9 105.6C138.1 103.5 138 102.3 137.4 101.9Z" fill="#BB9753"/>
<path d="M168.9 93.2C165.2 93 160.9 93.6 156.8 95.3L154.8 95.9C153.7 96.5 152.3 97 151.3 97.7C145.6 101.2 145.4 104.2 146.7 105.2C147.8 106.2 150.4 106.7 154.5 109.3L156.1 110.8L156.2 110.9C162.3 115.4 163.8 112.9 164.8 110.8C165.7 108.7 167.7 102.4 168.3 99.1C168.6 96.9 169.1 94.9 168.9 93.2Z" fill="#BB9753"/>
<path d="M129 126.4C128.1 124.4 127.9 126 125.3 129.9C124.1 131.9 117.6 139.1 117.1 139.6C111.4 146.6 100.4 155.4 100.4 155.4C95.5001 159.9 92.8001 163.2 91.1001 165.9L97.5001 186C100.3 189.9 104.3 195.5 105.8 197.8C108 201.5 108 206 108.9 205.3C109.8 204.6 111.9 202.6 112.6 202.1C113.3 201.5 113.9 200.9 113.6 199.6C113.3 198.4 111.9 191.8 112.4 187.2C112.8 181.9 115.3 176.2 117.1 173C118.9 169.8 123.9 159.7 125.3 157C126.5 154.3 128.8 151.2 129.3 148.7C129.8 146.2 132 140.5 132.9 137.9C132.9 136.3 131.4 131.8 129 126.4Z" fill="#BB9753"/>
<path d="M182.1 185.3C182.1 182.7 180.6 180.7 177.7 175.9C174.8 171.2 174.2 169.2 173.8 164.3C173.5 161.2 173.8 157.1 174.1 153.2L165.7 144.8L165.5 137.4L165.2 135.8C162.9 124.7 168.2 111.5 169.7 107.9C171.3 104 177.2 93 179.4 89.7C178.3 89.1 175.4 87.7 173.7 86.8C172 85.9 171.2 85.6 170.8 86.2C170.4 86.8 169.8 87.2 169 88.2C167.4 90.4 168.8 90.1 169.2 90.1C169.6 90.1 171.5 92.6 171.9 93.1C172.2 93.7 171.9 94.1 171.1 95.9C170 98.2 169.4 103.6 168.6 106.9C165.9 116.6 161.8 115.7 159.8 114.4C157.9 113.2 157.3 115.1 155.4 117.8C155 118.5 153.9 119.9 152.4 121.5L150.7 124.1L140.2 134.2C140.2 134.2 136.6 137.9 135.5 138.4C134 140.9 132.8 143.9 131 149.2C128.5 156.7 123 166.7 120.6 170.6C114.6 180.3 113.6 189.4 114.5 195.1C115.4 200.7 116.2 200.4 117.4 200.4C118.6 200.4 121.6 204.2 123.5 206.5C125.5 208.8 126.3 207.8 127.3 207.1C130.5 204.6 137 200.4 146.2 196C150.1 194.2 155.3 192.1 160.3 190.6L165.4 189C170.2 187.7 174.5 186.9 176.7 187.1C180 187.3 182.3 188.2 182.1 185.3Z" fill="#BB9753"/>
<path d="M110.3 285.3C115.7 285.1 123.2 283.4 126.5 281.9C126.9 282 127.6 282.5 128.8 282.9C129.2 279.3 127 271.8 125.7 268.5C124.8 266.3 124 264.7 123 262.4C120 261.8 116.2 260.2 113.6 259.2C113.6 261.3 113.9 266.8 114.5 270.5C113.4 270.6 111.8 270.7 109.9 270.7C110.2 274.6 110.5 281.9 110.3 285.3Z" fill="#008348"/>
<path d="M211.1 273.4C210.1 272.4 212.3 269.3 213.3 263.6C214.3 257.8 214.4 248.2 210.2 242.6C208.2 240 207.1 238.2 206.8 237.1C193.6 246.7 178.5 253.1 162.4 255.8C162.2 256.1 162.1 256.5 161.8 256.7C159.5 259.7 155 264.1 151.5 265.8C148.1 267.6 144.2 268.9 142.1 269.6C141.7 273.2 141 281.1 142 283.8C142.3 284.8 146.5 287.3 147.9 289.9C148.1 290.2 148.2 290.5 148.2 290.7C170.9 290 192.4 283.9 211.1 273.7C211.4 273.5 211.3 273.4 211.1 273.4Z" fill="#008348"/>
<path d="M243.4 51.6C221.5 29.7 193.5 15.8 163.3 11.8C165.8 16.6 166.1 22.2 166.3 25.7C170.7 23.8 173.9 22.8001 175.8 19.9001C177.6 17.0001 180 17.6 181.6 19.7C183.2 21.8 183.2 24.4 179.1 27.1C175 29.7 171.9 30.9001 171.1 31.3001C170.2 31.7001 171 32.5 172 34.2C173 35.9 175.6 40 175.9 48.7C175.9 48.8 175.9 48.9 175.9 49C192.2 54 207.3 63 219.7 75.5C239.8 95.6 250.9 122.4 250.9 150.8C250.9 167.1 247.2 182.9 240.4 197.2C241.4 197.6 242.5 200.9 243 205.1C243.2 207.3 243.1 209.8 242.4 211.2C241.7 212.8 236.5 220.7 233.8 223C232.8 223.9 230.4 223.8 229.4 222.3C228.4 220.8 228.3 221.6 227.5 222.4C226.7 223.2 224 227.1 223.4 228.1C222.7 229.1 220.5 230.1 221.9 234.1C223.4 238.1 225 241.1 224.5 243.4C223.9 245.6 223.7 246.3 226.7 248.8C229.7 251.3 229.6 254.5 228.3 256.4C227.4 257.6 226.2 261.1 225.6 264.4C261.1 238.9 284.4 197.3 284.4 150.4C284.6 113.3 269.9 78.1 243.4 51.6Z" fill="#008348"/>
<path d="M82.5997 254.1C82.2997 250.3 81.5997 243.5 84.2997 238.7C78.8997 235 73.8997 230.8 69.0997 226.1C48.8997 205.9 37.8997 179.1 37.8997 150.7C37.8997 120.2 50.7997 92.8001 71.2997 73.3001C71.4997 73.0001 71.6997 72.5001 72.0997 72.2001C68.5997 73.3001 64.8997 73.9001 61.0997 73.9001C51.3997 73.9001 42.0997 70.1001 35.0997 63.2001C15.1997 87.9001 4.19971 118.6 4.19971 150.8C4.19971 188.2 18.7997 223.5 45.1997 249.8C57.7997 262.4 72.5997 272.4 88.5997 279.4C89.1997 276.4 90.1997 273.1 91.4997 269.7C92.6997 266.5 90.7997 259 87.6997 255.1C86.1997 254.5 83.9997 254.2 82.5997 254.1Z" fill="#008348"/>
<path d="M119.7 12.9C110.9 14.5 102.2 16.8 93.9995 20.1C96.6995 25.2 97.9995 31.1 97.9995 37C97.9995 44.9 95.4995 52.4 90.9995 58.8C98.6995 54.3 107.1 50.8 115.7 48.3C116.3 47.7 116.8 47.2 117.5 46.7C114.3 41.3 110 32.7 113.7 21.2C114.7 17.8 117.1 15.1 119.7 12.9Z" fill="#008348"/>
<path d="M71.4998 104.7C69.9998 104.3 68.8998 105.9 68.2998 107.3C67.5998 108.6 66.7998 110.1 68.9998 113.1C71.0998 116.1 72.3998 117.9 76.1998 117.7C77.9998 117.6 79.5998 116.2 80.0998 115.5C80.5998 114.8 80.7998 116.1 79.8998 117.4C78.9998 118.7 78.2998 121.9 79.9998 124C81.6998 126.1 85.0998 127.9 89.6998 125.2C94.2998 122.5 96.1998 119.3 96.9998 117.8C97.7998 116.3 97.7998 115.7 96.9998 114.8C96.1998 113.9 93.5998 109.7 93.0998 101.4C92.7998 96.4 93.6998 93.1 90.5998 91.3C87.4998 89.5 80.2998 85.3 79.4998 77.1C79.1998 74 79.3998 69.2 76.2998 71.7C73.1998 74.3 73.1998 76.1 72.7998 77.8C72.4998 79.7 73.9998 82.3 75.2998 83.9C76.5998 85.7 78.1998 89.6 79.3998 90.6C80.5998 91.6 81.3998 92.4 82.3998 92.5C83.3998 92.6 87.3998 92.6 88.3998 92.9C89.3998 93.2 89.9998 94.5 87.4998 94.5C84.9998 94.5 81.3998 95.2 79.5998 95.4C77.8998 95.6 76.3998 95.7 75.6998 99.1C74.8998 102.5 73.7998 106.4 73.6998 107.6C73.5998 108.8 72.8998 109.5 72.8998 110.2C72.8998 110.9 74.1998 114.1 77.2998 110.9C80.3998 107.7 81.4998 104.4 82.0998 102.9C82.6998 101.3 83.2998 101.6 82.7998 104C82.1998 106.5 82.0998 112.6 83.1998 114.7C84.3998 117 86.9998 119.4 90.1998 117.7C90.8998 117.4 91.9998 116.8 92.8998 116.9C93.7998 117 92.6998 118.6 91.8998 119.2C91.0998 119.9 88.4998 122.7 84.0998 118.6C82.9998 117.6 81.3998 115.4 81.0998 112.6C80.9998 111.7 79.7998 111.4 79.1998 112.2C78.5998 113 75.5998 115.8 73.4998 113.8C71.3998 111.8 70.4998 110.7 71.6998 106.4C71.5998 105.7 71.9998 104.9 71.4998 104.7Z" fill="#F9A980"/>
<path d="M73.7996 98.5C73.3996 100 72.8996 101.9 72.6996 102.4C72.4996 103.1 71.4996 104.5 70.5996 102.6C69.6996 100.7 69.6996 99.2 71.1996 97.8C71.5996 97.4 72.2996 96.5 72.7996 96.9C72.9996 97.6 73.7996 98.1 73.7996 98.5Z" fill="#F9A980"/>
<path d="M78.7998 93.3001C77.8998 93.7001 75.8998 93.7001 75.1998 95.3001C74.7998 96.3001 72.9998 95.2001 73.8998 94.0001C74.7998 92.8001 75.4998 92.9001 75.9998 92.5001C76.5998 92.2001 76.7998 91.2001 77.8998 91.7001C78.8998 92.4001 79.0998 93.2001 78.7998 93.3001Z" fill="#F9A980"/>
<path d="M139 73.1001C138.4 74.4001 136.7 75.8001 132.9 75.4001C131 75.2001 129 75.1001 128.8 76.6001C128.6 77.7001 127.7 77.6001 126.5 77.6001C125.3 77.5001 123.8 77.3001 123.8 77.7001C123.7 78.1001 129.2 81.5001 131.1 82.3001C132.9 83.2001 135.7 85.1001 137.8 84.9001C140.7 84.6001 143.2 83.1001 147.5 78.6001C149.3 76.8001 150.7 75.8001 149.1 75.0001C148 74.6001 146.8 74.3001 145.3 74.3001C143.5 74.3001 140.4 74.1001 139 73.1001Z" fill="#F9A980"/>
<path d="M118.2 73.2001C116.6 73.1001 116.5 72.1001 117.5 70.4001C118.5 68.7001 119.4 67.2001 120.7 66.2001C120.9 66.9001 121.4 67.9001 122 68.2001C121.1 69.2001 120 70.3001 120.2 72.7001L118.2 73.2001Z" fill="#F9A980"/>
<path d="M178.6 60.5001C176.3 56.3001 172.3 58.4001 170.4 61.5001C168.5 64.6001 166.4 68.1001 166.3 73.3001C165 72.9001 163.6 73.3001 162.9 74.4001C162.6 75.0001 157.6 74.3001 156.1 74.7001C154.4 75.1001 153.9 74.1001 155.7 71.8001C157.5 69.5001 163.7 61.0001 163.3 54.7001C163.2 52.8001 163.4 52.5001 163.7 51.0001C164 49.2001 164.3 49.2001 161.9 47.9001C160.4 47.1001 160.3 44.8001 160.1 43.0001C159.8 41.1001 159.4 41.1001 157.3 41.5001C156 41.7001 153.3 40.0001 152 38.1001C148.9 38.4001 146 40.3001 143.1 42.3001C140.2 44.3001 129.9 53.3001 127.3 55.0001C129.8 56.3001 130.5 58.9001 129.6 63.5001C129.4 64.5001 129.6 64.8001 130.3 64.2001C131 63.5001 134.1 60.3001 134 57.5001C133.9 54.8001 132.7 53.3001 132.4 52.9001C132.2 52.6001 133.3 51.2001 134.5 54.0001C135.7 56.8001 135.4 60.7001 131.7 65.1001C128 69.5001 125.1 69.3001 123.5 70.1001C121.9 70.9001 120.4 72.1001 121.8 74.5001C123.2 76.9001 126 76.0001 127.2 75.2001C128.3 74.4001 129.9 73.5001 133.3 73.9001C136.9 74.2001 138 72.0001 135.6 69.5001C134.8 68.7001 132.8 67.0001 135.3 67.0001C136.8 67.0001 138.5 70.2001 139.5 71.1001C140.5 72.0001 142.7 72.3001 145.6 72.6001C148.6 72.8001 153.2 73.9001 153.2 76.8001C153.2 78.6001 152.2 79.1001 151 77.7001C150.6 77.1001 149.8 78.0001 149.2 78.6001C147.3 80.5001 142.4 85.6001 139 86.5001C135.5 87.4001 134.3 86.4001 129.7 84.0001C125.1 81.5001 120.9 79.1001 119.6 78.3001C118.4 77.5001 115.8 75.7001 117 79.3001C118.2 82.9001 121.2 86.6001 127.3 88.6001C133.3 90.6001 134.1 91.3001 135.6 92.0001C136.9 92.7001 136.2 93.3001 134.4 93.1001C132.8 92.9001 131.2 91.5001 132.5 94.6001C133.8 97.6001 135.9 100.9 142 100C148.1 99.2001 148.3 98.0001 152.2 91.5001C152.9 90.4001 153.5 91.2001 153.1 94.1001C156.1 92.6001 157.8 92.2001 159.6 91.8001C161.4 91.4001 166 89.8001 169.1 84.1001C170.7 81.2001 171.6 80.2001 171.2 77.3001C171.1 76.2001 172.8 73.9001 174.4 72.4001C176.4 70.6001 180.8 64.7001 178.6 60.5001ZM151.8 66.1001C152.4 66.2001 152.4 66.2001 152.2 66.2001C150.3 66.2001 147.5 65.6001 145.4 64.2001C143.3 62.7001 142.7 62.1001 142.9 60.1001C143.1 58.9001 143.2 58.2001 143.2 57.6001C143.3 57.3001 143.3 57.0001 143.3 56.7001C143.5 55.7001 143.4 55.0001 143.1 54.8001C142.9 54.6001 142.8 54.5001 142.4 54.5001C142.1 54.5001 141.4 54.8001 140.6 55.4001C139.5 54.5001 138.3 53.6001 137.5 52.8001C136.8 52.2001 136.4 51.8001 136.2 51.7001C136 51.5001 135.8 51.4001 135.6 51.0001C135.6 50.8001 135.7 50.6001 135.9 50.2001C136.1 50.0001 136.2 50.0001 136.6 50.0001H136.7H136.8C137 50.0001 137.4 50.0001 137.6 49.7001C137.8 49.4001 137.9 48.9001 137.8 48.2001C137.8 48.2001 137.9 48.1001 138.4 48.1001C138.5 48.1001 138.7 48.1001 138.7 48.1001C138.9 48.1001 139 48.1001 139 48.1001C139.3 48.1001 139.4 48.1001 139.6 48.0001C139.9 47.9001 139.9 47.7001 139.9 47.4001C140 47.1001 140 47.1001 140.3 47.1001C140.5 47.1001 140.7 47.1001 141.2 47.2001C141.3 47.2001 141.3 47.2001 141.4 47.2001C141.7 47.2001 142 46.9001 142.1 46.8001L142.2 46.7001C142.3 46.5001 142.5 46.4001 142.8 46.4001C142.9 46.4001 143 46.4001 143.1 46.4001C143.4 46.5001 143.7 46.5001 143.9 46.6001C144.2 46.7001 144.5 46.8001 144.8 46.8001C145.5 46.8001 145.7 46.4001 145.8 45.9001C146 45.1001 146.1 44.9001 146.5 44.9001C146.8 44.9001 147.2 45.1001 147.6 45.3001C148 45.6001 148.5 45.6001 148.7 45.6001C149.1 45.6001 149.6 45.3001 149.7 44.7001C149.7 44.7001 149.7 44.6001 149.9 44.6001C150.2 44.6001 150.8 44.8001 151.5 45.2001L151.8 45.4001C152.9 46.0001 155 47.2001 157.5 50.1001C158.1 50.8001 158.3 51.2001 158.2 51.3001C158.2 51.3001 158.1 51.3001 158 51.3001C157.7 51.4001 157 51.5001 156.9 52.4001C156.8 52.8001 156.7 53.3001 156.6 53.3001C156.6 53.3001 156.5 53.2001 156.4 53.0001C156.2 52.7001 156.1 52.4001 155.7 52.4001C155.6 52.4001 155.6 52.4001 155.5 52.4001C155.5 52.4001 155.4 52.3001 155.4 52.1001C155.3 51.9001 155.2 51.5001 154.7 51.5001C154.5 51.5001 154.4 51.6001 154.3 51.7001C154.3 51.7001 154.3 51.7001 154.2 51.7001C154.1 51.5001 154 51.1001 153.5 51.1001C153.4 51.1001 153.3 51.1001 153.2 51.1001H153.1C153.1 51.1001 153.1 51.0001 153 50.9001C152.9 50.7001 152.8 50.6001 152.6 50.6001C152.4 50.6001 152.3 50.7001 152.2 50.7001C152 50.8001 151.9 50.8001 151.8 50.8001C151.7 50.8001 151.7 50.8001 151.7 50.7001C151.5 50.4001 151.4 50.4001 151.3 50.4001C151.1 50.4001 151 50.5001 150.7 50.6001C150.6 50.7001 150.4 50.8001 150.4 50.8001C150.4 50.8001 150.3 50.8001 150.2 50.7001C150.1 50.6001 149.9 50.4001 149.8 50.4001C149.5 50.4001 149.5 50.6001 149.2 50.7001L149.1 50.8001C149 51.0001 148.9 51.0001 148.8 51.0001C148.8 51.0001 148.7 51.0001 148.6 51.0001C148.5 50.9001 148.3 50.9001 148.3 50.9001C148 50.9001 147.7 51.2001 147.6 51.2001C147.5 51.4001 147.5 51.4001 147.5 51.4001C147.5 51.4001 147.4 51.4001 147.3 51.3001C147.2 51.2001 147 51.2001 147 51.2001C146.6 51.2001 146.3 51.5001 146.2 51.9001C146.1 52.2001 146 52.2001 145.9 52.2001H145.8C145.6 52.2001 145.5 52.1001 145.4 52.1001C144.8 52.1001 144.7 52.7001 144.6 53.2001C144.6 53.3001 144.6 53.4001 144.5 53.5001C144.3 54.4001 143.9 58.2001 144.1 59.1001C144.2 60.0001 145.3 60.0001 145.8 60.0001C146.7 60.0001 147.7 59.8001 149.2 59.7001C151.9 59.4001 157 57.8001 159.6 55.7001C160.3 55.1001 160.7 55.1001 160.9 55.1001C161.1 55.1001 161.1 55.1001 161.2 55.2001C161.2 55.3001 160.9 56.1001 160.2 56.5001C160.1 56.6001 160.1 56.6001 160 56.7001C159.2 57.4001 157.3 59.2001 153.4 59.8001C149.7 60.5001 146.4 61.1001 145.1 61.1001C144.9 61.1001 144.9 61.1001 144.8 61.1001C144.7 61.1001 144.7 61.1001 144.6 61.1001C144.4 61.1001 144.3 61.2001 144.3 61.4001C144.2 61.6001 144.3 61.8001 144.6 62.1001C144.9 62.4001 145.5 62.5001 145.9 62.5001C146.1 62.5001 146.2 62.5001 146.3 62.5001C146.4 62.5001 146.9 62.8001 147.2 63.2001C148 64.0001 149.2 65.0001 150.8 65.0001C152.8 65.0001 155.6 62.9001 156.5 62.2001C156.8 61.9001 157.7 61.4001 158.3 61.3001C158.2 61.4001 158.1 61.6001 158 61.7001L157.9 61.9001C155.6 64.1001 153.7 66.1001 151.8 66.1001ZM175.7 63.7001C174.5 64.6001 173.7 64.9001 173.6 66.5001C173.5 68.1001 173.3 70.7001 172.6 71.0001C171.8 71.3001 171.9 69.5001 171.7 70.1001C171.4 70.9001 170.5 70.5001 170.1 69.8001C170 69.5001 167.2 69.5001 169.4 66.3001C171.4 63.4001 173 61.8001 174.4 61.2001C175.9 60.5001 178.5 61.8001 175.7 63.7001Z" fill="#F9A980"/>
<path d="M230.299 196.2C229.899 194.9 230.599 192.7 233.499 194.3C236.299 195.9 238.399 197.2 236.399 203.2C234.399 209.3 232.899 212.9 232.199 215.5C231.499 218.1 228.399 221.3 229.399 217C230.399 212.6 230.999 207.4 230.499 204.7C229.699 199.8 231.299 200 230.799 197.9C230.599 197.2 230.499 196.6 230.299 196.2Z" fill="#F9A980"/>
<path d="M240.9 201.4C241.7 203.9 242.6 209.3 241.2 211.6C239.9 213.8 235.7 219.9 234.2 221.5C232.6 223.1 231.4 222.4 232.4 220.7C233.4 219 234.7 216.8 234.7 216C234.7 215.2 234.6 214.3 235.9 211.8C237.2 209.3 239.6 200.7 239.8 200C240.1 199.3 240.7 200.8 240.9 201.4Z" fill="#F9A980"/>
<path d="M212.1 222C211.4 220 211.1 217.1 210 215.4C210.9 212.9 213.9 206.5 218.8 204.3C219.4 204.1 219.7 203.5 219.5 203.1C219.3 202.7 220.2 202.3 220.6 203.9C221 205.5 221.8 209.9 221.8 209.9C222 210.9 221.6 211.7 221.4 213C221.2 214.3 220.6 217.4 221 218.9C221.3 220.5 221.9 221.6 224.9 220.9C226.5 220.6 226.4 220.1 226.8 218.8C227.2 217.5 228.5 213.7 228.9 211.5C229.3 209.4 229 204.2 228.6 202.9C228.2 201.6 228.8 197 228.4 196.1C228.1 195.2 227.8 193.9 225 193C222.2 192.1 221.4 191.9 219.6 193.8C217.7 195.7 217.1 196.5 216.1 197.4C215.2 198.3 213 197.5 214.9 195.7C216.8 193.9 218.6 192.1 219.1 191.6L218.5 190.1H217.5C214.5 193.1 210.5 194.9 207.8 195.5C206.8 195.7 204.9 195.8 206.2 197.6C206.5 198 206.6 199.3 207.4 198.8C208.2 198.4 209.4 196.3 210.5 197.2C211.6 198.1 210.3 200.2 208.9 201.2C207.6 202.2 206.1 203.2 205.1 203.7C204.1 204.3 203.5 204.8 203.6 206.6C203.7 208.4 203.8 211.6 202.8 214.1C201.8 216.6 202.4 217.2 203.2 218.8C204.1 220.5 205.5 221.9 206 224.6C206.4 227.3 206.7 228 208.5 227.7C210.3 227.5 211 226.7 211.6 225.6L212.1 222Z" fill="#F9A980"/>
<path d="M147.4 28.5C149 28.7 150.6 28.6 151 27.5C151.3 26.4 151.1 25.7 150.6 25.6C150.2 25.4 149.8 25.4 150.2 24.5C150.4 23.5 151.2 23.6 151.1 22C151 20.4 149.9 20.3 148.8 20.8C147.7 21.1 147.3 21.7 146.3 22.9C145.3 24.2 145.7 22 146 21.7C146.3 21.4 146.6 18.8 145.2 18.3C144.4 18.6 143.6 19.1 142.9 19.4C142.7 19.8 142.6 20.5 142.2 21.1C141.6 22.6 141 21.4 140.4 20.8C138.9 21.6 137.6 22.4 136.6 23C136.5 23.1 136.4 23.2 136.3 23.2C136.4 24.1 137.4 25.2 138.1 25.7C138.9 26.1 138.4 27.2 137.5 27.2C136.6 27.2 135.5 26.6 134.4 28C133.3 29.3 134.1 30.6 135.1 30.6C136.2 30.6 137 30.9 137.4 32.3C137.7 33.5 138.1 34.1 139.5 34.2C141 34.3 141.8 33.2 142.2 32.5C142.5 31.8 143.1 30.8 143.8 31.2C144.7 31.5 144.6 32.4 144.2 33.5C145.3 32.9 146.3 32.4 147.4 31.7C147.2 30.7 146.6 29.9 146.3 29.5C145.7 28.6 145.9 28.4 147.4 28.5Z" fill="#008348"/>
<path d="M159.8 12.3C159.4 12.4 158.7 12.6 158.1 12.6C158.4 13.8 158.9 15.5001 158.5 15.8001C158.2 16.1001 156.8 16.2 155.9 16.6C154.9 16.9 152.5 19.1 153.8 20.7C155 22.4 155.5 23.3 155.6 24.1C155.8 25 157.8 25.9001 159.2 24.3001C160.5 22.6001 161.7 20.8 162 22C162.3 23 162.2 25.4 162 26.7C162.3 26.6 162.6 26.6 162.9 26.5C163.6 20.2 162 15.8 159.8 12.3Z" fill="#008348"/>
<path d="M129.2 42.4001C128.4 41.8001 128.2 40.8001 129.1 40.6001C130.1 40.3001 131.3 40.2001 133.7 39.0001C136 38.0001 134.8 36.3001 133.8 35.8001C132.7 35.4001 132.7 34.3001 132.7 33.3001C132.8 32.2001 132.5 30.7001 130.5 31.5001C128.5 32.3001 129.2 34.3001 128.6 35.0001C128 35.7001 127.6 35.4001 127.7 34.4001C127.8 33.4001 126.9 32.7001 126.5 32.5001C126.2 32.3001 125.3 32.2001 124.6 32.2001C122.5 34.1001 120.6 36.1001 119.1 38.1001C119.4 38.8001 120.2 39.6001 120.7 39.7001C121.3 39.9001 122 40.3001 122 41.4001C122 42.4001 119.9 42.4001 118.4 42.5001C119.4 45.2001 120.4 47.1001 121.8 48.6001C122.1 48.5001 122.6 48.4001 123 48.2001C124.8 47.4001 125.3 44.8001 125.5 44.1001C125.8 43.3001 126.5 43.5001 127.1 44.4001C127.4 45.1001 127.5 45.7001 127.5 46.4001C128.5 45.4001 129.4 44.5001 130.4 43.6001C130.1 43.0001 129.7 42.7001 129.2 42.4001Z" fill="#008348"/>
<path d="M158.8 108.9C159.1 108.8 158.2 105 159 104.8C159.7 104.6 160.1 106.9 161.6 106.7C163.2 106.4 163.5 104.9 163.4 103.1C163.2 101.3 164.2 102.3 165 101.1C165.8 99.9001 164.1 98.2 162.2 99.3C160.3 100.4 160.6 99 161.6 98.3C162.6 97.6 161.9 95.5 159.8 96.2C158.2 96.6 157.5 95.8 156.8 95.3C156.2 95.5 155.7 95.7 155.1 96C155 96.3 155.1 97.0001 155.2 97.6001C155.4 98.3001 155.6 100.1 154.5 99.4C153.4 98.7 152 98.3001 151.7 99.6001C151.4 100.8 152 100.9 152 101.7C152 102.5 149.9 102.7 150.9 104.2C151.9 105.9 153.2 105 154.1 104.3C155.1 103.7 155.9 104.4 155.7 105.3C155.4 106 154.9 108.1 154.8 109.5C155.2 109.8 155.7 110.1 156.1 110.5C156.7 110 157.7 109.1 158.8 108.9Z" fill="#008348"/>
<path d="M128.4 105C129.3 104.8 130.9 106.6 132.3 105.4C133.8 104.4 131.7 103.4 132 102.6C132.2 101.8 133 100.1 131.9 99.4001C130.9 98.6001 129.9 99.3001 128.8 100.5C127.7 101.6 128.1 99.4001 128.7 98.5001C129.5 97.3001 128.7 96.5001 127.5 96.2001C126.3 96.0001 125.8 97.8001 125 97.0001C123.7 95.8001 121.6 96.2001 122.1 98.0001C122.5 99.8001 123.2 100.3 122.1 100.5C121 100.7 120.1 98.0001 118.9 100.2C117.7 102.4 119.7 103.1 119.5 104.8C119.3 106.5 119.9 108.3 121.1 108.4C122.1 108.6 123.1 107.4 123.7 106.7C124.3 106 125.6 105.6 125.5 106.8C125.4 107.7 125.3 109.5 125.3 110.6C127.3 109.6 129.5 108.6 130.7 108.1C130.8 108.1 130.8 108.1 130.9 108C130.3 107.8 129.6 107.4 128.8 106.9C127.5 106.2 127.5 105.3 128.4 105Z" fill="#008348"/>
<path d="M103.8 155.7C106.3 154.9 106.5 156.9 106.1 158.6C105.7 160.3 105.8 163.9 105.9 165.6L110.1 165.8C109.9 164.7 110.1 161.4 110.2 159.5C110.3 157.6 112.2 154.7 112.9 157.6C113.6 160.5 116.5 160.6 118.5 159.4C120.5 158.2 122 155.5 124.1 151.7C126.2 147.9 123.4 146.9 121.8 147.1C120.2 147.3 118.4 147.5 122.2 144.4C125.7 141.5 119.7 140 117.1 139.5C112.6 144.2 107.2 149.6 102.2 153.7C101.6 154.3 101 154.8 100.4 155.3C100.9 155.8 102 156.3 103.8 155.7Z" fill="#008348"/>
<path d="M99.3999 183.8C101.5 183.1 102.9 187.7 106 185C109.1 182.3 106.9 180.1 106.8 177.8C106.7 175.5 109.3 174.7 108.5 171.9C107.4 167.7 103.4 171.7 101 174C98.4999 176.3 98.4999 174.4 100.9 170.6C103.4 166.8 99.2999 165.6 96.8999 166.6C94.6999 167.5 92.7999 166.6 91.4999 165.5C90.4999 167.1 89.7999 168.4 89.1999 169.9C87.0999 174.3 88.4999 174.4 90.0999 174.4C91.6999 174.4 94.9999 181 95.4999 182.2C95.6999 182.5 96.6998 184.3 98.2998 186.4C97.7998 185.4 97.9999 184.3 99.3999 183.8Z" fill="#008348"/>
<path d="M160.3 140C158.3 139.6 155.6 139.2 155.4 143.4C155.3 145 156.9 146.2 158.3 146.8C159.8 147.4 159.5 148.4 158 147.8C156.4 147.2 155.2 146.9 154.1 150.1C153 153.3 155 153.8 156 154C157 154.2 157.8 154.4 157.6 155.8C157.4 157.1 156.7 161.1 159.3 161.4C161.8 161.7 164.1 158.6 164.9 157C165.7 155.4 166.6 153.9 166.8 155.7C167 157.5 166.7 158.4 165.8 160.4C164.9 162.4 164.9 163.3 166.2 163.2C167.5 163.1 169.8 163.2 170.4 161.6C171 160 172.1 157 172.2 154.9C172.3 153.6 173.4 153.4 174.3 153.6C174.6 151.4 174.9 149.1 175.2 147.2C170.8 147.9 167 142.5 165.8 137.9C164.2 139.2 162 140.4 160.3 140Z" fill="#008348"/>
<path d="M139.5 139.2C138.7 140.5 136.5 144.3 137.5 145.6C138.5 146.9 139.6 144.4 140.5 145.3C141.4 146.2 143.4 147.2 143.4 146.5C143.4 145.8 143.6 144.5 144 142.7C144.3 140.9 145.1 139.9 145.9 141.4C146.7 142.9 147.8 144.1 150.6 143.4C153.4 142.7 153.1 139.8 152.5 137.7C151.9 135.6 154 134.6 155 134C156 133.4 158.6 131.4 156.7 129.6C154.8 127.8 153.1 130.4 151.4 130.7C149.7 131 150.4 129.6 153.9 126.9C156.9 124.6 154.3 122.2 152.6 121.5C147.8 126.3 139.3 134.1 137.4 135.9C136.7 136.6 136.2 137.2 135.6 138.2C139.8 136.2 140.2 137.8 139.5 139.2Z" fill="#008348"/>
<path d="M167 184C168.5 185.3 171.9 187.2 174.4 185C176.9 182.8 173.8 180.3 173.5 178.5C173.2 176.7 175.3 175.6 174.2 172.7C172.3 167.7 169.4 173.7 167.7 175.4C166 177.1 166.4 174.3 167.8 172.7C168.6 171.9 172 169.8 170 167.4C168 165.1 165.1 166.4 163.6 167.4C162.1 168.4 161.1 169.6 158.8 169C156.6 168.3 154.7 168.1 153.4 171.3C152.1 174.5 154.6 173.6 156.6 176C158.7 178.3 157.4 178.5 155.7 177.9C154 177.3 153.2 175.2 150.8 175.6C148.3 175.9 148.3 179.8 149.1 180.9C149.9 181.9 151.4 182.5 150.3 184.4C149.2 186.3 150.9 188.5 152.8 189.4C154.8 190.3 157.8 186.7 158.9 185.3C160 183.8 161.1 184.2 160.9 185.3C160.7 186.3 160.2 188.8 160.1 190.9C161.9 190.3 163.5 189.8 165.1 189.4C165.1 188.3 164.8 186.3 164.3 184.6C164.1 182 165.5 182.7 167 184Z" fill="#008348"/>
<path d="M138.1 195.8C135.4 196.6 135 195.4 133.2 194.7C131.4 194 131.3 195.6 132.5 197.5C133.7 199.4 135.1 201.2 133.6 201.2C132.1 201.2 131 201.4 130.8 202.5C130.6 203.6 128.2 202.3 127.7 200C127.1 197.7 126.6 193.2 125.4 195.4C124.2 197.6 123.1 201.3 120 199.6C116.9 197.9 119 195.7 117.4 194.2C115.8 192.6 114.4 190.6 115.9 187.8C117.4 185 118.8 187.4 120.3 187.4C121.8 187.4 122 186.1 120.6 185.1C119.3 184.1 117.6 179.3 123.7 179.7C126 179.8 128.6 179 130.5 177.6C132.5 176.1 137.8 176.9 135.6 180.6C133.5 184.3 134.1 185.1 135.4 183.7C136.6 182.4 138.2 179.9 140.5 180.6C142.8 181.3 141.8 183.1 140.4 185.1C138.9 187.1 139.8 188.5 141 189.2C142.2 189.9 144.3 194.1 138.1 195.8Z" fill="#008348"/>
<path d="M149.4 169.6C147.4 169.7 144.9 169.2 144.9 169.2C144.7 171.3 142.6 174.3 140.5 177.5C140.3 177.8 139 177.8 138.5 177.4C137.9 177 136.4 176.2 137.6 174.9C138.8 173.6 140.8 170.8 140.5 169.5C140.2 168.3 139.3 167.2 137.9 168.8C136.6 170.5 134.4 173.9 132.1 174.1C129.8 174.3 127.4 172.1 128.5 170C129.6 167.9 130 166.8 128.4 164.9C126.8 163 127.4 160.5 130.7 159.1C131.7 158.7 133.5 159.1 134.6 160.1C135.8 161.1 136.5 160.1 134.8 159.1C133.1 158.1 131.8 156.9 131.6 154.6C131.4 152.5 132.7 150.2 135.5 151.5C138.4 152.7 140.2 151.7 141.4 150.7C142.6 149.7 147.9 148.5 147.1 153C146.5 156.4 145 156.5 144.6 158.3C144.2 160.1 145.5 159 146.3 157.6C147.1 156.3 148.8 150.8 152.4 154.9C153.3 155.9 153 157.6 151.8 159.5C150.7 161.4 151.6 162.5 152.2 163.4C153.5 164.3 155 169.3 149.4 169.6Z" fill="#008348"/>
<path d="M142.1 20.9001C142.3 20.3001 142.4 19.8001 142.7 19.2001C141.9 19.5001 141 20.1001 140.4 20.4001C140.8 21.4001 141.5 22.4001 142.1 20.9001Z" fill="#BB9753"/>
<path d="M51.6001 30.4C52.4001 31.5 53.2001 31.3 53.5001 30.5C54.2001 28.8 55.5001 23.5 55.5001 19.4C55.5001 10 56.7001 6.3 59.1001 2C48.3001 2.6 38.5001 8.1 32.6001 16.5C41.7001 18.9 48.6001 26.3 51.6001 30.4Z" fill="#A73832"/>
<path d="M50.7001 35.7C51.8001 34.2 50.5001 33.4 49.9001 32.6C47.0001 28.5 40.3001 21.1 31.2001 18.7C28.0001 24.1 26.1001 30.1 26.1001 36.8C26.1001 39.8 26.4001 42.6 27.1001 45.2C44.2001 46.7 49.7001 37.1 50.7001 35.7Z" fill="#A73832"/>
<path d="M62.8001 1.69995C60.3001 5.59995 58.9001 8.59995 57.9001 18.9C56.9001 29.1 56.0001 36.2 48.6001 42.4C42.9001 47 31.7001 48.2999 28.1001 48.0999C29.8001 52.9999 32.5001 57.3999 36.0001 61.0999C46.6001 57.4999 54.3001 52.9 64.5001 43.4C74.7001 33.9 79.8001 24.1999 81.4001 20.5999C82.4001 18.2999 84.3001 15.2 83.0001 20.4C81.7001 25.5 76.9001 36.5 66.9001 45.9C57.1001 55.3 48.1001 60.1 37.7001 62.8C43.8001 68.4 52.1001 71.8999 61.2001 71.8999C61.5001 71.8999 61.6001 71.8999 62.0001 71.8999C64.0001 59.2999 67.1001 55.1 73.3001 49.8C79.3001 44.4 87.9001 41.5999 95.2001 44.6999C95.8001 42.3999 96.0001 39.7 96.1001 36.8C96.1001 17.8 81.4001 2.59995 62.8001 1.69995Z" fill="#A73832"/>
<path d="M77.1002 50.4999C76.2002 51.0999 75.5002 51.4999 76.7002 52.4999C78.7002 54.4999 81.7002 58.2999 83.9002 63.4999C88.7002 59.4999 92.3002 54.0999 94.3002 48.0999C92.5002 45.6999 86.6002 44.5999 77.1002 50.4999Z" fill="#A73832"/>
<path d="M72.2999 54.3999C66.9999 59.0999 64.9999 66.0999 63.8999 71.5999C70.1999 71.1999 76.0999 68.8999 80.9999 65.5999C78.9999 60.6999 77.2999 57.0999 75.3999 54.5999C74.2999 53.2999 74.1999 52.7999 72.2999 54.3999Z" fill="#A73832"/>
<path d="M223 262.2C225 255.7 228.3 255.8 227.2 253.3C226.1 250.8 224.4 248.9 223.1 247.5C221.8 246 222.8 242.6 222.8 241.1C222.7 238.4 220.6 238 220.3 235C220 232 219.9 229.6 222.1 226.5C224.3 223.5 221.3 223.6 220.3 221.7C219.3 219.8 218.7 217.2 219.6 213.4C220 211.4 219.8 210.9 219.3 210.6C218.7 210.4 216.4 209.9 216.4 209.9L212.9 216.7C213.5 218 213.7 220.1 213.7 221.4L212.8 227.1C212 228.4 210.7 230.6 210.7 232.5C210.7 234.4 208.8 236.4 209 237.3C209.2 238.2 211.7 240.5 213.1 243C214.6 245.5 216.3 249.1 216.3 255.3C216.3 261.5 214.3 269.8 214.1 270.8C213.9 271.9 213.3 272.8 215 274.4C216.7 276 219.4 278.9 220.4 285.5C221.4 292.1 222.1 295.6 222.5 295.9C222.9 296.2 222.8 296.8 222.8 298C222.8 299.2 223.9 306.3 224.7 307.6C225.5 308.9 225.4 300.1 225.3 297.4C225.2 294.9 225.4 282.6 225.9 280.7C226.3 278.9 226.8 276.9 225.2 274.7C223.7 272.5 221 268.6 223 262.2Z" fill="#A73832"/>
<path d="M101.4 77.3999C98.4999 77.9999 98.5999 78.4999 101.7 78.1999C102.7 78.1999 116.7 76.0999 118.5 75.6999C120.3 75.3999 120.7 76.5999 121.2 76.2999C121.8 76.0999 121 76.0999 120.6 73.7999L118 74.0999C114.9 74.8999 104.3 76.7999 101.4 77.3999Z" fill="white"/>
<path d="M218 77.1C206 65.1 191.6 56.4 176 51.5C175.9 53.1 175.8 54.5 175.8 55.1C178.9 56.7 182.4 60 181.1 66.3C180.5 68.9 178.4 71.3 178.2 72.3C177.9 74 174.3 76.9 173.3 79.1C172.3 81.3 172.1 83.1 172.3 84.1C174.1 85.8 178.1 88 180.3 88.8C182 89.4 182 89.8 181.3 90.8C181.1 91 180.7 91.2 180.7 91.5C178 95.2 173.7 104.5 171.8 110.3C169.8 116.1 165.2 130 168.6 139C171.8 148.1 178.2 142.4 179.7 138.9C181.2 135.4 183.4 129.5 184.1 127.9C184.8 126.3 185.1 125.4 186.3 129.1C187.5 132.8 189.3 141.6 189.3 142.4C189.3 143.2 188.1 145.4 186.8 148.9C185.5 152.4 184.7 154.8 186 156.9C187.3 159 192.6 168 194.3 171.9C195.3 174.2 196.2 174.7 198.9 174C201.6 173.3 208.1 171.1 210 170.2C211.9 169.3 211 167.7 210.4 165.8C209.5 162.9 206.2 146.8 206.2 144.7C206.2 142.6 206.8 139.8 204 142.9C203 144 201.7 142.9 202 141.3C202.3 139.7 205.7 117.9 205.9 115.4C204 111.3 198.4 98.3 197 95.8C195.4 93.5 194.9 93.3 192.5 94.6C190.1 95.9 185 97.7 183 93.3C182.8 92.9 182.6 92.1 182.7 91.5C183.3 91.8 183.7 92.4 184.4 93.2C185.6 94.7 188.9 93.8 190.9 92.8C192.9 91.8 195.5 91.5 197.5 93.9C199.5 96.4 202.5 100.9 204 105.1C205.5 109.3 207 112.7 207.5 113.4C207.9 114.1 205.9 126.4 205.4 131.2C204.8 136.1 204.4 138.2 204.3 139C204.2 139.8 207.4 136.2 207.5 140.5C207.6 143.9 209.2 154.7 211 162.7C211.4 164.7 212 166.6 212.5 168.1C213.8 168.3 215 171 215.7 175.1C216.5 179.2 218.2 181.8 218.2 183.8C218.3 185.8 218.9 186.1 219.5 186.5C220.2 186.8 219.9 187.8 217.9 190.2C218.3 190.5 219 191.2 219.5 191.7C220.1 191.1 221.6 189.4 221.6 189.4C221.6 189.4 227.7 191.9 229.1 192.3C230.4 192.7 232 189.5 235.9 191.2C237 191.6 238.2 193.2 239.1 194.7C245.2 181.4 248.8 166.4 248.8 150.8C248.5 123 237.6 96.7 218 77.1Z" fill="white"/>
<path d="M207.9 230.3C206.3 229.5 205.3 230.6 204.5 224.5C204.3 222.7 202.8 220.4 201.7 219.2C200.6 218.1 200.5 216 201 214.2C201.9 211.4 202.1 208.8 202 206.7C201.9 204.5 202.3 201.7 205.5 200.3C204.4 199.1 203.8 197.5 203.5 196.4C198.9 194.8 198 194.7 197.1 192.5C195.5 188.8 194.6 183.4 194.1 180.4C193.9 178.9 193.8 177.6 193.8 176.4C192.3 173.6 189.1 167.5 186.5 162.9C185.5 161.1 184.7 159.7 184.2 158.7C182 154.8 184.2 149.8 185.3 146.7C186.4 143.7 187.3 141 186.3 138C185.3 135 185.3 134.3 185.1 133.1C184.9 131.9 183.9 130.3 182.6 134.6C181.3 138.8 178.7 145 177.2 151.5C176.3 155.2 175.9 159.1 176.1 163C176.3 165.9 176.9 168.8 178.1 171.4C181 177.4 184.5 183 184 186.3C183.6 189.7 182.9 189.8 182.8 190.3C182.2 196.8 179.4 209.2 178 212.8C176.5 216.4 170.8 229.2 169.7 234.7C168.7 238.8 166.2 247.9 164 253.1C180.7 249.9 196 242.8 208.8 232.6C209 231.7 208.9 230.8 207.9 230.3Z" fill="white"/>
<path d="M84.2 84.1C85.4 85.8 87 87.2 89.1 88.2C94.5 91 95.7 92.9 95.7 97.8C95.7 102.6 96.6 112.4 98.2 114C99.2 113 100.3 111.5 100.5 111.1C102.1 114 105.2 119.4 110.2 122.7C110.3 122.7 110.3 122.8 110.3 122.9C110.3 123 110.2 123 110.2 123.1C109.8 124 108.9 123.7 108.3 123.5C107.1 123.2 102.9 118.7 101.5 116.2C100.1 113.7 99.8 114 99.3 115.8C98.7 117.6 96.6 121.5 95.2 123.3C93.7 125.2 89.9 130.1 88.9 131.2C87.9 132.3 88.9 132.8 89.8 133.7C90.7 134.6 95.2 140.2 96.3 141.3C97.3 142.5 98.4 144.8 101.1 142.3C103.8 139.8 107 135.5 108.5 130.8C109.8 126.7 110.1 124.3 111 124.1C111.1 124.2 111.2 124.2 111.3 124.3C113 124.7 123.8 126.4 124 128.7C126.2 126.5 129.8 120.9 130.5 119C131.2 117.1 135.1 111.1 138 107.8C138 106.5 138 105.7 138.1 105.3C137.3 106 136.1 107.6 134.3 108.4C132.5 109.2 126.3 111.9 121.8 114.1C120.2 114.9 117.4 115.8 116.4 107.6C115.3 99.4 116.4 95.2 117.2 93.4C118 91.5 119.4 89.8 122.2 90.6C125 91.4 129.5 93.1 130.7 93.1C130.9 92.2 131.7 90.6 128.7 90.2C126.6 90 121 88.4 117.7 84.1C116.5 82.3 115.6 80.2 115.5 77.4C109.1 78.4 94.5 80.3 91.4 81.1C88.2 81.9 85.4 82.6 84.4 75.2C84 72.1 83.2 67.7 85.4 69.3C87.2 68 89.6 66.4 94 67.1C94.8 67.2 95.8 67.9 96.1 68.6C96.3 69.7 95.9 71.4 95.3 73.2C94.3 76.2 92.5 78.3 98.5 77C104.9 75.5 112.9 74.3 115 73.9C115.3 71.8 117 68.4 119.1 66C121.2 63.5 121.6 61.5 121.7 60.7C121.8 59.9 121.1 59.7 120 60.7C118.8 61.8 115.1 64.1 111.7 63.2C110.4 62.9 108.7 60.3 107.8 58.8C108.6 57.2 110.4 54.7 112.6 52C100.8 55.8 89.7 61.7 79.7 69.5C79.6 70.7 79.8 73.5 80.6 76.8C81.1 78.7 82.1 81.6 84.2 84.1Z" fill="white"/>
<path d="M91.9 236.3C96.5 234.5 100.1 234.5 103.6 239.3C104.6 240.6 105.4 244.6 114 241.1C109.4 235.7 106.6 229.3 104.3 220.5C100.4 206.8 91.4 191.2 94.7 184.1C92.8 182.3 90.6 175.4 88.2 176.2C86.6 176.6 84.4 176.8 86.2 171.5C87 169.2 88.3 166.2 90.9 162.9C94 158.8 98.7 153.7 106.5 147.7C107.2 147.1 107.3 146.7 106.8 146.2C106 145.4 105.2 144.5 104.5 144.1C103.7 143.7 102.9 143.9 102.3 144.5C101.6 145.2 100.5 146 99.8 146.4C99.1 146.8 93.8 141.6 91 137.8C88.2 134 85.3 132.8 84.4 132.4C85.5 131.2 88.1 128.5 87.1 128.8C85.4 129.4 82.4 129.8 79.6 126.6C75.9 122.7 77.4 120.7 76.6 120.1C75.8 119.5 71.8 120.4 68.8 115.7C65.8 111 64.6 109 67 105.6C68.2 103.9 68.7 103.1 68.3 101C68 98.8999 68.3 97.4999 71.1 94.8999C73.9 92.1999 75.6 89.7999 76.8 89.9999C77.8 90.1999 75 86.5999 73.2 83.9999C72.8 83.2999 72.4 82.6999 72.1 82.1999C71.7 81.0999 71 79.2999 70.9 77.2999C51.3 96.9999 40.5 123 40.5 150.7C40.5 178.4 51.3 204.7 71 224.3C75.7 229 80.6 233 85.8 236.7C88 234.2 90.6 235.2 91.9 236.3Z" fill="white"/>
<path d="M203.7 193.3C207.3 193.2 213.3 191.6 217.7 187.6C216.5 186.1 214.3 179.2 213.8 176.3C213 173.2 213 169.9 209.8 171.7C207.8 172.8 200.7 175.9 197.8 176.4C194.8 176.8 195.6 177.6 196.1 179.9C196.6 182.2 198.3 188.8 199.2 191.1C200.1 193.4 201.3 193.4 203.7 193.3Z" fill="white"/>
<path d="M155 112.5C153.5 111.5 148.2 108.1 147.4 107.6C146.5 106.9 146.2 106.9 145.8 107.5C145.6 107.9 144.8 109.3 143 109.3C141.2 109.3 139.8 108.7 138.6 110.3C137.5 111.9 131.3 119.2 130 123.9C131.3 126.7 133.1 131.7 134.5 135.2C138.9 131.5 152.7 118 155.3 115.4C156.4 114.4 156.5 113.5 155 112.5Z" fill="white"/>
<path d="M121.5 128.9C120.5 129.1 116.4 127.4 112.4 126.7C111.2 126.6 110.9 126.6 110.7 127C109.8 130.5 108.2 136.5 105.3 141.1C106.4 142.9 107.3 144.5 108.7 145C111.8 142.8 117.6 137.3 119.4 135.3C121.1 133.3 123.2 130.3 123.2 129.6C123.3 128.9 122.5 128.7 121.5 128.9Z" fill="white"/>
<path d="M179.8 20.8C178.5 19.3 177.7 19.6999 176.4 21.0999C173.4 24.6999 167.5 27.8 157.3 30.4C147.1 32.9999 137.5 40.0999 133.3 43.5999C129.2 47.0999 118.8 55.5999 113.7 57.5999C112.4 58.1999 109.6 60.1 113.1 60.5C115.8 60.8 117.7 59.2999 123.5 55.0999C129.3 50.8999 133.8 47.7999 138.3 43.4999C142.4 39.4999 149.9 35.6999 158 33.4C166.1 31.1 176.6 27.6999 179.6 24.4999C181.1 22.8999 181.2 22.1 179.8 20.8Z" fill="white"/>
<path d="M128.4 59.2C129 58.9 128.3 56.5 126.4 56.9C125.8 57.1 126.5 55.6 125.4 56.2C124.5 56.6 124.2 57.2 123.2 60.4C122.2 63.6 122.3 65.5 123.1 66.3C123.7 66.9 124.6 66.9 125 66.9C125.3 66.9 125.7 67 125.6 66C125.4 65.1 125.4 61 128.4 59.2Z" fill="white"/>
<path d="M93.4 70.8C93.4 69 92.5 69 90.9 69C89 69 87 69.7 85.5 70.3C85.7 71 85.6 73.8 85.9 75.6C87 81.3 89 80.5 90.4 80.3C91.7 80.1 94.2 79.1 93.2 79.1C92.2 79.1 92.2 78.4 92.3 76.8C92.5 75 93.3 72.5 93.4 70.8Z" fill="white"/>
<path d="M127.2 259C129.1 256.8 129 251.3 128 247C127.1 242.8 120.5 241.1 114.6 243.5C108.7 246 105.2 245 103.8 244.1C103.8 244.1 103 243.5 102.5 243.2C101.9 242.9 101.9 244.2 101.3 245.5C100.7 246.8 100.5 250.5 101.5 252.7C104.1 252.7 107.6 253.8 109.8 254.8C111.9 255.7 119.4 259.2 122.7 260.2C124.2 260.8 125.6 261 127.2 259Z" fill="white"/>
<path d="M140.4 284.1C140.2 283.3 139.8 278.6 139.8 277.3C139.8 276 140.1 272.6 140.2 271.5C140.3 270.4 140.6 269.4 138.7 269.5C136.9 269.7 132.6 269.2 131.9 267C131 264.3 128.4 263.8 127 263.8C124.4 263.8 127 266.6 127.8 268.7C128.7 270.9 131.9 283.5 130.5 283.6C129 283.7 130.5 284.9 131.7 285.8C134 287.5 137.7 286.4 138.7 285.9C139.8 285.5 140.6 285 140.4 284.1Z" fill="white"/>
<path d="M90 241.3C90.7 240.5 90.6 239.8 90.1 239.1C89.7 238.3 89.3 237.8 88.8 237.5C87.5 237.1 86.3 237.7 85.2 240.3C84.1 242.6 83.9 250.4 84.2 252.8C85.1 252.6 86.8 252.9 87.6 253.1C87.3 248.8 88.7 242.7 90 241.3Z" fill="white"/>
<path d="M110.8 317C107.3 317.3 104.8 316.8 100.9 315.1C97.1 313.4 91.8 308.6 89.1 305.5C88.2 304.5 87.4 305.7 88.2 306.8C91.6 311.6 96.8 315 100.2 316.7C103.6 318.5 108.7 318.5 110.9 318.2C113 317.9 113.6 316.7 110.8 317Z" fill="white"/>
<path d="M147 297.7C144.8 298.8 140.5 300.8 136.6 301.8C137 303.8 137.2 304.7 137.2 305.3C139.7 305.3 144.4 303.5 148.3 301.2C149.2 300.6 149.5 300 149.2 299.2C148.7 298.5 148.3 297.1 147 297.7Z" fill="white"/>
<path d="M123.8 287.3C123.1 287.3 120 288 120.6 288.5C120.9 288.8 122.3 290.3 123.1 291.2C124 291.2 126 290.6 126.3 290.4C126.7 290.2 126.9 290 126.5 289.6C126.1 289.1 124.6 287.7 123.8 287.3Z" fill="white"/>
<path d="M147.8 222.1C146.8 222.2 139.5 222.2 134.4 221.5C125.3 220.4 116.3 215.2 113.4 211.8C113 211.2 110.3 211.5 112.5 213.3C114.7 215.1 120.4 220.3 128.7 221.9C130.6 222.2 133.6 222.8 134.1 229.7C134.5 236.5 133.9 241 133.9 241.7C133.9 242.4 133.5 242.6 132.9 241.8C132.3 241 130.4 238.4 129.4 237.9C128.4 237.4 127.7 237.5 126.9 238.1C126 238.8 124.7 240.1 124.1 240.8L126.6 242.3C125.7 241.6 125.8 241.3 126.3 240.6C126.7 239.9 127.2 239.5 127.6 239.3C128 239.1 128.7 239 129.5 240.1C130.3 241.2 134.5 248.3 135.4 250.2C136.3 252.1 137.4 250.9 137 249.8C136.6 248.7 135.7 246.8 135.3 246.2C136.5 242.4 137.8 236.6 137.8 232.9C137.8 229.2 136.9 225.4 136.2 224C139.2 224.1 145.8 224 148.4 223.2C150.9 222.2 148.8 222 147.8 222.1Z" fill="white"/>
<path d="M94 271C93.7 271.8 92.4999 274.9 92.1999 277.1C91.8999 279.4 91.2999 282.9 92.1999 287.9C93.0999 292.9 93.4999 294.5 93.7999 295.4L96.4999 294.5C94.9999 293.6 93.4 289.5 93 281.2C92.9 278.4 93.9999 273.7 94.8999 271.5C95.7999 269.3 94.3 270.2 94 271Z" fill="white"/>
<path d="M243.8 94.2L248 91.1L241.4 81L244.8 78.6L252.2 89.5L256.5 86.3999L248.8 75.7L252.2 73.3L260.2 84.6L264.6 81.6L252.6 64.7L232.9 78.8L243.8 94.2Z" fill="white"/>
<path d="M255.6 119L262.1 116L257.6 106.3L272.7 100L270 94L248.7 103.3L255.6 119Z" fill="white"/>
<path d="M259.5 129.2L260.2 135.1L274.5 133.5L275.1 139.7L281.5 139.2L279.7 118.4L273.2 118.9L273.8 127.5L259.5 129.2Z" fill="white"/>
<path d="M260.2 149.6V156.6L281.3 156.5L281.2 149.5L260.2 149.6Z" fill="white"/>
<path d="M270.2 166.7C266.6 166 262.5 166.6 259.6 168.8C257 170.8 255.7 172.7 255 176.4C254.6 178.7 254.9 181.8 255.7 184.4L261.3 182.6C260.7 181.4 260.5 179.4 261.1 177.3C262.2 173.5 265.3 171.8 269.1 172.4C273 173 275.4 176.6 274.7 181C274.4 182.8 273.6 184.2 271.6 185.5L275.1 189.6C277.9 187.8 280 184.5 280.5 182.1C281.3 178.2 280.3 175.3 278.5 172C276.4 168.9 273.3 167.2 270.2 166.7Z" fill="white"/>
<path d="M266.2 196.1C263.3 195.3 259.3 198.6 257.3 200.5C256.2 201.6 252.3 205.5 250.5 204.9C248.8 204.3 249.4 201.9 249.9 200.2C250.7 197.9 251.9 195.8 253.8 194.6L250.3 193C248.6 194.5 246.7 196.7 245.9 199C245 201.6 244.7 204.8 245 206.7C245.4 209.2 246.3 210.8 249.2 210.6C251.4 210.4 257 206.7 260.3 203.8C262 202.2 263.3 202 264.1 202.6C265.2 203.3 265.2 205.2 264.8 206.5C264.2 208.2 263.5 210.7 262.1 211.8L266.8 215C268.7 213.1 269.8 210.1 270.3 207.4C271.7 200.6 268.1 196.5 266.2 196.1Z" fill="white"/>
<path d="M219.7 68.3C221.6 69.6 224.5 70.5 227.2 71L227.8 65.2C226.5 65.2 224.6 64.5 223 63.3C220 60.7 219.8 56.6 221.8 53.9C224.3 50.7 228.4 50 232.1 52.3C233.6 53.3 234.1 54.8 234.4 57.1L239.8 56.2C239.5 53 237.6 49.2 235.8 47.6C233 45.1 229.7 44.5 226.1 45C222.5 45.4 219.2 47.8 217.2 50.5C215.2 53.4 214 57.4 214.7 61C215.4 64.3 216.6 66.2 219.7 68.3Z" fill="white"/>
<path d="M24.2 177.6C24.4 176 24.3 173 26 172.8C27.7 172.5 28.8 174 29.1 175.7C29.5 178.2 30.2 179.9 29.3 182.1L33.8 181.7C34.6 179.6 34.2 176.9 33.8 174.4C33.2 171.7 32.3 169.7 30.3 167.9C28.4 166.1 26.9 165.7 24 166.3C22.2 166.6 19.2 169.8 19.1 176C19.1 177.1 18.8 179.5 17.8 179.5C16.5 179.6 15.5 177.9 15.2 176.7C14.9 174.9 15.3 171.2 16 169.7H11.3C10.6 172.4 10.3 176.1 11 178.9C12.2 185 15.9 186.9 18.9 186.6C22.1 186.1 23.7 182.8 24.2 177.6Z" fill="white"/>
<path d="M14.8999 152.1L31.3999 151.9V146.7L14.8999 146.9L14.6999 139.8L9.3999 140L9.5999 159.7L14.9999 159.6L14.8999 152.1Z" fill="white"/>
<path d="M44.9001 99.7999L32.1001 92.5999L32.2001 92.3999L49.1001 92.0999L53.1001 85.9999L32.2001 73.8999L29.0001 78.6999L43.4001 87.5999L23.8001 88.1999L21.1001 93.3999L41.7001 105.4L44.9001 99.7999Z" fill="white"/>
<path d="M24.0997 131.7C31.2997 131.7 36.9997 125.9 36.9997 118.8C36.9997 111.6 31.1997 105.9 24.0997 105.9C16.8997 105.9 11.1997 111.7 11.1997 118.8C11.2997 125.9 16.9997 131.7 24.0997 131.7ZM24.0997 112C27.7997 112 30.7997 115 30.7997 118.7C30.7997 122.4 27.7997 125.4 24.0997 125.4C20.3997 125.4 17.3997 122.4 17.3997 118.7C17.3997 115 20.3997 112 24.0997 112Z" fill="white"/>
<path d="M45.3 203.6C45.3 196.4 39.5 190.7 32.4 190.7C25.2 190.7 19.5 196.5 19.5 203.6C19.5 210.8 25.3 216.5 32.4 216.5C39.5 216.5 45.3 210.6 45.3 203.6ZM32.4 210.2C28.7 210.2 25.7 207.2 25.7 203.5C25.7 199.8 28.7 196.8 32.4 196.8C36.1 196.8 39.1 199.8 39.1 203.5C39.1 207.2 36.1 210.2 32.4 210.2Z" fill="white"/>
<path d="M47.9 218.2C46 220 45 224.1 46.8 226.9C44.8 225.9 40.7 225.6 38.8 227.2C34.1 231.2 39.8 237 44.4 241.6L50.9 248L67.9 234L61 226C58.7 222.8 51.9 214.6 47.9 218.2ZM48.6 240.7C46.8 238.7 41.8 234.7 43.9 232.7C45.9 230.8 51.1 236.9 51.6 237.7L48.6 240.7ZM56.5 233.5L56.1 232.9C54.6 231.1 50 226.1 51.9 224.3C53.7 222.5 58.3 228.3 59.5 229.9L60.1 230.6L56.5 233.5Z" fill="white"/>
<path d="M105.1 262.1C103.3 262.1 101.6 261.3 100.7 261.9C99.8997 262.3 100.6 263.7 101.7 264C102.6 264.3 107.6 264 108.5 264L110.1 264.2C110.1 262.1 109.4 262.2 109 261.9C108.6 261.7 106.8 262.1 105.1 262.1Z" fill="white"/>
</svg>
