<svg width="320" height="320" viewBox="0 0 320 320" fill="none" xmlns="http://www.w3.org/2000/svg">
<path d="M320 160C320 248.4 248.3 320 160 320C71.7 320 0 248.3 0 160C0 71.7 71.7 0 160 0C248.3 0 320 71.6 320 160Z" fill="white"/>
<path d="M44.4002 149.4L13.7002 154.2C16.7002 75.9 81.1002 13.5 160.1 13.5V14.3V61.8V76V83.8V91.8L160.8 92L163 83.7H201.3L201.6 84.7C201.2 87.5 201.4 95.9 215.5 101.9L215.9 103L160.1 101.6L104.3 103L104.7 101.9C118.7 95.9 118.9 87.5 118.6 84.7L118.9 83.7H157.2L155.2 76.1L127.3 77L127.5 76.3C135.8 71.6 136.1 65 135.9 62.6L136.2 61.7H151.4L147 44.6C92.5002 50.7 49.4002 94.5 44.4002 149.4ZM259 99.1L254.5 112.7L255.5 114.7H296L297.7 109.6C277.9 55.3 226.7 16 166 13.6L170.8 44.4C208.2 47.8 240.4 68.8 259 99.1ZM255.5 205.3L254.5 207.3L259 220.9C240.3 251.2 208.2 272.2 170.9 275.7L166.1 306.5C226.7 304 277.8 264.8 297.7 210.4L296 205.3H255.5ZM218.5 110.8L218.1 109.6H160.1H102.1L101.7 110.8C101.6 114.3 100 125.3 84.8002 140.4L84.4002 141.7C92.9002 138 100.5 135 107.7 132.3C116.5 129 124.7 126.4 132.8 124.2C137.2 123 141.6 122 145.8 121.1C150.3 120.2 154.8 119.4 159.1 118.8L160 118.7L160.9 118.8C164.6 119.3 168.4 119.9 172.3 120.7C175.9 121.4 179.7 122.3 183.5 123.3C190.4 125.1 197.5 127.3 205.3 130C215.7 133.7 226 137.9 235.9 142.2L235.3 140.4C220.2 125.3 218.5 114.3 218.5 110.8ZM192.6 76.4C184.3 71.7 184 65.1 184.2 62.7L183.9 61.8H168.7L165 76.2L192.9 77.1L192.6 76.4ZM186 228.6C186.1 228.8 186.2 228.9 186.4 229.1C186.7 229.5 187.2 229.9 187.7 230.2C188.2 230.5 188.9 230.9 189.7 231.3C191.1 231.9 192.8 232.5 195 233C199 234 203.5 234.5 207.5 234.9C208.6 235 209.7 235.1 210.8 235.2C212.6 230 214.8 224.9 217.4 219.7C212.7 221.8 207.7 223.6 202.4 225.1C195.7 227.1 189.9 228.1 186 228.6ZM125.2 233C127.4 232.5 129.1 231.9 130.5 231.3C131.3 231 131.9 230.6 132.5 230.2C133 229.8 133.5 229.4 133.8 229.1C133.9 228.9 134.1 228.8 134.2 228.6C130.3 228.1 124.5 227.1 117.8 225.2C112.5 223.7 107.5 221.9 102.8 219.8C105.3 224.9 107.6 230.1 109.4 235.3C110.5 235.2 111.6 235.1 112.7 235C116.6 234.5 121.2 234 125.2 233ZM306.5 160V160.1V165.8L275.8 170.6L243.7 175.7C236.8 186.9 229.4 198 223.1 209.2C222.3 209.7 221.6 210.1 220.8 210.6C210.6 216.4 199.2 219.9 186.7 221C187.8 218.3 189.5 215.7 191.2 213.1C192.1 211.7 193.2 210.2 194.5 208.5C195.6 207 196.7 205.5 198 203.9C201.2 199.8 204.6 195.5 207.9 191.5C209.5 189.5 211.2 187.4 212.8 185.4L216.5 180.7C216.7 180.5 216.8 180.3 217 180.1C218.1 178.7 219.1 177.3 220.1 175.9C221.2 174.4 222.4 172.7 223.5 171C223.8 170.5 224.2 169.9 224.5 169.4C224.7 169.1 224.9 168.8 225.1 168.5L218.9 166.7C218.9 166.7 218.9 166.8 218.8 166.8C218.5 167.3 218.2 167.8 217.8 168.3C216.9 169.7 215.8 171.2 214.5 173C212.7 175.4 210.2 178.5 207.6 181.6C207.5 181.8 207.3 181.9 207.2 182.1C203.9 185.9 200.4 189.7 196.9 193.3C194.9 195.4 192.9 197.6 190.9 199.7C188.4 202.4 185.6 205.6 183 209C181.7 210.6 180.5 212.4 179.4 214.1C178.5 215.6 177.3 217.6 176.5 219.8C175.9 221.4 175.1 223.8 175.2 226.7C175.2 229.4 176.4 232.3 178.3 234.3C179.3 235.5 180.6 236.4 181.6 237.1C182.9 237.9 184.1 238.5 185.3 239C187.5 239.9 189.9 240.6 192.8 241.1C195.3 241.6 197.8 241.8 200.1 242C202.6 242.2 205.1 242.2 207.2 242.3C207.3 242.3 207.4 242.3 207.5 242.3C208 242.3 208.4 242.3 208.9 242.3C208.5 243.7 208.2 245.1 207.9 246.5C207.9 246.5 207.9 246.5 207.8 246.5L186.3 254.2L173 259.2L163.8 163.6L163 154.9L161.3 137.4L160.3 137.7V154.9V159.9V162.2V267V305.9V306.7C79.4002 306.7 13.8002 241.1 13.8002 160.3V160.2H46.1002H100.1H108.6L108.9 159.3L94.9002 155.4L81.7002 151.8L82.2002 150.4C106.3 139.7 132.6 129.4 160.4 125.6C187.6 129.2 213.9 140.1 238.7 150.8L239 151.8L225.8 155.4L211.8 159.3L212.1 160.2H220.6H274.6H306.5V160ZM149.4 275.7L146.8 258.9L134.1 254.2L112.7 246.5H112.6C112.3 245.1 112 243.7 111.6 242.3C112.1 242.3 112.5 242.3 113 242.3C113.1 242.3 113.2 242.3 113.3 242.3C115.4 242.3 117.9 242.3 120.4 242C122.7 241.8 125.2 241.6 127.7 241.1C130.6 240.6 132.9 239.9 135.2 239C136.4 238.5 137.6 237.9 138.9 237.1C140 236.4 141.2 235.5 142.2 234.3C144.1 232.2 145.2 229.4 145.3 226.7C145.3 225.3 145.3 223.2 144 219.8C143.1 217.6 142 215.6 141.1 214.1C140 212.4 138.8 210.6 137.5 209C134.9 205.6 132 202.4 129.6 199.7C127.6 197.5 125.6 195.4 123.6 193.3C120.2 189.6 116.6 185.9 113.3 182.1C113.2 181.9 113 181.8 112.9 181.6C110.2 178.5 107.8 175.4 105.9 173C104.6 171.2 103.5 169.7 102.6 168.3C102.3 167.8 102 167.3 101.7 166.8C101.7 166.8 101.7 166.7 101.6 166.7L95.4002 168.5C95.6002 168.8 95.8002 169.1 96.0002 169.4C96.3002 169.9 96.7002 170.5 97.0002 171C98.1002 172.7 99.3002 174.4 100.4 175.9C101.4 177.3 102.5 178.7 103.5 180.1C103.6 180.3 103.8 180.5 103.9 180.7L107.6 185.4C109.2 187.4 110.9 189.5 112.5 191.5C115.8 195.6 119.2 199.8 122.4 203.9C123.7 205.5 124.8 207.1 125.9 208.5C127.2 210.3 128.2 211.7 129.2 213.1C130.9 215.6 132.5 218.3 133.7 221C121.3 219.9 109.8 216.4 99.7002 210.6C98.9002 210.2 98.1002 209.7 97.4002 209.2C91.0002 198 83.7002 186.9 76.8002 175.7L44.6002 170.6C49.5002 226.3 93.8002 270.6 149.4 275.7Z" fill="#12173F"/>
</svg>
