<svg width="308" height="308" viewBox="0 0 308 308" fill="none" xmlns="http://www.w3.org/2000/svg">
<path d="M266.613 48.4C237.813 17.6 195.913 0 151.613 0C147.813 0 144.013 0.1 140.313 0.5C68.8133 5.3 34.3133 56.2 30.7133 61.8C25.3133 68.5 -19.9867 129.8 10.4133 214.4L11.0133 216.2C11.3133 217.1 40.9133 307.7 146.713 307.7C152.313 307.7 158.213 307.4 164.113 306.9C243.213 300 301.913 241.6 306.913 165C310.013 120.9 295.713 79.5 266.613 48.4Z" fill="white"/>
<path d="M259.113 55.3C229.413 23.6 185.613 7.30001 140.813 10.4C69.7129 15.2 38.1129 68.1 38.1129 68.1C38.1129 68.1 94.5129 85.2 102.213 87.6C107.613 89.2 142.613 98 158.513 106.6C161.813 108.4 165.013 112.1 168.213 115.4C170.613 117.9 172.813 120.3 175.113 122.2C179.313 125.6 183.313 128.5 187.313 131.4C197.013 138.5 205.513 144.5 209.513 153.8C212.913 161.8 213.013 170.2 210.013 177.9C207.313 184.6 202.013 190.7 195.613 194.9C196.313 191.5 197.113 186.6 192.513 183.6C190.413 182.3 179.913 179.8 172.813 179C169.413 178.7 131.313 176.9 78.5129 205.4C94.3129 184.2 105.713 180.7 105.713 180.7C105.213 178.2 20.2129 212.6 20.2129 212.6C20.2129 212.6 49.6129 306.7 163.013 296.7C236.913 290.2 291.913 236.1 296.713 164C299.513 122.9 286.113 84.2 259.113 55.3ZM235.513 188.5C246.213 164.9 240.913 139.3 222.713 119C217.713 113.4 211.413 109.5 205.413 105.9C201.513 103.5 197.413 101 193.813 98C192.113 96.6 190.713 94.7 189.213 92.8C187.413 90.3 185.313 87.4 182.313 85.4C165.613 73.2 145.813 68.9 126.413 63.2C117.213 60.5 108.313 58.5 99.9129 55.5C110.413 48.3 123.713 43.5 138.313 42.2C142.913 41.7 147.413 41.5 152.013 41.5C195.113 41.5 232.513 63.1 252.513 99.5C272.413 135.8 271.213 179.9 249.113 214.7C226.413 250.4 186.213 269.3 140.713 265.5C113.513 263.3 84.4129 248.9 75.5129 233.5C81.0129 230.1 130.713 203.8 164.813 214.4C174.513 214.4 159.013 238.1 159.013 238.1C159.013 238.1 215.313 233.1 235.513 188.5Z" fill="#E03A3E"/>
<path d="M151.413 117C133.213 117.7 116.313 95.7 102.313 110.2C105.013 110.9 110.613 108.8 111.413 111.3C104.213 139.7 151.013 147.1 151.413 117Z" fill="#E03A3E"/>
</svg>
