<svg width="349" height="336" viewBox="0 0 349 336" fill="none" xmlns="http://www.w3.org/2000/svg">
<path d="M84.8 153H60.1V179.7L45.3 187L60.1 194.7V218.5L76.5 228.6C82.5 227.8 90.2 226.8 99.2 225.9L162.5 262.4L174 315.5C174.1 315.4 185.6 262.4 185.6 262.4L248.8 225.9C257.7 226.8 265.4 227.7 271.5 228.6L287.8 218.5V194.7L302.6 187.1L287.8 179.6V152.9H263.2C263.2 152.9 267 149.2 271.9 140.9C273.9 137.4 275.9 133.1 278.2 128C296.2 122.6 309.5 111 315.1 99.9C330.5 71.7 342.1 37.3 342.1 37.3C342.1 37.3 335.5 40.5 327.4 44.5C333.9 24.7 337.8 7.79999 337.8 7.79999C337.8 7.79999 266.8 54.7 211.6 98.9L206.8 96C206.8 95.5 207 91.5 207 91.2C207 91.2 207.6 86.5 199.3 83.7C198.7 83.5 198.3 83.3 197.8 83.2C201.8 80.2 208 75.6 212.6 72.5C219.8 67.5 219 62.1 219 62.1L192.8 81.6C172.5 75.1 155.6 81.6 155.6 81.6L129.4 62.1C129.4 62.1 128.6 67.5 135.8 72.5C140.3 75.6 146.6 80.2 150.6 83.2C150.1 83.4 149.7 83.6 149.1 83.7C140.8 86.5 141.4 91.2 141.4 91.2C141.4 91.6 141.5 95.5 141.6 96L136.8 98.9C81.2 54.9 10.3 7.89999 10.3 7.89999C10.3 7.89999 14.2 24.6 20.7 44.5C12.1 40.3 6 37.3 6 37.3C6 37.3 17.6 71.8 33 99.9C38.7 111.1 51.9 122.6 69.9 128C69.9 128 72.9 134.9 75.5 140C78.7 146.2 84.8 153 84.8 153Z" fill="#1D1160"/>
<path d="M203.8 112.9C203.5 113.6 203.2 114.5 203.1 115.2C227.9 99 271.3 70.7 320 39C320 39 320.1 40 324.3 27.6C272.8 58.6 227.4 93.8 203.8 112.9Z" fill="#00788C"/>
<path d="M144.2 112.9C120.6 93.8 75.1002 58.6 23.7002 27.6C28.0002 40.2 28.0002 39.1 28.0002 39.1C76.7002 70.7 120 99 144.9 115.3C144.8 114.5 144.5 113.7 144.2 112.9Z" fill="#00788C"/>
<path d="M174 138C169.8 136.3 159.1 131 152.6 117.1C157.9 121.6 164.6 123.1 170 117.8C163.5 114.9 162.6 103.2 161.3 100.2C158.7 93.9 154.7 90.8 151.4 89.5C153 88.9 154.4 88.5 155.9 88C158.9 89.7 164.1 93.5 165.8 101.2C165.8 101.2 166.4 92.4 162.1 86.4C170.5 84.4 179 84.6 185.9 86.4C181.6 92.5 182.2 101.2 182.2 101.2C183.9 93.5 188.9 89.7 192.1 88C193.5 88.5 195 88.9 196.6 89.5C193.4 90.8 189.3 94 186.7 100.2C185.4 103.2 184.6 115 178 117.8C179.5 126.8 177.7 135.1 174 138ZM99.1 154.4C99.1 154.4 86.9 145.6 80 129.7L84.9 131.2C100.8 135.4 131.2 139.6 131.2 139.6C116.5 140 104.2 141.1 97.1 141.8C95.6 140 94 137.7 93.3 135.9C93.3 135.9 93.9 141.4 95.1 144.9C96.7 150.2 99.1 154.4 99.1 154.4Z" fill="#00788C"/>
<path d="M252.8 145C254.1 141.5 254.6 136 254.6 136C254 137.8 252.3 140.1 250.8 141.9C243.7 141.1 231.3 140 216.7 139.6C216.7 139.6 247.1 135.5 263 131.2L267.9 129.7C261 145.7 248.8 154.3 248.8 154.4C248.9 154.4 251.3 150.2 252.8 145Z" fill="#00788C"/>
<path d="M136.1 229.9L105.1 212C102.9 212.2 100.7 212.5 98.5996 212.6L141.6 237.4C139.5 235.2 137.7 232.6 136.1 229.9Z" fill="#00788C"/>
<path d="M211.9 229.9L242.9 212C245.1 212.2 247.3 212.5 249.4 212.6L206.4 237.4C208.5 235.2 210.3 232.6 211.9 229.9Z" fill="#00788C"/>
<path d="M160.3 234.1C146.7 231.1 140.9 224.4 140.9 224.4C143.7 230.1 147.9 235 153.2 238.6C153.1 238.5 158.9 236.9 160.3 234.1Z" fill="#00788C"/>
<path d="M151.9 219.4C151 218.5 150 217.5 148.9 216.4C144.6 217.9 142.1 219.6 140.8 220.7C143.8 223.6 149.6 227.4 160 229.6C158.7 226.3 155.5 223 151.9 219.4Z" fill="#00788C"/>
<path d="M173.7 251.7C169.2 251.8 166 253.5 164.8 253.9C163.7 251.8 162.3 249.6 161.1 247.6C165 248.1 168.4 247.3 168.4 247.3C166.7 246.7 162.6 245.4 157.1 241.7C157.6 241.5 158 241.2 158.6 241.1C160.1 240.4 161.6 239.4 162.7 238.2C164.1 236.8 165 235 165 232.9C165 226.1 160.4 223.8 155.3 218.7C154.3 217.7 153.2 216.7 152.1 215.6C156.8 214.3 163.3 213.4 171.8 213.2L173.8 242.1H174.1L176.2 213.2C184.9 213.4 191.2 214.3 195.9 215.6C194.8 216.7 193.7 217.7 192.7 218.7C187.5 223.8 183 226.1 183 232.9C183 235.1 183.9 236.9 185.3 238.2C186.5 239.4 187.9 240.3 189.4 241.1C189.9 241.4 190.4 241.6 190.9 241.7C185.4 245.4 181.1 246.8 179.6 247.3C179.6 247.3 183 248 186.9 247.6C185.6 249.5 184.3 251.7 183.2 253.9C182.1 253.5 178.9 251.8 174.3 251.7H173.7Z" fill="#00788C"/>
<path d="M194.8 238.5C200 234.9 204.2 230 207.1 224.3C207.1 224.3 201.5 231 187.7 234C189.1 236.9 194.8 238.5 194.8 238.5Z" fill="#00788C"/>
<path d="M188 229.8C198.3 227.7 204.1 223.8 207.2 220.9C205.9 219.7 203.4 218 199.1 216.6C198.2 217.6 197.2 218.6 196.1 219.6C192.5 223 189.3 226.3 188 229.8Z" fill="#00788C"/>
<path d="M164.7 118.6C164.7 118.6 159.7 115.3 158.9 108.3C158.9 108.3 152.4 119.2 164.7 118.6Z" fill="white"/>
<path d="M183.6 118.6C183.6 118.6 188.6 115.3 189.4 108.3C189.5 108.3 195.9 119.2 183.6 118.6Z" fill="white"/>
<path d="M179.9 262.3C179 261.4 177.7 260.3 173.7 260.3C169.9 260.3 168.6 261.2 167.5 262.1L174 287.5L179.9 262.3Z" fill="white"/>
<path d="M222.6 150.3V159.6H219.5V150.3H216.9V147.6H225.2V150.3H222.6Z" fill="white"/>
<path d="M207.9 150.3V159.6H204.8V150.3H202.2V147.6H210.6V150.3H207.9Z" fill="white"/>
<path d="M163.9 155.3H165V148.8L163.7 147.5H155.8V159.5H158.8V155.3H161L162.8 159.5H165.8L163.9 155.3ZM162 152.7H158.7V150.3H162V152.7Z" fill="white"/>
<path d="M240.7 150.3V147.6H231.8V159.6H240.7V156.9H234.9V155H240.7V152.3H234.9V150.3H240.7Z" fill="white"/>
<path d="M175.7 156.9V147.6H172.5V159.6H180.1V156.9H175.7Z" fill="white"/>
<path d="M193.8 147.6H185.9V158.3L187.3 159.7H195.2V149L193.8 147.6ZM192.3 156.9H188.9V150.3H192.3V156.9Z" fill="white"/>
<path d="M148.6 159.6V148.9L147.3 147.5H139.2V159.5H142.2V155.6H145.6V159.5L148.6 159.6ZM142.2 150.3H145.6V153.1H142.2V150.3Z" fill="white"/>
<path d="M129.6 147.6V153H126.2V147.6H123.2V159.6H126.2V155.7H129.6V159.6H132.6V147.6H129.6Z" fill="white"/>
<path d="M309.6 62.5C315.4 48.8 319.8 39.1 319.8 39.1C271.1 70.7 227.8 99 202.9 115.3C202 118 200.9 120.4 199.7 122.6L297.7 69.2L221.2 124.4L224.7 123.8L265.1 119.9C265.1 119.9 292.4 117.2 307.6 96.8C314.8 85.8 327 53.7 327 53.7L309.6 62.5Z" fill="white"/>
<path d="M75.5004 190.3L84.9004 186.2V207.6C87.6004 207.2 90.3004 206.9 93.2004 206.6V159.7H84.9004C84.9004 159.6 84.9004 176.6 84.9004 176.6L75.5004 180.6V159.8H67.2004V184.1L60.4004 187.4L67.2004 190.8V210.5C69.9004 210 72.7004 209.6 75.5004 209.1V190.3Z" fill="white"/>
<path d="M140.2 190.2C142.2 190.1 144.3 190.1 146.4 190C148 194 149.5 198.5 151 202.4C153.8 202.3 156.5 202.2 159.3 202.2C157.7 198.2 156.3 193.7 154.7 189.8C155.7 189.8 156.8 189.8 157.8 189.7V170.5L154.1 166.9H128.7L131.8 170.7V203.3C134.6 203.1 137.3 203 140.1 202.8L140.2 190.2ZM140.2 174.5H149.6C149.6 176.8 149.6 179.8 149.6 181.9C146.5 181.9 143.3 182 140.2 182.1V174.5Z" fill="white"/>
<path d="M172.5 174.5H182V202.1C184.9 202.1 187.8 202.2 190.7 202.2V170.7L186.9 166.9H160.9L164 170.7V202.2C166.9 202.2 169.6 202.1 172.5 202.1V174.5Z" fill="white"/>
<path d="M221.8 195.5C216.5 195.2 211.1 194.9 205.8 194.8C205.8 192.9 205.8 190.8 205.8 188.9C211.1 189.1 216.5 189.3 221.8 189.5V181.2C216.5 181 211.1 180.9 205.8 180.8C205.8 179.2 205.8 176.5 205.8 174.5H221.8V166.8H193.9L197 170.5V202.3C205.5 202.6 213.8 202.9 221.8 203.4V195.5Z" fill="white"/>
<path d="M242.7 174.5H249.9V166.8H226.5V174.5H233.8V204.4C236.8 204.7 239.9 204.9 242.8 205.1L242.7 174.5Z" fill="white"/>
<path d="M125.7 170.7L121.9 166.9H96.4004L99.4004 170.5V201.5L102.7 205.5C110 204.8 117.7 204.1 125.7 203.7V170.7ZM117.4 195.9C114.2 196.1 111 196.3 107.9 196.5V174.5H117.4V195.9Z" fill="white"/>
<path d="M279.9 190.6C282.5 189.5 285.1 188.3 287.6 187.1C279.3 183.2 271 179.8 262.8 176.6V167.2H271.6V170.6H280V159.7H251.4L254.5 163.4V182.8L271.6 190.2V201.1C271.6 201.1 267.6 200.6 262.8 200V196.5L254.5 195.5V206.6C263.5 207.6 272.1 208.9 279.9 210.3C279.9 204.2 279.9 194.9 279.9 190.6Z" fill="white"/>
<path d="M113.4 155.9V156.9H110.7V150.3H113.4V151.3H116.5V147.6H107.8V158.3L109.2 159.6H116.5V155.9H113.4Z" fill="white"/>
<path d="M38.4 62.5C32.6 48.8 28.2 39.1 28.2 39.1C76.9 70.7 120.2 99 145.1 115.3C146 118 147.1 120.4 148.3 122.6L50.3 69.1L126.8 124.3L123.3 123.7L82.9 119.8C82.9 119.8 55.6 117.1 40.4 96.7C33.2 85.7 21 53.6 21 53.6L38.4 62.5Z" fill="white"/>
<path d="M340.1 53C332.4 73.7 322 95.1 316.9 104C308.2 118.8 290.9 127.7 280.8 131C280.8 131 275.9 142.9 270.7 149.4H291.4V177.6L311.1 187L291.4 197V220.6L272.3 232.3C272.3 232.3 257.1 230.5 249.6 229.6L189 264.6C176.8 319.5 174 335.4 174 335.4C174 335.4 171.1 320.4 159 264.6L98.4 229.7C91 230.4 75.7 232.4 75.7 232.4L56.6 220.7V197.1L36.9 187.1L56.5 177.7V149.5H77.2C72.2 143.2 67.1 131.1 67.1 131.1C61 129.1 55.2 126.3 50 123C41.8 117.7 35.2 111.2 30.9 104.1C22.7 89.5 12.9 67.7 7.7 53.1C4.3 44.1 0 30.6 0 30.6C0 30.6 11.2 35.9 14.8 37.7C9.4 21.6 4.8 0 4.8 0C4.8 0 82.3 51 136.8 94.6L137.6 94C137.6 93.1 137.6 92.2 137.6 91.2C137.6 90.6 137.6 89.5 138.1 88.2C138.7 86.4 140.1 84.1 143.3 82.2C139.3 79.2 132.1 74.3 131.5 73.6C126.2 69 125.3 63.9 125.8 61.3L126.7 55.5L156.2 77.4C172.2 72.8 183.6 75.1 192 77.4L221.5 55.5L222.4 61.3C222.8 63.8 221.9 69 216.7 73.6C216.1 74.2 208.9 79.2 204.9 82.2C208 84.1 209.4 86.3 210.1 88.2C210.6 89.5 210.6 90.6 210.6 91.2C210.6 92.1 210.6 93 210.6 94L211.4 94.6C267 50 343.3 0 343.3 0C343.3 0 339.5 17.7 333.3 37.7C336.3 36.2 348.1 30.6 348.1 30.6C344.6 41.3 340.1 53 340.1 53ZM84.8 153H60.1V179.7L45.3 187L60.1 194.7V218.5L76.5 228.6C82.5 227.8 90.2 226.8 99.2 225.9L162.5 262.4L174 315.5C174.1 315.4 185.6 262.4 185.6 262.4L248.8 225.9C257.7 226.8 265.4 227.7 271.5 228.6L287.8 218.5V194.7L302.6 187.1L287.8 179.6V152.9H263.2C263.2 152.9 267 149.2 271.9 140.9C273.9 137.4 275.9 133.1 278.2 128C296.2 122.6 309.5 111 315.1 99.9C330.5 71.7 342.1 37.3 342.1 37.3C342.1 37.3 335.5 40.5 327.4 44.5C333.9 24.7 337.8 7.8 337.8 7.8C337.8 7.8 266.8 54.7 211.6 98.9L206.8 96C206.8 95.5 207 91.5 207 91.2C207 91.2 207.6 86.5 199.3 83.7C198.7 83.5 198.3 83.3 197.8 83.2C201.8 80.2 208 75.6 212.6 72.5C219.8 67.5 219 62.1 219 62.1L192.8 81.6C172.5 75.1 155.6 81.6 155.6 81.6L129.4 62.1C129.4 62.1 128.6 67.5 135.8 72.5C140.3 75.6 146.6 80.2 150.6 83.2C150.1 83.4 149.7 83.6 149.1 83.7C140.8 86.5 141.4 91.2 141.4 91.2C141.4 91.6 141.5 95.5 141.6 96L136.8 98.9C81.2 54.9 10.3 7.9 10.3 7.9C10.3 7.9 14.2 24.6 20.7 44.5C12.1 40.3 6 37.3 6 37.3C6 37.3 17.6 71.8 33 99.9C38.7 111.1 51.9 122.6 69.9 128C69.9 128 72.9 134.9 75.5 140C78.7 146.2 84.8 153 84.8 153Z" fill="#A1A1A4"/>
</svg>
