<svg width="351" height="239" viewBox="0 0 351 239" fill="none" xmlns="http://www.w3.org/2000/svg">
<path d="M351 0.0999985L316.7 73.7H179.3L136 166.5H97.2002C97.5002 161.9 98.4002 157.2 99.9002 152.7C103.6 141.5 110.6 132.3 119.4 125.7C121.7 128.3 123.8 131.2 125.7 134.2C126 134.7 126.6 134.6 126.8 134.2L189.4 0H351V0.0999985Z" fill="black"/>
<path d="M32.8 195.3C28.9 203.1 23.3 209.8 16.5 214.9C10.8 208.3 6.3 200.6 3.4 191.8C1.4 185.9 0.3 180 0 174.1H38.6C38.1 181.4 36.2 188.6 32.8 195.3Z" fill="black"/>
<path d="M64.0998 174.1V238.3C48.2998 237.4 33.3998 231 21.7998 220.4C29.1998 214.7 35.1998 207.3 39.5998 198.7C43.4998 190.9 45.6998 182.6 46.1998 174.1H64.0998Z" fill="black"/>
<path d="M35.9 152.7C37.4 157.2 38.3 161.9 38.6 166.5H0C0.8 151.4 6.7 137.1 16.5 125.8C25.2 132.4 32.1 141.6 35.9 152.7Z" fill="black"/>
<path d="M64.0998 102.4V166.6H46.1998C45.8998 161.2 44.7998 155.7 43.0998 150.4C38.9998 138 31.3998 127.8 21.7998 120.4C28.6998 114 36.9998 109 46.4998 105.8C52.2998 103.8 58.1998 102.7 64.0998 102.4Z" fill="black"/>
<path d="M89.6002 166.5H71.7002V102.3C87.5002 103.2 102.5 109.5 114.1 120.2C104.2 127.8 96.8002 138.2 92.7002 150.3C90.9002 155.7 89.9002 161.1 89.6002 166.5Z" fill="black"/>
<path d="M114.1 220.5C107.2 226.8 98.9002 231.8 89.5002 235C83.6002 237 77.6002 238.1 71.7002 238.4V174.2H89.5002C90.0002 182.7 92.2002 191 96.1002 198.8C100.5 207.4 106.6 214.8 114.1 220.5Z" fill="black"/>
<path d="M136 174.1C135.2 189.2 129.3 203.6 119.4 215C112.5 209.9 106.9 203.2 103 195.3C99.6002 188.6 97.7002 181.4 97.2002 174.1H136Z" fill="black"/>
</svg>
