<svg width="267" height="304" viewBox="0 0 267 304" fill="none" xmlns="http://www.w3.org/2000/svg">
<path d="M266.2 0L228.1 38.3L196.2 6.5L164.3 38.3L132.4 6.4L100.6 38.2L68.8 6.4L37 38.3L0 0.799999V170.1C0 243.8 59.1 303.7 132.7 303.7C206.3 303.7 266.2 243.8 266.2 170.1V0Z" fill="white"/>
<path d="M11.8999 193.3C14.9999 209.3 21.2999 224.2 30.3999 238C35.9999 228.2 46.9999 216.3 68.7999 211.1C67.1999 205.5 65.6999 199.6 64.3999 193.4L11.8999 193.3Z" fill="#63717A"/>
<path d="M39.1001 249.4C62.6001 277 96.5001 292.8 132.1 293C128.7 291.3 125.5 289.4 122.2 287.3C107.1 277.5 86.3001 258.5 72.9001 223.2C51.8001 227.9 42.8001 239.9 39.1001 249.4Z" fill="#63717A"/>
<path d="M86 221.5C95.6 245.5 110 263.9 128.8 276.3C141.3 284.5 153.3 288.1 161.1 289.9C180.9 285.4 199.3 275.8 214.6 262.3C202.6 261 190.1 254.1 177.2 246.8C156.8 235.4 131.5 221.2 97.2 221.2C93.6 221 89.8 221.1 86 221.5Z" fill="#63717A"/>
<path d="M137.4 130.9H93.5V183.3H111.8V141.2H125.5V183.3H142.9V138.3C142.9 134.4 140.4 130.9 137.4 130.9Z" fill="#592D81"/>
<path d="M150.5 130.9V175.9C150.5 179.9 153 183.3 155.9 183.3H184.7H199.9V151.4H182.4V172.8H168.7V140.9H200V130.8L150.5 130.9Z" fill="#592D81"/>
<path d="M44.6998 130.9L34.7998 152.2H29.0998V130.9H10.7998V183.4H29.0998V162.3H34.7998L44.6998 183.4H62.8998L50.1998 157.3L62.8998 130.9H44.6998Z" fill="#592D81"/>
<path d="M86.5002 130.9H67.7002V183.3H86.5002V130.9Z" fill="#592D81"/>
<path d="M255.4 145.2V131H207.1V155C207.1 159 209.6 162.2 212.5 162.2H237.1V173.6H207V183.5H255.3V159.4C255.3 155.7 253.2 152.2 250.5 152.2H225.1V141.2H237.8V145.2H255.4Z" fill="#592D81"/>
<path d="M203.9 77.9H188.6L220.3 46L196.2 21.9L164.3 53.7L132.4 21.9L76.5998 77.9H61.0998L92.9998 45.9L68.8998 21.9L37.1998 53.7L10.7998 27.6V79.8V121.4H255.4V81V26.4L203.9 77.9Z" fill="#592D81"/>
<path d="M64.3002 111.3C64.3002 112.6 65.3002 113.8 66.8002 113.8H80.4002V110.2H69.2002V98.3H80.4002V94.6H64.2002V111.3H64.3002Z" fill="white"/>
<path d="M41.7998 94.5V113.8H46.6998V108.8H52.9998V113.8H57.8998V96.9C57.8998 95.5 56.7998 94.4 55.0998 94.4H41.7998V94.5ZM52.9998 105.1H46.6998V98.2H52.9998V105.1Z" fill="white"/>
<path d="M243.7 94.5H232.4C231.1 94.5 229.9 95.5 229.9 97V111.4C229.9 112.7 230.9 113.9 232.4 113.9H243.7C245 113.9 246.2 112.8 246.2 111.4V97C246.3 95.5 245.2 94.5 243.7 94.5ZM241.3 110H235.1V98.1H241.3V110Z" fill="white"/>
<path d="M19.3999 103.5C19.3999 104.8 20.3999 106 21.8999 106H30.5999V110.2H19.3999V113.9H35.5999V104.8C35.5999 103.6 34.6999 102.4 33.2999 102.3H33.1999H24.2999V98.1H35.4999V94.4H19.3999V103.5Z" fill="white"/>
<path d="M122.4 94.5H108.7V113.8H113.6V108.8H119.9V113.8H124.8V96.9C124.9 95.5 123.7 94.5 122.4 94.5ZM119.8 105.1H113.5V98.2H119.8V105.1Z" fill="white"/>
<path d="M208.2 98.1H213.9V113.8H218.8V98.1H224.4V94.5H208.2V98.1Z" fill="white"/>
<path d="M156.4 94.5H131.5V113.8H136.4V98.2H142.6V113.8H147.6V98.2H153.8V113.8H158.7V96.9C158.8 95.5 157.7 94.5 156.4 94.5Z" fill="white"/>
<path d="M200.7 94.5H186.9V113.8H191.8V98.2H198.1V113.8H203V96.9C203.2 95.5 202.1 94.5 200.7 94.5Z" fill="white"/>
<path d="M165.6 111.3C165.6 112.6 166.6 113.8 168.1 113.8H181.8V110.2H170.6V106H181.8V102.3H170.6V98H181.8V94.4H165.6V111.3Z" fill="white"/>
<path d="M99.7001 106.7H102.4V96.8C102.4 95.4 101.3 94.3 99.6001 94.3H86.1001V113.6H91.0001V106.6H94.6001L97.6001 113.6H102.4L99.7001 106.7ZM97.5001 103H91.2001V98.1H97.5001V103Z" fill="white"/>
<path d="M94.4999 208.1C120.5 207.6 146.4 214.2 179.2 232.8C203.5 246.6 214.2 250.8 221.5 249.1C228.2 247.5 234.5 243.4 245.5 220.3C249.7 211.4 252.7 201 254.1 193.3H77.3999C78.5999 198.7 79.8999 204 81.4999 208.8C85.6999 208.4 90.1999 208.1 94.4999 208.1Z" fill="#63717A"/>
</svg>
