<svg width="389" height="241" viewBox="0 0 389 241" fill="none" xmlns="http://www.w3.org/2000/svg">
<path d="M84.6 54.1C84.6 54.1 117.7 0 185.4 0C253.1 0 284.7 52.5 284.7 52.5H376.6L373 75.1C373 75.1 370.3 84.1 366.2 85H372.5C372.5 85 374.6 92.9 362 120.2H388.8C388.8 120.2 389.9 168 332.1 190.6C332.1 190.6 302.2 200.1 286.9 183.8C286.9 183.8 256.5 240.5 185.6 240.5C114.7 240.5 82.5 182.2 82.5 182.2H0L13.1 158.6H4.2L14.7 139.2H32.6L35.8 131.8H27.4L47.9 94H59.4L64.1 82.5H54.1L69.4 54.1H84.6Z" fill="white"/>
<path d="M186.4 227.9C244.4 227.9 291.4 180.2 291.4 121.3C291.4 62.4 244.4 14.7 186.4 14.7C128.4 14.7 81.3999 62.4 81.3999 121.3C81.3999 180.2 128.4 227.9 186.4 227.9Z" fill="#FAB624"/>
<path d="M268.9 52.4C267.6 50.9 265.7 47.7 252.8 36.4C233.8 19.9 208.7 12.3 185 12.3C167.6 12.3 152.3 16.2 135.5 25.5C113.9 37.3 105.1 51 102.9 53.8C101.3 55.9 101 57 102.1 57.6C102.9 58 104.3 56.4 105.6 54.6C112 46.1 120.4 37.8 129.2 32.8C132 33.2 135.8 37 137.3 39.1C131.6 42.2 122.2 49.3 118.7 52.1C115.6 54.5 114.6 55.8 115.4 56.8C116.1 57.6 118.5 56 120.4 54.4C123.8 51.6 133.9 44.5 138.9 41.8C142.3 45.7 141.2 53.1 140 54.8C139.3 55.7 139.3 56.6 140 57C140.7 57.4 141.5 56.4 142.5 54.9C144.9 51.6 143.9 43.4 141.9 40.5C148 36.8 156.8 34.2 162.1 33C162.6 33.9 169 52.7 170.2 56C170.9 57.9 171.6 60.1 172.9 59.6C173.8 59.3 173.2 57.2 172.4 55.2C171.4 52.6 166.6 36.9 165.1 32.2C166.9 31.2 177.4 29.1 180.1 29.2C178.8 36.1 183.6 38.9 189.2 42.5C192.2 44.4 210.7 55.1 214.6 57.5C216.8 58.9 218.5 59.8 219 59.1C219.5 58.3 218 56.8 215.9 55.7C214.2 54.7 197 44.7 189.8 40.1C184.6 36.9 181.8 33.3 183.1 28.8C184.8 28.3 190 28.3 195.4 28.3C232.2 28.6 261.8 49.8 265.1 53.1C266.8 54.8 269.1 56.3 270 55.6C270.7 55.3 269.7 53.3 268.9 52.4ZM140.4 37.8C139.4 36.1 134.7 31.9 132.2 31C138.1 26.7 151.8 20.4 157 19.3C157.9 20.8 160.3 27.2 161.1 29.8C156.6 30.8 144.4 35.3 140.4 37.8ZM180.7 26C175.9 26.3 167.2 28.2 164.1 29.1C163.3 27 161.1 20.5 160.4 18.5C169.3 16 179.5 15.2 187.5 15.8C185.2 17.4 181.5 24 180.7 26ZM204.6 25.7C196.6 25.1 190.1 24.9 184.4 25.5C186.1 21.4 189.3 17.4 191.9 15.8C197.3 16 202.9 16.8 207.5 17.7C221.8 20.6 243.9 29.2 253.5 42C240.7 33.4 219.5 26.7 204.6 25.7Z" fill="#0B1A23"/>
<path d="M276.9 178.6C278.3 176.1 279.4 174.7 278.2 174C277.1 173.4 276.1 175.8 274.8 177.9C270.5 185.4 265.8 191.6 255.2 201.2C243.5 211.9 229.9 218.1 225.2 219.7C221.2 208.5 205.9 160.5 205.5 159.1C204.9 157 204.4 156.4 203.7 156.7C202.9 157 203.4 158.1 203.8 159.9C204.2 161.7 222.4 218.4 223 220.5C219.4 222.3 204.8 226.4 194.5 226.7C185.3 227 174.7 226.7 169.3 225.4C163 220.3 148.5 199.9 143.1 189.1C136.6 176.3 132.4 164.6 131.3 159.6C130.8 157.2 130.1 155.5 128.9 155.8C127.6 156.1 128.3 158 129.1 160.5C131.1 167.1 134.2 176.4 140.9 189.7C148 203.8 160.7 220.2 164.4 224.8C152.8 222.3 138.7 216.9 125.3 207C113.8 198.4 103.8 187.4 98.8003 179.4C97.9003 178 96.9003 176.1 95.7003 176.9C95.1003 177.3 95.8003 178.9 96.7003 180.3C104 193.3 121.6 211.7 144.3 221.9C170.7 233.7 199.4 233 225.3 223.1C247.7 214.2 267.2 196.3 276.9 178.6Z" fill="#0B1A23"/>
<path d="M234.3 132.3C224.5 144.2 218.9 148.3 209 148.3C205.7 148.3 203.9 147.5 204.8 145.9L216.6 122.2H221.1C226.1 122.2 225.4 126.4 224.1 132.1C223.8 132.9 224.5 133 225.1 132.3L236.3 112.6C236.9 111.3 235.4 111.1 234.7 112C229.1 119.7 223.2 119.1 220.6 119.1H218.5L231.1 95H236.2C242.6 95.4 245.6 100.8 243.8 113.9H246.5L255.8 95.6C256.6 94 254.9 92.6 253.2 92.6H190.3C186.7 92.6 186.5 95.4 190 95.4C192.9 95.4 192.7 99.4 190.1 101.4L163.4 122.6L168.8 147.6C169.2 149.5 170.4 150.4 172.5 150.4H224.6C226.8 150.4 227.7 149.5 228.3 148.6L237.8 132.4C238.9 130.1 235.9 130.3 234.3 132.3ZM197.9 120.8H193.3C193 120.8 192.7 121.1 192.7 121.4C192.7 121.7 193 122 193.3 122H197.9C199.5 122 201 122.2 200.6 122.9L188.6 145.7C187.1 148.5 184 147.8 183.5 145.6L177.5 114.8L198.5 98.6C200.6 96.8 204.6 93.9 206.7 94H211.2C214 94 214.9 95.3 214.4 97L213.6 98.6C213.1 99.5 211.4 99.6 210.1 99.6H207.4C207.1 99.6 206.8 99.9 206.8 100.2C206.8 100.5 207.1 100.8 207.4 100.8H210C211.1 100.8 212.6 100.8 212 101.7L202.3 120.2C201.7 120.7 199.7 120.8 197.9 120.8Z" fill="#542C81"/>
<path d="M154.8 147.7C153.4 147.7 152.4 146.7 152.1 145.7C151.6 144.3 151.7 142 152.2 141L176.5 98C176.9 97.2 177.9 95.5 179.1 95.5C181.3 95.5 182.2 92.6 178.5 92.6H159.1C155.5 92.6 155.5 95.4 158.9 95.4C160.3 95.4 160.9 96.8 160.5 97.7L155.1 107.4C154.4 108.5 152.9 108.6 151.4 108.6H146.8C146.5 108.6 146.2 108.9 146.2 109.2C146.2 109.5 146.5 109.8 146.8 109.8H151.4C152.7 109.8 153.7 110.2 152.9 111.7L135 144.4C133.7 146.2 131.2 146.6 131.3 143.1L137.7 95.2C138 93.7 137.6 92.7 135.9 92.7H126.2C125 92.7 124.3 93.3 123.8 94L120.4 98.3C119.9 98.8 119 98.8 117.9 98.8H109.8C109.5 98.8 109.2 99.1 109.2 99.4C109.2 99.7 109.5 100 109.8 100H116.4C117.6 100 119 100.3 118.5 100.8L109.2 112.4C108.9 112.7 108 112.8 107.4 112.8H104.7C104.4 112.8 104.1 113.1 104.1 113.4C104.1 113.7 104.4 114 104.7 114H106.9C107.6 114 107.6 114.3 107.3 114.6L98.6003 125.5C98.1003 125.9 97.3003 126 96.4003 126H88.7003C88.4003 126 88.1003 126.3 88.1003 126.6C88.1003 126.9 88.4003 127.2 88.7003 127.2H95.3003C96.3003 127.2 97.1003 127.4 96.6003 128.1L84.3003 143.6C81.9003 146.6 70.8003 148 68.6003 148L110.4 69.8C110.8 68.9 112.4 67.5 113.9 67.5H122.8C126.9 67.5 126.8 64.7 123.2 64.7H78.8003C75.2003 64.7 75.1003 67.5 79.2003 67.5H87.5003C89.9003 67.5 90.6003 68.9 90.0003 70.1L88.8003 72.3C88.4003 73 87.8003 73.3 85.6003 73.3H70.9003C70.6003 73.3 70.3003 73.6 70.3003 73.9C70.3003 74.2 70.6003 74.5 70.9003 74.5H85.5003C86.3003 74.5 87.5003 74.7 86.8003 76.2L84.7003 80C84.3003 80.6 83.4003 80.9 82.4003 80.9H75.8003C75.5003 80.9 75.2003 81.2 75.2003 81.5C75.2003 81.8 75.5003 82.1 75.8003 82.1H82.4003C83.4003 82.1 83.4003 82.7 82.8003 83.6L78.1003 92.4C77.7003 93.2 76.9003 93.3 75.4003 93.3H72.7003C72.4003 93.3 72.1003 93.6 72.1003 93.9C72.1003 94.2 72.4003 94.5 72.7003 94.5H75.4003C76.4003 94.5 76.7003 95.1 76.2003 96L72.4003 103.2C71.8003 104.2 71.0003 104.7 68.5003 104.7H53.9003C53.6003 104.7 53.3003 105 53.3003 105.3C53.3003 105.6 53.6003 105.9 53.9003 105.9H68.5003C70.2003 105.9 70.8003 106.7 70.1003 107.9L62.6003 122.1C62.1003 122.7 60.9003 122.8 58.9003 122.8H44.2003C43.9003 122.8 43.6003 123.1 43.6003 123.4C43.6003 123.7 43.9003 124 44.2003 124H58.7003C60.5003 124 61.6003 124.1 61.0003 125L56.7003 133.2C55.9003 134.5 53.6003 134.5 52.8003 134.5H48.2003C47.9003 134.5 47.6003 134.8 47.6003 135.1C47.6003 135.4 47.9003 135.7 48.2003 135.7H52.8003C54.4003 135.7 55.3003 136 54.9003 136.9L49.1003 147.8C48.6003 148.8 46.3003 148.8 44.6003 148.8H21.9003C21.6003 148.8 21.3003 149.1 21.3003 149.4C21.3003 149.7 21.6003 150 21.9003 150H44.5003C46.0003 150 47.8003 150.2 47.2003 151.4L43.5003 158.4C43.1003 159 41.9003 159 40.1003 159H35.5003C35.2003 159 34.9003 159.3 34.9003 159.6C34.9003 159.9 35.2003 160.2 35.5003 160.2H40.1003C41.2003 160.2 42.6003 160.3 42.1003 161.2L39.8003 165.6C39.0003 166.7 38.3003 167.7 36.6003 167.7H24.9003C20.8003 167.7 20.9003 170.5 24.5003 170.5H91.0003C93.0003 170.5 93.0003 170.2 94.0003 168.8L103.8 151.6H154.2C157.9 150.6 156.9 147.8 154.8 147.7ZM115.2 142.6C114.7 145.5 111.9 147.3 108.3 148.2L104.6 149.1L107.7 143.6C108.5 142.1 106.7 141.2 104.8 143.4C91.9003 158.4 87.9003 165.6 68.0003 165.7H62.6003C61.0003 165.7 59.3003 165.1 60.3003 163.5L67.3003 150.4H94.0003C97.6003 150.4 96.7003 147.6 94.6003 147.5C93.2003 147.5 91.6003 146.6 90.6003 144.9C90.3003 144.4 89.6003 142.5 90.7003 141.1L100.9 127.5H117.7L115.2 142.6ZM119.1 125.5H102.6L123.6 97.8L119.1 125.5Z" fill="#542C81"/>
<path d="M371.2 134C370.9 132.6 370.4 133.5 369.5 135.2C369.2 135.7 368.3 135.7 367.5 135.7H364.8C364.5 135.7 364.2 136 364.2 136.3C364.2 136.6 364.5 136.9 364.8 136.9H367.5C368.5 136.9 368.5 137.6 368.1 138.6C366.2 142.5 364.4 145.1 361.9 148.3C361.5 148.8 360.5 149.2 359.7 149.2H357C356.7 149.2 356.4 149.5 356.4 149.8C356.4 150.1 356.7 150.4 357 150.4H359.7C361 150.4 359.7 151.2 359.5 151.5C354.9 157.7 351.6 160.5 348.3 163.2C347.9 163.5 345.9 163.4 344.7 163.4H342C341.7 163.4 341.4 163.7 341.4 164C341.4 164.3 341.7 164.6 342 164.6H344.6C346.6 164.6 345.1 165.8 344.8 166C337.5 172 326.8 174 321.9 173.4C305.8 171.4 302.6 159.2 301.4 154.4C301.1 153.4 300.4 151.3 300.1 150C299.6 147.4 306.8 146.8 308.9 148C312 150.1 318.9 152.1 324.6 152.1C329.7 152.1 340.3 148.4 343.3 139.6C346.5 130.5 338.6 120.6 335.1 117C330.7 112.6 326.5 105.6 328.3 100.4C329.6 96.6 331.8 94.8 336.6 94.8C342.7 94.8 347.2 98.7 347.2 104.4C347.2 104.9 346.9 105.5 346.5 105.5H344.3C344 105.5 343.7 105.8 343.7 106.1C343.7 106.4 344 106.7 344.3 106.7H346.4C347 106.7 347.3 107.1 347.2 107.9C346.8 109.8 346.7 111.1 346.2 112.9C346 114 347.6 114.8 348.1 114L357.8 96.8C358.5 95.5 356.9 95.1 355.8 95.5C353.1 96.4 348.9 97.1 347.3 96C343.7 93.4 340.4 91.8 335.4 91.8C326.8 91.8 320.8 93.9 317 101C316.7 101.6 315.8 101.5 315.1 101.5H313.4C313.1 101.5 312.8 101.8 312.8 102.1C312.8 102.4 313.1 102.7 313.4 102.7H314.8C315.4 102.7 315.8 102.9 315.5 103.6C315.2 104.2 315 104.9 314.8 105.6C313.8 108.7 314.1 112.9 315.7 116.7C315.8 117 315.5 117.1 314.9 117.1H312.2C311.9 117.1 311.6 117.4 311.6 117.7C311.6 118 311.9 118.3 312.2 118.3H314.9C316.1 118.3 316.4 118.4 316.9 119.1C318.3 121 319.7 122.4 321.3 124.6C321.9 125.3 319.5 125.5 318.2 125.5H307.9C307.6 125.5 307.3 125.8 307.3 126.1C307.3 126.4 307.6 126.7 307.9 126.7H318.4C320.1 126.7 323 126.7 323.3 127C325.9 130 328.9 134.5 329.4 138.2C329.5 139.3 329.1 139.8 327.8 139.8H326.4C326.1 139.8 325.8 140.1 325.8 140.4C325.8 140.7 326.1 141 326.4 141H327.7C328.8 141 329.4 141.2 329.1 142C327.7 146.3 325.7 149.5 317.4 149.5C308.6 149.5 306.9 140.9 309.4 132C309.9 130.2 309.4 129.4 308.6 130.8L302.5 140.4C302.3 140.6 301.8 141.2 300.8 141.2H299.9C299.6 141.2 299.3 141.5 299.3 141.8C299.3 142.1 299.6 142.4 299.9 142.4C300.7 142.4 301 142.8 300.7 143.2L298.4 146.6C294.8 138.2 288.6 127.9 285.3 124.1L285.4 123.9C293.5 123.4 305.4 115.8 307.4 109C310.7 97.3 299.3 92.9 293.1 92.9H265.7C262.1 92.9 261.8 95.7 265.3 95.7C267.2 95.7 268.8 97.4 268 99L261.9 109.9C261.4 110.8 259.5 110.8 257.1 110.8H254.4C254.1 110.8 253.8 111.1 253.8 111.4C253.8 111.7 254.1 112 254.4 112H257C258.8 112 260.6 112.1 260.1 113.4L252.9 126.3C252.5 126.9 251.6 127 249.2 127H246.5C246.2 127 245.9 127.3 245.9 127.6C245.9 127.9 246.2 128.2 246.5 128.2H249.1C251.1 128.2 251.8 128.5 251.2 129.5L241.6 146.8C240.4 148.1 239.1 148.3 236.8 148.3C233.4 148.3 233.4 151.1 237 151.1H260.4C264 151.1 263.2 148.2 261 148.2C259.7 148.2 258.4 145.8 259.2 144.5L271.1 121.8H272.3C277.6 121.8 278.9 130.6 279.9 140C280 140.7 278.7 140.7 276.1 140.7H269.4C269.1 140.7 268.8 141 268.8 141.3C268.8 141.6 269.1 141.9 269.4 141.9H276C277.8 141.9 280.1 141.9 280.2 142.5C280.7 146.6 281 150.4 281.8 153.7C282.1 154.8 280.2 154.6 278.2 154.6H269.6C269.3 154.6 269 154.9 269 155.2C269 155.5 269.3 155.8 269.6 155.8H278.1C280.8 155.8 282.1 155.8 282.2 156.3C285.8 169.7 301.5 180.2 316.7 179.6C329.7 179.1 340.7 172 346.3 167.5C353.8 161.5 364.8 148.9 369.3 139.7C370.1 137.7 371.5 135.5 371.2 134ZM283.4 116.2C281.5 117.7 278.7 119.4 278.2 118.9C277.4 118.1 275 116.4 273.7 115.8L284.5 96C285 95.3 285.5 94.9 286.7 94.9C290.9 94.9 292.3 99.5 290.3 105.2C288.9 109.2 286.7 113.6 283.4 116.2Z" fill="#542C81"/>
<path d="M151.601 75C149.401 77.9 146.501 78.5 143.201 78.5H142.301L148.101 67.1C148.401 66.6 149.001 66.2 149.801 66.2C150.501 66.2 150.401 64.7 149.501 64.7H140.401C139.601 64.7 139.301 66.2 140.101 66.2C140.901 66.2 141.001 67.1 140.701 67.8L135.601 77.9C135.201 78.5 134.701 78.6 134.001 78.8C133.201 79 132.701 80.4 133.601 80.4H148.101C149.201 80.4 149.501 80 149.801 79.6L152.801 75.1C152.801 74.6 152.001 74.5 151.601 75Z" fill="#542C81"/>
<path d="M295.8 69.2L297.1 66.8C297.7 65.8 296.7 64.6 295.3 64.6H278.4C277.2 64.6 277.5 65.9 278 65.9C279.1 65.9 279.4 67.2 278.8 68.4L273.7 77.8C272.9 78.7 272.4 79.1 271.3 79.1C270.4 79.1 270.1 80.4 271.3 80.4H288.4C289.1 80.4 289.4 80.1 289.7 79.8L292.1 76.7C292.7 75.9 291.4 75.9 291.1 76.3C288.1 79.3 285 79.2 282.6 79.2H280.6L283 74H283.5C285 74 286.7 74 287.2 75.2C287.3 75.5 288.1 75.7 288.4 75.2L290.4 71.2C290.7 70.6 289.8 70.5 289.6 70.9C288.8 72.3 285.4 71.9 284.4 71.9H283.9L286.9 66.1H290.1C292.2 66.1 293.8 67.6 294.4 69.1C294.6 69.4 295.6 69.7 295.8 69.2Z" fill="#542C81"/>
<path d="M359.2 65.2C358.8 65.4 357.7 65.6 357.2 65.2C356 64.2 353.8 63.5 352.6 63.5C349.2 63.5 346.7 64.2 345.2 67.4C343.9 70.2 345.2 72.4 348.3 73.9C349.6 74.5 351.4 75.3 350.7 76.9C350.2 78.1 348.8 78.2 347.6 78.2C346 78.2 343.6 77 343.2 74.7C343.1 73.9 342.2 74.1 341.9 74.5L339.8 78.6C339.5 79.2 340.3 79.8 340.7 79.4C341.4 78.6 343 78.5 343.7 79C344.7 79.7 347.3 80.9 348.9 80.9C352.3 80.9 354.6 80 356.6 77.1C358.4 74.3 357.3 71.7 354.1 70.2C352.4 69.4 351 68 351.7 66.5C352.2 65.5 353.7 65.7 354.5 65.8C355.9 66 357.7 67.4 357.9 68.6C358 69.1 358.6 69.2 358.9 68.7L360 66.1C360.2 65.4 359.4 65 359.2 65.2Z" fill="#542C81"/>
<path d="M313.8 75C311.6 77.9 308.7 78.5 305.4 78.5H304.5L310.3 67.1C310.6 66.6 311.2 66.2 312 66.2C312.7 66.2 312.6 64.7 311.7 64.7H302.6C301.8 64.7 301.5 66.2 302.3 66.2C303.1 66.2 303.2 67.1 302.9 67.8L297.8 77.9C297.4 78.5 296.9 78.6 296.2 78.8C295.4 79 294.9 80.4 295.8 80.4H310.3C311.4 80.4 311.7 80 312 79.6L315 75.1C315 74.6 314.2 74.5 313.8 75Z" fill="#542C81"/>
<path d="M335.6 66.1C337.7 66.1 339.3 67.6 339.9 69.1C340 69.5 341.1 69.8 341.4 69.3L342.7 66.9C343.3 65.9 342.3 64.7 340.9 64.7H324C322.8 64.7 323.1 66 323.6 66C324.7 66 325 67.3 324.4 68.5L319.3 77.9C318.5 78.8 318 79.2 316.9 79.2C316 79.2 315.7 80.5 316.9 80.5H334C334.7 80.5 335 80.2 335.3 79.9L337.7 76.8C338.3 76 337 76 336.7 76.4C333.7 79.4 330.6 79.3 328.2 79.3H326.2L328.6 74.1H329.1C330.6 74.1 332.3 74.1 332.8 75.2C332.9 75.5 333.7 75.7 334 75.2L336 71.2C336.3 70.6 335.4 70.5 335.2 70.9C334.4 72.3 331 71.9 330 71.9H329.5L332.5 66.1H335.7H335.6Z" fill="#542C81"/>
<path d="M252.5 64.7H246.5C245.3 64.7 245.6 66 246.1 66C247.4 66 248.6 67.5 247.9 68.9L245.4 73.4L239.9 65.3C239.5 64.8 238.6 64.5 237.9 64.5H232C230.8 64.5 231 65.8 231.6 65.8C232.9 65.8 232.501 66.8 232.201 67.4L227.5 76.5C227.2 77.2 225.9 77.3 225.5 76.4L221.9 64.5C221.7 64 219.6 64 219 64.5L209.8 72.1H205.1C204.1 72.1 203.8 72.5 203.8 73C203.8 73.5 204.201 74 205.201 74H207.701L205.201 76.1C203.801 77.1 202.4 78.6 201.5 78.6H200.9C200 78.6 199.5 78.7 199.5 79.5C199.5 80.2 199.901 80.5 200.701 80.5H208.1C209.5 80.5 209.2 78.7 208.5 78.7C207.7 78.7 206.4 77.7 207.6 76.3L209.9 74.1H214.3C217 74.1 218.7 77.2 217.3 78.1L216.1 78.8C215.5 79.1 215.3 80.5 216.1 80.5H230.6C231.7 80.5 231.5 79.1 231 79.1C229.5 79.1 230.2 76.9 230.5 76.4L234.3 69.2L239.6 79.5C240 80.2 240.3 80.5 240.9 80.5H243C243.7 80.5 243.901 80.1 244.201 79.6L250.301 68.7C251.301 66.7 252.101 66.1 253.301 66.1C253.401 66.1 253.8 64.7 252.5 64.7ZM212.1 72.2L217.701 67.6V72.2H212.1Z" fill="#542C81"/>
<path d="M167 64.1C161.9 64.1 156.7 66.6 155.7 72C154.8 76.6 158 81.5 163.7 81.5C169.1 81.5 174 78 175.1 72.8C176 67.6 172.1 64.1 167 64.1ZM168.4 73.9C166.8 77.1 164.1 79 162.4 78.1C160.7 77.2 160.6 74 162.2 70.7C163.8 67.5 166.5 65.6 168.2 66.5C170 67.4 170.1 70.6 168.4 73.9Z" fill="#542C81"/>
<path d="M195.2 65.2C194.8 65.4 193.7 65.6 193.2 65.2C192 64.2 189.8 63.5 188.6 63.5C185.2 63.5 182.7 64.2 181.2 67.4C179.9 70.2 181.2 72.4 184.3 73.9C185.6 74.5 187.4 75.3 186.7 76.9C186.2 78.1 184.8 78.2 183.6 78.2C182 78.2 179.6 77 179.2 74.7C179.1 73.9 178.2 74.1 177.9 74.5L175.8 78.6C175.5 79.2 176.3 79.8 176.7 79.4C177.4 78.6 178.9 78.5 179.7 79C180.7 79.7 183.3 80.9 184.9 80.9C188.3 80.9 190.6 80 192.6 77.1C194.4 74.3 193.3 71.7 190.1 70.2C188.4 69.4 187 68 187.7 66.5C188.2 65.5 189.7 65.7 190.5 65.8C191.9 66 193.7 67.4 193.9 68.6C194 69.1 194.6 69.2 194.9 68.7L196 66.1C196.3 65.4 195.5 65 195.2 65.2Z" fill="#542C81"/>
<path d="M269.7 71.8H263.2C262 71.8 262.301 73.1 262.801 73.1C263.301 73.1 263.801 73.4 263.801 74.2C263.801 76.9 262.7 77.8 260.5 77.8C258 77.8 257.201 74.7 258.801 71.1C259.901 68.7 262.7 66.6 266.1 66.6C268.2 66.6 269.8 67.1 270.1 69C270.2 69.5 270.9 69.5 271.1 69L272.7 66.2C272.9 65.9 272.6 65.5 272.1 65.5C271.7 65.5 270.8 66 270.2 65.6C268.9 64.6 266.1 63.7 263.9 63.7C260.4 63.7 255.5 64.5 252.2 70.2C249.2 75.4 253.6 80.8 257.6 80.8C259.9 80.8 262.4 79.1 263.9 78.5L265.6 79.6C265.9 79.9 266.4 80.3 266.9 80.3H267.5C268.1 80.3 268.3 79.5 268.5 79L271.1 72.8C271.3 72.3 271.1 71.8 269.7 71.8Z" fill="#542C81"/>
</svg>
