<svg width="299" height="299" viewBox="0 0 299 299" fill="none" xmlns="http://www.w3.org/2000/svg">
<path d="M10.4 200.2C8 196.6 0 183.1 0 161.3C0 153.1 1.1 143.8 4.1 133.4C4.1 133.3 4.1 133.3 4.1 133.2L5.4 128.2L5.7 128.5C5.9 127.9 6.1 127.3 6.3 126.7C7.3 123.6 8.4 120.3 8.7 119.6C8.9 118.9 9.8 115.2 10.6 112.6C10.8 111.8 11 111.2 11.2 110.6V110.2C11.4 108.3 11.7 106.4 12.1 104.6C12.2 103.6 12.4 102.7 12.5 101.9L12.6 101.6L12.7 101.3C12.8 101.1 12.9 100.9 12.9 100.8C16.6 85.6 23.6 76.6 27.5 72.5V72.4V72.3C28.3 71.6 30.4 69.6 32.9 68C34 66.5 37.7 61.7 41.1 57.9C42.3 56.6 43.4 55.5 44.4 54.5C45 53.2 46.3 50.5 48.8 47.3C52.2 43.1 57.6 38.1 66 35.1C72.4 30.7 79.2 26.9 86.3 23.5C87.7 22.1 92.8 17 100.8 11.9C110.1 6 123.2 0 138.8 0C139.4 0 140 0 140.6 0L146.3 0.200001L139.3 9.6C143 9.3 146.8 9.2 150.6 9.2C170.7 9.2 190 13.1 207.5 20.2H207.6H207.7C208.4 20.5 209.6 21.1 210.8 21.9C211.9 22.6 212.9 23.3 213.9 24.3C215.1 24.4 217.7 24.9 220.5 26.1H220.6H220.7C239.6 36 256.1 49.9 269 66.5L269.1 66.6L269.2 66.8C269.4 67.1 269.9 68.2 270.3 70.3C270.5 70.4 270.8 70.6 271.2 70.9C271.9 71.4 272.7 71.9 273.4 72.7L273.6 72.9L273.7 73.1C289.5 96.1 298.8 123.8 298.8 153.6C298.8 181.8 290.5 208.2 276.1 230.5L276 230.6L275.9 230.7C275.7 231 275.6 231.1 275.4 231.3C275.2 231.5 275 231.7 274.7 231.9C274.3 232.2 273.7 232.6 273 233.1C272.9 233.4 272.9 233.7 272.8 234.2C272.6 235.1 272.3 236.2 271.6 237.3V237.4L271.5 237.5C244.6 274.3 200.5 298.3 150.6 298.3C85.7 298.4 30.3 257.4 10.4 200.2Z" fill="white"/>
<path d="M271.6 75.1C270.7 74.2 268.7 73 268.7 73C268 72.7 267.8 72 267.8 72C267.4 69.5 266.9 68.6 266.9 68.6C254.3 52.3 238.1 38.8 219.5 29C216.2 27.5 213.2 27.4 213.2 27.4C212.5 27.4 212.2 26.9 212.2 26.9C211.1 25.4 207.8 23.7 206.6 23.1C189.4 16.1 170.6 12.3 150.8 12.3C144.8 12.3 138.9 12.7 133.1 13.4L140.7 3.20001C110.2 2.30001 88.3998 26.1 88.3998 26.1C81.0998 29.5 74.0998 33.5 67.4998 38C51.5998 43.7 46.9998 56.5 46.9998 56.5C42.9998 59.9 34.9998 70.5 34.9998 70.5C32.6998 71.8 30.2998 74 29.5998 74.7C25.8998 78.5 19.1998 87.1 15.6998 101.9C15.5998 102.1 15.4998 102.4 15.3998 102.6C15.2998 103.4 15.0998 104.4 14.9998 105.3C14.6998 107.1 14.2998 108.9 14.0998 110.8L14.2998 110.6C14.1998 111 14.1998 111.2 14.1998 111.2C13.7998 111.5 11.4998 120.6 11.4998 120.6C11.0998 121.8 6.99981 134.2 6.99981 134.2V134.3C-3.90019 172.5 10.5998 195.6 13.0998 199.1C32.3998 255.2 86.7998 295.7 150.9 295.7C199.8 295.7 243.1 272.2 269.4 236.1C270.1 234.9 270.5 232.5 270.5 232.5C270.5 231.7 271.1 231.4 271.1 231.4C273.1 230.3 273.8 229.6 273.9 229.4C288 207.6 296.1 181.8 296.1 154.1C296.2 124.7 287.1 97.6 271.6 75.1Z" fill="#061922"/>
<path d="M89.8998 47.7C90.2998 47.3 90.5998 46.9 90.8998 46.6C91.3998 46.1 91.5998 46 91.5998 46C91.6998 45.9 91.6998 45.9 91.6998 45.9C91.7998 38.6 93.4998 32.8 93.4998 32.8C106.7 14.3 128.5 9.50001 128.5 9.50001C131.2 8.70001 129.5 9.9 129.5 9.9C115.8 25.3 117.2 38 117.2 38L130.3 85.8C130.3 85.8 119.7 82.1 111.5 65.3C107.7 98.8 139.3 126 139.3 126C140.7 127.2 138.5 125.9 138.5 125.9C130.6 122 121.5 113.6 119 111.3C119.7 113.9 135 191.2 135.1 191.4C135.2 191.8 135.4 192.5 135.5 193L140.8 179.8L145.2 218.8C125.2 237.4 103.9 230.1 102.5 229.6C103 230.4 103.4 231 103.4 231C103.4 231 120.7 265 191.3 261.4C191.3 261.4 193 261.4 192.7 261.6C192.7 261.7 192.6 261.7 192.3 261.8C191 262.3 188.9 262.6 188.9 262.6C103.7 285.4 59.5998 212.8 57.6998 209.5C57.1998 208.8 52.9998 202.9 50.6998 197.1C50.5998 196.9 50.4998 196.4 50.8998 196.8C50.8998 196.8 59.8998 206.2 85.4998 208.6C85.6998 208.6 85.7998 208.6 85.7998 208.6C65.9998 186.6 57.5998 170.6 56.3998 168.1C56.3998 168.1 53.9998 164.5 51.1998 154.4C51.1998 154.4 51.2998 153.9 51.4998 154.4C52.4998 156.4 58.9998 166.1 66.9998 168.2C60.1998 157.3 55.9998 140.1 55.4998 137.5C64.6998 150.4 80.9998 151.3 80.9998 151.3C80.9998 151.3 80.9998 151.2 80.8998 151.2C80.8998 151.3 80.9998 151.3 80.9998 151.3C54.1998 124.5 59.9998 95.4 70.7998 74.4C77.3998 61.9 85.5998 52.3 89.8998 47.7Z" fill="white"/>
<path d="M170.2 224.8L152.6 243.3L174.3 226.6L163.1 187.8L168 141.2L159.4 185.7L170.2 224.8Z" fill="#BBC4CA"/>
<path d="M174.1 110.7C172.6 118.7 170.1 126.8 165.7 130.5C166 130.3 166.4 130.1 166.9 129.9C168.2 129.1 169.9 127.9 171.7 126.1C175.2 122.5 178.7 116.6 178.7 107.3C178.7 103.1 178 98.3 176.3 92.7C176 95.8 175.5 103.2 174.1 110.7Z" fill="#BBC4CA"/>
<path d="M173.9 51.2C180 41.9 190.1 41.1 194.4 41.1C190.7 40 187.3 39.6 184.2 39.6C177.7 39.6 172.9 41.4 170.9 42.3C170.6 42.4 170.4 42.5 170.2 42.6C171.8 44.8 173.4 49.5 173.9 51.2Z" fill="#BBC4CA"/>
<path d="M166.2 70.6C166.4 70.6 166.5 70.7 166.5 70.9C166.5 71.8 166.5 72.6 166.5 73.5C166.5 93.4 161.2 115.3 159.2 122.9C166.8 105.4 168.9 89.1 168.9 76.6C168.9 69.3 168.2 63.2 167.5 59C167.1 56.8 166.8 55.1 166.5 54C164.6 69 158.9 75.8 158.8 75.9C158.7 76 158.6 76 158.5 76C158.4 76 158.3 75.9 158.3 75.8C148.9 58.5 135 47.9 128.7 43.7C127.6 43 126.7 42.4 126.2 42.1C144.1 80.9 149.3 110.9 150.6 120.8C150.6 119.7 150.7 118.5 150.7 117.3C150.7 99.6 146.2 78.2 143.9 68.6C143.1 65.4 142.6 63.5 142.6 63.5C142.6 63.4 142.6 63.2 142.7 63.2C142.8 63.1 142.9 63.1 143.1 63.2C151.1 69.4 156.8 87.2 157.8 90.5C159.3 88.6 161.3 84 162.9 79.7C164.6 75.1 166 70.9 166 70.9C165.9 70.7 166 70.6 166.2 70.6C166.1 70.6 166.1 70.6 166.2 70.6Z" fill="#BBC4CA"/>
<path d="M15.7998 151.2C15.7998 169.7 18.9998 189 34.8998 213.7C49.8998 245.3 77.5998 262.3 90.4998 268.9C94.7998 271.1 97.3998 272.1 97.4998 272.1C118 281.8 137.3 285.3 154.6 285.3C190.8 285.3 218.2 269.7 229.7 261.9C233.5 259.3 235.6 257.6 235.6 257.6C236.4 257 236.9 256.5 237.4 256.1C237.2 256.2 236.9 256.4 236.7 256.5C235.9 257 235.1 257.5 235.1 257.5C207 274 181.1 279 159.9 279C126.8 279 105.3 266.6 105.3 266.6C34.9998 229.8 33.9998 165.9 33.9998 165.9C33.9998 165.8 34.0998 165.6 34.1998 165.6C34.2998 165.6 34.4998 165.6 34.4998 165.8C43.5998 183.4 54.5998 189.4 59.3998 191.3C60.0998 191.6 60.6998 191.8 61.0998 191.9C40.5998 166 34.7998 144.3 34.7998 128C34.7998 106.4 44.9998 94.1 45.0998 94.1C45.1998 94 45.2998 94 45.4998 94C45.5998 94.1 45.6998 94.2 45.6998 94.3C44.1998 101.9 43.6998 108.7 43.6998 114.5C43.6998 128.8 46.9998 137.6 48.6998 141.2C48.6998 141.3 48.7998 141.4 48.7998 141.5C48.1998 136.3 47.8998 131.3 47.8998 126.5C47.8998 78.3 76.0998 48.7 82.0998 42.9C77.5998 44.8 72.1998 49.6 67.7998 54.1C62.8998 59.1 59.1998 63.7 59.1998 63.7C59.0998 63.8 58.9998 63.8 58.8998 63.8C58.7998 63.8 58.6998 63.6 58.6998 63.5C58.6998 59.7 60.8998 54.9 62.0998 52.5C58.4998 55.8 55.4998 61 53.2998 65.5C50.8998 70.5 49.5998 74.7 49.5998 74.7L49.4998 74.8C38.2998 87.4 32.8998 101 30.8998 106.9C30.1998 108.9 29.8998 110 29.8998 110C29.5998 111 29.4998 111.5 29.3998 111.8C29.2998 111.9 29.2998 112 28.9998 112.1C28.7998 112.1 28.6998 111.9 28.6998 111.9C28.6998 111.8 28.6998 111.8 28.6998 111.7C28.6998 111.6 28.6998 111.4 28.6998 111.3C28.6998 110.7 28.7998 109.9 28.7998 109.9C28.9998 100.8 32.7998 90.6 34.2998 86.8C23.5998 98.3 20.9998 113.9 20.9998 126.4C20.9998 132.3 21.5998 137.5 22.1998 141.2C22.7998 144.9 23.3998 147.1 23.3998 147.1V147.2C23.3998 154.5 24.8998 163.6 26.2998 170.9C27.6998 178.1 29.1998 183.5 29.1998 183.5C29.6998 184.9 29.8998 185.5 29.8998 185.9C29.8998 186 29.8998 186 29.8998 186.1C29.8998 186.2 29.6998 186.3 29.5998 186.3C29.3998 186.3 29.2998 186.2 29.2998 186.1C29.1998 186 29.1998 185.9 29.0998 185.8C28.9998 185.6 28.7998 185.3 28.6998 185.1C28.3998 184.6 28.1998 184.1 28.1998 184.1C20.6998 172.6 17.0998 153.7 16.1998 149C15.7998 149.7 15.7998 150.4 15.7998 151.2Z" fill="#BBC4CA"/>
<path d="M180.6 61L180.4 60.9L180.5 60.7C183.9 51.5 200.1 43.4 203.2 41.8C195.7 37.6 188.5 36.3 182.5 36.3C178 36.3 174.2 37 171.5 37.8C168.8 38.5 167.3 39.2 167.3 39.2L167.1 39.3L167 39.1C164.2 35.6 160.6 32.2 157.7 29.6C154.9 27.1 152.8 25.5 152.6 25.3C152.2 25 151.9 24.9 151.9 24.5C151.9 24.3 152.1 24.1 152.2 24.1C152.3 24 152.5 24 152.6 24C152.9 23.9 153.3 23.9 153.6 23.9C154 23.9 154.3 23.9 154.4 23.9C218.8 23.9 253 69.9 253 69.9C253.4 70.4 253.7 70.9 253.7 71.4C253.6 72.8 252.1 73.4 250.7 73.9C249.3 74.3 247.8 74.5 247.8 74.5C241.6 75.4 235.8 75.7 230.5 75.7C196.8 75.7 180.6 61 180.6 61Z" fill="#0064B1"/>
<path d="M158.7 246.9C158.6 246.9 158.5 246.8 158.5 246.7C158.5 246.6 158.5 246.5 158.6 246.4L180.2 229L169.2 188.4V188.3L172.2 161.1C172.2 161 172.3 160.9 172.3 160.9C172.4 160.8 172.5 160.8 172.6 160.9C177.5 162.4 179.8 169.1 181 175.3C181.8 179.8 182.1 184 182.1 186.1C187.8 173.7 189.7 163.7 189.7 156C189.7 145.1 185.9 138.6 184.1 136.1C183.5 135.3 183.1 134.9 183.1 134.9C183 134.8 183 134.6 183.1 134.5C183.2 134.4 183.4 134.4 183.5 134.5C209.2 158.9 214.4 193 214.4 216.5C214.4 232.4 212 243.4 212 243.5C211.2 246 208.6 246.6 208.5 246.7C198 249 188.8 249.8 181.2 249.8C167.1 249.6 158.7 246.9 158.7 246.9Z" fill="#0064B1"/>
<path d="M219.1 244C218.7 243.7 218.4 243.1 218.5 242.4C218.5 242.1 218.5 241.7 218.7 241.2C218.7 241.2 219.5 238 220.4 232.4C221.2 226.9 222.1 219 222.1 209.8C222.1 185.3 216.2 151.1 188.9 124.6C188.8 124.5 188.4 124.3 188.2 124C188.1 123.9 188 123.8 188 123.6C188 123.5 188.1 123.3 188.2 123.2C188.3 123.1 188.4 123.1 188.6 123.1C188.9 123.1 189.2 123.2 189.8 123.3C189.8 123.3 197.1 125.5 202.2 131.2C202.2 130.8 202.1 130.4 202 129.9C201.8 128.4 201.4 126.4 200.7 124C199.3 119.2 196.8 113.1 192.2 107.8C192.2 107.8 191.6 107.1 191.2 106.7C191.1 106.5 191 106.5 191 106.2C191 106.1 191 106 191.1 106C191.2 105.9 191.3 105.9 191.3 105.9C191.5 105.9 191.6 106 191.8 106.1C192 106.2 192.3 106.4 192.7 106.7C194.3 107.5 262.9 140.7 265.3 207.6C265.3 207.6 265.3 208 265.3 208.6C265.3 210.2 265 213.5 262.9 215.4C262.2 216.2 246 236.4 222.1 244.2C222.1 244.2 221.4 244.5 220.6 244.5C220 244.4 219.5 244.3 219.1 244Z" fill="#0064B1"/>
<path d="M270.7 196.8C270.5 196.3 270.4 195.7 270.4 194.8C268.8 130.4 198.2 89.8 180.5 80.7C178 79.4 176.6 78.7 176.6 78.7L175.4 78.1H176.8C176.9 78.1 176.9 78.1 177 78.1C186.3 78.1 191.9 83.7 193.6 85.6C193.6 83.9 193.3 82.1 192.9 80.8C192.6 79.4 192.2 78.5 192.2 78.5L192 77.9L192.6 78.1C200 80.9 209.5 81.9 218.9 81.8C227.9 81.8 236.8 80.9 243.4 80.1C250 79.2 254.3 78.4 254.3 78.4C254.6 78.4 255 78.4 255.3 78.4C259.1 78.4 260.3 80.5 260.4 80.9C269.2 90.7 280.2 113.6 282 141C282.2 144.4 282.3 147.8 282.3 151C282.3 175.1 276.5 192.6 273.1 196.7C272.6 197.3 272.2 197.7 271.6 197.7C271.2 197.6 270.9 197.3 270.7 196.8Z" fill="#0064B1"/>
<path d="M120.3 16.2C120.3 16.1 120.4 16.1 120.4 16C119.6 16.2 105.5 20.4 101.4 41.8C101.4 41.8 101.4 42.2 101.6 41.8C102.9 39.7 107.3 33.1 111.3 35C111.3 35 111.3 34.8 111.4 34.6C111.5 32.9 112.9 25.4 120.3 16.2Z" fill="#061922"/>
<path d="M109.5 210.2C106.5 204.1 86.8998 161.4 86.8998 161.4C80.7998 163.3 73.2998 158.4 73.2998 158.4C82.8998 183.9 105.5 206.3 109.2 210.3C109.2 210.3 109.2 210.3 109.3 210.4C109.9 211.1 109.9 210.8 109.9 210.8C109.7 210.7 109.6 210.5 109.5 210.2Z" fill="#061922"/>
<path d="M90.0999 71.2C72.4999 111.5 112.2 128.1 112.7 128.3L110.6 119L109.4 113.7C108.4 113.4 107.5 113 106.6 112.6C106.3 112.5 106 112.3 105.7 112.2C105.3 112 105 111.8 104.6 111.7C87.2999 102.5 88.8999 80.4 89.9999 73.2C89.9999 73.1 89.9999 73.1 89.9999 73C89.9999 72.8 90.0999 72.6 90.0999 72.4C90.1999 71.7 90.2999 71.3 90.2999 71C90.2999 70.9 90.2999 70.8 90.2999 70.8C90.3999 70.4 90.1999 71 90.0999 71.2Z" fill="#061922"/>
<path d="M116.2 184.7L113.3 134L130.3 190.5C130.4 190.5 124.8 177.2 116.2 184.7Z" fill="#BBC4CA"/>
<path d="M117.3 39L121.1 69.3C121.1 69.3 122.9 77.6 111.6 65.2C119.8 82 130.4 85.7 130.4 85.7L117.4 38.3C117.3 38.4 117.2 38.5 117.3 39Z" fill="#BBC4CA"/>
<path d="M99.2 94.3C98.1 91.8 97.7 89.5 97.7 87.5C97.7 80.1 103.1 76 103.1 76L103.3 75.9C103.3 76 103 71.2 103.5 63.6C99.1 70 89.9 85.2 101 97.1C100.8 96.9 100.7 96.6 100.5 96.4C99.9 95.5 99.5 94.9 99.2 94.3Z" fill="#BBC4CA"/>
<path d="M110.7 100.5C108.8 97.2 104 86.7 103.3 76.1C103.3 76 103.3 76 103.3 75.9L103.1 76C103.1 76 97.7002 80.2 97.7002 87.5C97.7002 89.5 98.1002 91.8 99.2002 94.3C99.5002 94.9 99.9002 95.6 100.5 96.4C100.6 96.6 100.8 96.8 101 97.1C101.2 97.4 101.4 97.6 101.7 97.9C103.6 99.9 106.7 102 111.9 102.2C111.8 102.2 111.3 101.6 110.7 100.5Z" fill="#061922"/>
<path d="M126.1 196.7C127.9 196.7 129.2 198.3 130.3 200.6C131.4 202.9 132.3 205.8 133 208.8C133.9 212.5 134.4 216.2 134.7 218.4C134.7 219.4 134.7 220.2 134.7 220.6C135.1 218.2 138.7 194.5 126.6 191.1C126.6 191.1 118.2 189 118.8 206.4C118.9 206 118.9 205.7 118.9 205.3C121.6 199.2 123.9 196.7 126.1 196.7Z" fill="#BBC4CA"/>
<path d="M134.7 218.3C134.7 217.6 133.9 212.4 133 208.7C132.3 205.7 131.4 202.8 130.3 200.5C129.2 198.3 127.9 196.7 126.1 196.6C123.9 196.6 121.6 199.1 118.8 205.3C118.6 205.7 118.7 205.8 118.7 206.4L122.8 215.5C122.8 215.5 125.2 191.1 134.5 220.4C134.7 220.1 134.8 219.6 134.7 218.3Z" fill="#061922"/>
</svg>
