<svg width="294" height="274" viewBox="0 0 294 274" fill="none" xmlns="http://www.w3.org/2000/svg">
<path d="M270.9 37.7C250.8 13.5 222 0 189.6 0H60.1L0 273.1L110.6 273.2L126.5 207.1C141.3 207.1 180.4 207.1 180.3 207.1C217.3 207.4 247.7 194.8 268.2 170.8C305.3 130.4 298.7 71.3 270.9 37.7Z" fill="#BEC0C2"/>
<path d="M120.7 199.9L104.9 266H8.8999L65.7999 7.19995L189.5 7.29996C220.3 7.39996 246.7 19.8 265.3 42.3C292.7 75.4 295.4 130.4 262.6 166.2C242.5 189.8 213 200.2 180.3 199.9H120.7Z" fill="#002D62"/>
<path d="M53.1001 64.7H107.3C113.5 64.7 120.2 69.9 117.3 77.8C115.5 82.7 114.2 88.4 113.5 93.7C113 97.9 117.7 100.5 120.3 100.5L230.8 100.6C232.9 100.6 234 100 234 99C234 98 233.9 94.3 233.5 91.8C233.1 89.4 232.7 88.9 230.7 88.9C216.9 88.9 211.3 82.8 196.9 73.4C182.5 64.1 161.3 58.7 143.1 58.7L54.4001 58.6L53.1001 64.7Z" fill="#FDBB30"/>
<path d="M120 136.3C118.1 132.2 116.3 127.3 115.2 122.9C113.8 117.2 109 112.5 100.7 112.5H42.5L43.9 106L232.4 106.1C234.3 106.1 233.9 106.9 233.8 109C233.7 111.1 233.2 114.9 232.9 117.2C232.6 119.5 230.7 118.9 228.9 119C224.7 119.1 216.8 120.1 212.2 123.5C204.4 129.4 187.7 139.7 178.4 142.7C168.4 145.9 130.8 157.4 119.8 136.2" fill="#FDBB30"/>
<path d="M32.2002 159.8L130.6 159.9C134.9 159.9 138.7 160.9 141.6 163.3C149.9 170.2 160.7 175.1 172.1 178.4C177.2 179.9 186.1 178 194 173.5C213.7 162.4 226.4 141.2 230.5 127.5C231.6 123.9 229.5 124.2 226.7 124.4C218.4 125 209.7 132.5 198.2 139.8C186.7 147.1 163.4 154 141.2 154L33.4002 153.9L32.2002 159.8Z" fill="#FDBB30"/>
<path d="M176.5 28C177.9 27.8 182.9 27.5 185.6 28.5C204.3 35.9 222 55.3 229.4 76C230.8 80 231.2 82.5 229.4 82.7C220.8 83.6 216.8 79.4 206.8 72.6C196.7 65.8 187.4 61.1 174.7 57.1C162.1 53.1 139.2 52.5 136.2 52.4C133.2 52.3 133.6 51.1 134.9 49.8C145.9 38.9 160.6 30.9 176.5 28Z" fill="#FDBB30"/>
<path d="M266.2 99C266.3 99.8 265.4 100.7 264.4 100.7C264.3 100.7 242.8 100.7 242.8 100.7C240 100.7 240 99.4 239.9 97.8C239.8 96.2 239.3 93.1 239.3 91.2C239.2 89.4 238.5 87.3 241 86.3C247 83.8 252.7 77.9 255.3 72.9C256.2 71.2 257.5 68.4 258.9 70.8C264 78.8 265.6 88.9 266.2 99Z" fill="#FDBB30"/>
<path d="M258.5 137.7C258.1 138.4 256.8 139 256.3 137.8C253.2 129.4 245.7 123.6 240.5 120.7C238.9 119.8 238.8 118.8 239 117.3C239.2 115.8 239.9 110.9 240 108.8C240.1 107.2 240.7 106 242 106H264.5C265.3 106 266.3 106.7 266.3 107.3C266.2 118 263 128.6 258.5 137.7Z" fill="#FDBB30"/>
<path d="M200.1 179.9C198.5 180.1 195.1 179.6 200.5 176.4C216.8 166.9 231.4 144.6 235.2 131.9C236.7 127 236.8 126.8 238.7 127.3C241.2 128 245.1 131.4 248.1 135.6C251.1 139.7 252.4 147.8 250.7 150.2C239.1 165.8 220.4 176.9 200.1 179.9Z" fill="#FDBB30"/>
<path d="M241.6 79.1C237.8 81.1 237.1 80.8 236.3 77.9C229.2 53 208.3 34.6 199.7 29.2C198.1 28.2 198.5 27.5 199.7 27.6C220.2 30.3 240.2 41.5 250.3 56.8C256.1 65.5 245.3 77.1 241.6 79.1Z" fill="#FDBB30"/>
</svg>
