<svg width="394" height="153" viewBox="0 0 394 153" fill="none" xmlns="http://www.w3.org/2000/svg">
<path d="M393.8 48.1L390.4 46C338.2 15.6 262.4 0.5 227.6 0H227.1C221.4 0 217.4 1.99999 215.3 5.89999C213.5 9.19999 213.7 12.5 214.6 15.4C214 14.7 213.1 14 212.2 13.3C209.4 11.2 206.1 9.5 206.1 9.5C206.1 9.5 206.5 12.2 205.5 11.9C205 11.7 204.4 11.5 203.8 11.2C201 9.9 196.9 7.39999 196.9 7.39999C196.9 7.39999 192.7 9.9 189.9 11.2C189.3 11.5 188.7 11.7 188.2 11.9C187.2 12.2 187.6 9.5 187.6 9.5C187.6 9.5 184.3 11.2 181.5 13.3C180.6 14 179.7 14.7 179.1 15.4C180 12.6 180.2 9.29999 178.4 5.89999C176.3 1.99999 172.4 0 166.6 0H166.1C131.4 0.6 55.6 15.6 3.4 46L0 48.1C0 48.1 5.1 61.2 17.8 64.9L16.1 65.7C16.1 65.7 23.3 77.3 34.4 79.7L32.3 80.6C32.3 80.6 40.1 93.3 55.3 95.9L53.1 97C53.1 97 63.9 108.7 80.6 109.8L78.2 111.6C78.2 111.6 89.2 118.9 105.5 120.8L102.9 123.1C102.9 123.1 131.7 133.6 155.8 124.9C162.5 141.6 178.8 153 197.1 153C215.4 153 231.8 141.7 238.4 124.9C262.5 133.7 291.3 123.1 291.3 123.1L288.7 120.8C304.9 119 316 111.6 316 111.6L313.6 109.8C330.2 108.8 341.1 97 341.1 97L338.9 95.9C354.1 93.2 361.9 80.6 361.9 80.6L359.8 79.7C370.9 77.3 378.1 65.7 378.1 65.7L376.4 64.9C388.7 61.2 393.8 48.1 393.8 48.1Z" fill="#B4975A"/>
<path d="M388.3 49.7C337.2 19.9 262.2 4.79999 227.5 4.19999C223.3 4.09999 220.5 5.09999 219 7.89999C216.6 12.4 220 17.5 221.4 19.7C224.5 24.4 228.7 31.7 228.7 40.5C228.7 57.6 214.9 70.2 197.9 70.2C197.5 70.2 197.2 70.2 196.8 70.2C196.4 70.2 196.1 70.2 195.7 70.2C178.7 70.2 164.9 57.6 164.9 40.5C164.9 31.7 169.1 24.4 172.2 19.7C173.7 17.5 177.1 12.5 174.6 7.89999C173.1 5.19999 170.3 4.19999 166.1 4.19999C131.4 4.79999 56.3998 19.9 5.2998 49.7C5.2998 49.8 13.4998 63.8 29.6998 62.6C27.1998 63.8 24.6998 65.1 22.1998 66.4C22.1998 66.6 29.6998 78.7 47.5998 77C44.5998 78.4 41.6998 79.8 38.6998 81.3C38.6998 81.5 47.2998 93.5 66.1998 93.1C61.8998 95.3 59.1998 96.7 59.1998 96.7C59.1998 96.8 71.6998 108.8 91.7998 105.5C89.5998 107.1 87.3998 108.8 84.7998 110.6C84.7998 110.6 99.5998 118.7 117 116.2C114.8 117.9 112.5 119.6 110.3 121.4C110.3 121.2 136.9 128.7 155.9 120.3C172.2 113.1 181.3 95.5 183.4 91.1C186.6 91.8 189.4 92.2 191.6 92.5C191.6 92.7 195.1 93 196.8 93C198.5 93.1 202 92.8 202 92.5C204.1 92.2 207 91.8 210.2 91.1C212.3 95.5 221.3 113.2 237.7 120.3C256.7 128.7 283.3 121.1 283.3 121.4C281.1 119.7 278.8 117.9 276.6 116.2C294 118.7 308.8 110.6 308.8 110.6C306.2 108.8 304 107.1 301.8 105.5C321.9 108.8 334.4 96.8 334.4 96.7C334.4 96.7 331.8 95.3 327.4 93.1C346.3 93.4 354.8 81.4 354.9 81.3C351.9 79.8 349 78.4 346 77C363.9 78.8 371.3 66.6 371.4 66.4C368.9 65.1 366.4 63.9 363.9 62.6C380.2 63.7 388.3 49.8 388.3 49.7Z" fill="#0A2240"/>
<path d="M182.199 82C182.199 82 136.599 66.7 156.399 18.1C156.399 18.1 108.099 20.1 41.9994 46.8C41.9994 46.8 37.3994 48.7 34.6994 49.7C31.9994 50.7 27.5994 52.4 21.3994 49.4C21.3994 49.4 81.8994 17.8 159.599 10.4C169.799 9.40001 171.199 11 168.499 14.8C166.299 18.1 138.499 53.4 182.199 82Z" fill="white"/>
<path d="M141.7 31.9C102.6 37 64.2998 50.6 64.2998 50.6C70.7998 62.2 88.4998 57.3 88.4998 57.3C121.6 47.9 136.4 44.7 141.2 43.8C141 40.1 141.1 36.2 141.7 31.9Z" fill="#B4975A"/>
<path d="M141.899 50.9C135.399 52.2 107.999 57.8 80.3994 68.1C80.3994 68.1 89.0994 78 106.399 73.1C120.899 69 139.599 63 145.099 61.3C143.699 58.2 142.599 54.7 141.899 50.9Z" fill="#B4975A"/>
<path d="M148 66.8C142.1 68.7 112.6 78.3 100.1 83.1C100.1 83.1 107.2 92.7 127.9 84.6C142.3 78.9 150.2 75.6 153.7 74.1C151.6 71.9 149.7 69.5 148 66.8Z" fill="#B4975A"/>
<path d="M158.299 78.2C153.099 80.4 133.999 88.8 122.899 94.1C122.899 94.1 136.799 100.9 154.399 90.1L165.299 82.9C162.899 81.6 160.499 80.1 158.299 78.2Z" fill="#B4975A"/>
<path d="M170.6 85.8C167.1 88 152.6 97.1 145.5 102.4C145.5 102.4 157.5 107.4 169.9 95.7C173.9 91.9 176.1 89.8 177.3 88.5C175.1 87.8 172.9 86.9 170.6 85.8Z" fill="#B4975A"/>
<path d="M211.6 82C211.6 82 257.2 66.7 237.4 18.1C237.4 18.1 285.7 20.1 351.8 46.8C351.8 46.8 356.4 48.7 359.1 49.7C361.8 50.7 366.2 52.4 372.4 49.4C372.4 49.4 311.9 17.8 234.2 10.4C223.9 9.40001 222.6 11 225.3 14.8C227.6 18.1 255.3 53.4 211.6 82Z" fill="white"/>
<path d="M252.1 31.9C291.2 37 329.5 50.6 329.5 50.6C323 62.2 305.3 57.3 305.3 57.3C272.2 47.9 257.4 44.7 252.6 43.8C252.9 40.1 252.7 36.2 252.1 31.9Z" fill="#B4975A"/>
<path d="M251.899 50.9C258.399 52.2 285.799 57.8 313.399 68.1C313.399 68.1 304.699 78 287.399 73.1C272.899 69 254.199 63 248.699 61.3C250.099 58.2 251.199 54.7 251.899 50.9Z" fill="#B4975A"/>
<path d="M245.8 66.8C251.7 68.7 281.2 78.3 293.7 83.1C293.7 83.1 286.6 92.7 265.9 84.6C251.5 78.9 243.6 75.6 240.1 74.1C242.2 71.9 244.1 69.5 245.8 66.8Z" fill="#B4975A"/>
<path d="M235.5 78.2C240.7 80.4 259.8 88.8 270.9 94.1C270.9 94.1 257 100.9 239.4 90.1L228.5 82.9C230.9 81.6 233.3 80.1 235.5 78.2Z" fill="#B4975A"/>
<path d="M223.2 85.8C226.7 88 241.2 97.1 248.3 102.4C248.3 102.4 236.3 107.4 223.9 95.7C219.9 91.9 217.7 89.8 216.5 88.5C218.7 87.8 220.9 86.9 223.2 85.8Z" fill="#B4975A"/>
<path d="M234.3 108.5C234.3 129.2 217.6 145.9 196.9 145.9C176.2 145.9 159.5 129.2 159.5 108.5C159.5 87.9 176.2 71.1 196.9 71.1C217.5 71.2 234.3 87.9 234.3 108.5Z" fill="white"/>
<path d="M226.5 116.3C226.5 132.7 213.2 146 196.9 146C180.5 146 167.3 132.7 167.3 116.3C167.3 99.9 180.6 86.7 196.9 86.7C213.3 86.6 226.5 99.9 226.5 116.3Z" fill="#B4975A"/>
<path d="M196.9 68.2C174.7 68.2 156.6 86.3 156.6 108.5C156.6 130.7 174.7 148.8 196.9 148.8C219.1 148.8 237.2 130.7 237.2 108.5C237.2 86.3 219.1 68.2 196.9 68.2ZM230.7 102C228.2 112 221.4 120.1 212.5 124.6C213.2 119.7 215.4 114.8 217.6 109.7C220.8 102.4 224.4 94.3 222.8 85.8C226.8 90.4 229.6 95.9 230.7 102ZM179.2 79C183.7 76.3 188.9 74.6 194.4 74.2V128.4C191.6 128.2 189 127.7 186.4 126.9C186.1 120.2 183.4 113.9 180.7 107.8C176.2 97.7 172.4 88.8 179.2 79ZM186.1 132C188.8 132.7 191.5 133.2 194.4 133.4V143C189.9 142.7 185.6 141.5 181.7 139.6C183.6 137.7 185.6 135.2 186.1 132ZM199.4 133.3C202.3 133.1 205 132.7 207.7 131.9C208.3 135.1 210.2 137.7 212.1 139.4C208.2 141.3 203.9 142.5 199.4 142.8V133.3ZM207.4 126.8C204.8 127.6 202.2 128.2 199.4 128.4V74.2C204.9 74.6 210.1 76.3 214.6 79C221.4 88.9 217.6 97.7 213.1 107.8C210.4 113.9 207.7 120.1 207.4 126.8ZM170.9 85.9C169.4 94.4 172.9 102.4 176.1 109.8C178.3 114.9 180.5 119.8 181.2 124.8C172.3 120.4 165.5 112.2 163 102C164.2 95.9 167 90.4 170.9 85.9ZM163 114.6C167.3 121.7 173.8 127.2 181.4 130.3C181.4 130.5 181.4 130.8 181.3 131C180.9 133.6 178.8 135.7 177.3 136.8C169.9 131.7 164.6 123.7 163 114.6ZM216.6 136.8C215.1 135.6 213 133.5 212.6 131C212.6 130.8 212.5 130.5 212.5 130.3C220.1 127.1 226.5 121.6 230.9 114.6C229.2 123.8 223.9 131.7 216.6 136.8Z" fill="#0A2240"/>
<path d="M208.899 15.9C208.899 15.9 208.599 17.2 207.799 17.2C206.999 17.2 202.199 14.9 199.899 13.6C198.899 13.1 197.499 12.3 196.999 12C196.999 12 194.899 13.1 193.899 13.6C191.599 14.9 186.699 17.2 185.999 17.2C185.199 17.2 184.899 15.9 184.899 15.9C184.899 15.9 172.199 23.6 172.199 44.7C172.199 60.5 180.399 67.6 180.399 67.6L181.499 72.1H195.499H198.299H212.299L213.399 67.6C213.399 67.6 221.599 60.5 221.599 44.7C221.599 23.6 208.899 15.9 208.899 15.9Z" fill="#0A2240"/>
<path d="M214.899 39.4C214.899 32.9 212.199 27.5 209.399 24.4C209.399 24.4 209.299 26.3 206.199 24.2C203.499 22.4 200.299 21.3 196.899 21.3C193.499 21.3 190.299 22.4 187.599 24.2C184.599 26.3 184.399 24.4 184.399 24.4C181.499 27.6 178.899 32.9 178.899 39.4C178.899 44.8 180.199 47.5 180.699 48.3C183.399 55.2 189.599 60.1 196.899 60.1C204.099 60.1 210.299 55.3 212.999 48.5C213.199 48.3 214.899 45.7 214.899 39.4Z" fill="white"/>
<path d="M203.699 54.2C203.699 54.2 203.699 54.1 203.599 54.1C203.599 54.1 201.799 50.7 204.799 48.4C204.799 48.4 211.399 49.8 211.599 41C211.599 41 211.399 40.1 212.399 38.2C212.399 38.2 210.699 36.6 206.999 39.4C203.299 42.2 201.299 50.1 199.299 48.2C197.299 46.4 197.999 36.1 196.999 35.7C195.999 36.1 196.699 46.4 194.699 48.2C192.699 50.1 190.699 42.2 186.999 39.4C183.299 36.6 181.599 38.2 181.599 38.2C182.499 40.1 182.399 41 182.399 41C182.599 49.8 189.199 48.4 189.199 48.4C192.099 50.7 190.399 54.1 190.399 54.1C190.399 54.1 190.399 54.2 190.299 54.2C182.399 45.7 177.799 46.8 179.999 56.4C182.199 65.8 190.799 106 192.199 115.3C191.999 123.7 190.999 126.7 190.799 127.3L189.899 129L190.899 130.9C192.399 133.1 193.499 135.6 193.799 136.5L197.099 144.8L200.299 136.5C200.699 135.5 201.699 133.1 203.199 130.9L204.199 129.1L203.299 127.3C202.999 126.7 202.099 123.8 201.899 115.7C202.999 107.3 211.799 65.9 214.099 56.3C216.199 46.8 211.599 45.7 203.699 54.2Z" fill="#0A2240"/>
<path d="M191.499 96.1C188.699 81.1 186.399 70 184.599 62C183.199 55.9 186.899 58.3 188.899 62.2L191.499 96.1Z" fill="#CE0E2D"/>
<path d="M202.299 96.1C205.199 81.1 207.399 70 209.199 62C210.599 55.9 206.899 58.3 204.899 62.2L202.299 96.1Z" fill="#CE0E2D"/>
<path d="M187 45.4C186.4 45.2 186.1 44.7 186.3 44.1C186.4 43.9 186.5 43.7 186.7 43.6C186.3 43.2 185.9 42.8 185.4 42.4C185.4 42.4 184.5 46.7 188.3 46.3C188.3 46.3 188.2 45.9 187.9 45.4C187.6 45.5 187.3 45.5 187 45.4Z" fill="#CE0E2D"/>
<path d="M208.499 42.4C207.999 42.8 207.499 43.2 207.199 43.6C207.399 43.7 207.499 43.9 207.599 44.1C207.799 44.7 207.399 45.2 206.899 45.4C206.599 45.5 206.299 45.4 206.099 45.3C205.799 45.8 205.699 46.2 205.699 46.2C209.399 46.7 208.499 42.4 208.499 42.4Z" fill="#CE0E2D"/>
<path d="M198.699 101.7C199.899 78.6 201.799 62.2 201.799 60.1C201.799 59.4 201.699 58.4 201.399 57.4L200.099 61.8L199.699 54C198.999 53.1 198.099 52.3 196.899 51.4H196.799C195.599 52.2 194.799 53.1 194.099 54L193.699 61.8L192.299 57.4C191.999 58.4 191.899 59.4 191.899 60.1C191.899 62.1 193.699 78.5 194.999 101.7C196.199 124.8 193.399 129.1 193.399 129.1C195.099 131.5 196.899 135.8 196.899 135.8C196.899 135.8 198.699 131.5 200.399 129.1C200.399 129.1 197.499 124.8 198.699 101.7Z" fill="#CE0E2D"/>
<path d="M388.3 49.7C337.2 19.9 262.2 4.79999 227.5 4.19999C223.3 4.09999 220.5 5.09999 219 7.89999C216.6 12.4 220 17.5 221.4 19.7C224.5 24.4 228.7 31.7 228.7 40.5C228.7 57.6 214.9 70.2 197.9 70.2C197.5 70.2 197.2 70.2 196.8 70.2C196.4 70.2 196.1 70.2 195.7 70.2C178.7 70.2 164.9 57.6 164.9 40.5C164.9 31.7 169.1 24.4 172.2 19.7C173.7 17.5 177.1 12.5 174.6 7.89999C173.1 5.19999 170.3 4.19999 166.1 4.19999C131.4 4.79999 56.3998 19.9 5.2998 49.7C5.2998 49.8 13.4998 63.8 29.6998 62.6C27.1998 63.8 24.6998 65.1 22.1998 66.4C22.1998 66.6 29.6998 78.7 47.5998 77C44.5998 78.4 41.6998 79.8 38.6998 81.3C38.6998 81.5 47.2998 93.5 66.1998 93.1C61.8998 95.3 59.1998 96.7 59.1998 96.7C59.1998 96.8 71.6998 108.8 91.7998 105.5C89.5998 107.1 87.3998 108.8 84.7998 110.6C84.7998 110.6 99.5998 118.7 117 116.2C114.8 117.9 112.5 119.6 110.3 121.4C110.3 121.2 136.9 128.7 155.9 120.3C172.2 113.1 181.3 95.5 183.4 91.1C186.6 91.8 189.4 92.2 191.6 92.5C191.6 92.7 195.1 93 196.8 93C198.5 93.1 202 92.8 202 92.5C204.1 92.2 207 91.8 210.2 91.1C212.3 95.5 221.3 113.2 237.7 120.3C256.7 128.7 283.3 121.1 283.3 121.4C281.1 119.7 278.8 117.9 276.6 116.2C294 118.7 308.8 110.6 308.8 110.6C306.2 108.8 304 107.1 301.8 105.5C321.9 108.8 334.4 96.8 334.4 96.7C334.4 96.7 331.8 95.3 327.4 93.1C346.3 93.4 354.8 81.4 354.9 81.3C351.9 79.8 349 78.4 346 77C363.9 78.8 371.3 66.6 371.4 66.4C368.9 65.1 366.4 63.9 363.9 62.6C380.2 63.7 388.3 49.8 388.3 49.7Z" fill="#0A2240"/>
<path d="M182.199 82C182.199 82 136.599 66.7 156.399 18.1C156.399 18.1 108.099 20.1 41.9994 46.8C41.9994 46.8 37.3994 48.7 34.6994 49.7C31.9994 50.7 27.5994 52.4 21.3994 49.4C21.3994 49.4 81.8994 17.8 159.599 10.4C169.799 9.40001 171.199 11 168.499 14.8C166.299 18.1 138.499 53.4 182.199 82Z" fill="white"/>
<path d="M141.7 31.9C102.6 37 64.2998 50.6 64.2998 50.6C70.7998 62.2 88.4998 57.3 88.4998 57.3C121.6 47.9 136.4 44.7 141.2 43.8C141 40.1 141.1 36.2 141.7 31.9Z" fill="#B4975A"/>
<path d="M141.899 50.9C135.399 52.2 107.999 57.8 80.3994 68.1C80.3994 68.1 89.0994 78 106.399 73.1C120.899 69 139.599 63 145.099 61.3C143.699 58.2 142.599 54.7 141.899 50.9Z" fill="#B4975A"/>
<path d="M148 66.8C142.1 68.7 112.6 78.3 100.1 83.1C100.1 83.1 107.2 92.7 127.9 84.6C142.3 78.9 150.2 75.6 153.7 74.1C151.6 71.9 149.7 69.5 148 66.8Z" fill="#B4975A"/>
<path d="M158.299 78.2C153.099 80.4 133.999 88.8 122.899 94.1C122.899 94.1 136.799 100.9 154.399 90.1L165.299 82.9C162.899 81.6 160.499 80.1 158.299 78.2Z" fill="#B4975A"/>
<path d="M170.6 85.8C167.1 88 152.6 97.1 145.5 102.4C145.5 102.4 157.5 107.4 169.9 95.7C173.9 91.9 176.1 89.8 177.3 88.5C175.1 87.8 172.9 86.9 170.6 85.8Z" fill="#B4975A"/>
<path d="M211.6 82C211.6 82 257.2 66.7 237.4 18.1C237.4 18.1 285.7 20.1 351.8 46.8C351.8 46.8 356.4 48.7 359.1 49.7C361.8 50.7 366.2 52.4 372.4 49.4C372.4 49.4 311.9 17.8 234.2 10.4C223.9 9.40001 222.6 11 225.3 14.8C227.6 18.1 255.3 53.4 211.6 82Z" fill="white"/>
<path d="M252.1 31.9C291.2 37 329.5 50.6 329.5 50.6C323 62.2 305.3 57.3 305.3 57.3C272.2 47.9 257.4 44.7 252.6 43.8C252.9 40.1 252.7 36.2 252.1 31.9Z" fill="#B4975A"/>
<path d="M251.899 50.9C258.399 52.2 285.799 57.8 313.399 68.1C313.399 68.1 304.699 78 287.399 73.1C272.899 69 254.199 63 248.699 61.3C250.099 58.2 251.199 54.7 251.899 50.9Z" fill="#B4975A"/>
<path d="M245.8 66.8C251.7 68.7 281.2 78.3 293.7 83.1C293.7 83.1 286.6 92.7 265.9 84.6C251.5 78.9 243.6 75.6 240.1 74.1C242.2 71.9 244.1 69.5 245.8 66.8Z" fill="#B4975A"/>
<path d="M235.5 78.2C240.7 80.4 259.8 88.8 270.9 94.1C270.9 94.1 257 100.9 239.4 90.1L228.5 82.9C230.9 81.6 233.3 80.1 235.5 78.2Z" fill="#B4975A"/>
<path d="M223.2 85.8C226.7 88 241.2 97.1 248.3 102.4C248.3 102.4 236.3 107.4 223.9 95.7C219.9 91.9 217.7 89.8 216.5 88.5C218.7 87.8 220.9 86.9 223.2 85.8Z" fill="#B4975A"/>
<path d="M234.3 108.5C234.3 129.2 217.6 145.9 196.9 145.9C176.2 145.9 159.5 129.2 159.5 108.5C159.5 87.9 176.2 71.1 196.9 71.1C217.5 71.2 234.3 87.9 234.3 108.5Z" fill="white"/>
<path d="M226.5 116.3C226.5 132.7 213.2 146 196.9 146C180.5 146 167.3 132.7 167.3 116.3C167.3 99.9 180.6 86.7 196.9 86.7C213.3 86.6 226.5 99.9 226.5 116.3Z" fill="#B4975A"/>
<path d="M196.9 68.2C174.7 68.2 156.6 86.3 156.6 108.5C156.6 130.7 174.7 148.8 196.9 148.8C219.1 148.8 237.2 130.7 237.2 108.5C237.2 86.3 219.1 68.2 196.9 68.2ZM230.7 102C228.2 112 221.4 120.1 212.5 124.6C213.2 119.7 215.4 114.8 217.6 109.7C220.8 102.4 224.4 94.3 222.8 85.8C226.8 90.4 229.6 95.9 230.7 102ZM179.2 79C183.7 76.3 188.9 74.6 194.4 74.2V128.4C191.6 128.2 189 127.7 186.4 126.9C186.1 120.2 183.4 113.9 180.7 107.8C176.2 97.7 172.4 88.8 179.2 79ZM186.1 132C188.8 132.7 191.5 133.2 194.4 133.4V143C189.9 142.7 185.6 141.5 181.7 139.6C183.6 137.7 185.6 135.2 186.1 132ZM199.4 133.3C202.3 133.1 205 132.7 207.7 131.9C208.3 135.1 210.2 137.7 212.1 139.4C208.2 141.3 203.9 142.5 199.4 142.8V133.3ZM207.4 126.8C204.8 127.6 202.2 128.2 199.4 128.4V74.2C204.9 74.6 210.1 76.3 214.6 79C221.4 88.9 217.6 97.7 213.1 107.8C210.4 113.9 207.7 120.1 207.4 126.8ZM170.9 85.9C169.4 94.4 172.9 102.4 176.1 109.8C178.3 114.9 180.5 119.8 181.2 124.8C172.3 120.4 165.5 112.2 163 102C164.2 95.9 167 90.4 170.9 85.9ZM163 114.6C167.3 121.7 173.8 127.2 181.4 130.3C181.4 130.5 181.4 130.8 181.3 131C180.9 133.6 178.8 135.7 177.3 136.8C169.9 131.7 164.6 123.7 163 114.6ZM216.6 136.8C215.1 135.6 213 133.5 212.6 131C212.6 130.8 212.5 130.5 212.5 130.3C220.1 127.1 226.5 121.6 230.9 114.6C229.2 123.8 223.9 131.7 216.6 136.8Z" fill="#0A2240"/>
<path d="M208.899 15.9C208.899 15.9 208.599 17.2 207.799 17.2C206.999 17.2 202.199 14.9 199.899 13.6C198.899 13.1 197.499 12.3 196.999 12C196.999 12 194.899 13.1 193.899 13.6C191.599 14.9 186.699 17.2 185.999 17.2C185.199 17.2 184.899 15.9 184.899 15.9C184.899 15.9 172.199 23.6 172.199 44.7C172.199 60.5 180.399 67.6 180.399 67.6L181.499 72.1H195.499H198.299H212.299L213.399 67.6C213.399 67.6 221.599 60.5 221.599 44.7C221.599 23.6 208.899 15.9 208.899 15.9Z" fill="#0A2240"/>
<path d="M214.899 39.4C214.899 32.9 212.199 27.5 209.399 24.4C209.399 24.4 209.299 26.3 206.199 24.2C203.499 22.4 200.299 21.3 196.899 21.3C193.499 21.3 190.299 22.4 187.599 24.2C184.599 26.3 184.399 24.4 184.399 24.4C181.499 27.6 178.899 32.9 178.899 39.4C178.899 44.8 180.199 47.5 180.699 48.3C183.399 55.2 189.599 60.1 196.899 60.1C204.099 60.1 210.299 55.3 212.999 48.5C213.199 48.3 214.899 45.7 214.899 39.4Z" fill="white"/>
<path d="M203.699 54.2C203.699 54.2 203.699 54.1 203.599 54.1C203.599 54.1 201.799 50.7 204.799 48.4C204.799 48.4 211.399 49.8 211.599 41C211.599 41 211.399 40.1 212.399 38.2C212.399 38.2 210.699 36.6 206.999 39.4C203.299 42.2 201.299 50.1 199.299 48.2C197.299 46.4 197.999 36.1 196.999 35.7C195.999 36.1 196.699 46.4 194.699 48.2C192.699 50.1 190.699 42.2 186.999 39.4C183.299 36.6 181.599 38.2 181.599 38.2C182.499 40.1 182.399 41 182.399 41C182.599 49.8 189.199 48.4 189.199 48.4C192.099 50.7 190.399 54.1 190.399 54.1C190.399 54.1 190.399 54.2 190.299 54.2C182.399 45.7 177.799 46.8 179.999 56.4C182.199 65.8 190.799 106 192.199 115.3C191.999 123.7 190.999 126.7 190.799 127.3L189.899 129L190.899 130.9C192.399 133.1 193.499 135.6 193.799 136.5L197.099 144.8L200.299 136.5C200.699 135.5 201.699 133.1 203.199 130.9L204.199 129.1L203.299 127.3C202.999 126.7 202.099 123.8 201.899 115.7C202.999 107.3 211.799 65.9 214.099 56.3C216.199 46.8 211.599 45.7 203.699 54.2Z" fill="#0A2240"/>
<path d="M191.499 96.1C188.699 81.1 186.399 70 184.599 62C183.199 55.9 186.899 58.3 188.899 62.2L191.499 96.1Z" fill="#CE0E2D"/>
<path d="M202.299 96.1C205.199 81.1 207.399 70 209.199 62C210.599 55.9 206.899 58.3 204.899 62.2L202.299 96.1Z" fill="#CE0E2D"/>
<path d="M187 45.4C186.4 45.2 186.1 44.7 186.3 44.1C186.4 43.9 186.5 43.7 186.7 43.6C186.3 43.2 185.9 42.8 185.4 42.4C185.4 42.4 184.5 46.7 188.3 46.3C188.3 46.3 188.2 45.9 187.9 45.4C187.6 45.5 187.3 45.5 187 45.4Z" fill="#CE0E2D"/>
<path d="M208.499 42.4C207.999 42.8 207.499 43.2 207.199 43.6C207.399 43.7 207.499 43.9 207.599 44.1C207.799 44.7 207.399 45.2 206.899 45.4C206.599 45.5 206.299 45.4 206.099 45.3C205.799 45.8 205.699 46.2 205.699 46.2C209.399 46.7 208.499 42.4 208.499 42.4Z" fill="#CE0E2D"/>
<path d="M198.699 101.7C199.899 78.6 201.799 62.2 201.799 60.1C201.799 59.4 201.699 58.4 201.399 57.4L200.099 61.8L199.699 54C198.999 53.1 198.099 52.3 196.899 51.4H196.799C195.599 52.2 194.799 53.1 194.099 54L193.699 61.8L192.299 57.4C191.999 58.4 191.899 59.4 191.899 60.1C191.899 62.1 193.699 78.5 194.999 101.7C196.199 124.8 193.399 129.1 193.399 129.1C195.099 131.5 196.899 135.8 196.899 135.8C196.899 135.8 198.699 131.5 200.399 129.1C200.399 129.1 197.499 124.8 198.699 101.7Z" fill="#CE0E2D"/>
</svg>
