<svg width="301" height="301" viewBox="0 0 301 301" fill="none" xmlns="http://www.w3.org/2000/svg">
<path d="M300.2 150.1C300.2 233 233 300.2 150.1 300.2C67.2001 300.2 0.000111462 233 0.000111462 150.1C-0.0998885 67.2 67.1001 0 150.1 0C233 0 300.2 67.2 300.2 150.1Z" fill="#B3B2B1"/>
<path d="M295.9 150.1C295.9 230.6 230.6 295.9 150.1 295.9C69.6003 295.9 4.30029 230.6 4.30029 150.1C4.30029 69.6001 69.6003 4.30005 150.1 4.30005C230.6 4.30005 295.9 69.6001 295.9 150.1Z" fill="#1D428A"/>
<path d="M274.4 150.1C274.4 218.7 218.8 274.5 150 274.5C81.4001 274.5 25.6001 218.9 25.6001 150.1C25.6001 81.5001 81.2001 25.7001 150 25.7001C218.8 25.7001 274.4 81.5001 274.4 150.1Z" fill="#C8102E"/>
<path d="M150.1 25.7001C81.6002 25.7001 25.7002 81.5001 25.7002 150.1C25.7002 218.7 81.5002 274.5 150.1 274.5C218.7 274.5 274.5 218.7 274.5 150.1C274.4 81.6001 218.6 25.7001 150.1 25.7001ZM32.9002 153.8H55.8002V146.5H32.9002C33.0002 143.8 33.1002 141 33.4002 138.3C41.5002 97.4001 90.7002 66.0001 150 66.0001C209.3 66.0001 258.5 97.5001 266.6 138.3C266.9 141 267 143.8 267.1 146.5H244.1V153.8H267C266.9 156.5 266.8 159.3 266.5 162C258.4 202.8 209.1 234.3 149.9 234.3C90.7002 234.3 41.5002 202.8 33.4002 162C33.2002 159.3 33.1002 156.5 32.9002 153.8ZM150.1 32.9001C199.7 32.9001 242.3 63.9001 259.3 107.6C238.5 79.1001 197.4 59.6001 150.1 59.6001C102.8 59.6001 61.7002 79.0001 40.9002 107.6C57.9002 64.0001 100.4 32.9001 150.1 32.9001ZM150.1 267.4C100.5 267.4 57.9002 236.4 40.9002 192.7C61.7002 221.2 102.8 240.7 150.1 240.7C197.4 240.7 238.5 221.3 259.3 192.7C242.2 236.2 199.7 267.4 150.1 267.4Z" fill="white"/>
<path d="M106.2 153.4H97.5V192.9H106.2V153.4Z" fill="white"/>
<path d="M131.2 153.4H130.9C128.5 153.4 119.4 153.3 117.7 153.4H117.3C114.7 153.4 112.9 154.6 112.5 157C112.4 157.4 112.4 157.6 112.4 157.6C112.4 157.7 111.8 165.1 112.5 167.2C113.7 170.6 116.5 171.9 118.9 172.6C119 172.6 119.1 172.7 119.2 172.7C119.4 172.7 119.5 172.8 119.7 172.9C120 173 120.2 173.2 120.3 173.3V187.5H113.1V192.8H122.7C126.1 192.7 128.3 191.2 129.1 188.7C129.3 186.8 129.4 173.5 129.2 170.8C129.1 169.8 128.7 168.9 127.7 168.2C127.3 167.9 126.9 167.6 126.3 167.3C125.8 167 125.2 166.8 124.7 166.5C122.7 165.5 120.3 164.4 120.3 161.7V159.5H127.2C128.6 159.5 129.7 158.8 130.5 157.5C131 156.5 131.2 155.5 131.2 155.5C131.3 154.9 131.2 154.3 131.2 153.9V153.4Z" fill="white"/>
<path d="M171.5 153.4C169.6 153.4 167.4 153.5 165.8 153.9C161.5 154.9 159.4 157.8 159.4 162.7V186.2C159.4 192.2 163.7 193.4 170.2 193.4C178 193.4 182.5 190.7 182.5 185.8V161.3C182.4 153.4 177.4 153.4 171.5 153.4ZM168.5 162.3C168.5 161.3 168.6 160.5 168.8 159.9L169 159.8C169.4 159.7 169.8 159.7 170.2 159.7H170.4C173.3 159.7 173.5 160.6 173.5 166V182.5C173.5 183 173.5 183.4 173.5 183.9C173.5 184.4 173.4 184.8 173.3 185.2L173.1 185.4C172.6 185.5 172.1 185.5 171.6 185.5C170.5 185.5 169.8 185.3 169.3 184.8C168.6 184.1 168.6 182.9 168.6 181.4V164.7C168.5 164.7 168.5 162.9 168.5 162.3Z" fill="white"/>
<path d="M202.8 170.1C198.6 154.8 191.8 153.2 189.1 153.2C188.4 153.2 188 153.3 187.9 153.3L187.7 153.4V192.9H196.6V177L202.8 192.9H211.9V153.4H202.8V170.1Z" fill="white"/>
<path d="M86.7999 153.4H64.5999H64.2998V153.7C64.2998 153.7 64.0998 158.4 69.2998 159.5V193H78.4999V176.2H86.0998C90.1998 176.2 92.4999 173.6 92.4999 168.9V167.5C92.3999 156.2 91.9999 154 86.7999 153.4ZM83.2999 170.9H78.2999V159.4C78.2999 159.4 80.8998 159.3 81.3998 159.4C82.3998 159.5 83.1999 159.9 83.1999 161.1C83.2999 161.5 83.2999 170.9 83.2999 170.9Z" fill="white"/>
<path d="M156.6 153.5H136.1V159.7H142V193H151.1V159.6C151.2 159.6 151.3 159.6 151.4 159.6C153 159.6 154.3 159.1 155.3 158.2C156.9 156.5 156.8 153.8 156.8 153.7L156.6 153.5Z" fill="white"/>
<path d="M235.8 153.4H235.5C233.1 153.4 224 153.3 222.3 153.4H221.9C219.3 153.4 217.5 154.6 217.1 157C217 157.4 217 157.6 217 157.6C217 157.7 216.4 165.1 217.1 167.2C218.3 170.6 221.1 171.9 223.5 172.6C223.6 172.6 223.7 172.7 223.8 172.7C224 172.7 224.1 172.8 224.3 172.9C224.6 173 224.8 173.2 224.9 173.3V187.5H217.7V192.8H227.3C230.7 192.7 232.9 191.2 233.7 188.7C233.9 186.8 234 173.5 233.8 170.8C233.7 169.8 233.3 168.9 232.3 168.2C231.9 167.9 231.5 167.6 230.9 167.3C230.4 167 229.8 166.8 229.3 166.5C227.3 165.5 224.9 164.4 224.9 161.7V159.5H231.8C233.2 159.5 234.3 158.8 235.1 157.5C235.6 156.5 235.8 155.5 235.8 155.5C235.9 154.9 235.8 154.3 235.8 153.9V153.4Z" fill="white"/>
<path d="M155.1 128.9H156.6C158 128.9 160.6 129.4 160.6 132.1C160.6 133.3 160.7 137.3 160.8 138.8V139.4C160.8 139.6 160.9 141.5 161 141.9C161.6 144.2 163.4 145.6 166.2 145.9H168.7V131.9C168.7 130.7 168.1 129.1 167.1 127.8L166.9 127.6C168.3 126 168.8 124.4 168.8 122V120.6C168.8 109.7 168.4 107.5 163.3 107H146.2V145.5H154.9V128.9H155.1ZM155.1 112.9H156.6H156.8C159.1 112.9 160 112.9 159.9 117C159.9 120.3 159.9 120.5 159.8 122V122.3C159.8 122.8 159.6 123.3 159.3 123.6C159.1 123.8 158.9 123.9 158.6 123.9H155V112.9H155.1Z" fill="white"/>
<path d="M209.6 106.8H201V145.3H209.6V106.8Z" fill="white"/>
<path d="M127.3 145.4H136.1V112.9C136.2 112.9 136.3 112.9 136.4 112.9C138 112.9 139.2 112.4 140.2 111.5C141.8 109.8 141.7 107.3 141.7 107.1V106.8H121.6V112.9H127.3V145.4Z" fill="white"/>
<path d="M219.9 145.4H228.7V112.9C228.8 112.9 228.9 112.9 229 112.9C230.6 112.9 231.8 112.4 232.8 111.5C234.4 109.8 234.3 107.3 234.3 107.1V106.8H214.2V112.9H219.9V145.4Z" fill="white"/>
<path d="M116.9 139.2H107.7V129.8H114V121.4H107.7V112.8H116.9V106.8H99.1995L98.9995 145.3H116.9V139.2Z" fill="white"/>
<path d="M87.9997 106.8H65.9997V107C65.9997 107.1 65.6997 109.3 67.0997 111C67.9997 112.1 69.2997 112.6 71.1997 112.8V145.2H87.5996C91.3996 145.2 93.7997 142 93.7997 137.3V119.4C93.7997 109.6 93.7997 107 87.9997 106.8ZM84.8997 139.2H79.9997V112.9C83.0997 112.8 83.6997 113 83.7997 113.1C84.8997 113.5 84.8997 115.6 84.8997 115.7C85.0997 118.7 84.8997 136.8 84.8997 139.2Z" fill="white"/>
<path d="M185.399 106.8C183.499 106.8 181.399 106.9 179.699 107.3C175.399 108.3 173.399 111.2 173.399 115.9V138.9C173.399 144.8 177.699 146 184.099 146C191.799 146 196.299 143.3 196.299 138.6V114.6C196.399 106.8 191.299 106.8 185.399 106.8ZM182.499 115.5C182.499 114.5 182.599 113.7 182.799 113.1L182.999 113C183.399 112.9 183.799 112.9 184.199 112.9H184.399C187.299 112.9 187.499 113.8 187.499 119.1V135.3C187.499 135.8 187.499 136.2 187.499 136.7C187.499 137.2 187.399 137.6 187.299 138L187.099 138.1C186.599 138.2 186.099 138.2 185.599 138.2C184.499 138.2 183.799 138 183.299 137.5C182.599 136.8 182.599 135.6 182.599 134.2V118C182.499 118 182.499 116.1 182.499 115.5Z" fill="white"/>
</svg>
