<svg width="300" height="299" viewBox="0 0 300 299" fill="none" xmlns="http://www.w3.org/2000/svg">
<mask id="mask0_25_2677" style="mask-type:luminance" maskUnits="userSpaceOnUse" x="0" y="0" width="300" height="299">
<path d="M300 0H0V298.8H300V0Z" fill="white"/>
</mask>
<g mask="url(#mask0_25_2677)">
<path d="M200.5 288.6C200.7 288.9 200.9 289.3 201 289.2C201.8 289.2 203.3 288.9 203.3 288.9L204.8 288.2L209.2 286.5C209.2 286.5 220.1 281.3 220.2 281.3L222.1 280.3L223.1 279.9L224.3 279.1L226.2 277.9L228.5 276.6L231.5 274.7L236.7 271.1L239.2 269.1L242.8 266.5L246.1 264.1L247.7 263L249.9 261L252.2 258.7L255.8 254.8L260 250.7L264.9 245.1L267.6 241.5L268.5 240.2L271.4 236.6L277 228.5L278.6 225.8L282.4 218.3L284.6 214.2L288.2 206.8L290.2 202.3L292.3 195.4C292.3 195.4 294.8 186.3 296.2 181.5C296.4 181 296.4 180.5 296.1 180C295.3 178.9 294.7 177.5 294 176.3C293.6 175.7 293.1 175 292.7 174.5C292.3 174 291.4 172.7 291 172.3C290.6 171.8 290.1 171.4 289.6 171.1C288.4 170 287.4 168.9 286.4 168.2C285.9 167.9 285.5 167.6 285.1 167.3C282 164.9 278.9 163.1 275.4 161.5C273.9 160.9 272.4 160.3 270.9 159.8C269.8 159.4 268.1 159 267 158.8C266.4 158.7 265.8 158.7 265.3 159C264.8 159.3 264.8 160.1 264.7 160.8C264.5 162.7 264.4 164.8 264.3 166.7C264.1 168.7 264 170.6 263.8 172.6C263.6 174.4 263.5 176.2 263.4 177.9C263.1 180.3 262.8 182.6 262.3 184.9C261.5 189.3 260.5 193.6 259.6 197.9C259.4 199.1 259.2 200.3 258.7 201.5C257.9 203.3 257.3 205.2 257 207.2C256.2 211.3 254.7 215.2 253.3 219.1C252.2 222.3 251 225.5 249.2 228.4C249.1 228.6 249 228.8 248.9 229C248 231 247.2 233 246.3 235C245.7 236.3 244.9 237.5 244.3 238.7C243.6 240.3 242.7 241.8 241.8 243.3C240.3 245.7 238.7 247.9 237.4 250.4C236.5 252.1 235.4 253.7 234.3 255.3C234 255.7 233.7 256.1 233.5 256.5C232.6 257.8 231.8 259.2 230.8 260.5C228.9 262.9 226.9 265.3 224.9 267.7C223.7 269.2 222.3 270.5 220.9 271.9C219.7 273.2 218.5 274.5 217.3 275.7C217.1 276 216.7 276.2 216.4 276.4C215.7 277 214.9 277.6 214.2 278.3C212.6 279.9 211 281.4 209.2 282.6C208.4 283.1 207.6 283.7 206.9 284.3C205.1 286 202.9 287.3 200.5 288.6Z" fill="#BC2126"/>
</g>
<mask id="mask1_25_2677" style="mask-type:luminance" maskUnits="userSpaceOnUse" x="0" y="0" width="300" height="299">
<path d="M300 0H0V298.8H300V0Z" fill="white"/>
</mask>
<g mask="url(#mask1_25_2677)">
<path d="M298 171.7C298.1 171.7 298.1 171.6 298.1 171.4C298.1 171 298.2 170.4 298.2 170.4L299.3 160.9L299.9 152V143.2V141.8L298.9 131.8C298.9 131.8 297.7 122.8 296.7 118.1C296.4 116.5 295.3 115.6 294 115C293.5 114.8 293.1 114.5 292.6 114.4C291.6 114.1 290.5 113.6 289.6 113.4C287.3 112.8 285.2 112.1 282.9 111.7C280.2 111.2 277.5 111 274.7 110.7C272.4 110.5 270.2 110.4 267.9 110.4C266.1 110.4 265 110.4 263.2 110.4C262.2 110.4 261.2 110.4 260.8 111C260.4 111.6 260.7 112.7 260.8 113.7C261.1 115.9 261.5 117 261.9 119.2C263 125.6 264.1 132 264.4 138.6C264.5 141.5 264.7 144.5 264.8 147.4C264.8 148.2 264.8 148.8 264.8 149.6C264.8 150.1 264.9 150.7 265.2 151C265.5 151.4 265.9 151.5 266.3 151.6C266.9 151.8 267.4 151.8 267.9 152C268.5 152.2 269.5 152.4 270.2 152.6C272.8 153.4 275.6 154.4 278.1 155.4C279.9 156.1 281.6 157.2 283.3 158.1C283.5 158.2 283.7 158.3 283.9 158.5C284.9 159.2 285.9 160 286.9 160.7C289.2 162.4 291.7 164.1 293.5 166.5C293.8 166.9 294.3 167.4 294.7 167.8C295.4 168.4 296.6 170.7 297.5 171.7C297.8 171.7 298 171.7 298 171.7Z" fill="#BC2126"/>
</g>
<mask id="mask2_25_2677" style="mask-type:luminance" maskUnits="userSpaceOnUse" x="0" y="0" width="300" height="299">
<path d="M300 0H0V298.8H300V0Z" fill="white"/>
</mask>
<g mask="url(#mask2_25_2677)">
<path d="M231.1 65C232 65 232.8 64.9 233.5 64.8C234 64.8 234.5 64.7 234.7 64.2C234.9 63.7 234.5 63.1 234.4 62.9C234.2 62.5 232.5 59.4 232.5 59.4L230.8 56.8L223.8 46.6L222.3 44.9L220.9 43.1L218.6 40.5L212.9 34.3L210.4 31.9L201.6 23.7L194.4 18.1L191.8 16.7L183.3 11.5L177.4 8.3L176.3 7.8L171.5 5.99999L164.3 3.3L163.7 3.19999L161.4 2.59999L160.8 2.49999L158.8 1.99999L154.5 1.19999L152.5 1.09999L148.7 0.399994L144.1 0.0999947L142.5 -0.100006H139.6L134.8 -7.62939e-06L130.1 0.499992L126.4 0.599995L123.2 0.999992L119.9 1.69999L117.4 2.49999L113.3 3.3H112.4L108.6 4.69999L106.3 5.3L104.9 6.09999L101.6 6.99999L100 7.89999L98.0002 8.69999L93.1002 10.8L86.8002 13.2L84.7002 14.2L80.3002 16.6L76.5002 19.1L72.9002 21L71.6002 21.8L67.7002 23.9L67.1002 24.3L62.6002 27.8L58.9002 30.3L58.2002 30.8L54.0002 34.1L52.5002 35.4C52.5002 35.4 50.3002 37.3 50.2002 37.6L51.8002 37.1C51.8002 37.1 54.7002 36 54.7002 36.1C54.8002 36.1 55.3002 36.2 55.3002 36.2L59.4002 34.5H60.0002L64.5002 32.7C64.5002 32.7 66.9002 31.9 66.9002 32C66.9002 32.1 69.3002 31.1 69.3002 31.1L72.7002 29.9L80.8002 26.8H81.5002L85.7002 25.3L89.0002 24L89.5002 24.3C89.5002 24.3 95.8002 24.5 95.9002 24.5L99.9002 24.8L100 24.9L108.2 25.6L108.3 25.5L119.6 26.1L119.7 26.4L123.7 29.8H124L128.1 33.8L128.5 33.6L134 33.4L134.3 33.2L148.5 34L148.6 34.3L154.9 37.9H155.2L166.3 43.3L166.4 43.9L172.7 41.4L182 44.5L183.6 47.1L187 47.3L190.3 51H190.6L193.2 54V54.2H193.6L200.9 55.9L203.6 60.1L210.4 62.5C210.4 62.5 217.7 64.4 221.4 64.8C224.6 65.4 228.5 65.2 231.1 65Z" fill="#BC2126"/>
</g>
<mask id="mask3_25_2677" style="mask-type:luminance" maskUnits="userSpaceOnUse" x="0" y="0" width="300" height="299">
<path d="M300 0H0V298.8H300V0Z" fill="white"/>
</mask>
<g mask="url(#mask3_25_2677)">
<path d="M294.1 107.9C293.9 106.8 293.1 104.7 293.1 104.7L292.7 103.5L292.3 102.1L291.1 98.5L290 95.4L286.5 87.7L284.9 83.9L282.9 79.5L280.5 75.6L280 74.5L278.4 71.3L276.9 68.9L276.3 68.1L266.2 54.4C266.2 54.4 265.2 53.2 264.7 52.7C264.5 52.4 264.4 52.2 264.1 52.2C264.1 52.2 264.1 52.2 264 52.2C264 52.2 260.9 57.3 259.6 58.7C258.3 60.1 255.7 62.5 255.7 62.5C255.7 62.5 253.5 64.3 253.1 64.6C252.7 64.9 251 66 251 66L248.7 67.3C248.7 67.3 247 68.1 246.7 68.2C246.4 68.3 246.1 68.4 245.9 68.7C245.7 68.9 245.7 69.1 245.7 69.5C245.8 69.8 245.9 70.1 246 70.4C246.9 72.3 247.8 74.3 248.8 76.3C250.4 79.1 251.3 82.2 252.6 85.1C253 86.1 253.4 87.1 253.8 88.1C254.7 90.7 255.5 93.4 256.3 96C256.6 97.2 257 98.3 257.4 99.5C257.7 100.7 258 101.8 258.3 103C258.5 103.8 259 104.1 259.8 104.1C260.6 104.1 261.3 104.1 262.1 104C264.8 103.9 267.5 103.8 270.2 103.8C271 103.8 276.4 104.3 276.4 104.3C276.4 104.3 278.3 104.5 279.3 104.7C281.4 105.1 283.4 105.5 285.5 106C287.2 106.4 289 107 290.6 107.7C291.4 108.1 292.2 108.3 293.1 108.5C293.4 108.6 293.8 108.6 293.8 108.6C294.1 108.3 294.2 108 294.1 107.9Z" fill="#BC2126"/>
</g>
<mask id="mask4_25_2677" style="mask-type:luminance" maskUnits="userSpaceOnUse" x="0" y="0" width="300" height="299">
<path d="M300 0H0V298.8H300V0Z" fill="white"/>
</mask>
<g mask="url(#mask4_25_2677)">
<path d="M258.7 47.4C258.6 47 257.9 45.9 257.9 45.9L257.4 45L255.9 43.3L254.9 41.9L253.1 40.1C253.1 40.1 252.7 39.8 252.5 39.6C249.3 37 242.8 31.8 242.8 31.7L241 30.3L237.7 27.4L220.9 17.3L207.7 11C207.7 11 200.7 8.2 200.7 8.3L198.1 7.4L189.5 4.4L183.4 2.9L177.5 1.6L176.6 1.5L176.1 2L176.3 2.3C176.3 2.3 176.9 2.6 177.2 2.7C179 3.4 180.9 4.1 182.7 4.8C183.9 5.3 185 5.9 186.3 6.3C187.2 6.6 187.9 6.9 188.7 7.3C191.5 8.9 194.3 10.6 197.1 12.2C198.8 13.2 200.3 14.4 201.7 15.7C202.8 16.7 203.9 17.7 205.2 18.4C205.8 18.7 206.3 19.2 206.8 19.7C207.1 19.9 207.4 20.2 207.7 20.4C209.3 21.7 211.1 22.9 212.6 24.5C214.1 26.2 215.8 27.8 217.4 29.4C218.9 30.9 220.5 32.4 221.8 34.2C222.9 35.6 224 37 225.3 38.3C227.7 40.7 229.6 43.6 231.8 46.1C232.1 46.4 232.2 46.8 232.5 47.2C233.9 49.4 235.2 51.8 236.9 53.9C238.1 55.3 239.2 56.9 240 58.6C240.5 59.6 241.2 60.6 241.9 61.5C242.3 62 242.9 62.3 243.2 62.3C243.5 62.3 244.1 62 244.1 62L245.3 61.5C245.3 61.5 246.9 60.8 247.4 60.6C247.9 60.3 249 59.8 249.3 59.4C249.7 59.1 251.3 58 252.2 57.1C253.1 56.3 254.9 54.2 254.9 54.2L256.2 52.5L258.4 48.8C258.4 48.7 258.8 47.8 258.7 47.4Z" fill="#BC2126"/>
</g>
<mask id="mask5_25_2677" style="mask-type:luminance" maskUnits="userSpaceOnUse" x="0" y="0" width="300" height="299">
<path d="M300 0H0V298.8H300V0Z" fill="white"/>
</mask>
<g mask="url(#mask5_25_2677)">
<path d="M251.7 103.3C250.8 100.5 250.1 97.9 249.1 95.1C248.3 92.8 247.7 90.5 246.6 88.4C246 87.1 245.7 85.7 245.2 84.3C244.9 83.6 244.6 83 244.4 82.3C243.2 78.8 241.5 75.9 239.8 72.6C239.7 72.4 239.6 72.3 239.5 72C239.3 71.7 239.2 71.4 238.8 71.2C238.4 71 238 71.1 237.3 71.2C235.9 71.4 234.1 71.5 233.3 71.5C232.6 71.5 229.8 71.7 227.6 71.9L227.1 71.7H225.7H224.4L217.1 70.8C214.5 70.4 208.4 68.9 208.4 68.9L204 67.4L198.5 65.5L198.1 65.7L189.6 65L189.3 65.2L184.5 61.5H184L181 58.8L180.9 58.2L177.6 57.7L177.3 57.8L174.6 56.9L174.3 56.6L168 57.1L162.3 54.8L142.6 55.8L142.3 55.6L138.6 55.9L138.2 56.2L128.5 56.9L128.2 56.7L114.4 64.7L114.2 65.3L113.6 65.9L113.3 65.7L106.4 65.1L106 65.3L93.6998 65.4L93.3998 65.3L89.8998 65.2L88.7998 64.6L75.8998 74.6V74.9L71.3998 78.5L66.2998 76.1L65.9998 76.2L64.0998 75.6C64.0998 75.6 54.7998 77.9 54.8998 78C54.9998 78 46.2998 76.6 46.2998 76.6L45.6998 76.1L44.0998 77.8L40.5998 79.5L40.4998 79.8L33.5998 85.1L23.7998 92.2L12.7998 100.4L7.7998 104L7.49981 106.1L5.39981 110.9L4.49981 115.1L3.0998 123.5L2.2998 127.2L1.99981 131.6L0.799805 140.7L0.299805 160.7L0.799805 161.9L1.0998 167.4C1.0998 167.4 1.19981 168.4 1.39981 168.4L25.8998 143.1L33.8998 139.8L40.5998 139.5L44.6998 134.8L45.0998 133.9L45.5998 134.1L56.5998 132.9L57.0998 132.6H61.1998L61.7998 132.8L63.0998 131L67.9998 127.9L73.2998 124.3L88.0998 124.5L88.1998 124.8L93.9998 125.4L98.4998 124.5L106.8 116H107L113.6 109.7L123.5 108.4L123.9 108.1L124.3 108.5L129.4 110.9L129.8 110.6L134.3 110L134.5 109.7L138.8 109L139.2 108.8L143.9 112.8L144.2 112.5L153.8 112.3L154.6 111.7L162.3 112.1L162.7 112.2L163.9 111.9L164.1 111.6L167.2 110.2H167.6L171.1 108.6L171.4 108.3L175.2 106.9L175.5 106.5L186 102.5L186.1 102.3L188 101.7L188.4 101.3L188.9 101.9L192 103.4H192.9L196.3 105.3L196.5 105L197.5 104.5H197.6L199.3 103.7L199.4 103.6L201.8 103L208.1 104.6L209.4 104.3L210.5 105.1L215.1 105.8L219.6 107.5L222.2 107.3L223 107.9L223.7 107.5C223.7 107.5 232.6 106.4 237 106C239.9 105.8 242.8 105.5 245.7 105.2C247.3 105 248.9 104.9 250.6 104.7C251.6 104.7 252 104.3 251.7 103.3Z" fill="#BC2126"/>
</g>
<mask id="mask6_25_2677" style="mask-type:luminance" maskUnits="userSpaceOnUse" x="0" y="0" width="300" height="299">
<path d="M300 0H0V298.8H300V0Z" fill="white"/>
</mask>
<g mask="url(#mask6_25_2677)">
<path d="M258.2 148.8C258.2 148.2 258.1 147.8 258.1 147.2C258 145.5 257.9 143.8 257.8 142.1C257.8 141.5 257.7 140.9 257.7 140.4C257.6 138.3 257.5 136.2 257.3 134C257 131.3 256.6 128.6 256.2 126C255.9 123.9 255.5 121.8 255.1 119.8C254.7 117.6 254.4 115.7 253.9 113.5C253.4 111.3 253 111 250.7 111.3C250.5 111.3 250.3 111.3 250.1 111.4C249.3 111.6 248.1 111.7 247.3 111.8C242.9 112.4 238.9 112.6 234.5 113.1L222 117.5L204 117L202 116.4V116.7L196.7 120.6L196 120.7L191.8 124.6L191.6 125.2L180.8 126.6L170.9 134.2H169.9L164.6 137.3L162.5 137.5L160.4 139.2L159.9 138.8L149.8 138.1L148.1 140.1V140.4L139.4 149.9L139.3 150.4H139L128 163L124.9 163.1L124.7 163.4L115.6 165H114.9L114.7 165.4C114.6 165.4 99.6998 173.7 99.6998 173.7L92.9998 172.9L91.5998 173.4L84.8998 173L78.2998 180.2L74.2998 181L71.9998 180.9L69.6998 181.9L68.2998 181.7L68.3998 182L59.9998 188.4L59.1998 188.5L46.2998 198.5L46.3998 199.1L38.3998 218.4L38.6998 219.2L25.4998 220.4L21.1998 224.1L20.7998 225.5L26.6998 233.6L30.9998 240.2L34.6998 245L40.7998 251.6C40.7998 251.6 40.7998 252.1 40.9998 252.1C41.0998 252.2 41.7998 252.2 41.7998 252.2C41.7998 252.2 45.3998 253.4 45.4998 253.4L49.9998 254.8L50.0998 255L50.4998 254.9L57.8998 257.8H58.4998L58.8998 258.3H59.5998C59.6998 258.3 61.3998 259.5 61.3998 259.5L64.4998 257.8H64.6998L66.0998 256.9L77.3998 259.7L85.6998 255.5L104.1 253.7L111.6 241.6C112.8 240.4 115 238.2 115 238.2H115.3L117.9 235.8C117.9 235.7 117.9 235.5 117.9 235.5L122.6 231.2L124.8 228.9L125.3 228.6C125.4 228.6 127.8 226 127.8 226L129.9 223.9L130.4 223.8L129.9 221.9L132 214.1L136.1 212.9L136.3 212.7L137.5 212.4V211.7L143 202.7L143.5 202.5L145.8 198.1L149.6 196L150.1 195.4L150.8 195.5C150.8 195.5 153 194.2 153.1 194.2H153.3L157.4 192.4L157.7 191.9L171.2 185.7L172 185.6L172.2 184.9L172.7 184.5L174.1 179.8L178.4 178L183.3 177.4L187.8 174.3L194.2 174.6L194.8 175.1L195.1 174.7L204 170.7V169.5L206.2 165.4L210.6 164.2L210.8 163.9L216.8 162.6L219.1 159.9L219.4 159.8C219.4 159.8 220.8 158.5 220.8 158.4L224.9 159L225.1 159.2L227.4 159.5L228.8 159.7C228.8 159.7 234.9 156.9 237.4 155.9C238.5 155.5 239.5 155.2 240.5 154.9C241.9 154.4 243.3 153.9 244.7 153.4C245.4 153.2 246.1 153 246.8 152.8L249.6 152.3L252.9 151.7L254.9 151.6C254.9 151.6 255.9 151.5 256.2 151.4C256.5 151.3 257.1 151.3 257.6 151C258 150.6 258 150.2 258.1 149.8C258.2 149.5 258.2 149.3 258.2 148.8Z" fill="#BC2126"/>
</g>
<mask id="mask7_25_2677" style="mask-type:luminance" maskUnits="userSpaceOnUse" x="0" y="0" width="300" height="299">
<path d="M300 0H0V298.8H300V0Z" fill="white"/>
</mask>
<g mask="url(#mask7_25_2677)">
<path d="M258.1 160.6C258.1 160.1 258.2 159.3 257.8 158.9C257.4 158.5 256.9 158.4 256.6 158.4C256.3 158.4 254.7 158.6 254.7 158.6L252.1 159C251.8 159 251.5 159.1 251.2 159.2C249.6 159.6 248.1 159.9 246.5 160.3C244.8 160.8 243 161.3 241.4 162C239.7 162.8 237.7 163.4 236 164.2C235.4 164.5 229.6 167.3 227 168.6L223.6 172.2L223.5 173L223.1 172.8L221 172.9L220.9 173.1L214 175.4V176.2L213.3 176.9V177.3L210.1 183H209.7L209.6 183.6C209.6 183.6 209 184.7 208.2 185.9L193.7 195.2H193.4L191.2 197L189.7 203.1L188.3 204.5L182.6 225.4L183.4 227.8L175 231.8H173.6L172 239.1L171.7 239.3L169.6 245.9L169.7 246.3L168.9 252L168.6 252.4L168.9 252.9L160.8 265.7L160.2 265.9L158.2 269L158.1 269.6L151.2 279.3L143.9 283.6L144.3 284.2C144.3 284.3 143.9 287.1 143.9 287.1L144.5 288.2L143.5 288.5L138.2 291.6L137.7 291.5L130 296.1L129.1 297.5C129.1 297.6 132.1 297.9 132.1 297.9L137.1 298.3L140.5 298.5L144.5 298.6L146.3 298.7L149.3 298.8L152.3 298.7L163.1 297.4L169.5 296.3L174.3 295L179.6 293.5L186.3 290.8L186.8 290.5L188.7 289.4C188.7 289.4 194.1 286.5 196.6 284.7C200.8 281.5 205 278.4 208.8 274.8C210.1 273.6 211.4 272.3 212.7 271C213.9 269.8 215.1 268.6 216.4 267.4C216.6 267.2 216.9 267 217 266.7C217.4 265.7 218.2 265 218.9 264.3C219.4 263.8 219.9 263.3 220.3 262.6C221.1 261.3 222.4 260.4 223.4 259.3C224.3 258.5 225.1 257.5 225.8 256.5C227.1 254.7 228.3 252.8 229.5 251C231.1 248.5 232.9 246.2 234.3 243.6C235.8 240.8 237.2 238.1 238.8 235.4C240.1 233.1 241.5 230.8 242.5 228.3C244.2 224.2 245.9 220.2 247.5 216.1C249.2 211.7 250.5 207.3 251.7 202.8C252.6 199.4 253.1 196 254.3 192.7C254.5 192.3 254.5 191.8 254.6 191.4C255.1 188.6 255.5 185.9 256 183.2C256.4 180.6 256.8 178 257.1 175.4C257.4 173.6 257.7 171.9 257.8 170.1C258 167.6 258.1 165.2 258.2 162.7C258.2 162.4 258.2 161.9 258.2 161.9C258.2 161.9 258 161.1 258.1 160.6Z" fill="#BC2126"/>
</g>
</svg>
