<svg width="281" height="373" viewBox="0 0 281 373" fill="none" xmlns="http://www.w3.org/2000/svg">
<path d="M188.504 172.9L188.904 139.6C188.904 124 172.604 121.4 160.604 121.5C168.604 118.8 178.304 114.3 185.304 106.7C192.704 99.9 197.904 90.3 197.004 76.9C195.504 54.3 167.204 43.1 120.404 47.6C119.604 47.7 118.904 47.8 118.104 47.8C115.904 31.1 112.504 14.9 107.304 0L105.004 2.3C98.8044 21.6 95.1044 37 92.9044 51.3C65.0044 56.1 45.4044 62.5 45.4044 62.5L43.1044 64.8C43.1044 64.8 65.7044 62.8 91.4044 63.1C88.5044 92.4 91.5044 120.2 91.4044 172.7C49.8044 171.5 13.3044 178.4 4.40442 189.6C1.50442 192 -0.095578 194.7 0.004422 197.5C0.504422 210.2 38.3044 221.9 91.4044 226.4L93.7044 298.6L96.0044 296.3L99.7044 247.3C99.7044 246.5 99.8044 245.8 100.004 245.2C101.104 245.4 102.204 246.8 102.204 249.3L103.804 313.8L106.104 311.5L110.104 259C110.104 257.8 110.204 256.9 110.404 256.1C111.504 256.3 112.604 257.9 112.504 260.9L114.304 328.1L116.604 325.8L119.804 228C125.904 228.2 132.104 228.3 138.504 228.3C145.204 228.3 151.804 228.2 158.304 228L161.504 330L163.804 327.7L166.504 274.3C166.504 273.2 166.604 272.3 166.804 271.6C167.804 271.8 168.804 273.4 168.804 276.2L171.604 351.1L173.904 348.8L176.704 284.1C176.704 283.2 176.904 282.4 177.104 281.8C178.404 281.8 179.804 283.4 179.804 286.5L182.104 372.2L184.404 369.9L187.804 226.3C233.204 222.3 267.704 213.2 276.304 202.6C279.104 200.2 280.704 197.7 280.704 195.2C280.104 181.4 238.004 170.6 188.504 172.9ZM91.0044 211.4C54.6044 207.9 30.0044 200.5 30.0044 191.2C30.0044 190.5 30.2044 189.9 30.6044 189.2C39.1044 183.2 65.3044 179.4 91.5044 175.5C91.5044 185.8 91.3044 197 91.0044 209.3V211.4ZM165.204 86C166.604 96.3 163.604 104.1 158.304 110C148.804 118.6 133.904 122.5 121.804 124.3C122.004 104.9 121.704 84.7 120.004 64.9C143.404 67.4 163.504 73.3 165.204 86ZM158.304 213.4C152.604 213.6 146.804 213.7 140.804 213.7C133.804 213.7 126.904 213.6 120.304 213.3L120.604 205C120.004 184 121.304 157.6 121.704 129.4C138.804 131.4 159.304 136.2 159.004 148.2L158.304 213.4ZM248.904 197.2C240.404 203.9 217.904 209.1 188.104 211.7L188.504 175.9C222.604 180.3 250.304 185.3 250.304 193.5C250.304 194.7 249.804 196 248.904 197.2Z" fill="#061922"/>
<path d="M280.705 195.4C280.105 181.4 238.005 170.6 188.505 173L188.905 139.7C188.805 119.1 160.605 121.1 151.105 122.4C162.205 120.4 199.305 111.1 197.005 77.1C195.505 54.5 167.205 43.3 120.405 47.8C119.605 47.9 118.905 48 118.105 48C115.905 31.3 112.505 15.1 107.305 0.200001C100.805 20.4 97.0046 36.3 94.9046 51.1C65.9046 55.9 45.4046 62.7 45.4046 62.7C45.4046 62.7 68.0046 60.7 93.7046 61C90.8046 90.7 93.8046 118.9 93.7046 173C44.5046 171.3 1.80464 180.8 2.30464 195.4C2.70464 208.1 40.6046 219.8 93.7046 224.3L96.0046 296.5L99.7046 247.5C99.8046 241.4 104.405 242 104.405 247.2L106.105 311.7L110.105 259.2C110.005 252.1 115.005 252.5 114.805 258.8L116.605 326L119.805 225.8C126.605 226 133.605 226.2 140.705 226.2C147.405 226.2 154.005 226.1 160.505 225.9L163.705 327.9L166.405 274.5C166.405 267.7 171.005 268 171.005 274.1L173.805 349L176.605 284.3C176.805 277.9 181.905 278.2 182.005 284.3L184.305 370L187.705 224.4V224.3C241.705 219.8 280.705 208.1 280.705 195.4ZM167.505 83.7C171.305 111.9 142.505 121.2 121.805 124.3C122.005 104 121.705 82.9 119.805 62.3C144.205 64.7 165.705 70.5 167.505 83.7ZM30.0046 191.2C30.0046 182.6 61.9046 178 93.8046 173.2C93.8046 183.5 93.6046 194.7 93.3046 207L93.4046 211.7C55.6046 208.2 30.0046 200.7 30.0046 191.2ZM120.305 213.3L120.605 205C120.005 183.3 121.405 156 121.705 126.9C139.105 128.7 161.605 133.4 161.205 146L160.605 213.4C154.205 213.6 147.605 213.7 140.805 213.7C133.805 213.6 127.005 213.5 120.305 213.3ZM188.105 211.7L188.605 173.3C223.705 177.8 252.605 182.9 252.605 191.2C252.605 200.7 226.205 208.3 188.105 211.7Z" fill="#CE1141"/>
</svg>
