<svg width="248" height="307" viewBox="0 0 248 307" fill="none" xmlns="http://www.w3.org/2000/svg">
<path d="M214.4 0L195.4 33.8L192.1 60.8L158.1 121.2H113.6L146.8 62.6V0H112.4L94.2 33.5L91 60.8L42.6 147L50.8 167.3H80.9L67.2 202.1L41.4 174.4L44.5 215.1L0 216.9L35.4 241.9L10.2 279.5L50.9 266.2L67.6 306.5L80.4 262.6L125.9 274.3L96.5 240.3L132.6 210.5L95.3 212.9L135.7 167.3H188.7L247.4 63.3V0H214.4Z" fill="white"/>
<path d="M214.4 0L195.4 33.8L192.1 60.8L158.1 121.2H113.6L146.8 62.6V0H112.4L94.2 33.5L91 60.8L42.6 147L50.8 167.3H80.9L67.2 202.1L41.4 174.4L44.5 215.1L0 216.9L35.4 241.9L10.2 279.5L50.9 266.2L67.6 306.5L80.4 262.6L125.9 274.3L96.5 240.3L132.6 210.5L95.3 212.9L135.7 167.3H188.7L247.4 63.3V0H214.4Z" fill="black"/>
<path d="M207.3 30.1H223.4L234.6 9.1H219.1L207.3 30.1Z" fill="#C2CCD2"/>
<path d="M106.2 30.2L123.5 30.1L134.6 9.1H117.8L106.2 30.2Z" fill="#C2CCD2"/>
<path d="M102.1 56.6H117.7L119.1 38.6H104.1L102.1 56.6Z" fill="#C2CCD2"/>
<path d="M202.8 56.6H218.5L219.9 38.6H204.8L202.8 56.6Z" fill="#C2CCD2"/>
<path d="M199.5 67.4L164.3 129.4H79.8L115 67.4H98.4L55.9 142.4H103.1L67.4 222.3L52.6 205.8L53.4 225.2L29.5 226.6L48.7 240.1L35 260.4L57.1 253.2L66.2 275.1L73.1 251.3L97.7 257.6L81.9 239.2L101.4 223.1L71.2 224.5L126.7 142.5H174L215.8 67.5L199.5 67.4ZM61.3 244.8C57.3 244.8 54.1 241.6 54.1 237.7C54.1 233.7 57.3 230.6 61.3 230.6C65.3 230.6 68.4 233.8 68.4 237.7C68.4 241.6 65.2 244.8 61.3 244.8Z" fill="#C2CCD2"/>
</svg>
