<svg width="349" height="291" viewBox="0 0 349 291" fill="none" xmlns="http://www.w3.org/2000/svg">
<path d="M0 290.3L169.7 197.4L54.6 290.3L194.2 210.1L192 226.2L215.3 213.3L267.8 263L295.8 178.9L331.3 173.9L315.7 125.3L348.7 96.6L304.9 78.1L316.9 27.1L276.6 45.6L257.6 0L223.5 34L167.4 4.6L157.3 59.8L105.5 71L136.2 89.6L105.3 105.1L131.5 107.3L23.7 191.2L132.2 133.5L15.7 222.1L139.6 157.6L7.4 257.1L153.2 179.3L0 290.3Z" fill="#F79E1E"/>
<path d="M310.5 126.1C308.6 172.7 269.2 208.9 222.6 207C176 205.1 139.8 165.7 141.7 119.1C143.6 72.5 183 36.3 229.6 38.2C276.2 40.1 312.4 79.4 310.5 126.1Z" fill="#E46025"/>
<path d="M236.4 195.4C189.8 193.5 153.6 154.1 155.5 107.5C156.4 85.9 165.3 66.6 179.3 52.3C157.6 66.8 142.9 91.1 141.7 119.1C139.8 165.7 176 205.1 222.6 207C247.6 208 270.6 198.1 286.8 181.3C272.4 190.9 255 196.2 236.4 195.4Z" fill="#B65B27"/>
<path d="M310.6 123.5C310.6 120.5 310.5 117.5 310.2 114.5C305.3 111.1 299.6 108.5 292.6 107.6C291.3 107.4 290.1 107.3 288.8 107.2C288 101.6 286.7 96.2 285.1 90.8C286 90.9 286.8 90.9 287.7 91C293.6 91.5 299.5 92.1 305.3 92.9C304.5 90.7 303.6 88.6 302.7 86.6C296.2 85.6 289.6 84.9 282.9 84.3H282.8C280.6 78.8 278.1 73.7 275 68.6C279.3 67.7 283.2 66 286.3 63C284.8 61.4 283 59.8 281.3 58.4C278.6 60.9 275.1 62.2 271 62.8C270.4 61.9 269.7 61.1 269.1 60.3C263.4 52.8 256.7 46.5 249.4 41.3C243 39.5 236.4 38.4 229.5 38C229.1 38 228.8 38 228.3 38C241.1 43.1 252.6 51.6 261.8 62.9C253 62.1 242.9 59.1 232.9 56.2C229.9 55.3 227 54.5 224.3 53.7C207.2 49 194.1 48.2 184.3 49.1C177 53.3 170.4 58.5 164.6 64.6C175.2 60.1 196.7 52.6 222.8 59.8C225.5 60.5 228.4 61.4 231.4 62.3C242.9 65.7 255.8 69.5 267 69.6C270.1 74.2 272.7 79 274.9 84.1C272.7 84 270.5 83.9 268.3 83.9C214.1 83 167.5 99.2 141.7 125.1C141.9 130.3 142.4 135.3 143.4 140.2C150.7 129.7 161.4 120.3 175.3 112.4C201.6 97.7 236.4 89.8 273.4 90.6C274.7 90.6 275.9 90.7 277.2 90.7C279.1 96.1 280.5 101.6 281.4 107.3C257.6 108.3 242.1 123.2 224.3 139.1C208.4 153.4 188.9 167.6 160.5 176.1C163.1 179.4 166.1 182.5 169.2 185.3C196.1 174.6 213.8 157.7 228.8 144.2C245.9 128.9 260.6 114.3 282 113.5C282.5 119.4 282.5 125.5 282 131.6C279.1 164.7 260 192.8 233.8 206.6C240.4 206 247 204.6 253.1 202.4C255.2 200.7 257.3 198.9 259.2 196.9C276.3 180.1 287 157 289.1 132.2C289.6 126 289.6 119.8 289.1 113.7C290.2 113.8 291.3 113.9 292.4 114.1C300.2 115.3 306 119.1 310.6 123.5Z" fill="black"/>
</svg>
