<svg width="395" height="228" viewBox="0 0 395 228" fill="none" xmlns="http://www.w3.org/2000/svg">
<path d="M313.8 81C341.6 74.8 368.8 70.7 395 68.6C365.9 77.5 336.3 87.4 306.2 98.3C308.9 92.7 311.4 86.9 313.8 81ZM20.2998 227.6C43.4998 207.1 69.6998 187.5 98.3998 169.6C103.8 166.9 109.2 164.2 114.6 161.5C116.8 160.4 121.2 158.3 126.7 155.6C130.4 159.7 134.2 163.8 138.2 167.7C96.9998 186.9 57.5998 207 20.2998 227.6Z" fill="#057DC1"/>
<path d="M325.3 46.7C349.3 45.7 372.6 46.1 395 47.8C370.9 51.2 346.3 55.2 321.4 59.7C322.7 55.5 324 51.2 325.3 46.7ZM0 146.3C26.9 129.2 56.8 113.6 89 100C90.1 102.2 91.2 104.3 92.3 106.4C90.6 109.9 88.8 113.5 87.1 117C57.2 126.4 28.1 136.1 0 146.3Z" fill="#EE3C33"/>
<path d="M173 133.7L176.9 131.9L187 123.8L189.2 117.6C190.7 120.5 191.4 121.7 192.9 124.7L196.2 123.2C196.3 126.4 196.4 129.5 196.4 132.5C189.1 134.2 181.3 135.1 173.2 135.2L173 133.7ZM202 120.6C206.2 118.8 210.4 116.9 214.5 115.1L216.5 113.1C217.3 113.2 218.3 113.3 219.3 113.2C220.9 112.9 222.9 112.4 225.1 111.6C223.7 116.7 222.8 121.1 222.5 125C216.6 127.1 209.9 129.1 202.3 131C202.2 127.7 202.1 124.2 202 120.6ZM197.5 8.4C242.9 8.4 278.6 19 318.8 39.1C299.1 113.3 263.1 163.1 197.5 203.5C172.9 188.3 151.9 171.3 134.4 151.9C142.2 148.2 151 144 158.7 140.4C161.8 140.7 164.8 140.8 167.6 140.9C167.4 145.2 166.1 148.3 163.9 150.6C165.2 152 166.4 153.5 167.7 154.9C171.1 151.9 173.3 147.4 173.5 141C181.5 140.9 189.2 140.1 196.3 138.5C195.9 150.2 194.3 158.8 190.9 162.2C190.8 162.3 190.7 162.4 190.7 162.5C189.9 163.4 189.1 164.1 188.5 164.7C191.7 164.1 194.9 163.4 198 162.5C202 154.2 202.1 139.7 202.1 137.1C209.5 135.2 216.2 133.3 222.1 131.3C222.3 138.1 225.1 144.6 230.3 147C232.6 145.3 234.9 143.6 237.1 141.8C235.8 142 227.5 142.6 227.7 129.3C245.2 122.7 256.5 114.8 266.5 102.9C269.1 96.9 271.3 90.7 272.8 84.2C260.8 103.1 249.8 114.1 228.3 122.7C228.9 118.9 230 114.3 231.8 108.9C238.1 106.3 244.6 103.1 248.6 101.5L258 91.6C260.4 82.5 262.7 73.3 265.1 64.2L257.7 66.5L266.4 57.4C268.2 50.2 270 43.1 271.8 35.9C267.5 36.5 263.1 37.2 258.8 37.9C259.5 34.3 260 30.8 260.3 27.2C258.2 26.7 256.1 26.2 254 25.7C253.6 29.7 252.8 34.1 251.6 39L251 39.1C246.9 39.8 242.8 41.1 239.2 44.2L240.4 40.7C233.4 42 226.5 43.2 219.5 44.6L212.6 51.9L212.8 51.3L215 45.5C208.1 46.9 201.3 48.4 194.4 49.9C193 40.6 191.5 32.3 190.3 25.5C188.4 25.7 186.4 26 184.5 26.3C185.8 33.2 187.2 41.7 188.7 51.2L183.8 52.3L177.6 58.8C173.3 54.2 164.5 57.1 158.9 58.5C152.9 60 146.9 61.6 140.9 63.2C139.1 63.7 137.3 64.2 135.6 64.8C131.1 58.3 126.9 51.6 123.4 44.5L122.8 43.2C121 43.9 119.2 44.7 117.4 45.5L118.2 47.1C121.6 54.1 125.7 60.7 130.1 67.1C123.6 70 117.7 74 112.5 79.7C112.5 79.7 104.1 88.5 103.1 89.6C100.9 92.1 98.9998 94.8 97.3998 97.5C88.5998 79.7 81.5998 60.4 76.2998 39.2C116.4 19 152.1 8.4 197.5 8.4Z" fill="white"/>
<path d="M173 133.7L176.9 131.9L187 123.8L189.2 117.6C190.7 120.6 191.4 121.7 192.9 124.7L196.2 123.2C196.3 126.4 196.4 129.5 196.4 132.5C189.1 134.2 181.3 135.1 173.2 135.2L173 133.7ZM202 120.6C206.2 118.8 210.4 116.9 214.5 115.1L216.5 113.1C217.3 113.2 218.3 113.3 219.3 113.2C220.9 112.9 222.9 112.4 225.1 111.6C223.7 116.7 222.8 121.1 222.5 125C216.6 127.1 209.9 129.1 202.3 131C202.2 127.7 202.1 124.2 202 120.6ZM122.8 43.1C142.8 34.9 163.3 29.2 184.5 26.2C185.8 33.1 187.2 41.6 188.7 51.1L183.8 52.2L177.6 58.7C173.3 54.1 164.5 57 158.9 58.4C152.9 59.9 146.9 61.5 140.9 63.1C139.1 63.6 137.3 64.1 135.6 64.7C131.1 58.2 126.9 51.5 123.4 44.4L122.8 43.1ZM117.8 74.4C114.5 66.2 111.7 57.7 109.2 49.1C111.9 47.8 114.6 46.6 117.4 45.4L118.2 47C121.6 54 125.7 60.6 130.1 67C125.7 68.9 121.6 71.3 117.8 74.4ZM163.9 150.5C161.3 147.5 158.8 144.5 156.4 141.4L158.7 140.3C161.8 140.6 164.8 140.7 167.6 140.8C167.4 145.2 166.1 148.3 163.9 150.5ZM188.5 164.6C185.2 165.2 181.9 165.7 178.5 166C174.8 162.4 171.2 158.7 167.7 154.8C171.1 151.8 173.3 147.3 173.5 140.9C181.5 140.8 189.2 140 196.3 138.4C195.9 150.1 194.3 158.7 190.9 162.1C190.8 162.2 190.7 162.3 190.7 162.4C189.9 163.3 189.2 164.1 188.5 164.6ZM230.3 147C220.6 153.8 209.7 159.1 198 162.4C202 154.1 202.1 139.6 202.1 137C209.5 135.1 216.2 133.2 222.1 131.2C222.4 138.1 225.1 144.6 230.3 147ZM266.5 102.9C259.8 118 249.7 131.3 237.1 141.8C235.8 142 227.5 142.6 227.7 129.3C245.2 122.7 256.5 114.8 266.5 102.9ZM222 23.5C231.6 23.5 241.1 24 250.4 25C257.5 26.5 264.5 28.3 271.5 30.4C274.2 39.7 275.6 49.6 275.6 59.7C275.6 68.1 274.6 76.3 272.8 84.1C260.8 103 249.8 114 228.3 122.6C228.9 118.8 230 114.2 231.8 108.8C238.1 106.2 244.6 103 248.6 101.4L258 91.5C260.4 82.4 262.7 73.2 265.1 64.1L257.7 66.4L266.4 57.3C268.2 50.1 270 43 271.8 35.8C267.5 36.4 263.1 37.1 258.8 37.8C259.5 34.2 260 30.7 260.3 27.1C258.2 26.6 256.1 26.1 254 25.6C253.6 29.6 252.8 34 251.6 38.9L251 39C246.9 39.7 242.8 41 239.2 44.1L240.4 40.6C233.4 41.9 226.5 43.1 219.5 44.5L212.6 51.8L212.8 51.2L215 45.4C208.1 46.8 201.3 48.3 194.4 49.8C193 40.5 191.5 32.2 190.3 25.4C200.6 24.2 211.2 23.5 222 23.5Z" fill="#EE3C33"/>
<path d="M108.5 83.6C102.8 71.3 98.0998 58.4 94.2998 45.1C128 29.2 162.8 20.6 199.8 19.6C217.1 19.8 233.9 21.6 250.3 25C241 24 231.5 23.5 221.9 23.5C211.1 23.5 200.6 24.1 190.1 25.4C188.2 25.6 186.2 25.9 184.3 26.2C163.1 29.2 142.7 34.9 122.6 43.1C120.8 43.8 119 44.6 117.2 45.4C114.5 46.6 111.7 47.8 109 49.1C111.5 57.7 114.3 66.2 117.6 74.4C115.7 75.9 113.9 77.6 112.2 79.5L108.5 83.6ZM199.5 191.2C180.2 178.1 163 162.7 148.1 145.5L156.4 141.6C158.8 144.7 161.4 147.7 163.9 150.7C165.1 152.1 166.4 153.6 167.7 155C178.7 167.1 190.9 178.2 204.2 188.1C202.7 189 201.1 190.1 199.5 191.2Z" fill="#F9B82F"/>
<path d="M173 133.7L173.2 135.1C181.3 135 189.1 134.1 196.4 132.4C196.4 129.4 196.3 126.3 196.2 123.1L192.9 124.6C191.5 121.6 190.7 120.5 189.2 117.5L187 123.7L176.9 131.8L173 133.7ZM202 120.6C202.1 124.2 202.2 127.6 202.2 130.9C209.8 129 216.5 127 222.4 124.9C222.8 121 223.6 116.6 225 111.5C222.8 112.2 220.8 112.8 219.2 113.1C218.1 113.2 217.2 113.2 216.4 113L214.4 115C210.3 117 206.1 118.8 202 120.6ZM197.5 8.4C152 8.4 116.4 19 76.2 39.1C81.4 60.3 88.4 79.6 97.3 97.4C99 94.7 100.8 92 103 89.5C104 88.4 112.4 79.6 112.4 79.6C117.6 73.9 123.5 69.9 130 67C125.6 60.6 121.5 54.1 118.1 47L117.3 45.4C119.1 44.6 120.9 43.9 122.7 43.1L123.3 44.4C126.8 51.6 131 58.3 135.5 64.7C137.2 64.1 139 63.6 140.8 63.1C146.8 61.5 152.8 59.9 158.8 58.4C164.3 57 173.1 54.1 177.5 58.7L183.7 52.2L188.6 51.1C187.1 41.6 185.7 33 184.4 26.2C186.3 25.9 188.3 25.7 190.2 25.4C191.5 32.2 192.9 40.6 194.3 49.8C201.2 48.3 208 46.9 214.9 45.4L212.7 51.2L212.5 51.8L219.4 44.5C226.3 43.2 233.3 41.9 240.3 40.6L239.1 44.1C242.7 41.1 246.9 39.7 250.9 39L251.5 38.9C252.7 34 253.5 29.6 253.9 25.6C256 26.1 258.1 26.6 260.2 27.1C259.9 30.6 259.4 34.2 258.7 37.8C263 37.1 267.4 36.5 271.7 35.8C269.9 43 268.1 50.1 266.3 57.3L257.6 66.4L265 64.1C262.7 73.2 260.3 82.4 257.9 91.5L248.5 101.4C244.6 103 238 106.2 231.7 108.8C229.9 114.2 228.8 118.8 228.2 122.6C249.7 114 260.7 102.9 272.7 84.1C271.2 90.6 269.1 96.8 266.4 102.8C256.4 114.6 245 122.6 227.6 129.2C227.5 142.5 235.7 141.9 237 141.7C234.8 143.5 232.5 145.3 230.2 146.9C225 144.5 222.3 138 222 131.2C216 133.2 209.4 135.1 202 137C201.9 139.5 201.9 154.1 197.9 162.4C194.8 163.3 191.6 164 188.4 164.6C189 164 189.8 163.3 190.6 162.4C190.7 162.3 190.7 162.2 190.8 162.1C194.1 158.7 195.8 150.1 196.2 138.4C189.1 139.9 181.4 140.7 173.4 140.9C173.2 147.3 171 151.8 167.6 154.8C166.3 153.4 165 152 163.8 150.5C166 148.3 167.3 145.1 167.5 140.8C164.7 140.7 161.7 140.6 158.6 140.3C150.9 143.9 142.1 148.1 134.3 151.8C151.8 171.2 172.7 188.1 197.4 203.4C263.1 163 299.1 113.2 318.8 39C278.6 19 242.9 8.4 197.5 8.4ZM66.5 34.6C110 12.2 148.2 0 197.5 0C246.8 0 285 12.2 328.5 34.6C308.3 116 269.7 169.9 197.5 213.2C170.3 196.9 146.5 177.8 126.7 155.6C121.2 158.2 116.8 160.4 114.6 161.5C107.8 164.9 101 168.3 94.2 171.8C86.6 175.7 78.1 181.6 69.2 179.3C59.6 175.1 65.9 163.4 68.9 156.7C76.4 139.8 84.2 123.1 92.4 106.5C82.6 88.1 74.9 68.1 69.5 46.5L66.5 34.6Z" fill="#1E3160"/>
<path d="M251.3 42.7C247.1 43.4 243.4 44.7 240.2 47.9C237.6 50.7 236.3 53.9 235.2 57.4C231.9 67.8 228.5 78.3 225.2 88.7C223.9 92.8 221.8 100.3 228.4 99.8C230.7 99.4 232.8 98.5 234.9 97.6C241.6 94.8 248.3 91.9 255 89.2C256.7 82.6 258.4 76.1 260.1 69.5C256.6 70.6 253 71.7 249.5 72.9C248.7 75.9 247.8 78.8 247 81.8C244.5 82.7 242.1 83.6 239.6 84.5C242.7 73.9 245.8 63.3 248.9 52.7C251.1 52.2 253.2 51.8 255.4 51.3C254.9 53.2 254.4 55 253.9 56.9C257.1 56.1 260.2 55.4 263.4 54.7C264.6 49.9 265.8 45.1 267 40.4C261.8 41 256.6 41.8 251.3 42.7ZM221.3 47.8C213.8 57.6 206.4 67.5 199.1 77.4C202.5 68.3 206 59.2 209.5 50.2C201.7 51.8 194 53.5 186.3 55.2C184.3 59.9 182.3 64.6 180.3 69.2C182 68.7 183.6 68.3 185.3 67.8C179.2 82.5 173.3 97.3 167.5 112.1C165.1 118.1 162.7 124.1 160.4 130.2C168.2 126.5 175.9 122.9 183.7 119.3C187.2 109.6 190.8 99.8 194.4 90.1C197.7 96.7 201 103.4 204.2 110C209.2 107.8 214.3 105.6 219.3 103.4C216.2 96.4 213.1 89.4 210 82.5C215.6 74 221.2 65.6 226.9 57.2C228.5 56.8 230.1 56.4 231.7 56.1C232.9 52.5 234.1 48.8 235.3 45.2C230.5 46.1 225.9 46.9 221.3 47.8ZM128.7 129C123.3 131.4 117.9 133.8 112.5 136.3C120.3 118.2 128.4 100.2 136.9 82.3C141.6 80.8 146.4 79.3 151.2 77.9C143.4 94.8 136 111.9 128.7 129ZM141.7 66.6C131.5 69.4 122.3 73.8 115 81.8C110.8 86.6 107.8 92.1 105 97.8C96.8002 114.4 89.0002 131.2 81.5002 148.1C79.5002 152.5 73.5002 163.2 79.9002 166C87.0002 167.8 95.8002 161.9 102.1 158.7C108.9 155.2 115.7 151.8 122.5 148.4C134.1 142.6 144.6 135.6 151.6 124.4C154.4 119.6 156.5 114.6 158.6 109.5C163 98.6 167.6 87.6 172.2 76.8C173.9 72.7 176.9 67.6 176 63.1C174.1 57.1 164 60.8 159.6 61.9C153.6 63.4 147.6 64.9 141.7 66.6Z" fill="white"/>
<path d="M280.1 33.7C283.1 34.7 286.1 35.8 289.1 36.9C286.1 35.7 283.1 34.7 280.1 33.7ZM279.6 33C282.8 34 285.8 35.1 288.7 36.2C296.2 39 302.8 41.8 308.2 44.4C291.4 102.2 256.9 150.7 208.2 185.2L204.2 187.9C189.9 177.2 181.5 168.8 181.5 168.8L188.2 167.7C208.6 164.3 228.2 155.1 244.4 140C272 114.2 283.3 77.4 277.6 42.7C277.5 41.9 277.3 41.1 277.2 40.3L277.1 40L277 39.6L276.9 39.2L276.8 38.8L276.7 38.4L276.6 38L276.5 37.6L276.4 37.2L276.3 36.8L276.2 36.5L276.1 36.1L276 35.7L275.9 35.4L275.8 35.1L275.7 34.8C275.4 33.6 275.1 32.5 274.8 31.5C276.6 32 278.1 32.5 279.6 33Z" fill="#057DC1"/>
</svg>
