<svg width="300" height="300" viewBox="0 0 300 300" fill="none" xmlns="http://www.w3.org/2000/svg">
<path d="M149.807 299.7C86.1067 299.7 29.2067 259.2 8.30672 199C-18.7933 121 22.6067 35.4 100.607 8.3C116.507 2.8 133.007 0 149.707 0C213.407 0 270.307 40.5 291.207 100.7L291.907 102.7C317.607 180.2 276.207 264.5 198.807 291.3C183.007 296.9 166.507 299.7 149.807 299.7Z" fill="#A0A2A3"/>
<path d="M273.206 82.1C255.106 49.1 225.306 25.2 189.106 14.7C182.906 12.9 176.506 11.5 170.106 10.6C101.006 0.399998 34.1063 43.4 14.6063 110.6C4.10632 146.7 8.30632 184.7 26.4063 217.7C44.5063 250.7 74.4063 274.6 110.506 285.1C116.706 286.9 123.106 288.3 129.506 289.2C143.606 291.3 157.706 291.1 171.206 289C171.406 289.1 171.506 289.2 171.706 289.3L171.906 288.9C224.406 280.5 269.606 242.5 285.106 189.2C295.506 153.1 291.306 115.1 273.206 82.1Z" fill="#0C233F"/>
<path d="M141.306 110.2C141.306 110.2 139.406 115.4 139.206 120.3C139.206 120.3 127.306 122.1 121.606 125.9C121.606 126 133.406 114.1 141.306 110.2Z" fill="#79BC43"/>
<path d="M221.307 109.7C222.607 109.4 223.607 109.3 224.307 109.4C224.107 108.8 223.707 107.9 222.907 107C221.907 105.7 220.307 104.8 220.307 104.8C221.407 106.3 221.407 108.3 221.307 109.7Z" fill="white"/>
<path d="M210.607 115.1C212.107 114 213.507 113.2 214.807 112.5C214.607 111.9 214.207 111.2 213.707 110.2C212.707 108.4 210.007 106.8 210.007 106.8C211.107 110 210.907 113.3 210.607 115.1Z" fill="white"/>
<path d="M83.207 195.2C73.107 199.3 49.207 193.7 49.207 193.7C73.307 192.3 96.907 175 96.907 175C96.907 175 96.907 175.1 96.807 175.1C89.707 186 80.007 192.2 80.007 192.2C81.207 193.7 82.207 194.6 83.207 195.2Z" fill="#A0A2A3"/>
<path d="M203.507 51.3C203.507 51.3 197.607 46.7 190.807 53.9C198.107 40.7 202.307 48.2 203.507 51.3Z" fill="#79BC43"/>
<path d="M227.006 115C227.006 115 226.406 114.6 226.206 114.5C222.406 112.5 215.706 118.3 211.306 120.8C206.906 123.2 200.506 128.4 197.306 121.3C194.206 114.2 201.406 103.1 203.906 96C209.406 80.5 209.606 71.4 208.406 66.5C213.506 72.2 215.106 83.3 215.106 83.3C215.106 83.3 217.006 62.6 206.906 57.2C207.106 57.9 206.906 60.5 206.706 62.5C202.006 63.4 191.606 62.2 188.206 60.4C175.406 74.1 161.506 93.2 151.006 110.7C146.506 120 142.006 130.8 140.906 139.7C140.906 139.7 139.506 135.7 139.106 130.4C133.306 132.6 113.606 142.3 109.406 172C109.406 172 121.906 159.1 135.806 154C135.806 154 127.006 177 143.806 217.7C143.806 217.7 150.606 192.7 164.806 186.4C173.406 229.1 198.606 229.8 205.906 258.8C205.906 258.8 213.606 243.8 204.306 218.2C204.306 218.2 207.506 219.1 210.206 222.3C210.206 222.3 209.806 214.8 202.806 198.7C198.206 190.1 196.806 178.4 196.806 178.4C192.706 182.1 191.706 194.6 191.706 194.6C179.206 160.7 214.706 127.1 221.206 122.1C224.406 119.7 226.306 119.6 227.506 120.2C228.606 117.7 228.406 116.1 227.006 115Z" fill="#A0A2A3"/>
<path d="M128.107 44.3C137.007 40.7 146.807 36.9 156.107 33.8C167.907 29.5 178.407 27.1 186.607 25.9C186.407 25.8 186.207 25.8 186.007 25.7C180.207 24 174.407 22.7 168.507 21.9C152.507 19.5 136.607 20.3 121.407 23.7C120.507 26.5 119.307 32 121.307 37C122.507 40 124.807 42.4 128.107 44.3Z" fill="#266092"/>
<path d="M57.5067 133.3C62.1067 119 68.2067 106.9 74.7067 96.8C75.7067 94.8 77.3067 91.8 79.3067 88.2C54.4067 85.5 31.8067 112.1 23.1067 124C15.9067 158.9 23.7067 194 42.4067 221.9C46.8067 214.9 53.6067 204.2 53.6067 204.2C43.6067 200.7 33.6067 191.8 33.6067 191.8C39.2067 188.3 44.7067 184.2 50.0067 179.8C50.3067 163.8 52.7067 148.2 57.5067 133.3Z" fill="#266092"/>
<path d="M62.5068 54.4C63.1068 54.4 63.8068 54.4 64.5068 54.4C76.7068 53.7 94.2068 54.2 104.207 54.6C108.407 52.7 113.507 50.5 119.207 48.1C116.707 45.8 114.807 43.1 113.607 40C111.707 35.1 111.707 30.1 112.407 26.1C93.9068 31.6 76.8068 41.3 62.5068 54.4Z" fill="#266092"/>
<path d="M218.406 259.5C232.006 251 244.106 239.9 253.906 226.7C249.006 202.3 233.606 176 213.006 151.7C209.606 159.8 207.806 168.7 207.606 181.6C207.306 197 219.106 206.9 219.806 235.2C219.806 235.2 216.406 232.8 215.006 232.2C215.006 232.2 217.506 244.4 218.406 259.5Z" fill="#266092"/>
<path d="M109.507 80.7C106.007 82.4 102.107 84.4 98.3066 86.5C106.407 91.8 112.907 99.9 118.207 109.6C132.307 98.7 145.407 98.5 145.407 98.5C146.607 97 147.707 95.6 148.807 94.2C144.407 91.2 140.007 88.4 135.507 85.7C129.307 83.5 114.507 81.4 109.507 80.7Z" fill="#266092"/>
<path d="M176.607 62.8C174.807 62.6 173.007 62.4 171.107 62.2L170.107 62.1C169.007 62 167.807 61.9 166.407 61.8C159.307 61.3 147.907 60.4 134.307 55.7C131.507 58.8 129.207 62 127.507 64.8C131.007 68.4 137.707 75.4 141.007 79.1C145.407 81.8 149.807 84.6 154.207 87.6C162.507 77.7 169.707 70 176.607 62.8Z" fill="#266092"/>
<path d="M28.7061 104.4C41.9061 90.8 61.6061 76.2 83.6061 80.5C85.3061 77.4 87.1061 74.3 88.7061 71.5C81.8061 67 77.6061 63.7 65.7061 62.7C60.8061 62.6 56.8061 62.7 53.9061 62.9C43.2061 74.7 34.6061 88.7 28.7061 104.4Z" fill="#266092"/>
<path d="M274.006 186C278.606 170.3 280.006 154.5 278.706 139.1C275.106 122.6 262.806 91.1 221.106 73.7C222.406 86.1 219.706 98 219.706 98C219.706 98 227.406 102.5 229.306 111C229.306 111 230.306 111.4 231.106 112.6C233.306 115.2 236.106 121.3 231.606 133.4C231.606 133.4 229.006 127.8 223.406 133.8C221.006 137.2 218.906 140.3 217.106 143.4C237.406 166.8 253.306 192.4 260.106 217.3C266.006 207.8 270.706 197.3 274.006 186Z" fill="#266092"/>
<path d="M198.907 41.8C202.707 43.2 204.707 45.5 206.107 48.7C213.307 51.7 217.307 57.8 219.407 64.7C236.807 71.3 255.107 81.8 268.607 98.6C256.307 70.1 233.807 46.2 204.407 32.6V32.8C204.007 32.8 176.807 32.2 143.207 48.5C142.607 48.8 142.007 49.2 141.507 49.6C152.007 52.7 160.807 53.3 167.007 53.7C168.507 53.8 169.807 53.9 170.907 54L171.807 54.1C174.907 54.4 178.907 54.8 183.507 55.5C187.707 47.7 194.707 42.7 198.907 41.8Z" fill="#266092"/>
<path d="M111.907 115.2C106.407 104.5 99.4066 96 90.5066 91.5C88.5066 92.9 86.8066 94.4 85.3066 95.9C71.1066 115.9 60.7066 141.7 58.8066 172.3C81.5066 151.5 100.407 126.7 111.907 115.2Z" fill="#266092"/>
<path d="M124.606 52.8L115.706 65.8C115.706 65.8 122.506 70.5 128.006 76.9C118.306 74.9 107.606 73.1 107.606 73.1L90.7065 82.3L98.6064 69.1C98.6064 69.1 93.3064 64.5 87.1064 60.6C93.9064 60.8 106.706 61.9 106.706 61.9L124.606 52.8Z" fill="#79BC43"/>
</svg>
