<svg width="300" height="300" viewBox="0 0 300 300" fill="none" xmlns="http://www.w3.org/2000/svg">
<path d="M299.9 149.9C299.9 232.7 232.8 299.8 150 299.8C67.2 299.8 0 232.7 0 149.9C0 67.1 67.1 0 150 0C232.9 0 299.9 67.1 299.9 149.9Z" fill="#1D428A"/>
<path d="M248.1 51.8C221.9 25.6 187 11.2 150 11.2C113 11.2 78.1998 25.6 51.8998 51.8C25.6998 78 11.2998 112.9 11.2998 149.9C11.2998 186.9 25.6998 221.7 51.8998 248C78.0998 274.2 113 288.6 150 288.6C187 288.6 221.8 274.2 248.1 248C274.3 221.8 288.7 186.9 288.7 149.9C288.7 112.9 274.2 78.1 248.1 51.8ZM57.0998 57.1C81.8998 32.3 114.8 18.6 149.9 18.6C184.9 18.6 217.9 32.3 242.7 57.1C267.5 81.9 281.2 114.8 281.2 149.9C281.2 168.8 277.3 187 269.8 203.7C253.9 198.3 238.3 192.3 222.9 185.4C220.9 184.5 218.9 183.6 216.8 182.7L210.8 179.9L207.8 178.5L204.8 177.1L198.8 174.1C196.9 173.1 194.9 172.1 192.9 171L190 169.5C189 169 188.1 168.4 187.1 167.9L181.3 164.7L175.6 161.3C160.4 152.4 145.7 142.4 131.9 131.5C125 126 118.3 120.2 111.9 114.2C108.7 111.1 105.6 108 102.6 104.9C101.8 104.1 101.1 103.3 100.4 102.5C99.5998 101.7 98.9998 100.9 98.1998 100C97.3998 99.1 96.7998 98.4 96.0998 97.5L95.9998 97.4C95.6998 87.8 95.5998 82 95.5998 82L89.0998 80.5V89.3H83.4998V80L76.4998 81.6L76.5998 85L73.2998 86.8C73.3998 89.6 73.4998 93.1 73.4998 97.5C70.7998 102.1 41.7998 152.4 19.9998 167.8C19.3998 162 18.8998 156 18.8998 149.9C18.7998 114.9 32.3998 81.9 57.0998 57.1ZM229.5 214.3L215.9 214.8L204.9 186.2L207 187.3L213.1 190.3C215.1 191.3 217.1 192.2 219.2 193.2C219.8 193.5 220.4 193.8 220.9 194L229.5 214.3ZM226.2 196.4C231.7 198.9 237.2 201.3 242.6 203.5L247.1 213.6L233.5 214.1L226.2 196.4ZM211.9 214.9L198.1 215.4L183.7 174.6C184.6 175.1 185.5 175.7 186.4 176.1L189.4 177.7C191.3 178.8 193.3 179.9 195.3 181L199.8 183.4L211.9 214.9ZM194 215.5L181.7 215.9L163.7 162.3C166.5 164.1 169.2 165.9 172 167.6L177.8 171.2L178.6 171.7L194 215.5ZM177.6 216L164.7 216.5L143.3 148.1C148.2 151.8 153.2 155.3 158.3 158.8L177.6 216ZM160.5 216.6L148.1 217L122.8 131.6C124.6 133.1 126.4 134.7 128.2 136.2C131.4 138.9 134.6 141.5 137.9 144L160.5 216.6ZM144.1 217.2L130.3 217.7L100.1 109.6C102.8 112.5 105.5 115.4 108.3 118.2C111.2 121.1 114.3 124 117.2 126.8L144.1 217.2ZM126.3 217.8L114.4 218.2L97.7998 154.7C97.2998 138.3 96.7998 123.2 96.4998 111L126.3 217.8ZM110.4 218.2L100.1 218.6C99.3998 203.5 98.7998 187.6 98.3998 172.2L110.4 218.2ZM255.9 227.4C255 228.7 254.1 229.8 253.2 231L100.7 228L100.6 226.6L255.9 227.4ZM251.4 213.5L247.9 205.7C253.7 208 259.5 210.2 265.4 212.4C265.3 212.6 265.1 212.9 265 213.1L251.4 213.5ZM89.1998 117.6V125.7H82.9998V133.2H89.1998V141.3H82.9998V148.8H89.1998V163.9H82.9998V171.4H89.1998V187H82.9998V194.5H89.1998V219L83.4998 219.2V105H89.0998V110.1H82.8998V117.6H89.1998ZM30.1998 203.8L47.2998 146.2C54.1998 137 61.7998 125.4 69.7998 111L39.1998 220.5C35.7998 215.1 32.7998 209.5 30.1998 203.8ZM27.7998 198.1C24.7998 190.4 22.4998 182.5 20.9998 174.3C25.7998 170.5 32.5998 164.2 40.7998 154.4L27.7998 198.1ZM73.4998 112.4C73.4998 123.9 73.2998 138 72.9998 152.9L55.3998 220.1L43.1998 220.5L73.4998 112.4ZM72.5998 169.8C72.0998 186.4 71.4998 203.7 70.6998 219.6L59.3998 220L72.5998 169.8ZM49.1998 234.1L69.7998 234.9C69.3998 241.2 68.8998 247.3 68.4998 252.9C64.5998 249.7 60.6998 246.4 57.1998 242.8C54.3998 240 51.6998 237.1 49.1998 234.1ZM150 281.1C133.6 281.1 117.8 278.1 103 272.4C102.4 263.5 101.8 252.7 101.3 240.9L89.3998 236.9V266.2C87.4998 265.2 85.5998 264.2 83.6998 263V235.2L89.3998 235.4V235.6H95.5998L106.7 236L244.8 240.9C244.2 241.5 243.7 242.1 243.2 242.6C218 267.5 185 281.1 150 281.1Z" fill="#FDB927"/>
</svg>
