<svg width="268" height="297" viewBox="0 0 268 297" fill="none" xmlns="http://www.w3.org/2000/svg">
<path d="M235.5 79.7C231.1 73.2 226.1 67.1 220.5 61.5C218.1 59.1 215.6 56.8 213 54.6L267.6 0H108.6L47.2 61.4L47.1 61.5C41.6 67.1 36.5 73.2 32.1 79.7C27.7 86.3 23.9 93.3 20.8 100.5C14.4 115.6 11.2 131.7 11.2 148.2C11.2 164.8 14.4 180.8 20.8 195.9C23.9 203.2 27.7 210.2 32.1 216.7C36.5 223.2 41.5 229.3 47.1 234.9C49.5 237.3 52 239.6 54.6 241.8L0 296.4H159L220.6 234.8C226.1 229.3 231.1 223.2 235.5 216.8C239.9 210.2 243.7 203.2 246.8 196C253.2 180.9 256.4 164.8 256.4 148.3C256.4 131.7 253.2 115.7 246.8 100.6C243.7 93.3 239.9 86.2 235.5 79.7Z" fill="black"/>
<path d="M213.4 68.6001C211 66.2001 208.5 63.9 206 61.8L139.3 128.5C142.6 129.4 145.7 131.2 148.3 133.8C156.4 141.9 156.4 154.9 148.3 163L24.5 286.6H39L155.4 170.2C167.4 158.2 167.5 138.7 155.5 126.6L162.7 119.4C178.7 135.5 178.6 161.4 162.6 177.4L53.5 286.6H68L169.9 184.7C189.9 164.7 190 132.2 170 112.2L177.2 105C201.2 129.1 201.1 168 177.1 192L82.4 286.7H96.9L184.3 199.3C212.3 171.3 212.4 125.9 184.4 97.8L191.6 90.6001C223.5 122.7 223.5 174.6 191.5 206.6L111.3 286.8H125.8L198.7 213.9C234.7 177.9 234.8 119.5 198.8 83.4001L206.1 76.1001C246.1 116.2 246 181.1 206 221.1L140.4 286.7H154.9L213.3 228.3C257.4 184.1 257.4 112.7 213.4 68.6001Z" fill="white"/>
<path d="M54.3001 228C56.7001 230.4 59.2001 232.7 61.7001 234.8L128.4 168.1C125.1 167.2 122 165.4 119.4 162.8C111.3 154.7 111.3 141.7 119.4 133.6L243.3 9.90005H228.8L112.3 126.4C100.3 138.4 100.2 157.9 112.2 170L105 177.2C89.1001 161.1 89.1001 135.2 105.1 119.2L214.4 9.90005H199.9L97.8001 111.9C77.8001 131.9 77.7001 164.4 97.7001 184.4L90.5001 191.6C66.5001 167.5 66.6001 128.6 90.6001 104.6L185.4 9.80005H170.9L83.3001 97.4001C55.3001 125.4 55.2001 170.8 83.2001 198.9L76.0001 206.1C44.1001 174 44.1001 122.1 76.1001 90.1001L156.4 9.80005H141.9L68.8001 82.9001C32.8001 118.9 32.7001 177.3 68.7001 213.4L61.4001 220.7C21.4001 180.6 21.5001 115.7 61.5001 75.7001L127.3 9.90005H112.8L54.2001 68.5C10.3001 112.5 10.3001 184 54.3001 228Z" fill="#CF0A2C"/>
</svg>
