<svg width="260" height="345" viewBox="0 0 260 345" fill="none" xmlns="http://www.w3.org/2000/svg">
<path d="M69.9358 296C68.4358 294.7 67.7358 292.7 68.3358 290.7L86.2358 226.1C86.3358 225.8 86.5358 225.3 86.6358 225L78.3358 211.8C77.5358 210.6 77.3358 209.1 77.8358 207.7L79.0358 203.8L67.6358 203C56.8358 202.2 53.1358 200.8 50.5358 199.4C39.7358 193.5 36.8358 176.5 36.2358 171.4L35.4358 165.7C35.1358 163.3 35.7358 161.1 37.0358 159.5C38.1358 158.2 39.6358 157.5 41.2358 157.2C16.3358 134.9 -6.16421 107.1 1.53579 67.7C10.0358 24.2 45.1358 11 46.5358 10.4C47.0358 10.2 47.6358 10.1 48.2358 10.1C50.0358 10.1 51.8358 11.1 52.6358 12.7C53.2358 13.9 53.4358 15.3 53.0358 16.4C64.6358 6.5 75.6358 2.2 80.3358 0.699999C80.8358 0.499999 81.3358 0.4 81.8358 0.4C83.7358 0.4 85.5358 1.5 86.4358 3.3C87.5358 5.7 86.6358 8.4 84.5358 9.6C74.0358 16.1 64.8358 24.9 57.9358 34.9C66.3358 33 72.0358 32.6 74.0358 32.6C74.8358 32.6 75.0358 32.6 75.0358 32.6C77.5358 32.8 79.5358 34.6 79.7358 37.1C80.0358 39.6 78.3358 41.8 75.9358 42.5C75.8358 42.5 62.0358 46.1 46.8358 57C43.9358 65.7 42.6358 74.9 42.6358 84.2C42.7358 101.8 48.4358 119.9 58.2358 133.8C60.6358 137.1 62.9358 140 65.3358 142.6C64.3358 124.5 69.4358 96.2 102.136 83C102.736 82.7 103.436 82.7 104.036 82.7C105.836 82.7 107.736 83.7 108.536 85.4C109.736 87.8 108.836 90.6 106.636 91.9L106.336 92.1C101.236 95.3 96.9358 99.7 93.8358 104.6C97.4358 103.5 100.436 103.2 102.536 102.9L102.836 102.8C103.036 102.8 103.136 102.8 103.436 102.8C105.436 102.8 107.436 104.1 108.136 106.1C109.036 108.3 108.036 110.8 106.236 112L106.036 112.1C105.936 112.1 105.836 112.2 105.836 112.2C95.4358 118.2 89.6358 125.3 88.6358 133.2C87.5358 141.8 92.3358 149.9 95.7358 154.4C104.436 144.2 110.136 126.9 111.736 120.2C112.236 117.9 114.336 116.4 116.536 116.4C116.736 116.4 116.836 116.4 117.136 116.4C119.736 116.7 121.536 118.9 121.536 121.4C121.736 142.7 116.036 157.3 110.136 166.8C118.936 171.2 127.536 171.5 129.536 171.5C129.736 171.5 130.036 171.5 130.036 171.5C130.136 171.5 130.336 171.5 130.636 171.5C132.536 171.5 141.036 171.2 150.036 166.7C144.136 157.3 138.436 142.8 138.436 121.4C138.436 118.8 140.336 116.7 142.836 116.4C143.036 116.4 143.136 116.4 143.436 116.4C145.736 116.4 147.736 117.9 148.236 120.2C149.836 126.8 155.636 144.2 164.436 154.3C167.736 149.8 172.536 141.6 171.436 133.1C170.336 125.2 164.536 118.2 154.136 112.2C154.036 112.2 153.836 112 153.836 112C151.936 110.7 150.936 108.3 151.836 106.1C152.636 104.2 154.436 102.8 156.536 102.8C156.736 102.8 156.836 102.8 157.136 102.8H157.436C159.436 103.1 162.636 103.4 166.136 104.5C162.936 99.7 158.636 95.4 153.536 92.1L153.236 91.9C150.936 90.5 150.136 87.7 151.336 85.4C152.236 83.7 153.936 82.6 155.836 82.6C156.436 82.6 157.136 82.7 157.736 82.9C190.436 95.9 195.836 124.2 194.836 142.3C197.336 139.7 199.536 136.8 201.936 133.5C211.736 119.6 217.336 101.4 217.336 83.8C217.336 74.4 215.836 65.4 212.936 56.6C197.536 45.6 183.836 42.3 183.736 42.2C181.236 41.7 179.736 39.4 179.936 36.8C180.136 34.3 182.136 32.4 184.636 32.2C184.636 32.2 184.936 32.2 185.636 32.2C187.536 32.2 193.236 32.4 201.736 34.4C194.736 24.4 185.636 15.7 174.936 9.3C172.736 8 171.836 5.2 173.036 3C173.936 1.2 175.636 0 177.536 0C178.036 0 178.536 0.0999992 179.036 0.299999C183.636 1.7 194.736 6 206.436 15.8C206.136 14.6 206.236 13.2 206.736 12.1C207.636 10.4 209.336 9.5 211.136 9.5C211.636 9.5 212.336 9.6 212.836 9.8C214.236 10.3 249.436 23.3 258.236 66.6C266.236 105.9 243.836 133.9 219.036 156.4C220.636 156.6 222.136 157.4 223.236 158.7C224.636 160.3 225.136 162.6 224.936 164.9L224.336 170.6C223.736 175.7 221.036 192.8 210.236 198.7C207.636 200.1 203.936 201.5 193.136 202.4L181.636 203.3L182.836 207.2C183.236 208.6 183.036 210.1 182.336 211.3L174.036 224.6C174.236 224.9 174.336 225.4 174.436 225.7L192.836 290.2C193.336 292.1 192.736 294.2 191.236 295.5L130.536 344.9L69.9358 296Z" fill="#EDE0C5"/>
<path d="M6.53584 68.6C14.6358 27.5 48.4358 15.2 48.4358 15.2C36.0358 24.5 23.4358 41.6 18.3358 65.8C23.4358 59.5 28.1358 54.8 33.6358 50.9C47.3358 21.3 70.6359 9.39998 82.0359 5.59998C67.1359 14.6 54.7358 28.1 47.2358 43.6C64.4358 37.4 74.7358 37.9 74.7358 37.9C74.7358 37.9 59.3358 41.7 42.5358 54.1C39.3358 63.6 37.4358 73.8 37.5358 84.4C37.6358 103.1 43.6358 122.3 54.1358 136.9C60.0358 145.1 65.6358 150.8 72.6358 156.1C70.2358 150.2 61.3358 105.2 103.936 88L103.636 88.2C93.6358 94.8 86.2358 104.9 83.2358 116.9C90.9358 109.4 99.2359 108.6 103.536 108.1C103.436 108.1 103.336 108.2 103.336 108.2C63.8358 131.1 95.3358 162 95.3358 162C107.836 151.6 115.036 128 116.536 121.6C116.836 146.4 108.536 161.2 102.936 168.5C115.736 177.2 130.036 176.7 130.036 176.7C130.036 176.7 144.336 177.2 157.036 168.5C151.436 161.3 143.136 146.4 143.136 121.7C144.736 128.2 152.036 151.5 164.536 161.9C164.536 161.9 195.836 130.9 156.236 108.1C156.136 108.1 156.036 108 156.036 108C160.336 108.5 168.636 109.3 176.336 116.7C173.236 104.8 165.936 94.6 155.636 88.2L155.336 88C198.036 105 189.336 150.1 187.036 156C194.136 150.7 199.736 145 205.436 136.7C215.736 122 221.636 102.8 221.636 84.1C221.636 73.4 219.736 63.3 216.336 53.9C199.936 41.7 184.436 37.9 184.436 37.9C184.436 37.9 194.836 37.3 212.136 43.4C204.536 28 192.136 14.7 177.136 5.69997C188.636 9.39997 212.036 21.2 225.836 50.7C231.336 54.5 236.136 59.2 241.236 65.4C236.036 41.1 223.436 23.9 210.936 14.9C210.936 14.9 244.736 27 253.136 68.1C262.836 115.9 224.636 145.9 193.936 171.7L217.436 162C219.036 161.2 220.136 162.9 219.936 164.7L219.336 170.5C219.036 173.6 216.736 190 207.736 194.8C205.836 195.9 202.436 197.1 192.736 197.9L175.136 199.1L178.136 209L160.836 236.9L169.636 227.5L188.036 292L138.436 333.1L153.736 262.6L130.536 290.9L107.336 262.4L123.036 332.8L73.1358 292L91.0359 227.4L99.9358 236.8L82.6358 209L85.5359 199.1L67.7358 198C57.9358 197.2 54.6358 196.1 52.7358 195C43.8358 190.2 41.4358 173.9 41.1358 170.7L40.3358 164.9C40.0358 163.1 41.2358 161.6 42.8358 162.2L66.4358 171.7C35.5358 146.4 -2.86416 116.4 6.53584 68.6ZM229.836 119.4C229.836 119.4 249.336 88.5 235.836 71.3C234.436 69.6 232.936 68 231.536 66.3C237.136 86 229.836 119.4 229.836 119.4ZM30.4358 120C30.4358 120 23.0358 86.7 28.4358 67.1C27.0358 68.6 25.5358 70.2 24.2358 72.1C10.9358 89.2 30.4358 120 30.4358 120Z" fill="#00471A"/>
<path d="M181.236 190.8C189.936 190 199.936 190.3 204.036 188C210.036 184.7 211.636 170.2 211.636 170.2C205.036 176.7 190.836 187 181.236 190.8ZM140.636 256.8H130.536H120.436L125.236 263.4H130.536H135.836L140.636 256.8ZM146.136 200.4C148.636 202.8 153.036 205 158.336 200.9C161.136 198.7 161.136 195.5 160.936 193.5C160.736 192.5 159.636 191.9 158.736 192.3C154.036 194.5 149.236 196.7 146.636 197.8C145.636 198.3 145.336 199.5 146.136 200.4ZM112.236 229L109.436 241.6L116.536 251H123.936L117.036 240.9L118.136 234.7C121.236 238 125.736 240.1 130.636 240.1C135.536 240.1 140.036 237.9 143.136 234.6L144.236 240.8L137.336 250.9H144.736L151.736 241.4L148.836 228.8C142.136 224.6 140.636 218.5 140.636 218.5L135.936 203.2L130.536 205.8L125.136 203.2L120.536 218.5C120.436 218.7 118.936 224.8 112.236 229ZM102.536 201C107.936 205.1 112.336 202.8 114.736 200.5C115.636 199.6 115.236 198.5 114.336 197.9C111.736 196.7 107.036 194.6 102.236 192.4C101.236 192 100.236 192.6 100.036 193.6C99.6359 195.7 99.7359 198.9 102.536 201ZM48.8359 170.7C48.8359 170.7 50.5359 185.1 56.7359 188.5C60.8359 190.8 70.8359 190.4 79.6359 191.1C69.8359 187.4 55.6359 177.1 48.8359 170.7Z" fill="white"/>
</svg>
