<svg width="313" height="269" viewBox="0 0 313 269" fill="none" xmlns="http://www.w3.org/2000/svg">
<path d="M312.349 53.5078V30.6078L306.749 24.9078C234.749 -43.5922 80.5487 46.3078 28.1487 89.7078L2.24867 129.808L34.4487 121.808C-14.9513 183.808 2.64867 224.508 4.74867 228.708C9.94867 243.308 21.8487 255.008 41.0487 262.708C55.6487 268.508 72.2487 269.308 86.4487 268.608C147.849 265.708 220.449 227.408 267.349 186.708L268.449 185.808L277.749 138.708L259.549 148.808C196.249 176.608 145.349 192.008 145.349 192.008C112.049 202.408 96.7487 204.108 85.8487 201.508L84.5487 201.108C81.5487 199.908 81.0487 197.208 81.0487 196.508C80.5487 175.708 116.449 130.908 134.449 111.508C151.249 93.4078 177.749 73.6078 200.149 64.2078C215.149 57.9078 224.849 55.4078 229.349 55.8078C228.149 59.7078 226.049 64.5078 223.149 70.3078C223.149 70.3078 199.149 117.608 198.149 119.508L312.349 53.5078Z" fill="#BC945C"/>
<path d="M170.049 50.2078C149.449 61.1078 125.749 83.0078 118.349 90.9078C57.9488 155.208 15.6488 241.208 147.849 200.008C147.849 200.008 199.249 184.408 263.049 156.408C82.4488 309.008 -88.0512 245.208 79.7488 84.7078C64.4488 88.2078 49.0488 91.5078 33.9488 95.7078C87.6488 51.2078 235.049 -31.6922 300.849 30.9078L230.549 74.0078C260.749 14.9078 206.349 28.8078 170.049 50.2078Z" fill="#860038"/>
</svg>
