<svg width="295" height="327" viewBox="0 0 295 327" fill="none" xmlns="http://www.w3.org/2000/svg">
<path d="M294.1 153.5C294.1 114.3 278.8 77.3 251 49.5C227.1 25.6 196.9 11.1 163.6 7.3C162.8 6.6 162 5.9 161.2 5.5C149.3 -2.2 139.2 2.9 132.4 6.2C132.1 6.4 131.6 6.5 131.3 6.8C130.8 7 130.4 7.3 129.9 7.5C117.9 8.9 106.2 11.8 95 16.1C93.8 14.4 92.4 12.8 90.9 11.4C83.6 4.1 73.7 0 63.3 0C41.7 0 24.2 17.5 24.2 39.1C24.2 47.6 26.8 55.6 31.9 62.4C11.3 88.3 0 120.6 0 153.7C0 192.9 15.3 229.9 43.1 257.7C56.2 270.8 71.4 281.2 88.2 288.6C87.6 294.7 88.4 299.2 89.6 301.9C88.1 303.3 87.2 304.6 86.8 306.5C83.1 312.3 91.2 318.4 95.1 321.4L95.7 321.9C100.9 326 104.6 326.6 108.1 326.6C109.1 326.6 110.1 326.5 111.2 326.5C111.8 326.5 112.3 326.4 112.9 326.4C118.3 326.2 124.1 321.9 130.4 313.2C134.4 312.7 135.8 313 136.3 313.2L136.6 314.6L138.4 314.4C141 314.1 144.3 313.4 148.5 311.6C153.4 309.6 156.2 306.9 156.6 303.7C156.8 302.6 156.6 301.6 156.4 300.6C178 299.2 198.4 293.5 217.2 283.2C217.5 283.7 217.9 284.1 218.1 284.6C219.5 286.5 220.7 293.2 221.5 302.2C222 307.7 222.9 311.5 225.5 319.7C226.4 322.5 227.5 325.6 230 325.4C231.8 325.2 232.8 323.1 233.1 319.3V318.8C233.2 316 233.7 308.5 233.3 303C233 297.1 232.8 289 233.9 285.9C235.3 281.7 233.1 279.8 232.2 279C232.2 279 232.2 279 232.1 278.9V278.8C232 278.1 231.9 277 231.1 274.6C238.2 269.6 244.9 264 251 257.9C278.9 229.7 294.1 192.8 294.1 153.5Z" fill="white"/>
<path d="M292.2 153.5C292.2 114.7 277.2 78.3 249.7 50.9C226.1 27.3 195.6 12.8 162.9 9.30001C162.1 8.50001 161.3 7.80001 160.3 7.30001C148.7 -0.299989 139 5.30001 132.3 8.50001C131.8 8.70001 131.3 9.10001 130.6 9.30001C117.9 10.8 105.8 13.8 94.3002 18.3C92.9002 16.3 91.4002 14.3 89.7002 12.6C82.7002 5.60001 73.4002 1.70001 63.5002 1.70001C43.0002 1.70001 26.4002 18.3 26.4002 38.8C26.4002 47.4 29.3002 55.5 34.7002 62.1C14.5002 87.1 2.2002 118.9 2.2002 153.4C2.2002 192.2 17.2002 228.6 44.7002 256C58.0002 269.3 73.6002 279.9 90.5002 287C89.6002 294.7 90.8002 299.9 92.2002 302C90.1002 303.8 89.1002 304.9 88.8002 307C85.4002 311.6 93.7002 317.4 96.9002 320C103.8 325.3 107.4 324.4 112.8 324.2C119.5 324 125.7 316.2 129.3 311.1C136.4 310.1 137.8 311.2 138 312.1C140.3 311.8 143.4 311.2 147.6 309.4C157.3 305.3 154.5 300.4 153.6 299.4C153.4 299.2 153.1 298.8 152.9 298.5C175.9 297.6 197.9 291.4 217.6 280.4C218.3 281.2 219 282.1 219.7 283.1C221.8 286.3 223 296.4 223.4 301.8C223.9 307.1 224.8 310.6 227.4 319C230 327.3 231 321.3 231.1 319C231.2 316.7 231.7 308.7 231.3 302.8C231 296.9 230.8 288.6 232 284.9C233.1 281.3 231.1 280.4 230.5 279.7C229.9 279 230.5 278.8 229 274.2C228.9 274 228.9 273.6 228.8 273.4C236.1 268.3 243.2 262.5 249.6 256.1C277.2 228.7 292.2 192.3 292.2 153.5Z" fill="white"/>
<path d="M292.2 153.5C292.2 114.7 277.2 78.3 249.7 50.9C226.1 27.3 195.6 12.8 162.9 9.30001C162.1 8.50001 161.3 7.80001 160.3 7.30001C148.7 -0.299989 139 5.30001 132.3 8.50001C131.8 8.70001 131.3 9.10001 130.6 9.30001C117.9 10.8 105.8 13.8 94.3002 18.3C92.9002 16.3 91.4002 14.3 89.7002 12.6C82.7002 5.60001 73.4002 1.70001 63.5002 1.70001C43.0002 1.70001 26.4002 18.3 26.4002 38.8C26.4002 47.4 29.3002 55.5 34.7002 62.1C14.5002 87.1 2.2002 118.9 2.2002 153.4C2.2002 192.2 17.2002 228.6 44.7002 256C58.0002 269.3 73.6002 279.9 90.5002 287C89.6002 294.7 90.8002 299.9 92.2002 302C90.1002 303.8 89.1002 304.9 88.8002 307C85.4002 311.6 93.7002 317.4 96.9002 320C103.8 325.3 107.4 324.4 112.8 324.2C119.5 324 125.7 316.2 129.3 311.1C136.4 310.1 137.8 311.2 138 312.1C140.3 311.8 143.4 311.2 147.6 309.4C157.3 305.3 154.5 300.4 153.6 299.4C153.4 299.2 153.1 298.8 152.9 298.5C175.9 297.6 197.9 291.4 217.6 280.4C218.3 281.2 219 282.1 219.7 283.1C221.8 286.3 223 296.4 223.4 301.8C223.9 307.1 224.8 310.6 227.4 319C230 327.3 231 321.3 231.1 319C231.2 316.7 231.7 308.7 231.3 302.8C231 296.9 230.8 288.6 232 284.9C233.1 281.3 231.1 280.4 230.5 279.7C229.9 279 230.5 278.8 229 274.2C228.9 274 228.9 273.6 228.8 273.4C236.1 268.3 243.2 262.5 249.6 256.1C277.2 228.7 292.2 192.3 292.2 153.5Z" fill="black"/>
<path d="M112.8 288.9C118.2 288.7 125.7 287 129.1 285.5C129.6 285.6 130.2 286.1 131.4 286.5C131.9 282.9 129.6 275.4 128.2 272C127.3 269.7 126.5 268.2 125.5 265.8C122.4 265.2 118.7 263.7 116 262.5C116 264.6 116.3 270.2 116.8 273.9C115.7 274 114.1 274.1 112.2 274.1C112.6 278.2 113.1 285.5 112.8 288.9Z" fill="#008348"/>
<path d="M214.3 277.1C213.3 276.1 215.5 272.9 216.6 267.1C217.6 261.2 217.7 251.5 213.4 246.1C211.4 243.4 210.3 241.7 210 240.6C196.8 250.2 181.5 256.7 165.3 259.4C165.1 259.7 165 260.1 164.7 260.3C162.3 263.4 157.8 267.6 154.4 269.5C151 271.4 147.2 272.7 145 273.3C144.5 276.9 144 284.9 144.9 287.7C145.2 288.7 149.4 291.2 150.9 293.9C151 294.1 151.2 294.5 151.4 294.7C174.2 294 195.8 287.9 214.7 277.5C214.5 277.2 214.4 277.1 214.3 277.1Z" fill="#008348"/>
<path d="M246.7 53.9C224.7 31.7 196.4 17.9 166 13.9C168.5 18.8 168.8 24.3 169.1 27.8C173.5 25.9 176.8 24.9 178.6 21.9C180.4 19 182.9 19.5 184.5 21.7C186.1 23.8 186.1 26.6 181.9 29C177.7 31.6 174.8 32.8 173.9 33.3C173 33.8 173.8 34.5 174.8 36.2C175.8 37.9 178.4 42.1 178.9 50.8C178.9 50.9 178.9 51 178.9 51C195.4 56.1 210.4 65.1 223 77.7C243.2 97.9 254.4 124.9 254.4 153.5C254.4 169.9 250.7 185.8 243.8 200.2C244.7 200.7 245.9 203.9 246.4 208.2C246.6 210.5 246.5 212.9 245.8 214.5C245.1 216.1 239.8 224 237.2 226.4C236.2 227.3 233.8 227.2 232.8 225.7C231.8 224.2 231.7 225 230.9 225.8C230.1 226.6 227.4 230.5 226.7 231.6C226 232.6 223.8 233.6 225.2 237.7C226.7 241.8 228.4 244.7 227.8 247C227.2 249.3 227 249.9 230.1 252.5C233.2 255.1 233 258.3 231.7 260.2C230.9 261.4 229.6 264.8 229 268.3C264.8 242.7 288.3 200.8 288.3 153.5C288.1 115.8 273.4 80.4 246.7 53.9Z" fill="#008348"/>
<path d="M84.9003 257.6C84.6003 253.8 83.9003 247 86.6003 242C81.2003 238.3 76.1003 234.1 71.3003 229.3C51.1003 209.1 39.9003 182.1 39.9003 153.5C39.9003 122.9 52.8003 95.2 73.6003 75.6C73.8003 75.1 74.1003 74.8 74.4003 74.4C70.9003 75.5 67.2003 76.1 63.4003 76.1C53.6003 76.1 44.3003 72.3 37.3003 65.4C17.2003 90.4 6.30029 121.1 6.30029 153.6C6.30029 191.3 21.0003 226.6 47.6003 253.3C60.4003 266.1 75.2003 276 91.2003 283C91.9003 279.9 92.8003 276.7 94.1003 273.2C95.3003 269.9 93.4003 262.5 90.3003 258.5C88.4003 258 86.3003 257.7 84.9003 257.6Z" fill="#008348"/>
<path d="M122.3 14.7C113.4 16.3 104.8 18.7 96.4004 21.9C99.1004 27.1 100.5 32.9 100.5 39C100.5 47 98.0004 54.6 93.4004 60.9C101.2 56.4 109.6 52.8 118.4 50.4C119 49.8 119.5 49.3 120.1 48.8C116.8 43.4 112.5 34.8 116.3 23.1C117.3 19.7 119.6 17 122.3 14.7Z" fill="#008348"/>
<path d="M178.7 57.2C181.9 58.8 185.4 62.2 184 68.5C183.4 71.1 181.3 73.6 181.1 74.6C180.8 76.3 177.3 79.1 176.1 81.4C175 83.7 174.9 85.5 175.1 86.5C176.9 88.2 181 90.5 183.1 91.2C184.9 91.8 184.7 92.3 184 93.5C185.2 93.6 185.9 94.4 187.1 95.8C188.3 97.3 191.6 96.4 193.5 95.3C195.5 94.3 198.1 93.9 200.2 96.4C202.2 98.9 205.3 103.4 206.8 107.7C208.3 112 209.9 115.4 210.3 116.1C210.8 116.8 208.7 129.1 208.2 134.1C207.6 139.1 207.2 141.1 207.1 141.9C207 142.7 210.3 139.1 210.4 143.4C210.5 146.8 212.1 157.6 213.9 165.8C214.4 167.8 214.8 169.8 215.4 171.2C216.8 171.4 217.9 174.1 218.7 178.2C219.5 182.4 221.2 185 221.3 186.9C221.4 188.9 222 189.3 222.7 189.6C223.4 189.9 223.2 191 221.1 193.3C221.6 193.6 222.2 194.3 222.7 194.8C223.3 194.2 224.8 192.4 224.8 192.4C224.8 192.4 231 194.9 232.3 195.3C233.7 195.8 235.2 192.5 239.2 194.2C240.3 194.7 241.5 196.2 242.4 197.7C248.7 184.2 252.2 169.3 252.2 153.5C252.2 125.6 241.3 99.2 221.6 79.4C209.5 67.3 195 58.6 179.2 53.6C178.7 55.2 178.7 56.7 178.7 57.2Z" fill="white"/>
<path d="M211 233.6C209.4 232.8 208.4 233.9 207.6 227.7C207.4 225.9 205.9 223.5 204.8 222.4C203.7 221.3 203.6 219.1 204.1 217.3C205 214.5 205.2 211.9 205.1 209.7C205 207.4 205.4 204.6 208.6 203.3C207.5 202.1 206.9 200.5 206.6 199.2C202 197.7 201.1 197.5 200.2 195.4C198.6 191.7 197.7 186.2 197.1 183.2C196.9 181.7 196.8 180.4 196.6 179.1C195.1 176.3 191.9 170.2 189.4 165.5C188.5 163.8 187.6 162.2 187 161.2C184.7 157.2 187 152.2 188.1 149.1C189.2 146 190.1 143.3 189.1 140.4C188.1 137.3 188.1 136.7 187.9 135.4C187.7 134.2 186.7 132.6 185.3 136.9C183.9 141.2 181.3 147.4 179.9 154C179.1 157.7 178.5 161.7 178.7 165.6C178.8 168.5 179.5 171.5 180.7 174.1C183.6 180.2 187.1 185.7 186.7 189.1C186.2 192.5 185.6 192.6 185.5 193.2C184.9 199.8 182.1 212.2 180.6 215.7C179.1 219.3 173.5 232.3 172.2 237.7C171.3 241.9 168.7 250.9 166.4 256.2C183.1 253 198.5 245.8 211.5 235.6C212 235 212 234.1 211 233.6Z" fill="white"/>
<path d="M86.4004 86.4C87.6004 88 89.2004 89.5 91.4004 90.6C96.9004 93.4 98.1004 95.5 98.1004 100.2C98.1004 105.1 99.0004 114.9 100.6 116.6C101.6 115.6 102.7 114.1 103 113.7C104.6 116.6 107.7 122 112.7 125.3C113 125.5 112.9 126.8 113.7 127C115.4 127.5 126.3 129.1 126.6 131.4C128.9 129.1 132.5 123.6 133.2 121.7C133.9 119.8 137.8 113.8 140.7 110.4C140.7 109 140.7 108.3 140.8 107.9C140 108.6 138.8 110.3 137 111.1C135.2 111.9 129 114.6 124.4 116.9C122.8 117.7 120 118.6 118.9 110.3C117.8 102.2 118.9 97.9 119.7 95.9C120.5 94 122 92.3 124.8 93.1C127.6 93.9 132 95.6 133.3 95.6C133.5 94.7 134.3 93 131.3 92.7C129.2 92.5 123.5 90.9 120.3 86.5C119.1 84.8 118.2 82.5 118 79.8C111.6 80.8 97.0004 82.7 93.7004 83.5C90.4004 84.3 87.7004 85 86.7004 77.5C86.2004 74.3 85.5004 70 87.7004 71.5C89.5004 70.1 92.0004 68.6 96.3004 69.2C97.1004 69.3 98.1004 70 98.4004 70.6C98.6004 71.7 98.2004 73.4 97.6004 75.1C96.6004 78.2 94.8004 80.3 100.9 78.8C107.3 77.3 115.4 76.1 117.5 75.6C117.7 73.5 119.5 70.1 121.7 67.6C123.8 65.1 124.2 63.1 124.3 62.3C124.4 61.5 123.6 61.4 122.6 62.3C121.4 63.4 117.6 65.7 114.2 64.8C112.8 64.5 111.1 61.9 110.2 60.4C111 58.8 112.8 56.2 115.1 53.5C103.1 57.3 92.0004 63.3 82.1004 71.3C82.0004 72.5 82.2004 75.5 83.0004 78.6C83.5004 81 84.5004 83.9 86.4004 86.4Z" fill="white"/>
<path d="M94.2002 239.6C98.8002 237.8 102.5 237.9 106 242.7C107 244.1 107.8 248 116.4 244.5C111.8 239 109.1 232.5 106.6 223.8C102.6 210 93.6002 194.3 97.0002 187.2C95.1002 185.4 92.8002 178.5 90.4002 179.3C88.8002 179.9 86.6002 179.9 88.4002 174.6C89.2002 172.2 90.5002 169.4 93.0002 165.9C96.1002 161.7 100.9 156.6 108.7 150.6C109.4 150 109.5 149.6 109 149.1C108.2 148.3 107.4 147.4 106.6 147C105.8 146.5 105 146.8 104.3 147.5C103.6 148.2 102.5 149 101.8 149.4C101.1 149.8 95.7002 144.5 93.0002 140.8C90.2002 137 87.2002 135.7 86.3002 135.3C87.4002 134.1 89.9002 131.3 89.0002 131.7C87.3002 132.3 84.4002 132.6 81.4002 129.4C77.7002 125.4 79.1002 123.4 78.3002 122.8C77.5002 122.2 73.4002 123.1 70.5002 118.4C67.4002 113.7 66.2002 111.6 68.7002 108.3C69.9002 106.6 70.4002 105.8 70.1002 103.7C69.8002 101.6 70.1002 100.2 72.9002 97.5C75.7002 94.8 77.4002 92.3 78.7002 92.5C79.7002 92.7 76.9002 89.1 75.1002 86.4C74.6002 85.7 74.3002 85 74.1002 84.5C73.6002 83.4 73.0002 81.6 72.7002 79.5C53.0002 99.3 42.2002 125.5 42.2002 153.5C42.2002 181.5 53.1002 207.8 72.8002 227.6C77.4002 232.2 82.4002 236.4 87.7002 240C90.2002 237.5 93.0002 238.5 94.2002 239.6Z" fill="white"/>
<path d="M34.6001 18.5C43.8001 20.9 50.7001 28.3 53.7001 32.4C54.5001 33.4 55.3001 33.3 55.6001 32.5C56.3001 30.8 57.6001 25.5 57.6001 21.3C57.6001 11.9 58.8001 8.20002 61.2001 3.80002C50.3001 4.40002 40.6001 10.1 34.6001 18.5Z" fill="#A73832"/>
<path d="M29.1 47.4C46.4 49 51.7 39.4 52.8 37.9C53.9 36.4 52.6 35.5 52 34.7C49.1 30.5 42.3 23.2 33.1 20.8C29.8 26.1 28 32.3 28 39C28.1 41.9 28.4 44.7 29.1 47.4Z" fill="#A73832"/>
<path d="M97.6002 46.7C90.4002 43.6 81.7002 46.5 75.6002 51.9C69.4002 57.3 66.3002 61.4 64.2002 74.2C64.0002 74.2 63.6002 74.2 63.4002 74.2C54.2002 74.2 46.0002 70.7 39.8002 65C50.3002 62.3 59.2002 57.5 69.2002 48C79.2002 38.6 84.1002 27.6 85.5002 22.4C86.9002 17.2 84.9002 20.3 83.9002 22.6C82.3002 26.2 77.1002 36.1 66.9002 45.6C56.7002 55.1 48.8002 59.8 38.2002 63.5C34.7002 59.9 31.9002 55.5 30.2002 50.5C33.8002 50.7 45.1002 49.4 50.8002 44.7C58.3002 38.6 59.1002 31.4 60.1002 21.1C61.1002 10.8 62.6002 7.80002 65.1002 3.80002C83.8002 4.70002 98.7002 20.1 98.7002 39C98.4002 41.6 98.2002 44.2 97.6002 46.7Z" fill="#A73832"/>
<path d="M96.6001 50.2C94.9001 47.8 88.9001 46.7 79.4001 52.7C78.5001 53.3 77.9001 53.6 78.9001 54.7C80.9001 56.7 84.0001 60.6 86.1001 65.7C90.9001 61.7 94.5001 56.2 96.6001 50.2Z" fill="#A73832"/>
<path d="M83.4 67.9C81.4 62.9 79.7 59.4 77.7 56.9C76.7 55.5 76.5 55 74.5 56.7C69.2 61.3 67.2 68.5 66 74.1C72.5 73.5 78.4 71.3 83.4 67.9Z" fill="#A73832"/>
<path d="M73.6003 107.2C72.1003 106.7 71.0003 108.4 70.3003 109.8C69.6003 111.2 68.8003 112.6 71.0003 115.7C73.1003 118.8 74.5003 120.6 78.1003 120.3C79.9003 120.2 81.5003 118.8 82.1003 118C82.7003 117.2 82.8003 118.6 81.9003 119.9C81.0003 121.3 80.3003 124.4 82.0003 126.6C83.7003 128.7 87.2003 130.6 91.7003 127.8C96.3003 125.1 98.3003 121.8 98.9003 120.5C99.7003 119 99.7003 118.4 98.9003 117.4C98.1003 116.5 95.5003 112.2 94.9003 103.8C94.6003 98.7 95.5003 95.5 92.3003 93.7C89.1003 91.9 82.0003 87.7 81.1003 79.3C80.8003 76.1 81.0003 71.4 77.8003 73.9C74.6003 76.5 74.6003 78.3 74.3003 80.2C74.0003 82.1 75.5003 84.7 76.9003 86.5C78.3003 88.3 79.8003 92.3 81.1003 93.3C82.3003 94.3 83.1003 95.1 84.2003 95.2C85.2003 95.3 89.3003 95.3 90.3003 95.7C91.3003 96.1 91.9003 97.3 89.4003 97.3C86.9003 97.3 83.1003 98 81.5003 98.2C79.8003 98.4 78.2003 98.5 77.4003 101.9C76.6003 105.3 75.5003 109.1 75.4003 110.4C75.3003 111.6 74.6003 112.3 74.6003 113C74.6003 113.7 76.0003 117 79.0003 113.7C82.0003 110.4 83.3003 107.1 83.9003 105.7C84.5003 104.1 85.1003 104.3 84.6003 106.8C84.0003 109.3 83.9003 115.4 85.1003 117.5C86.3003 119.8 88.9003 122.1 92.1003 120.6C92.8003 120.3 93.9003 119.7 94.8003 119.8C95.7003 119.9 94.7003 121.5 93.9003 122.2C93.1003 122.9 90.5003 125.7 86.0003 121.6C84.9003 120.6 83.3003 118.3 82.9003 115.5C82.8003 114.6 81.5003 114.3 81.0003 115C80.4003 115.8 77.4003 118.6 75.2003 116.6C73.1003 114.6 72.1003 113.4 73.4003 109.3C73.7003 108.2 74.2003 107.4 73.6003 107.2Z" fill="#FAB383"/>
<path d="M75.9001 101C75.4001 102.5 75.0001 104.4 74.8001 105.1C74.6001 105.8 73.6002 107.2 72.7002 105.3C71.8002 103.4 71.8001 101.9 73.3001 100.4C73.8001 99.9 74.4001 99 74.9001 99.5C75.2001 100 76.0001 100.7 75.9001 101Z" fill="#FAB383"/>
<path d="M81.0001 95.8C80.1001 96.3 78.1001 96.3 77.4001 97.8C76.9001 98.8 75.1001 97.7 76.0001 96.4C76.9001 95.1 77.6001 95.3 78.1001 94.9C78.7001 94.6 78.9001 93.5 80.0001 94.1C81.2001 94.8 81.4001 95.6 81.0001 95.8Z" fill="#FAB383"/>
<path d="M154.8 40.3C151.6 40.6 148.7 42.6 145.9 44.6C143 46.6 132.4 55.5 130 57.3C132.6 58.7 133.3 61.4 132.4 65.8C132.2 66.8 132.4 67.2 133.1 66.5C133.8 65.8 136.9 62.4 136.8 59.8C136.7 57.1 135.4 55.5 135.2 55.2C135 54.9 136.1 53.5 137.3 56.3C138.5 59.1 138.2 63.1 134.5 67.4C130.8 71.8 127.8 71.7 126.4 72.5C124.8 73.3 123.2 74.5 124.7 76.9C126.2 79.3 129 78.4 130.1 77.6C131.2 76.8 132.8 75.9 136.4 76.2C140 76.5 141.1 74.3 138.8 71.8C138 71 136 69.2 138.5 69.2C140 69.2 141.8 72.5 142.8 73.4C143.8 74.3 146.1 74.6 149.1 74.9C152.2 75.1 156.8 76.3 156.8 79.2C156.8 81 155.8 81.5 154.5 80.1C154 79.5 153.3 80.4 152.7 81C150.8 82.9 145.9 88 142.4 88.9C138.9 89.8 137.7 88.8 133 86.3C128.4 83.8 124.2 81.3 122.9 80.5C121.7 79.7 119.1 77.9 120.3 81.5C121.5 85.1 124.6 88.7 130.6 90.8C136.7 92.8 137.5 93.5 138.9 94.2C140.3 94.9 139.5 95.6 137.7 95.3C136.1 95.1 134.4 93.7 135.8 96.8C137.2 99.9 139.2 103.1 145.3 102.3C151.4 101.5 151.6 100.3 155.5 93.8C156.2 92.7 156.9 93.5 156.4 96.4C159.5 94.9 161.1 94.5 162.8 94C164.6 93.5 169.2 92 172.3 86.3C173.9 83.4 174.7 82.3 174.4 79.4C174.3 78.3 176 76 177.7 74.4C179.4 72.8 184 66.9 181.7 62.6C179.3 58.3 175.4 60.5 173.6 63.6C171.7 66.8 169.5 70.2 169.4 75.6C168 75.1 166.7 75.6 166 76.7C165.7 77.3 160.7 76.6 159 77C157.3 77.5 156.7 76.4 158.5 74.1C160.3 71.7 166.6 63.2 166.2 56.8C166.1 54.9 166.3 54.5 166.7 53.1C167 51.3 167.3 51.2 165 49.9C163.5 49.1 163.4 46.7 163.2 44.9C163 43 162.5 43 160.4 43.4C158.8 43.9 156.1 42.3 154.8 40.3Z" fill="#FAB383"/>
<path d="M141.7 75.3C141.1 76.7 139.4 78 135.5 77.6C133.6 77.4 131.7 77.4 131.3 78.8C131.1 79.8 130.2 79.8 128.9 79.7C127.7 79.7 126.2 79.4 126.2 79.8C126.2 80.3 131.7 83.5 133.5 84.4C135.3 85.2 138 87.2 140.2 87C143.1 86.8 145.6 85.3 149.9 80.7C151.7 78.8 153.1 77.9 151.4 77.1C150.3 76.5 149.1 76.4 147.6 76.4C146.2 76.6 142.9 76.4 141.7 75.3Z" fill="#FAB383"/>
<path d="M120.8 75.4C119.3 75.3 119.1 74.3 120.1 72.6C121.1 70.9 122 69.3 123.4 68.3C123.6 69 124.1 69.9 124.8 70.3C123.9 71.2 122.8 72.4 123 74.8L120.8 75.4Z" fill="#FAB383"/>
<path d="M154.9 68.4C153 68.4 150.2 67.7 148.1 66.4C146.1 64.9 145.4 64.3 145.7 62.2C145.9 61 146 60.2 146.2 59.7C146.3 59.4 146.3 59.1 146.3 58.9C146.5 57.9 146.4 57.3 146.1 56.9C146 56.7 145.8 56.6 145.4 56.6C144.9 56.6 144.4 56.8 143.7 57.4C142.6 56.5 141.4 55.5 140.5 54.8C139.8 54.2 139.4 53.8 139.1 53.7C138.9 53.6 138.5 53.2 138.5 53C138.5 52.8 138.6 52.5 138.8 52.2C138.9 52.1 139.1 52 139.5 52H139.6H139.7C139.9 52 140.3 52 140.5 51.7C140.7 51.5 140.8 50.9 140.7 50.2C140.7 50.2 140.8 50.1 141.3 50.1C141.4 50.1 141.5 50.1 141.8 50.1C141.9 50.1 142.1 50.1 142.3 50.1C142.6 50.1 142.8 50.1 142.9 50C143.1 49.9 143.2 49.7 143.2 49.4C143.3 49.2 143.3 49.1 143.7 49.1C143.9 49.1 144.2 49.1 144.6 49.2C144.7 49.2 144.7 49.2 144.8 49.2C145.1 49.2 145.4 48.9 145.5 48.7L145.6 48.6C145.7 48.4 145.8 48.3 146.2 48.3C146.3 48.3 146.3 48.3 146.4 48.3C146.7 48.3 147 48.4 147.2 48.5C147.5 48.6 147.8 48.6 148.1 48.6C148.8 48.6 149 48.1 149.1 47.7C149.3 46.9 149.4 46.7 149.8 46.7C150 46.7 150.5 46.8 151 47.2C151.5 47.5 151.9 47.7 152.2 47.7C152.8 47.7 153.1 47.4 153.2 46.8C153.2 46.8 153.2 46.8 153.3 46.8C153.6 46.8 154.2 47 154.9 47.4L155.2 47.6C156.2 48.2 158.5 49.4 161 52.3C161.6 53 161.7 53.4 161.7 53.5H161.6C161.3 53.6 160.7 53.6 160.6 54.6C160.5 55.2 160.4 55.4 160.3 55.5C160.3 55.5 160.2 55.4 160.1 55.2C160 54.9 159.8 54.6 159.4 54.6C159.3 54.6 159.3 54.6 159.2 54.6C159.2 54.6 159.1 54.5 159.1 54.4C159.1 54.3 158.9 53.8 158.4 53.8C158.2 53.8 158.1 53.9 157.9 54C157.9 54 157.9 54 157.8 54C157.7 53.9 157.6 53.4 157.1 53.4C157 53.4 156.9 53.4 156.9 53.4H156.8C156.8 53.4 156.8 53.4 156.7 53.3C156.6 53.1 156.5 53.1 156.2 53.1C156.1 53.1 155.9 53.1 155.7 53.2C155.5 53.3 155.4 53.3 155.2 53.3C155.1 53.3 155.1 53.3 155.1 53.2C155 52.9 154.8 52.9 154.5 52.9C154.2 52.9 154.2 53 153.9 53.1C153.8 53.2 153.6 53.2 153.4 53.2C153.4 53.2 153.3 53.2 153.2 53.1C153.1 53 153 52.8 152.6 52.8C152.4 52.8 152.1 53 152 53.1V53.2C151.9 53.4 151.8 53.4 151.7 53.4H151.6C151.5 53.4 151.4 53.3 151.3 53.3C151 53.3 150.7 53.5 150.6 53.8C150.5 53.9 150.5 53.9 150.5 53.9C150.5 53.9 150.4 53.9 150.3 53.9C150.2 53.8 150.1 53.8 150 53.8C149.5 53.8 149.3 54.1 149.2 54.5C149.1 54.7 149 54.8 149 54.8C149 54.8 149 54.8 148.9 54.8C148.7 54.8 148.6 54.7 148.4 54.7C147.7 54.7 147.7 55.3 147.6 55.8C147.6 55.9 147.6 56 147.6 56.1C147.5 57 147 60.7 147.1 61.8C147.1 62.7 148.3 62.7 148.8 62.7C149.6 62.7 150.7 62.6 152.2 62.4C154.9 62.1 160 60.5 162.7 58.3C163.4 57.7 163.9 57.7 164.1 57.7C164.2 57.7 164.3 57.7 164.3 57.7C164.3 57.8 164 58.5 163.4 59.1C163.3 59.1 163.3 59.2 163.2 59.3C162.4 60 160.5 61.7 156.6 62.5C152.9 63.2 149.5 63.9 148.3 63.9C148.2 63.9 148.1 63.9 148.1 63.9C148 63.9 148 63.9 147.9 63.9C147.7 63.9 147.6 64 147.4 64.1C147.3 64.3 147.4 64.6 147.7 64.8C148 65.1 148.6 65.3 149.1 65.3C149.2 65.3 149.4 65.3 149.6 65.3C149.7 65.3 150.2 65.6 150.4 66C151.2 66.8 152.4 67.9 154 67.9C156 67.9 158.9 65.8 159.8 65.1C160.1 64.8 161 64.3 161.6 64.2C161.5 64.3 161.4 64.4 161.1 64.7L161 64.8C159.2 66.6 157.3 68.5 155.3 68.6C155.2 68.4 155 68.4 154.9 68.4Z" fill="black"/>
<path d="M178.7 65.9C177.5 66.8 176.7 67.1 176.6 68.7C176.5 70.3 176.1 73 175.6 73.2C174.8 73.5 174.9 71.7 174.7 72.3C174.4 73.1 173.5 72.8 173.1 72.1C173 71.8 170.2 71.8 172.4 68.6C174.4 65.7 176 64.1 177.5 63.4C178.9 62.7 181.3 64 178.7 65.9Z" fill="black"/>
<path d="M233.5 199.3C232.9 197.9 233.8 195.8 236.7 197.4C239.5 199 241.7 200.3 239.6 206.4C237.6 212.6 236.1 216.1 235.3 218.7C234.5 221.3 231.5 224.6 232.5 220.2C233.5 215.8 234.1 210.6 233.6 207.9C232.8 202.9 234.4 203.3 233.9 201C233.9 200.2 233.7 199.7 233.5 199.3Z" fill="#FAB383"/>
<path d="M244.1 204.6C244.9 207 245.8 212.5 244.4 214.8C243 217.1 238.9 223.2 237.4 224.8C235.8 226.4 234.6 225.7 235.6 224C236.6 222.3 238 220 238 219.3C238 218.5 237.9 217.6 239.2 215C240.6 212.4 242.9 203.8 243.2 203.1C243.4 202.4 243.9 203.9 244.1 204.6Z" fill="#FAB383"/>
<path d="M215.2 225.3C214.5 223.3 214.2 220.3 213.1 218.6C214 216.1 216.9 209.6 221.9 207.5C222.5 207.3 222.8 206.7 222.6 206.3C222.4 205.8 223.3 205.5 223.7 207.1C224.2 208.7 224.9 213.2 224.9 213.2C225.1 214.2 224.7 215 224.4 216.4C224.2 217.8 223.6 220.8 223.9 222.4C224.2 224 224.8 225.1 228 224.4C229.6 224.1 229.5 223.6 229.9 222.3C230.4 220.9 231.6 217.1 232 215.1C232.5 213 232.1 207.8 231.7 206.4C231.2 205 231.8 200.5 231.6 199.6C231.3 198.7 231 197.3 228.2 196.4C225.4 195.5 224.6 195.3 222.7 197.2C220.8 199.1 220.1 199.9 219.2 200.8C218.3 201.7 216 200.9 218 199.1C219.9 197.3 221.7 195.5 222.3 194.9L221.7 193.4H220.7C217.6 196.5 213.7 198.3 211 198.8C210 199 208.1 199.1 209.4 200.9C209.7 201.4 209.9 202.6 210.6 202.1C211.4 201.6 212.6 199.6 213.8 200.5C215 201.4 213.6 203.6 212.2 204.6C210.8 205.6 209.4 206.6 208.4 207.2C207.4 207.8 206.8 208.3 206.9 210.1C207 211.9 207.1 215.2 206.1 217.6C205.1 220.1 205.6 220.8 206.6 222.5C207.6 224.2 209 225.7 209.4 228.4C209.9 231.1 210.1 231.8 211.9 231.6C213.7 231.4 214.4 230.6 215.1 229.5L215.2 225.3Z" fill="#FAB383"/>
<path d="M215.9 230.5C215.1 231.9 213.8 234 213.8 235.9C213.8 237.8 211.9 239.9 212.1 240.8C212.3 241.7 214.8 244.1 216.3 246.6C217.8 249.1 219.7 252.8 219.7 258.9C219.7 265.1 217.7 273.5 217.4 274.6C217.1 275.7 216.6 276.6 218.3 278.2C220 279.8 222.7 282.7 223.7 289.3C224.7 296 225.4 299.4 225.8 299.7C226.2 300 226.1 300.6 226.1 301.8C226.1 303 227.2 310.1 228 311.4C228.8 312.8 228.7 303.8 228.6 301.2C228.5 298.6 228.7 286.3 229.2 284.5C229.7 282.7 230.1 280.7 228.5 278.4C226.9 276.1 224.2 272.2 226.2 265.7C228.2 259.1 231.5 259.3 230.5 256.8C229.5 254.2 227.7 252.4 226.3 250.9C224.9 249.4 226.1 245.9 226 244.5C225.9 241.8 223.7 241.3 223.5 238.3C223.3 235.3 223 232.8 225.3 229.8C227.6 226.7 224.5 226.9 223.5 224.9C222.5 223 221.9 220.5 222.8 216.5C223.3 214.5 223 213.9 222.5 213.7C222 213.5 219.6 213 219.6 213L216.1 219.9C216.7 221.3 216.9 223.3 216.9 224.6L215.9 230.5Z" fill="#A73832"/>
<path d="M183.4 94C180.7 97.7 176.4 107 174.4 112.9C172.4 118.8 167.7 132.7 171 141.8C174.3 150.9 180.6 145.2 182.1 141.7C183.6 138.2 185.8 132.3 186.5 130.7C187.2 129.1 187.5 128.2 188.8 131.9C190 135.6 191.9 144.5 191.9 145.2C191.9 145.9 190.7 148.3 189.3 151.8C187.9 155.3 187.2 157.8 188.5 159.8C189.9 161.9 195.2 171 196.8 175C197.8 177.4 198.7 177.8 201.4 177.1C204.1 176.4 210.6 174.2 212.5 173.3C214.4 172.4 213.5 170.8 213 168.9C212.1 166 208.7 149.8 208.7 147.8C208.7 145.7 209.3 142.8 206.4 146C205.4 147.1 204 146 204.4 144.4C204.7 142.8 208.1 121 208.4 118.3C206.5 114.1 200.9 101 199.4 98.6C197.8 96.2 197.3 96.1 194.9 97.4C192.5 98.6 187.3 100.6 185.4 96C185.1 95.2 184.5 93.4 185.9 93.2L184.9 92.9C184.6 92.9 183.8 93.5 183.4 94Z" fill="white"/>
<path d="M212.8 174.6C210.8 175.8 203.6 178.9 200.7 179.3C197.8 179.8 198.4 180.5 199 182.8C199.6 185.1 201.3 191.7 202.2 194.1C203.1 196.5 204.3 196.4 206.7 196.4C210.3 196.3 216.3 194.7 220.7 190.6C219.5 189.1 217.3 182.1 216.6 179.2C216 176.1 216 172.8 212.8 174.6Z" fill="white"/>
<path d="M148.6 109.9C148.4 110.4 147.6 111.7 145.8 111.7C144 111.7 142.5 111.1 141.4 112.7C140.3 114.3 134.2 121.7 132.8 126.4C134.2 129.2 136 134.2 137.3 137.8C141.7 134.1 155.6 120.5 158.2 117.8C159.2 116.8 159.3 115.9 157.9 114.9C156.4 113.9 151 110.5 150.2 109.9C149.3 109.5 148.8 109.5 148.6 109.9Z" fill="white"/>
<path d="M113.2 129.6C112.3 133.1 110.6 139.1 107.8 143.8C108.9 145.6 109.8 147.2 111.2 147.8C114.4 145.5 120.2 140.1 121.9 138.1C123.6 136.1 125.7 133 125.7 132.3C125.7 131.6 124.9 131.4 123.9 131.6C122.9 131.8 118.7 130.1 114.7 129.3C113.7 129.2 113.3 129.2 113.2 129.6Z" fill="white"/>
<path d="M110.8 126.3C109.6 126.1 105.3 121.4 103.8 119.1C102.3 116.6 102.1 116.8 101.5 118.6C100.9 120.4 98.8003 124.4 97.3003 126.2C95.8003 128.1 92.0003 133 91.0003 134.1C90.0003 135.2 91.0003 135.7 91.9003 136.6C92.8003 137.5 97.4003 143.2 98.5003 144.3C99.5003 145.5 100.6 147.8 103.4 145.3C106.1 142.8 109.4 138.4 110.7 133.8C112.2 129.2 112.3 126.8 113.5 127V126.1L113.2 125.5L112.5 124.9C112.6 125.2 112.6 125.6 112.4 126C112.3 126.7 111.4 126.4 110.8 126.3Z" fill="white"/>
<path d="M179.5 23.1C176.4 26.7 170.5 29.8 160.2 32.4C150 35 140.2 42.1 136.1 45.6C131.9 49.1 121.5 57.6 116.4 59.7C115 60.3 112.2 62.2 115.8 62.6C118.5 62.9 120.4 61.4 126.2 57.1C132.1 52.8 136.6 49.8 141 45.5C145.2 41.4 152.6 37.7 160.8 35.4C168.8 33.1 179.5 29.6 182.5 26.4C184 24.8 184.1 24 182.7 22.7C181.4 21.3 180.7 21.6 179.5 23.1Z" fill="white"/>
<path d="M127.9 58.4C127 58.9 126.7 59.4 125.6 62.7C124.6 66 124.7 67.9 125.6 68.7C126.2 69.3 127.1 69.3 127.5 69.3C127.8 69.3 128.2 69.4 128.1 68.5C128 67.6 128 63.5 131 61.7C131.6 61.4 130.9 59 129 59.3C128.4 59.3 129 57.8 127.9 58.4Z" fill="white"/>
<path d="M93.3004 71.3C94.9004 71.3 95.9004 71.3 95.8004 73.1C95.7004 74.9 94.9004 77.4 94.8004 79.1C94.7004 80.8 94.7004 81.5 95.7004 81.5C96.7004 81.5 94.2004 82.5 92.9004 82.7C91.5004 82.9 89.5004 83.7 88.4004 78C88.1004 76.2 88.2004 73.4 87.9004 72.7C89.3004 71.9 91.4004 71.3 93.3004 71.3Z" fill="white"/>
<path d="M123.2 76C123.7 78.3 124.2 78.3 123.8 78.6C123.4 78.9 122.9 77.7 121.1 78C119.4 78.2 105.3 80.5 104.3 80.6C101.1 80.9 101 80.4 104 79.8C106.9 79.2 117.6 77.2 120.7 76.6L123.2 76Z" fill="white"/>
<path d="M106.1 247.6C107.6 248.5 111.1 249.5 117 247C123 244.5 129.6 246.2 130.6 250.5C131.6 254.8 131.6 260.2 129.8 262.6C128.2 264.6 126.7 264.4 124.9 263.8C121.6 262.8 114.2 259.3 112 258.3C109.9 257.3 106.2 256.2 103.7 256.2C102.7 254.1 102.8 250.3 103.5 249.1C104.2 247.7 104.2 246.4 104.7 246.7C105.3 247 106.1 247.6 106.1 247.6Z" fill="white"/>
<path d="M129.6 267.3C131.1 267.3 133.7 267.9 134.6 270.6C135.3 272.7 139.7 273.3 141.5 273.2C143.4 273.1 143.1 274.1 143 275.2C142.9 276.3 142.5 279.7 142.5 281.1C142.5 282.5 142.8 287.2 143.1 288C143.3 288.9 142.5 289.4 141.5 289.8C140.5 290.2 136.8 291.4 134.5 289.7C133.3 288.8 131.8 287.6 133.3 287.4C134.8 287.3 131.5 274.6 130.6 272.4C129.6 270.2 127 267.3 129.6 267.3Z" fill="white"/>
<path d="M91.0002 240.9C91.6002 241.1 91.9002 241.7 92.4002 242.5C92.9002 243.3 93.0002 244 92.3002 244.8C91.1002 246.2 89.6002 252.3 89.8002 256.7C89.0002 256.5 87.3002 256.1 86.4002 256.4C86.1002 253.9 86.3002 246.2 87.4002 243.7C88.6002 241.1 89.7002 240.4 91.0002 240.9Z" fill="white"/>
<path d="M91.3 309.3C94.1 312.5 99.3 317.2 103.3 318.9C107.3 320.6 109.9 321.2 113.3 320.8C116.1 320.6 115.6 321.7 113.3 322C111 322.3 106 322.3 102.6 320.5C99.2 318.7 93.9 315.4 90.5 310.5C89.6 309.5 90.4 308.3 91.3 309.3Z" fill="white"/>
<path d="M149.7 301.5C147.4 302.5 143.3 304.7 139.2 305.7C139.7 307.7 139.8 308.6 139.8 309.2C142.3 309.2 147 307.5 150.9 305C151.8 304.4 152.1 303.8 151.8 303C151.4 302.2 151 300.9 149.7 301.5Z" fill="white"/>
<path d="M123.2 292.2C122.6 291.6 125.8 291 126.5 291C127.3 291.5 128.8 292.8 129.2 293.3C129.5 293.6 129.3 293.9 129 294.1C128.7 294.3 126.7 294.8 125.8 294.9C124.9 294 123.4 292.6 123.2 292.2Z" fill="white"/>
<path d="M129 245.6C128.1 244.9 128.2 244.6 128.7 243.9C129.2 243.2 129.6 242.8 130.1 242.5C130.6 242.2 131.2 242.2 132 243.3C132.8 244.4 137.1 251.4 138 253.4C138.9 255.3 140 254.1 139.6 252.9C139.1 251.8 138.2 249.8 137.9 249.3C139.1 245.5 140.4 239.7 140.4 235.8C140.4 232 139.5 228.2 138.8 226.9C141.9 227 148.4 226.9 151 226.1C153.6 225.3 151.5 225.1 150.4 225.2C149.4 225.3 142.1 225.3 136.8 224.6C127.6 223.5 118.6 218.3 115.8 214.8C115.3 214.2 112.6 214.5 114.9 216.3C117.2 218.1 122.8 223.4 131.3 224.9C133.2 225.2 136.3 225.8 136.7 232.7C137.2 239.7 136.5 244.1 136.5 244.8C136.5 245.5 136 245.7 135.5 244.9C134.9 244.1 133 241.5 132 240.9C131 240.3 130.3 240.4 129.4 241.1C128.5 241.8 127.1 243.1 126.6 243.8L129 245.6Z" fill="white"/>
<path d="M111.1 267.6C110.3 267.6 105.2 267.9 104.2 267.6C103.2 267.3 102.4 266 103.2 265.5C104.1 264.9 105.8 265.7 107.6 265.7C109.3 265.7 111.2 265.2 111.7 265.5C112.2 265.7 112.7 265.7 112.7 267.8L111.1 267.6Z" fill="white"/>
<path d="M98.8002 298.3C97.3002 297.4 95.6002 293.2 95.3002 285C95.2002 282.2 96.3002 277.5 97.2002 275.3C98.1002 273.1 96.6002 273.9 96.3002 274.7C96.0002 275.5 94.8002 278.7 94.5002 281C94.2002 283.4 93.6002 286.9 94.5002 291.9C95.4002 297 95.9002 298.5 96.1002 299.4L98.8002 298.3Z" fill="white"/>
<path d="M150.101 30.6C151.601 30.7 153.301 30.7 153.701 29.6C154.001 28.6 153.701 27.9 153.201 27.7C152.701 27.5 152.501 27.6 152.701 26.6C152.901 25.6 153.601 25.7 153.601 24.1C153.501 22.5 152.401 22.5 151.301 22.9C150.301 23.2 149.801 23.7 148.801 25C147.801 26.3 148.201 24.1 148.501 23.8C148.601 23.5 149.101 20.9 147.701 20.4C146.901 20.7 146.101 21.2 145.401 21.5C145.201 22 144.901 22.5 144.701 23.1C144.101 24.6 143.501 23.4 143.001 22.8C141.501 23.6 140.201 24.4 139.201 25.1C139.101 25.2 139.001 25.2 138.901 25.3C139.001 26.2 140.101 27.3 140.701 27.7C141.401 28.2 140.901 29.2 140.101 29.2C139.201 29.2 138.101 28.6 136.901 29.9C135.801 31.3 136.601 32.5 137.601 32.5C138.601 32.5 139.501 32.8 140.001 34.1C140.301 35.3 140.701 35.8 142.101 36C143.601 36.1 144.401 35.1 144.801 34.4C145.101 33.7 145.701 32.8 146.301 33C147.201 33.3 147.101 34.2 146.901 35.4C147.901 34.8 149.001 34.2 150.201 33.6C150.001 32.7 149.401 31.8 149.101 31.3C148.401 30.6 148.601 30.3 150.101 30.6Z" fill="#008348"/>
<path d="M162.6 14.3C162 14.4 161.6 14.5 161 14.8C161.2 16 161.8 17.7 161.5 18C161.2 18.3 159.9 18.5 158.9 18.8C157.9 19.1 155.5 21.3 156.8 23C158 24.6 158.4 25.6 158.6 26.4C158.8 27.2 160.9 28.2 162.2 26.5C163.5 24.8 164.7 23 165 24.1C165.3 25.1 165.2 27.5 165 28.7C165.3 28.6 165.6 28.6 165.9 28.5C166.5 22.2 164.9 17.8 162.6 14.3Z" fill="#008348"/>
<path d="M131.9 44.4C131.1 43.8 130.9 42.8 131.8 42.6C132.7 42.4 134.1 42.1 136.4 41.1C138.8 40.1 137.5 38.4 136.5 37.9C135.5 37.4 135.4 36.4 135.5 35.4C135.6 34.4 135.4 32.8 133.2 33.6C131.2 34.4 131.8 36.4 131.3 37.1C130.7 37.8 130.4 37.6 130.5 36.5C130.6 35.5 129.7 34.8 129.3 34.6C129 34.4 128.1 34.3 127.3 34.1C125.2 36 123.2 38.1 121.8 40.1C122.1 40.8 122.9 41.6 123.4 41.7C124 41.9 124.8 42.3 124.8 43.4C124.8 44.3 122.7 44.4 121.2 44.4C122.2 47.1 123.2 49 124.6 50.5C124.9 50.4 125.3 50.3 126 50C127.7 49.3 128.3 46.6 128.6 45.8C128.8 45 129.6 45.2 130.1 46.1C130.4 46.8 130.6 47.5 130.7 48.1C131.7 47.1 132.6 46.2 133.6 45.3C132.7 45.1 132.3 44.8 131.9 44.4Z" fill="#008348"/>
<path d="M161.6 111.4C161.9 111.4 161 107.3 161.8 107.2C162.5 107.1 162.8 109.3 164.4 109.1C166 108.9 166.3 107.3 166.1 105.5C165.9 103.8 166.9 104.7 167.7 103.5C168.5 102.3 166.8 100.6 164.9 101.8C163 102.9 163.3 101.5 164.3 100.8C165.3 100.2 164.5 98 162.5 98.7C160.9 99.3 160.1 98.2 159.4 97.8C158.8 98 158.3 98.3 157.7 98.5C157.6 99 157.7 99.5 157.8 100.1C157.9 100.8 158.3 102.7 157.1 101.9C156.1 101.2 154.7 100.9 154.3 102.1C154 103.3 154.6 103.5 154.5 104.2C154.4 104.9 152.4 105.1 153.4 106.8C154.3 108.4 155.8 107.5 156.7 106.9C157.6 106.3 158.5 107 158.2 107.8C158 108.5 157.4 110.6 157.4 112.1C157.9 112.4 158.3 112.7 158.8 113C159.5 112.5 160.5 111.5 161.6 111.4Z" fill="#008348"/>
<path d="M131.1 107.6C131.9 107.4 133.6 109.1 135.1 108.1C136.6 107.1 134.5 106.1 134.8 105.3C135 104.5 135.7 102.8 134.8 102C133.8 101.2 132.8 102 131.6 103.1C130.6 104.2 130.901 102.1 131.501 101.1C132.201 99.9 131.5 99.1 130.3 98.8C129.1 98.6 128.7 100.3 127.8 99.5C126.4 98.3 124.4 98.8 124.9 100.5C125.4 102.2 125.9 102.8 124.9 103C123.9 103.2 122.9 100.4 121.6 102.7C120.4 105 122.301 105.6 122.201 107.3C122.001 109 122.701 110.8 123.701 110.9C124.701 111.1 125.7 110 126.3 109.3C126.9 108.6 128.201 108.2 128.001 109.4C127.901 110.3 127.8 112.1 127.8 113.2C129.8 112.2 132.101 111.2 133.201 110.7C133.201 110.7 133.3 110.7 133.3 110.6C132.7 110.4 131.901 110 131.201 109.5C130.101 108.7 130.2 107.8 131.1 107.6Z" fill="#008348"/>
<path d="M106.2 158.6C108.8 157.8 108.9 159.8 108.6 161.5C108.3 163.2 108.3 166.8 108.4 168.5L112.7 168.7C112.5 167.6 112.7 164.3 112.8 162.4C112.9 160.5 114.8 157.5 115.5 160.5C116.2 163.4 119.1 163.6 121.2 162.3C123.2 161.1 124.7 158.3 126.9 154.6C129 150.8 126.2 149.7 124.5 150C122.8 150.2 121.1 150.5 125 147.3C128.5 144.4 122.6 142.9 119.8 142.3C115.3 147 109.7 152.5 104.8 156.7C104.1 157.3 103.6 157.7 103 158.3C103.4 158.7 104.5 159.1 106.2 158.6Z" fill="#008348"/>
<path d="M101.7 186.8C103.8 186.1 105.2 190.8 108.4 188C111.6 185.3 109.3 183 109.2 180.9C109.1 178.6 111.7 177.7 110.9 174.9C109.7 170.6 105.7 174.7 103.3 177C100.8 179.4 100.7 177.5 103.2 173.6C105.7 169.7 101.6 168.5 99.1003 169.5C97.0003 170.4 94.9003 169.5 93.6003 168.4C92.7003 169.9 91.9003 171.3 91.2003 172.8C89.1003 177.2 90.5003 177.3 92.1003 177.3C93.7003 177.3 97.1003 184 97.5003 185.1C97.6003 185.6 98.9003 187.2 100.3 189.4C100.2 188.5 100.4 187.3 101.7 186.8Z" fill="#008348"/>
<path d="M163.1 142.6C161.1 142.1 158.5 141.8 158.1 146C158 147.6 159.6 148.8 161 149.4C162.5 150 162.2 151 160.7 150.4C159.1 149.8 157.9 149.5 156.7 152.8C155.6 156.1 157.6 156.5 158.6 156.8C159.6 157.1 160.4 157.3 160.2 158.6C160 160 159.3 163.9 161.9 164.3C164.5 164.7 166.8 161.5 167.6 159.9C168.4 158.3 169.3 156.7 169.5 158.5C169.7 160.3 169.4 161.2 168.5 163.2C167.6 165.2 167.6 166.1 169 166C170.4 165.9 172.6 166 173.3 164.4C174 162.8 175 159.8 175.1 157.7C175.2 156.3 176.3 156.2 177.2 156.3C177.4 154 177.8 151.8 178.1 149.9C173.7 150.6 170 145.2 168.6 140.5C167 141.9 164.8 143.1 163.1 142.6Z" fill="#008348"/>
<path d="M142 141.9C141.2 143.3 138.9 147.1 140 148.3C141 149.5 142.1 147.1 143.1 148C144 148.9 146 149.9 146 149.2C146 148.5 146.2 147.2 146.6 145.4C146.9 143.6 147.7 142.6 148.5 144C149.3 145.5 150.4 146.7 153.2 146C156 145.3 155.7 142.4 155.1 140.2C154.5 138.1 156.6 137 157.6 136.5C158.6 135.9 161.2 133.9 159.3 132.1C157.4 130.3 155.7 132.9 154 133.2C152.3 133.5 153 132.1 156.5 129.4C159.6 127 157 124.8 155.1 124C150.2 128.9 141.8 136.8 139.8 138.6C139.1 139.3 138.6 140 138 140.9C142.6 138.9 142.8 140.6 142 141.9Z" fill="#008348"/>
<path d="M169.9 186.9C171.4 188.3 174.9 190.2 177.2 187.9C179.7 185.6 176.6 183.2 176.3 181.3C176 179.5 178.1 178.4 177 175.4C175.1 170.3 172.1 176.4 170.4 178.1C168.7 179.8 169 177 170.5 175.4C171.3 174.6 174.8 172.5 172.8 170.1C170.8 167.7 167.8 169.1 166.4 170.1C164.9 171.1 163.8 172.4 161.5 171.7C159.2 171 157.3 170.8 156 174.1C154.6 177.4 157.2 176.5 159.4 178.8C161.5 181.2 160.2 181.3 158.5 180.7C156.8 180.1 156 178 153.5 178.3C151 178.6 151 182.6 151.8 183.6C152.6 184.6 154.2 185.2 153 187.1C151.9 189 153.6 191.3 155.6 192.2C157.6 193.1 160.7 189.5 161.8 188C162.9 186.5 164.1 186.9 163.8 188C163.6 189 163.1 191.5 163 193.7C164.7 193.1 166.4 192.7 168 192.2C168 191.1 167.8 189.1 167.2 187.3C166.9 184.9 168.4 185.6 169.9 186.9Z" fill="#008348"/>
<path d="M140.7 198.9C138 199.7 137.5 198.4 135.7 197.8C133.9 197.1 133.8 198.7 135 200.6C136.2 202.5 137.6 204.3 136.1 204.3C134.6 204.3 133.5 204.5 133.3 205.7C133.1 206.8 130.7 205.5 130.1 203.1C129.5 200.7 129 196.3 127.7 198.5C126.5 200.8 125.3 204.5 122.2 202.8C119 201.1 121.2 198.8 119.6 197.3C118 195.7 116.5 193.7 118.1 190.9C119.7 188.1 121 190.4 122.5 190.4C124 190.4 124.2 189 122.8 188C121.4 187 119.7 182.1 126 182.5C128.4 182.6 131 181.8 132.9 180.4C134.9 178.9 140.1 179.7 138.1 183.5C136 187.2 136.6 188 137.9 186.7C139.1 185.3 140.7 182.9 143.1 183.5C145.5 184.2 144.5 186 143 188C141.5 190 142.4 191.4 143.6 192.2C144.9 192.9 146.9 197.1 140.7 198.9Z" fill="#008348"/>
<path d="M152.2 172.5C150.2 172.6 147.7 172 147.7 172C147.5 174.1 145.4 177.2 143.3 180.3C143.1 180.6 141.8 180.6 141.3 180.2C140.7 179.7 139.2 179 140.4 177.6C141.6 176.2 143.7 173.4 143.3 172.2C142.9 171 142.1 169.8 140.7 171.5C139.3 173.2 137.2 176.7 134.8 176.8C132.4 176.9 130.1 174.8 131.2 172.6C132.3 170.4 132.7 169.3 131.1 167.4C129.5 165.5 130.1 163.1 133.5 161.5C134.5 161 136.3 161.5 137.6 162.5C138.8 163.5 139.5 162.5 137.8 161.5C136.1 160.5 134.7 159.2 134.5 157C134.3 154.9 135.6 152.6 138.6 153.8C141.5 155 143.3 154 144.6 153C145.8 152 151 150.7 150.4 155.4C149.8 158.8 148.3 158.9 147.8 160.7C147.3 162.5 148.7 161.4 149.5 160C150.3 158.6 152.1 153.1 155.8 157.3C156.7 158.3 156.4 160 155.2 161.9C154.1 163.8 155 165 155.7 166C156.2 167.3 157.8 172.1 152.2 172.5Z" fill="#008348"/>
<path d="M244.7 83.4L248.1 80.9L255.6 92L259.9 88.8L252.3 78L255.6 75.7L263.7 87.1L268.1 83.9L256 67.1L236.1 81.1L247.1 96.7L251.5 93.5L244.7 83.4Z" fill="white"/>
<path d="M259.1 121.6L265.5 118.5L261.1 108.9L276.3 102.5L273.5 96.5L252.1 105.8L259.1 121.6Z" fill="white"/>
<path d="M262.9 131.9L263.6 137.9L278 136.2L278.5 142.4L285.1 141.9L283.3 121L276.8 121.5L277.4 130.2L262.9 131.9Z" fill="white"/>
<path d="M263.6 152.3L263.7 159.5H285L284.9 152.2L263.6 152.3Z" fill="white"/>
<path d="M273.5 169.5C270 168.8 265.7 169.4 262.8 171.6C260.2 173.6 259 175.7 258.3 179.3C257.8 181.7 258.2 184.6 259 187.3L264.7 185.4C264.1 184.2 263.9 182.1 264.5 180.2C265.6 176.4 268.8 174.7 272.5 175.2C276.6 175.8 278.8 179.5 278.2 183.9C277.9 185.7 277.1 187.2 275 188.4L278.5 192.6C281.3 190.9 283.5 187.5 283.9 185C284.7 180.9 283.7 178.2 281.9 174.9C280 171.8 276.8 170.2 273.5 169.5Z" fill="white"/>
<path d="M269.7 199.2C266.8 198.4 262.7 201.7 260.8 203.6C259.7 204.7 255.7 208.6 253.9 208C252.3 207.4 252.8 204.9 253.3 203.4C254.1 201 255.3 199.1 257.3 197.7L253.8 196.1C252.1 197.6 250.2 199.8 249.4 202.1C248.5 204.8 248.2 207.9 248.5 209.9C249 212.5 249.9 214.1 252.8 213.9C255.1 213.7 260.6 210.1 263.9 207C265.6 205.4 267 205.3 267.6 205.6C268.7 206.3 268.7 208.3 268.3 209.6C267.7 211.3 266.9 213.9 265.6 214.8L270.3 218C272.2 216.1 273.2 213 273.8 210.3C275.2 203.8 271.6 199.7 269.7 199.2Z" fill="white"/>
<path d="M243.1 58.4C242.6 55.1 240.8 51.4 239 49.7C236.2 47.2 232.8 46.5 229.2 47C225.6 47.5 222.2 49.8 220.3 52.5C218.3 55.4 217 59.5 217.8 63.1C218.6 66.4 219.8 68.3 222.9 70.4C224.8 71.8 227.8 72.7 230.5 73.1L231.1 67.2C229.7 67.2 227.8 66.5 226.2 65.2C223.1 62.6 223 58.4 225 55.8C227.4 52.5 231.6 51.8 235.3 54.2C236.8 55.2 237.3 56.8 237.7 59.1L243.1 58.4Z" fill="white"/>
<path d="M26.1001 180.6C26.2001 179 26.2001 176.1 27.9001 175.7C29.6001 175.3 30.7001 176.9 31.1001 178.6C31.7001 181.1 32.3001 182.9 31.3001 185L35.8001 184.5C36.6001 182.4 36.4001 179.6 35.8001 177.3C35.2001 174.6 34.3001 172.6 32.3001 170.7C30.4001 169 28.9001 168.6 26.0001 169.1C24.3001 169.4 21.1001 172.6 21.0001 178.8C21.0001 179.9 20.7001 182.3 19.6001 182.3C18.2001 182.4 17.2001 180.7 17.0001 179.5C16.7001 177.8 17.1001 174 17.8001 172.4H13.1001C12.4001 175.1 12.2001 178.8 12.8001 181.6C14.0001 187.7 17.8001 189.6 20.8001 189.4C24.0001 189.1 25.7001 185.8 26.1001 180.6Z" fill="white"/>
<path d="M16.6002 154.9L33.4002 154.7V149.5L16.6002 149.6L16.5002 142.5L11.2002 142.6L11.4002 162.6L16.7002 162.5L16.6002 154.9Z" fill="white"/>
<path d="M46.9 102.4L34.1 94.9L51.1 94.6L55.2 88.2L34.2 76.1L31 81.1L45.4 90L25.7 90.6L23 95.9L43.8 108L46.9 102.4Z" fill="white"/>
<path d="M26 134.4C33.1 134.4 39 128.6 39 121.4C39 114.3 33.2 108.4 26 108.4C18.9 108.4 13 114.2 13 121.4C13 128.5 18.8 134.4 26 134.4ZM26 114.6C29.7 114.6 32.8 117.7 32.8 121.4C32.8 125.1 29.7 128.2 26 128.2C22.3 128.2 19.2 125.1 19.2 121.4C19.2 117.7 22.3 114.6 26 114.6Z" fill="white"/>
<path d="M47.3003 206.6C47.3003 199.5 41.5003 193.6 34.3003 193.6C27.2003 193.6 21.3003 199.4 21.3003 206.6C21.3003 213.7 27.1003 219.6 34.3003 219.6C41.5003 219.6 47.3003 213.7 47.3003 206.6ZM34.4003 213.4C30.7003 213.4 27.6003 210.3 27.6003 206.6C27.6003 202.9 30.7003 199.8 34.4003 199.8C38.1003 199.8 41.2003 202.9 41.2003 206.6C41.1003 210.3 38.1003 213.4 34.4003 213.4Z" fill="white"/>
<path d="M49.9002 221.4C47.9002 223.2 47.0002 227.4 48.8002 230.2C46.8002 229.2 42.6002 228.8 40.8002 230.5C36.2002 234.6 41.8002 240.5 46.5002 245.1L52.9002 251.5L70.1002 237.3L63.1002 229.2C60.7002 226.1 54.0002 217.9 49.9002 221.4ZM50.7002 244C49.0002 242 43.9002 237.9 46.1002 235.9C48.1002 234 53.3002 240.2 53.9002 241L50.7002 244ZM58.7002 236.8L58.2002 236.2C56.7002 234.5 52.0002 229.4 53.9002 227.5C55.7002 225.8 60.3002 231.6 61.6002 233.2L62.2002 233.9L58.7002 236.8Z" fill="white"/>
<path d="M126.5 288.5C127.2 288.2 128.2 287.7 128.6 288C129.1 288.3 131.8 290.3 133.5 291.7C135.2 293.2 135.8 293.6 134.4 294.4C133 295.2 131.8 296 132 295.3C132.2 294.6 132.6 293.6 131.7 292.7C130.8 291.8 128.6 290.1 127.6 289.3C127.1 288.8 126.5 288.5 126.5 288.5Z" fill="#BB9753"/>
<path d="M120.2 290.3C119.6 290.8 119.5 291.7 120.2 292.3C120.9 293 124.6 296.1 125.3 296.7C125.9 297.3 126.8 297.5 127.8 297.3C128.8 297.1 126.7 298.5 125.8 298.7C125 298.8 124 298.8 123.1 298C122.2 297.2 117.1 292.3 116.1 291.4C115.1 290.5 116.3 290.5 117.2 290.4C118.2 290.4 119 290.4 120.2 290.3Z" fill="#BB9753"/>
<path d="M144.801 22.9C145.001 22.3 145.101 21.8 145.501 21.3C144.701 21.8 143.901 22.2 143.101 22.5C143.501 23.2 144.201 24.3 144.801 22.9Z" fill="#BB9753"/>
<path d="M165 24C164.7 22.9 163.6 24.7 162.2 26.4C160.8 28.1 158.8 27.1 158.6 26.3C158.4 25.5 158 24.5 156.8 22.9C155.6 21.3 157.9 19.1 158.9 18.7C159.9 18.5 161.2 18.2 161.5 17.9C161.8 17.7 161.3 16 161 14.7C156.9 15.8 152.1 18 147.7 20.1C149.1 20.6 148.6 23.2 148.5 23.5C148.4 23.8 147.9 26.1 148.8 24.7C149.8 23.3 150.2 22.9 151.3 22.6C152.3 22.3 153.6 22.3 153.6 23.8C153.6 25.3 152.9 25.3 152.7 26.3C152.5 27.3 152.7 27.2 153.2 27.4C153.7 27.6 154 28.3 153.7 29.3C153.4 30.3 151.7 30.4 150.1 30.3C148.6 30.2 148.4 30.4 149 30.9C149.5 31.4 150 32.3 150.1 33.2C153.7 31.4 158.1 29.9 165 28.6C165.2 27.4 165.2 25 165 24Z" fill="#BB9753"/>
<path d="M129.5 46.2C129 45.2 128.3 45.1 128 45.9C127.7 46.7 127.2 49.3 125.4 50.1C124.8 50.3 124.4 50.4 124 50.6C124.6 51.3 125.2 51.8 126 52.4C127.4 50.9 128.7 49.7 129.8 48.4C129.9 47.5 129.8 46.8 129.5 46.2Z" fill="#BB9753"/>
<path d="M146.301 32.8C145.701 32.6 145.201 33.5 144.801 34.2C144.501 34.9 143.601 36 142.101 35.8C140.601 35.7 140.301 35.1 140.001 33.9C139.701 32.7 138.801 32.3 137.601 32.3C136.601 32.3 135.801 31.1 136.901 29.7C138.001 28.3 139.201 29 140.101 29C141.001 29 141.501 28.1 140.701 27.5C140.101 27 139.101 25.9 138.901 25.1C135.701 27.2 131.101 30.4 127.101 34C127.801 34.1 128.701 34.3 129.001 34.5C129.501 34.7 130.401 35.4 130.201 36.4C130.101 37.4 130.401 37.6 131.001 37C131.601 36.3 130.901 34.3 132.901 33.5C134.901 32.7 135.301 34.3 135.201 35.3C135.101 36.3 135.201 37.3 136.201 37.8C137.201 38.3 138.501 39.9 136.101 41C133.701 42 132.501 42.2 131.501 42.5C130.601 42.7 130.801 43.7 131.601 44.3C132.101 44.6 132.401 45.1 132.701 45.3C135.601 42.6 138.501 40.3 141.601 38.2C143.301 37.1 144.901 35.9 146.601 35C147.101 34.1 147.201 33 146.301 32.8Z" fill="#BB9753"/>
<path d="M124.3 43.2C124.4 42.1 123.5 41.7 122.9 41.5C122.4 41.4 121.8 40.6 121.4 39.9C120.8 40.7 120.4 41.4 119.9 42.2C120.1 43 120.4 43.7 120.6 44.3C122.1 44.2 124.3 44.2 124.3 43.2Z" fill="#BB9753"/>
<path d="M171.7 95.6C168.1 95.4 163.7 96.2 159.5 97.7C160.2 98.2 161 99.2 162.6 98.6C164.7 97.9 165.4 100.1 164.4 100.7C163.4 101.3 163 102.8 165 101.7C166.9 100.6 168.6 102.2 167.8 103.4C167 104.6 166 103.6 166.2 105.4C166.4 107.1 166.1 108.7 164.5 109C162.9 109.2 162.6 107 161.9 107.1C161.2 107.2 162 111.3 161.7 111.3C160.6 111.5 159.6 112.4 159 113L159.1 113.1C165.3 117.5 166.8 115.1 167.7 113C168.6 110.9 170.6 104.5 171.2 101.2C171.4 99.4 171.9 97.4 171.7 95.6Z" fill="#BB9753"/>
<path d="M158.3 107.8C158.6 107 157.7 106.2 156.8 106.9C155.9 107.5 154.4 108.4 153.5 106.8C152.6 105.2 154.5 105 154.6 104.2C154.7 103.4 153.9 103.3 154.4 102.1C154.7 100.9 156.2 101.2 157.2 101.9C158.3 102.7 158 100.8 157.9 100.1C157.8 99.5 157.7 99 157.8 98.6C156.6 99.2 155.4 99.7 154.3 100.4C148.5 103.9 148.3 107 149.7 108C150.9 109 153.3 109.5 157.6 112.2C157.5 110.6 158 108.5 158.3 107.8Z" fill="#BB9753"/>
<path d="M140 104.4C137.6 103.2 135.3 100.6 133.7 97.6C133.7 97.6 133.8 97.1 133.1 97.1C132.4 97.1 129.9 96.9 125.9 95.4C121.7 93.9 121.2 94.8 120.6 96.6C120 98.4 119.6 101.7 119.5 107C119.4 112.4 121.8 115.7 123.2 115.1C123.9 114.9 125.7 114 127.7 113C127.7 112 127.8 110.1 127.9 109.2C128.1 108 126.8 108.4 126.2 109.1C125.6 109.8 124.6 110.9 123.6 110.7C122.6 110.6 121.9 108.8 122.1 107.1C122.2 105.4 120.3 104.7 121.5 102.5C122.7 100.2 123.8 103.1 124.8 102.8C125.8 102.6 125.3 102 124.8 100.3C124.3 98.6 126.4 98 127.7 99.3C128.5 100.1 128.9 98.4 130.2 98.6C131.4 98.8 132.1 99.6 131.4 100.9C130.8 101.8 130.5 104.1 131.5 102.9C132.5 101.8 133.6 101 134.7 101.8C135.7 102.6 135 104.2 134.7 105.1C134.5 105.9 136.5 106.9 135 107.9C133.5 108.9 131.9 107.2 131 107.4C130.2 107.6 130 108.6 131.1 109.4C131.8 110 132.6 110.3 133.1 110.5C135.5 109.7 138.2 108.1 139.1 107.7L140.6 107.8C140.7 106 140.6 104.7 140 104.4Z" fill="#BB9753"/>
<path d="M131.6 129C130.7 127 130.4 128.5 127.9 132.5C126.7 134.5 123.5 138.2 119.5 142.3C122.2 142.9 128.2 144.3 124.7 147.3C120.9 150.5 122.6 150.2 124.2 150C125.9 149.8 128.7 150.8 126.6 154.6C124.5 158.4 123 161.2 120.9 162.3C118.9 163.5 115.9 163.4 115.2 160.5C114.5 157.6 112.6 160.5 112.5 162.4C112.4 164.3 112.2 167.6 112.4 168.7L108.1 168.5C108 166.7 108 163.1 108.3 161.5C108.6 159.8 108.5 157.8 105.9 158.6C104.2 159.2 103.1 158.7 102.5 158.4C97.5002 162.8 94.9002 166 93.2002 168.7C94.4002 169.8 96.5002 170.7 98.7002 169.8C101.2 168.8 105.3 170 102.8 173.9C100.3 177.7 100.4 179.7 102.9 177.3C105.4 174.9 109.3 170.9 110.5 175.2C111.3 178 108.7 178.9 108.8 181.2C108.9 183.5 111.2 185.7 108 188.3C104.8 191 103.5 186.4 101.3 187.1C100.1 187.6 99.7002 188.7 99.8002 189.7C102.6 193.7 106.7 199.2 108.2 201.7C110.5 205.4 110.5 209.8 111.4 209.2C112.3 208.5 114.5 206.5 115.1 205.9C115.7 205.3 116.5 204.7 116.1 203.4C115.8 202.2 114.5 195.6 114.9 191C115.4 185.7 117.8 179.9 119.6 176.6C121.3 173.4 126.5 163.3 127.7 160.5C128.9 157.8 131.2 154.6 131.8 152.2C132.4 149.7 134.5 144.1 135.4 141.3C135.5 139 134 134.5 131.6 129Z" fill="#BB9753"/>
<path d="M148.5 104.1C147.8 105.9 146.9 108.2 146.5 109.3C146 110.4 144 110 144.1 109.2C144.4 107.5 142.1 108.6 142.3 107.3C142.5 106.2 142.1 104.4 143.3 104.4C144.5 104.3 146.9 104.1 148.5 104.1Z" fill="#BB9753"/>
<path d="M144.8 22.9C145 22.3 145.1 21.8 145.5 21.3C144.7 21.8 143.9 22.2 143.1 22.5C143.5 23.2 144.2 24.3 144.8 22.9Z" fill="#BB9753"/>
<path d="M180.5 178.9C177.6 174 177 172.2 176.5 167.3C176.3 164.1 176.5 160.2 177 156.2C176.1 156.1 175 156.3 174.9 157.6C174.8 159.7 173.8 162.8 173.1 164.3C172.4 165.9 170.2 165.8 168.8 165.9C167.4 166 167.4 165.1 168.3 163.1C169.2 161.1 169.5 160.2 169.3 158.4C169.1 156.6 168.2 158.2 167.4 159.8C166.6 161.4 164.3 164.5 161.7 164.2C159.1 163.9 159.8 159.9 160 158.5C160.2 157.1 159.4 156.9 158.4 156.7C157.4 156.5 155.3 156 156.5 152.7C157.6 149.4 158.9 149.8 160.5 150.3C162.1 150.9 162.3 149.8 160.8 149.3C159.3 148.7 157.7 147.5 157.9 145.9C158.2 141.7 160.8 142.1 162.9 142.5C164.7 142.8 166.9 141.8 168.3 140.2C168.3 140.1 168.2 140 168.2 139.9C165.3 128.5 170.9 114.5 172.5 110.5C174.1 106.5 180.1 95.6 182.2 92.2C181.1 91.6 178.1 90.2 176.4 89.3C174.8 88.5 173.9 88.1 173.5 88.7C173 89.3 172.5 89.6 171.7 90.7C170.1 93 171.5 92.6 171.9 92.6C172.3 92.6 174.3 95.1 174.6 95.7C174.9 96.3 174.6 96.7 173.8 98.5C172.8 100.9 172.1 106.2 171.2 109.5C168.5 119.3 164.3 118.3 162.4 117.1C160.5 115.9 159.9 117.8 158 120.5C157.5 121.2 156.4 122.3 154.9 123.9C156.7 124.7 159.2 127.1 156.3 129.3C152.8 132 152.1 133.5 153.8 133.1C155.5 132.8 157.2 130.2 159.1 132C161 133.8 158.4 135.8 157.4 136.4C156.4 137 154.3 138 154.9 140.1C155.5 142.2 155.8 145.2 153 145.9C150.2 146.6 149 145.3 148.3 143.9C147.5 142.4 146.7 143.4 146.4 145.3C146.1 147.1 145.8 148.5 145.8 149.1C145.8 149.7 143.8 148.8 142.9 147.9C142 147 140.9 149.5 139.8 148.2C138.8 147 141 143.1 141.8 141.8C142.6 140.6 142.3 138.7 137.7 140.8C136.2 143.2 135.1 146.7 133.3 152.2C130.8 159.7 125.3 170 122.9 173.7C116.9 183.4 115.8 192.6 116.7 198.4C117.6 204.1 118.4 203.7 119.6 203.7C120.8 203.7 123.9 207.5 125.9 209.9C127.9 212.3 128.7 211.3 129.7 210.5C133 208 139.4 203.7 148.7 199.4C152.7 197.6 157.9 195.6 162.9 194C163 191.9 163.5 189.4 163.7 188.3C163.9 187.2 162.8 186.8 161.7 188.3C160.6 189.8 157.5 193.4 155.5 192.5C153.5 191.6 151.8 189.3 152.9 187.4C154 185.5 152.4 184.9 151.7 183.9C150.9 182.9 150.9 178.9 153.4 178.6C155.9 178.3 156.7 180.4 158.4 181C160.1 181.6 161.5 181.5 159.3 179.1C157.2 176.7 154.6 177.6 155.9 174.4C157.3 171.1 159.2 171.3 161.4 172C163.7 172.7 164.8 171.4 166.3 170.4C167.8 169.4 170.7 168 172.7 170.4C174.7 172.8 171.2 174.9 170.4 175.7C168.9 177.2 168.6 180.1 170.3 178.4C172 176.7 174.8 170.6 176.9 175.7C178 178.6 175.9 179.8 176.2 181.6C176.5 183.4 179.6 185.9 177.1 188.2C174.6 190.5 171.1 188.5 169.8 187.2C168.3 185.8 166.7 185.2 167.4 187.7C167.9 189.5 168.2 191.4 168.2 192.6C173.1 191.2 177.4 190.5 179.5 190.6C182.7 190.9 185.2 191.8 185 188.9C185 185.7 183.4 183.7 180.5 178.9ZM140.7 198.9C138 199.7 137.5 198.4 135.7 197.8C133.9 197.1 133.8 198.7 135 200.6C136.2 202.5 137.6 204.3 136.1 204.3C134.6 204.3 133.5 204.5 133.3 205.7C133.1 206.8 130.7 205.5 130.1 203.1C129.5 200.7 129 196.3 127.7 198.5C126.5 200.8 125.3 204.5 122.2 202.8C119 201.1 121.2 198.8 119.6 197.3C118 195.7 116.5 193.7 118.1 190.9C119.7 188.1 121 190.4 122.5 190.4C124 190.4 124.2 189 122.8 188C121.4 187 119.7 182.1 126 182.5C128.4 182.6 131 181.8 132.9 180.4C134.9 178.9 140.1 179.7 138.1 183.5C136 187.2 136.6 188 137.9 186.7C139.1 185.3 140.7 182.9 143.1 183.5C145.5 184.2 144.5 186 143 188C141.5 190 142.4 191.4 143.6 192.2C144.9 192.9 146.9 197.1 140.7 198.9ZM152.2 172.5C150.2 172.6 147.7 172 147.7 172C147.5 174.1 145.4 177.2 143.3 180.3C143.1 180.6 141.8 180.6 141.3 180.2C140.7 179.7 139.2 179 140.4 177.6C141.6 176.2 143.7 173.4 143.3 172.2C142.9 171 142.1 169.8 140.7 171.5C139.3 173.2 137.2 176.7 134.8 176.8C132.4 176.9 130.1 174.8 131.2 172.6C132.3 170.4 132.7 169.3 131.1 167.4C129.5 165.5 130.1 163.1 133.5 161.5C134.5 161 136.3 161.5 137.6 162.5C138.8 163.5 139.5 162.5 137.8 161.5C136.1 160.5 134.7 159.2 134.5 157C134.3 154.9 135.6 152.6 138.6 153.8C141.5 155 143.3 154 144.6 153C145.8 152 151 150.7 150.4 155.4C149.8 158.8 148.3 158.9 147.8 160.7C147.3 162.5 148.7 161.4 149.5 160C150.3 158.6 152.1 153.1 155.8 157.3C156.7 158.3 156.4 160 155.2 161.9C154.1 163.8 155 165 155.7 166C156.2 167.3 157.8 172.1 152.2 172.5Z" fill="#BB9753"/>
<path d="M114.1 268.4C113.6 268.4 112.5 268.2 112.5 267.7L111.3 267.6C112.1 267.7 112.8 268.6 112 269.2C111.1 269.9 108.3 270.2 105.2 270C102.1 269.9 101.5 268.2 101.4 266.9C101.4 266.1 101.4 265.4 101.4 264.3C101.4 263.2 101.2 262.2 101.9 261.7C102.6 261.2 102.4 262.4 102.8 262.4C104.7 262.4 111.3 263.1 112.9 263.3C114.5 263.5 114.4 262.6 114 261.5C113.9 261.2 113.4 261.3 113.3 261.7C113.1 262.2 111.7 262 111.7 262C111.7 262 108.8 261.7 106.8 261.5C104.9 261.4 103.4 261.2 102.3 260.9C101.2 260.7 99.7002 260.7 99.8002 261.2C99.9002 261.8 100.3 268.9 100.3 269.9C100.3 270.9 100.4 271.4 100.9 271.4C102.1 271.4 110.9 271.5 112.9 271.5C114.9 271.5 114.8 271.3 114.8 270.1C114.8 269.3 114.6 268.4 114.1 268.4Z" fill="#BB9753"/>
</svg>
