<svg width="300" height="300" viewBox="0 0 300 300" fill="none" xmlns="http://www.w3.org/2000/svg">
<path d="M300 150C300 232.8 232.8 300 150 300C67.2 300 0 232.8 0 150C0 67.2 67.2 0 150 0C232.8 0 300 67.2 300 150Z" fill="white"/>
<path d="M41.6998 140L12.7998 144.5C15.6998 71.2 75.9998 12.7 150 12.6V13.3V57.9V71.2V78.5V86L150.7 86.2L152.7 78.5H188.6L188.9 79.4C188.5 82 188.7 89.9 201.9 95.5L202.2 96.5L149.9 95.2L97.5998 96.5L97.8998 95.5C111.1 89.9 111.3 82 110.9 79.4L111.2 78.5H147.1L145.2 71.4L119.1 72.3L119.3 71.6C127.1 67.2 127.4 61 127.2 58.8L127.5 57.9H142L137.8 41.8C86.6998 47.5 46.2998 88.6 41.6998 140ZM242.8 93L238.6 105.7L239.5 107.6H277.5L279.1 102.8C260.5 51.9 212.5 15 155.7 12.8L160.2 41.6C195.1 44.8 225.3 64.6 242.8 93ZM239.5 192.4L238.6 194.3L242.8 207C225.3 235.4 195.2 255.1 160.3 258.3L155.8 287.1C212.6 284.8 260.5 248 279.1 197.1L277.5 192.3H239.5V192.4ZM204.8 103.9L204.4 102.8H150H95.5998L95.1998 103.9C95.0998 107.2 93.5998 117.5 79.3998 131.6L78.9998 132.8C86.9998 129.4 94.0998 126.5 100.8 124C109.1 121 116.8 118.5 124.3 116.5C128.4 115.4 132.5 114.4 136.5 113.6C140.7 112.7 144.9 112 149 111.4L149.9 111.3L150.8 111.4C154.3 111.9 157.9 112.4 161.5 113.2C164.9 113.9 168.4 114.7 172 115.6C178.5 117.3 185.2 119.3 192.4 121.9C202.2 125.4 211.8 129.3 221.1 133.3L220.6 131.7C206.4 117.5 204.9 107.2 204.8 103.9ZM180.5 71.6C172.7 67.2 172.5 61 172.6 58.8L172.3 57.9H158L154.5 71.4L180.6 72.3L180.5 71.6ZM174.4 214.3C174.5 214.4 174.6 214.6 174.8 214.8C175.1 215.2 175.5 215.5 176 215.9C176.5 216.2 177.1 216.6 177.9 216.9C179.2 217.5 180.8 218 182.8 218.5C186.5 219.4 190.8 219.9 194.5 220.3C195.5 220.4 196.6 220.5 197.6 220.6C199.3 215.7 201.4 210.9 203.8 206.1C199.4 208.1 194.7 209.8 189.7 211.2C183.5 212.9 178 213.8 174.4 214.3ZM117.4 218.5C119.4 218 121.1 217.5 122.3 216.9C123 216.6 123.7 216.2 124.2 215.9C124.7 215.5 125.2 215.2 125.4 214.8C125.5 214.6 125.7 214.5 125.8 214.3C122.1 213.8 116.7 212.9 110.5 211.1C105.5 209.7 100.8 208 96.3998 206C98.7998 210.8 100.9 215.6 102.6 220.5C103.7 220.4 104.7 220.3 105.7 220.2C109.4 219.9 113.6 219.4 117.4 218.5ZM287.3 150V150.1V155.5L258.5 160L228.4 164.8C222 175.3 215 185.7 209.1 196.2C208.4 196.6 207.7 197.1 206.9 197.5C197.3 202.9 186.6 206.2 175 207.2C176.1 204.7 177.6 202.2 179.2 199.8C180.1 198.5 181 197.1 182.3 195.4C183.3 194 184.4 192.6 185.6 191.1C188.6 187.2 191.8 183.3 194.9 179.4C196.4 177.5 198 175.6 199.5 173.7L203 169.3C203.1 169.1 203.3 168.9 203.4 168.7C204.4 167.4 205.4 166.1 206.3 164.8C207.4 163.4 208.5 161.8 209.5 160.2C209.8 159.7 210.1 159.2 210.4 158.7C210.6 158.4 210.8 158.1 211 157.8L205.2 156.2C205.2 156.2 205.2 156.3 205.1 156.3C204.8 156.8 204.5 157.2 204.2 157.7C203.3 159 202.3 160.4 201.1 162.1C199.4 164.4 197.1 167.3 194.6 170.1C194.5 170.3 194.3 170.4 194.2 170.6C191.1 174.2 187.8 177.7 184.6 181.1C182.7 183.1 180.8 185.1 179 187.1C176.7 189.6 174 192.6 171.6 195.8C170.4 197.3 169.3 199 168.3 200.6C167.4 202 166.4 203.8 165.5 205.9C164.9 207.4 164.2 209.7 164.2 212.3C164.2 214.8 165.3 217.5 167.1 219.4C168.1 220.5 169.2 221.4 170.2 222C171.4 222.7 172.6 223.3 173.7 223.8C175.8 224.6 178 225.3 180.7 225.8C183 226.3 185.4 226.5 187.5 226.6C189.8 226.8 192.2 226.8 194.2 226.8C194.3 226.8 194.4 226.8 194.5 226.8C194.9 226.8 195.4 226.8 195.8 226.8C195.5 228.1 195.1 229.4 194.9 230.8C194.9 230.8 194.9 230.8 194.8 230.8L174.7 238L162.2 242.6L153.5 153L152.7 144.8L151.1 128.4L150.2 128.7V144.8V149.5V151.6V249.8V286.3V287C74.3998 287 12.8998 225.6 12.8998 149.8V149.7H42.9998H93.5998H101.6L101.9 148.8L88.7998 145.2L76.3998 141.8L76.7998 140.5C99.3998 130.5 124.1 120.8 150.1 117.2C175.6 120.5 200.2 130.8 223.5 140.8L223.8 141.8L211.4 145.2L198.3 148.8L198.6 149.7H206.6H257.2H287.3V150ZM140 258.4L137.5 242.7L125.6 238.3L105.5 231.1H105.4C105.1 229.8 104.8 228.5 104.5 227.1C104.9 227.1 105.4 227.1 105.8 227.1C105.9 227.1 106 227.1 106.1 227.1C108.1 227.1 110.4 227.1 112.8 226.9C115 226.7 117.3 226.5 119.6 226.1C122.3 225.6 124.5 225 126.6 224.1C127.7 223.7 128.9 223.1 130.1 222.3C131.1 221.6 132.3 220.8 133.2 219.7C135 217.8 136 215.1 136.1 212.6C136.1 211.3 136.1 209.3 134.8 206.2C134 204.1 132.9 202.2 132 200.9C131 199.3 129.9 197.7 128.7 196.1C126.2 192.9 123.6 189.9 121.3 187.4C119.4 185.4 117.5 183.3 115.7 181.4C112.5 178 109.2 174.4 106.1 170.9C106 170.8 105.8 170.6 105.7 170.5C103.2 167.6 100.9 164.7 99.1998 162.4C97.9998 160.7 96.9998 159.3 96.0998 158C95.7998 157.5 95.4998 157.1 95.1998 156.6C95.1998 156.6 95.1998 156.5 95.0998 156.5L89.2998 158.1C89.4998 158.4 89.6998 158.7 89.8998 159C90.1998 159.5 90.4998 160 90.7998 160.5C91.8998 162.1 92.9998 163.6 93.9998 165.1C94.8998 166.4 95.8998 167.7 96.8998 169C96.9998 169.2 97.1998 169.4 97.2998 169.5L100.8 173.9C102.3 175.8 103.9 177.8 105.4 179.6C108.5 183.4 111.7 187.4 114.7 191.3C115.9 192.8 117 194.3 118 195.6C119.2 197.3 120.2 198.6 121.1 199.9C122.7 202.3 124.2 204.8 125.3 207.3C113.7 206.3 102.9 203 93.3998 197.6C92.6998 197.2 91.8998 196.7 91.1998 196.3C85.1998 185.8 78.2998 175.4 71.8998 164.9L41.7998 160.1C46.3998 212.2 87.8998 253.6 140 258.4Z" fill="#12173F"/>
</svg>
