<svg width="304" height="286" viewBox="0 0 304 286" fill="none" xmlns="http://www.w3.org/2000/svg">
<path d="M281 65.6369C284.7 58.6369 286.4 51.7369 286.4 45.0369C286.4 29.9369 277.9 16.2369 266 8.13688C249.4 -3.06312 224.6 -4.76312 207.1 16.3369C181.5 12.8369 160 19.8369 151.8 23.3369C143.6 20.0369 122.1 12.9369 96.5 16.3369C78.9 -4.66312 54 -3.06312 37.5 8.13688C25.6 16.2369 17.1 29.8369 17.1 45.0369C17.1 51.7369 18.8 58.6369 22.5 65.6369C9.3 84.7369 0 107.437 0 130.537C0 158.337 11.9 172.737 16.4 178.937C16.4 178.937 18.3 177.037 20 175.337C32.6 207.337 54.2 224.637 80.2 240.337C80.2 240.337 80.8 237.237 81.2 234.337C109.2 258.637 122.5 252.637 151.7 285.537C180.7 252.637 194.5 258.437 222.2 234.337C222.7 237.237 223.2 240.337 223.2 240.337C234.8 233.337 267.5 215.737 283.4 175.337C285 176.937 287 178.937 287 178.937C289.8 175.137 303.4 159.937 303.4 130.537C303.5 107.537 294.4 84.7369 281 65.6369Z" fill="#707271"/>
<path d="M273 66.0369C299.8 25.0369 239.1 -17.6631 209.8 23.6369C180.2 18.4369 155.1 29.1369 151.8 30.7369C148.5 29.2369 123.4 18.3369 93.7999 23.6369C64.4999 -17.6631 3.79991 25.0369 30.5999 66.0369C0.0999126 107.837 3.09991 149.137 17.2999 168.537L23.0999 162.737C23.0999 162.737 31.3999 203.037 75.2999 229.537L76.8999 220.837C103.9 249.737 128.6 249.037 151.8 275.437C175 249.037 199.7 249.737 226.7 220.837L228.3 229.537C272.2 203.037 280.5 162.737 280.5 162.737L286.3 168.537C300.5 149.037 303.5 107.837 273 66.0369Z" fill="#12173F"/>
<path d="M152.1 219.437C152.1 219.437 131.1 219.737 127.9 221.737C127.9 221.737 124.3 228.037 152.1 227.937C178.6 227.837 174.7 222.937 174.9 222.337C174.7 222.137 165.9 219.437 152.1 219.437Z" fill="#5D76A9"/>
<path d="M133.8 194.937C133.8 194.937 137 185.437 140.6 188.437C145.5 192.637 151.8 201.137 151.8 201.937V213.237L144.1 213.637C139.7 213.737 125.4 217.137 125.4 217.137C105.8 168.637 116.6 132.037 121.9 118.837C102.5 123.037 99.2998 99.8369 99.2998 99.8369C101.3 99.4369 104.3 100.337 107.7 101.937C112.8 104.437 119 108.637 123.9 112.437C125.3 113.537 126.7 114.637 127.8 115.537C141 126.637 151.7 124.437 151.7 124.437V171.837C151.8 171.837 113.3 168.937 133.8 194.937Z" fill="#5D76A9"/>
<path d="M169.9 194.937C194.4 170.037 154.4 171.537 151.9 171.937C156 172.137 187 172.337 169.9 194.937Z" fill="#5D76A9"/>
<path d="M186.2 119.737C208.3 179.137 180.3 217.337 180.1 217.537C197.4 172.137 186.3 134.337 178.7 120.237C174.8 120.637 170.1 120.437 170.1 120.437C170.1 120.437 176 116.837 179.7 113.437C180 113.137 180.3 112.937 180.6 112.637C183.7 109.837 189.7 104.937 197.1 102.037C199.8 101.037 202.6 100.237 205.6 99.9369C205.6 99.8369 203.5 119.537 186.2 119.737Z" fill="#5D76A9"/>
<path d="M221.1 42.8369C221.1 42.8369 230.1 20.3369 257.7 25.8369C257.7 25.8369 232.4 9.13689 214.8 39.2369C214.8 39.2369 189.6 27.4369 151.9 43.7369C151.9 43.7369 116.5 31.2369 89.6001 38.3369C89.6001 38.3369 73.9001 11.1369 51.8001 22.3369C29.7001 33.5369 41.1001 59.4369 44.9001 66.1369C44.9001 66.1369 8.20008 103.437 22.0001 149.537L29.3001 140.337C29.3001 140.337 39.8001 190.637 67.0001 206.437L68.6001 194.037C68.6001 194.037 97.0001 228.237 130.3 242.837C133.4 244.337 151.2 253.137 151.6 257.437V233.537C151.6 233.537 128.5 235.437 122.4 224.737C118.2 217.537 91.6001 170.037 104.8 120.337C104.8 120.337 92.0001 118.437 89.6001 96.8369C89.6001 96.8369 80.1001 92.1369 68.2001 93.1369C68.2001 93.1369 89.4001 86.4369 109.2 94.1369C129.1 101.837 134.3 121.337 147.9 112.737L151.6 57.6369L155.8 112.937C169.2 121.637 174.6 101.937 194.5 94.3369C214.4 86.6369 235.5 93.3369 235.5 93.3369C235.5 93.3369 227 87.3369 213.4 84.6369C202.1 82.3369 185.3 89.6369 185.3 89.6369C185.3 89.6369 187.6 74.0369 195.2 65.6369C201.8 58.4369 216.6 56.8369 221.1 42.8369ZM49.7001 61.9369C48.9001 54.4369 58.4001 46.9369 58.4001 46.9369C54.5001 42.9369 47.6001 46.3369 47.6001 46.3369C53.8001 34.2369 67.7001 40.1369 67.7001 40.1369C62.5001 33.6369 51.3001 34.1369 51.3001 34.1369C65.1001 20.4369 81.8001 41.4369 81.8001 41.4369C66.9001 44.7369 49.7001 61.9369 49.7001 61.9369Z" fill="#5D76A9"/>
<path d="M124 112.437C121.9 111.737 118.4 113.937 116.4 117.737C109.8 115.837 107.5 108.737 107.8 101.937C112.9 104.437 119 108.637 124 112.437Z" fill="#FFBB22"/>
<path d="M188.7 117.837C186.6 113.837 182.9 111.537 180.8 112.637C183.9 109.837 189.9 104.937 197.3 102.037C197.5 108.737 195.1 115.837 188.7 117.837Z" fill="#FFBB22"/>
</svg>
