<svg width="310" height="325" viewBox="0 0 310 325" fill="none" xmlns="http://www.w3.org/2000/svg">
<path d="M301.88 105.223C290.08 92.2231 263.98 81.6231 230.38 75.2231C230.58 71.3231 232.88 69.7231 237.08 66.8231C239.18 65.3231 241.68 63.5231 244.28 61.2231C255.18 50.9231 242.38 35.2231 241.88 34.4231L234.88 25.8231L236.58 36.7231C237.68 44.1231 234.98 46.8231 226.78 52.5231C225.78 53.2231 224.78 54.0231 224.08 54.8231C224.48 49.8231 224.68 44.2231 222.98 37.2231C221.28 30.2231 217.88 27.3231 217.88 27.3231L216.98 37.4231C216.98 37.5231 216.28 45.3231 205.78 54.8231C206.68 53.8231 207.58 52.8231 208.28 51.6231C213.38 44.2231 211.88 35.6231 210.28 25.8231L209.88 23.8231C208.08 13.6231 210.88 7.22314 212.68 6.02314C214.48 3.92314 217.78 0.423141 217.78 0.423141C217.78 0.423141 215.98 -0.37686 210.88 0.22314C204.38 1.12314 193.28 5.02314 193.58 14.0231C193.68 17.9231 194.98 21.7231 196.08 25.0231C197.28 28.5231 198.38 31.9231 197.38 33.6231C196.58 35.0231 194.08 36.0231 190.28 36.8231C174.88 39.6231 163.08 46.8231 156.98 57.2231C154.98 60.6231 153.68 64.3231 152.98 68.1231C114.68 68.2231 78.3797 73.0231 50.2797 81.7231C18.7797 91.5231 1.37974 104.823 0.0797375 120.123C-0.620263 128.223 2.97974 139.823 23.2797 151.123L23.1797 151.323L28.9797 154.123L32.0797 155.623C41.3797 159.823 52.3797 163.423 64.4797 166.323C60.0797 168.723 56.0797 171.623 52.5797 174.823C32.9797 190.923 21.6797 214.823 21.6797 240.223C21.6797 262.823 30.4797 284.123 46.4797 300.123C62.4797 316.123 83.7797 324.923 106.38 324.923C146.48 324.923 181.28 296.523 189.28 257.423C196.18 236.923 195.28 215.023 195.08 206.723C194.38 187.923 203.68 177.523 209.48 172.823C236.28 169.523 259.88 163.623 277.58 155.723L280.48 154.323L286.58 151.423L286.38 151.223C300.58 143.323 308.48 134.023 309.38 124.123C309.78 117.723 307.28 111.323 301.88 105.223ZM274.28 121.723C276.68 124.423 276.48 126.123 276.48 126.623C276.18 129.723 272.38 133.323 265.98 136.723C252.48 143.823 229.38 149.223 201.78 151.923C202.98 151.223 204.28 150.423 205.78 149.923L206.28 149.723C214.18 146.423 223.18 142.823 223.58 129.723C223.68 127.723 223.78 121.223 224.88 118.923C226.38 115.923 230.18 111.523 233.48 110.323C233.58 110.323 227.88 109.223 227.88 109.223C227.58 109.223 227.28 109.223 227.08 109.123C228.98 107.723 230.38 106.123 231.28 104.423C253.68 109.123 268.78 115.523 274.28 121.723ZM32.4797 124.923C33.3797 114.123 72.3797 99.8231 135.28 97.6231C129.38 102.023 122.58 109.623 120.78 122.023L120.08 126.623C119.68 129.523 119.18 132.423 118.08 135.323C115.68 141.623 108.78 146.923 101.58 150.923C76.1797 147.723 55.0797 142.323 42.6797 135.723C35.9797 132.023 32.1797 128.123 32.4797 124.923Z" fill="black"/>
<path d="M24.6797 246.423C26.8797 257.623 33.2797 270.923 45.9797 279.823C49.7797 282.523 53.9797 284.623 58.4797 286.323C55.7797 281.723 52.4797 276.923 49.2797 272.223C43.2797 263.323 36.8797 254.023 32.9797 244.123C28.8797 233.823 27.7797 223.123 29.5797 212.323C26.2797 221.023 24.5797 230.523 24.5797 240.523C24.3797 242.423 24.4797 244.323 24.6797 246.423Z" fill="#961A31"/>
<path d="M38.3796 241.823C42.0796 251.223 48.2796 260.123 54.0796 268.923C58.6796 275.623 63.0796 282.223 66.4796 288.823C70.1796 289.623 74.0796 290.223 77.9796 290.523C73.8796 284.723 70.3796 278.123 67.3796 270.623C55.6796 241.423 57.3796 205.223 71.9796 184.323C79.4796 173.523 88.4796 166.223 100.18 159.823C110.08 154.323 116.38 152.723 122.78 148.923C129.68 144.823 133.38 137.923 128.78 122.523C127.48 117.923 127.18 114.423 127.48 111.623C125.88 114.723 124.68 118.223 124.18 122.323C123.48 126.723 123.18 131.523 121.28 136.323C115.18 152.323 85.6796 161.123 81.7796 162.323C70.5796 165.623 61.5796 170.923 54.5796 177.123C34.0796 195.223 30.4796 222.223 38.3796 241.823Z" fill="#961A31"/>
<path d="M161.58 97.4232C161.88 98.4232 162.18 99.4232 162.28 100.323C162.98 105.923 161.38 110.423 154.48 111.523C147.38 112.623 144.98 106.523 144.48 101.523C144.38 99.7232 144.58 98.3232 144.68 97.4232C143.48 97.4232 142.38 97.4232 141.18 97.5232C138.98 98.8232 135.98 100.823 133.18 103.623C131.78 106.723 130.08 110.823 132.68 120.623C137.28 137.923 135.28 148.323 121.48 154.323C103.78 161.923 92.4795 166.423 77.2795 185.423C69.9795 194.523 66.0795 209.523 65.4795 224.623C64.7795 239.323 67.8795 255.023 72.9795 267.823C76.3795 276.423 80.4795 283.923 85.2795 290.223C89.9795 290.023 94.8795 289.423 99.5795 288.323C94.2795 282.223 91.2795 274.623 90.7795 266.223C88.9795 238.123 104.08 226.423 127.28 207.723L137.68 199.023C179.18 163.823 167.08 128.023 171.58 97.4232C168.38 97.6232 164.98 97.5232 161.58 97.4232Z" fill="#961A31"/>
<path d="M178.18 98.0231C176.88 104.123 176.28 110.523 175.98 117.123C174.28 143.823 175.18 173.923 141.38 203.823L131.18 212.123C108.58 230.223 95.6798 241.523 96.5798 266.123C96.8798 274.223 100.28 281.323 106.08 286.923C112.38 285.023 118.68 282.323 124.68 278.923C154.08 262.323 172.48 237.323 179.58 205.523C184.08 185.323 183.98 168.923 183.88 155.723C183.88 149.023 184.68 135.923 184.68 135.923C185.58 127.623 186.88 116.123 196.48 100.823C196.78 100.323 197.18 99.8231 197.38 99.3231C191.28 98.8231 184.88 98.3231 178.18 98.0231Z" fill="#961A31"/>
<path d="M188.08 183.723C187.18 188.523 186.88 193.923 186.28 199.223C185.98 201.223 185.68 203.223 185.48 205.223C185.38 205.823 185.28 206.323 185.08 206.823C177.68 240.523 158.48 266.623 127.68 284.123C122.38 287.123 116.98 289.623 111.58 291.523C120.58 297.523 131.18 299.323 138.48 298.323C166.18 294.123 179.68 276.123 186.18 256.723C192.88 236.923 192.18 215.723 191.88 207.023C190.78 177.723 213.38 166.923 213.38 166.923C195.78 165.923 189.98 173.623 188.08 183.723Z" fill="#961A31"/>
<path d="M169.579 291.623C158.279 301.123 146.079 303.123 140.479 304.023C129.579 305.723 116.679 303.123 105.279 294.123C105.079 293.923 104.879 293.823 104.679 293.623C99.7795 294.923 94.8795 295.723 89.9795 296.223C101.179 308.223 115.779 315.023 135.679 316.423C135.779 316.423 135.879 316.423 135.979 316.423C149.379 311.123 161.079 302.523 169.979 291.323C169.779 291.523 169.779 291.523 169.579 291.623Z" fill="#961A31"/>
<path d="M66.5797 311.723C66.7797 305.623 65.0797 299.423 62.1797 293.423C55.3797 291.423 48.7797 288.623 42.3797 284.723C38.7797 282.523 35.4797 279.223 32.6797 276.123C40.0797 291.223 51.9797 303.623 66.5797 311.723Z" fill="#961A31"/>
<path d="M122.98 320.223C111.88 317.723 102.48 313.723 94.2799 307.523C89.9799 304.223 86.1799 300.623 82.6799 296.523C78.1799 296.423 73.7799 296.023 69.3799 295.223C71.7799 301.523 73.0799 307.923 72.2799 314.623C82.5799 319.323 94.0799 321.923 106.18 321.923C112.08 321.923 117.68 321.223 123.18 320.123C123.08 320.223 123.08 320.223 122.98 320.223Z" fill="#961A31"/>
<path d="M217.88 119.523C215.98 125.823 209.68 125.123 207.98 121.623C205.08 116.223 206.18 112.023 209.18 109.123C212.18 106.223 217.08 104.723 221.78 102.623H221.88C216.38 101.723 210.58 100.823 204.28 100.123C204.18 100.223 204.08 100.323 203.98 100.423C203.38 101.123 202.88 101.623 202.28 102.323C192.38 117.123 191.18 128.123 190.18 136.523L189.88 139.123C189.28 143.623 189.28 149.123 189.38 155.623C189.38 156.523 189.38 157.423 189.38 158.323C189.28 160.523 189.18 162.823 189.08 165.023C189.18 165.023 189.18 165.023 189.18 165.023C189.28 164.123 189.28 163.823 189.28 164.323C192.08 155.523 197.18 150.023 204.48 147.123C212.28 143.923 219.98 141.123 220.38 129.723C220.58 125.023 220.88 120.223 221.98 117.823C223.98 113.423 227.48 112.223 227.48 112.223C223.88 111.923 219.78 113.523 217.88 119.523Z" fill="#961A31"/>
<path d="M227.38 74.6232C227.98 67.0232 235.08 65.6232 242.08 59.0232C250.98 50.5232 239.38 36.4232 239.38 36.4232C240.88 45.9232 236.38 49.5232 228.38 55.2232C225.88 57.0232 223.98 59.5232 223.78 62.6232C223.48 66.1232 223.18 69.9232 222.48 73.8232C224.08 74.1232 225.68 74.4232 227.38 74.6232Z" fill="#F9A11E"/>
<path d="M202.779 61.4232C200.679 63.0232 198.579 64.7232 196.779 66.3232C195.479 67.6232 194.179 68.8232 192.979 70.1232C200.779 70.8232 208.379 71.7232 215.779 72.7232C220.379 64.1232 222.78 54.5232 219.98 37.9232C219.88 38.0232 219.179 49.2232 202.779 61.4232Z" fill="#F9A11E"/>
<path d="M158.979 68.5231C167.879 68.6231 176.779 69.0231 185.279 69.5231C185.579 69.2231 185.879 68.9231 186.079 68.7231C191.879 62.6231 200.779 57.3231 205.479 50.4231C210.179 43.4231 208.379 35.0231 206.579 24.7231C203.479 7.02314 211.079 3.72314 211.079 3.72314C211.079 3.72314 196.08 5.72315 196.38 14.4231C196.78 26.0231 208.779 36.9231 190.779 40.2231C170.979 43.8231 158.679 54.5231 155.979 68.5231C156.979 68.5231 157.879 68.5231 158.979 68.5231Z" fill="#F9A11E"/>
<path d="M158.88 73.2231C76.0795 72.4231 6.97952 93.7231 4.57952 121.023C3.67952 131.923 13.3795 141.923 30.6795 150.323C41.3795 155.423 55.0795 159.923 70.7795 163.323C73.9795 161.923 77.1795 160.623 80.6795 159.623C83.3795 158.823 88.4795 157.123 94.0795 154.723C70.8795 151.423 52.1795 146.123 40.4795 139.823C31.8795 135.223 27.3795 130.023 27.8795 124.623C29.4795 106.423 87.4795 92.1231 157.38 92.8231C227.28 93.5231 282.679 108.923 281.079 127.123C280.579 132.023 276.079 136.823 268.079 140.923C253.479 148.623 227.68 154.523 196.28 157.323C195.18 158.823 194.28 160.523 193.48 162.323C207.68 156.923 224.18 164.923 224.18 164.923C224.18 164.923 225.279 165.423 226.079 165.823C246.879 162.123 264.78 156.823 278.18 150.523C293.98 143.023 303.68 133.923 304.48 124.023C306.98 96.7231 241.68 74.0231 158.88 73.2231Z" fill="white"/>
</svg>
