<svg width="508" height="412" viewBox="0 0 508 412" fill="none" xmlns="http://www.w3.org/2000/svg">
<path d="M253.2 411.7L219.5 368C176.7 353.9 146.9 315.2 144.1 270.1L123.2 243C103.3 251.6 83.5 265.1 83.5 265.1L20.9 202.2L47.3 144.3L0 83.1H75.1L89.6 51.4L126.8 36.4L130.9 25.2L161 39L168.2 14L173.1 12.4C196.9 4.5 224.4 0.2 252.5 0C253.3 0 262.2 0.0999985 262.5 0.0999985C263.5 0.0999985 267.9 0.299999 267.9 0.299999C291.7 1.4 314 5.4 334.3 12.1L339.3 13.7L345.9 37.6L356.8 29.4L417.7 51.1L432.4 83.2H507.9L460.2 144.8L486.2 201.8L422.6 267.3C422.6 267.3 399.3 250.3 383.3 244L364.1 268.7C361.9 314.8 330.5 355.3 286.4 368.8L253.2 411.7Z" fill="white"/>
<path d="M253.2 381.4L470.3 101.6H37.6997L253.2 381.4Z" fill="#9EA2A2"/>
<path d="M19.7998 92.8L253.2 395.8L488.2 92.8H19.7998ZM470.3 101.6L253.3 381.4L37.6998 101.6H470.3Z" fill="#1D428A"/>
<path d="M438.9 121.1L438.8 120.9L438.6 120.8L424.7 111.5L429.9 101.6L430.1 101.3L430 101L410.9 59.1L410.8 58.8L410.5 58.7L359 40.4L358.6 40.3L358.3 40.5L344.6 50.9L344.5 51L344.4 51.2L342.1 56.9C342.1 56.9 320.7 51.5 289.4 48.4C286.2 48.1 277.7 47.4 264 46.3L262.7 46.2L261.3 46.1H261L260.8 46.3L250.6 56.4V46C250.6 46 221.7 47.6 202.8 50.2C183.9 52.8 165.3 57.5 165.3 57.5L161.9 50.2L161.8 50L161.6 49.9L137.3 38.8L136.6 38.5L136.3 39.2L133.4 46.8L132.8 45.3L132.5 44.7L131.9 45L97.1 59L96.8 59.1L96.7 59.4L32.5 200.4L85.2 253.2L87.7 251.8C89.3 250.9 91.5 249.6 94.1 248.1C100.5 244.3 109.2 239.2 113.4 237.2L114.2 236.8C119.6 234.2 122.3 232.9 147.9 221.9L150 221.1C150 221.1 152.9 220 158.2 218.2C172.3 213.5 208.8 202.7 244.2 202.7H244.6C246 202.7 247.4 202.7 248.8 202.8C272.8 203.5 301 208.6 320.3 212.7C338.9 216.7 352.9 220.6 356.9 221.7L359.6 222.5C377.2 229.3 398.8 240.5 418.7 253.3L421.2 254.9L474.5 200L438.9 121.1Z" fill="#1D428A"/>
<path d="M433.2 126L381.9 91.8L373 66.8L388.9 72.4L395.3 88L419.4 95.7L405.4 64.6L359.9 48.4L351.5 54.9L366.6 104.1L415.3 138.5L427.8 169.6L407.5 160.5L400.5 141.1L375.6 133.8L388.9 177.6C393 179.1 397.1 180.7 401.1 182.3C412.2 186.8 423 191.7 433.6 197.2C440.9 201 448.2 204.9 455.3 209.1L465.9 198.2L433.2 126Z" fill="#F58426"/>
<path d="M87.4998 149.2L104.6 133.9L108.7 138.7L91.7998 187.2C101 183.1 110.4 179.4 119.9 176L132.1 136L121.6 118.6L143.4 97.8L156.2 55.3L140.5 48.2L126.4 88.3L103.8 107.8L124.4 55.8L102.3 64.6L41.2998 198.4L50.7998 208C56.4998 204.7 62.1998 201.5 67.9998 198.5L87.4998 149.2Z" fill="#F58426"/>
<path d="M242.1 53.7L223.4 54.7L214.6 155.1C222.5 154.3 230.6 153.8 238.6 153.6L242.1 53.7Z" fill="#F58426"/>
<path d="M297.6 134.3L275.9 133L272.4 71.5L290.8 72.4L288.6 55.5L263.9 53.7L252.8 64.8V141.7L264.4 153.6C276.4 154 288.3 154.9 300 156.3L297.6 134.3Z" fill="#F58426"/>
<path d="M174.5 93.3L182.3 131.5L177.2 160.4C184.8 158.9 192.4 157.7 200.2 156.7L212.4 56L195 58.5L189.3 91.5L182.8 60.5L162.4 65.6L134 171.3C142.2 168.7 150.5 166.4 158.9 164.4L174.5 93.3Z" fill="#F58426"/>
<path d="M325.5 128.7L331.6 120.4L340.5 127.8L348.7 165.2C357.3 167.4 365.8 169.8 374.3 172.5L359 117.6L343.2 104.7L352.2 92.7L344.7 64.8L325.6 60.6L333.1 88.7L321.2 104.6L312.4 58.4L294.7 56.2C294.7 56.2 303.6 123.9 307.7 157.2C315.7 158.3 323.6 159.7 331.5 161.3L325.5 128.7Z" fill="#F58426"/>
<path d="M217.3 174.2C217.3 174.2 224.7 169.9 239.4 168.3L238.9 156.7C230.8 157 222.8 157.5 214.8 158.2C215.6 162.7 216.6 169.4 217.3 174.2Z" fill="#9EA2A2"/>
<path d="M264.1 167.5C270.1 168.2 276.5 170.2 282.1 171.7C287.2 172.9 292.7 175.1 297.2 177.1L299.7 159.2C287.9 157.7 276.7 156.9 264.6 156.5C264.4 160.1 264.4 164.9 264.1 167.5Z" fill="#9EA2A2"/>
<path d="M186.7 195.8C193.6 190.7 197.7 185.5 204.9 181.1C203.5 174.6 201.7 166.2 200.4 159.8C192.5 160.8 184.8 162.1 177.1 163.6C179.9 173.2 183.7 186.1 186.7 195.8Z" fill="#9EA2A2"/>
<path d="M303.2 180.8C309.9 184.7 315.1 189 321.1 194.9L322.3 195.8L331.7 164.6C323.6 162.9 315.7 161.5 307.4 160.3L303.2 180.8Z" fill="#9EA2A2"/>
<path d="M332.899 207.8L355.399 213.1L374.299 175.7C365.599 172.9 357.199 170.5 348.299 168.3L332.899 207.8Z" fill="#9EA2A2"/>
<path d="M152.3 213.1C158.2 210.9 166.3 208 174 205.9L159.4 167.4C150.6 169.5 142.9 171.8 134.3 174.5C139.7 187.4 145.8 200.7 152.3 213.1Z" fill="#9EA2A2"/>
<path d="M118.4 227C119.7 225.9 132.4 220.4 141.2 216.7C134.6 204.7 126.6 191.5 119.9 179.3C110.4 182.7 101.7 186.2 92.4995 190.3L118.4 227Z" fill="#9EA2A2"/>
<path d="M86.5996 243.9C90.6996 241.5 94.9996 239 99.6996 236.2L69.8996 201.1C64.1996 204 58.5996 207.1 53.0996 210.3L86.5996 243.9Z" fill="#9EA2A2"/>
<path d="M367.3 217.8C385.2 224.7 410.2 238.8 420.1 245.4C424.7 241 449.6 214.9 453 211.3C432.3 199.2 410.6 188.8 388 180.5L367.3 217.8Z" fill="#9EA2A2"/>
<path d="M260.699 166.9L252.2 166.6L252 145.9L260.9 155.1L260.699 166.9Z" fill="#9EA2A2"/>
<path d="M254.1 162.8C198.6 162.8 153.6 207.8 153.6 263.3C153.6 318.8 198.6 363.8 254.1 363.8C309.6 363.8 354.6 318.8 354.6 263.3C354.6 207.8 309.6 162.8 254.1 162.8Z" fill="#1D428A"/>
<path d="M260.3 170.3C252.6 173 245.2 176.9 237.8 180.3C232.8 177.3 229.9 176.5 226.5 174.3C237.1 170.6 248.5 170 260.3 170.3Z" fill="#F58426"/>
<path d="M332.3 213C308.6 189.1 273.1 190.9 243 182.4C243 182.4 260.7 174 269.9 171.6C294.5 175.9 318.3 190.6 332.3 213Z" fill="#F58426"/>
<path d="M199.2 216.6C176.5 251.5 173.4 294.5 191.5 332.2C168.1 312.5 154.1 274.5 164.6 237.5C173.2 225.4 184.3 214.8 199.2 216.6Z" fill="#F58426"/>
<path d="M223.5 241.4C235.8 277.9 238.5 318.2 270.2 354.9C245.5 359.9 220.9 352.5 201.4 340.1C177.2 304.8 179.5 252 203.7 217.8C215.5 221.3 221.9 236.7 223.5 241.4Z" fill="#F58426"/>
<path d="M206.5 214C210.2 208.8 214.3 203.9 219 199.3C270.5 213.8 319.6 267.2 328 319.7C325.5 323.7 319.7 329.2 315.7 333.1C302.9 344.6 288.8 350.6 275.3 353.8C251.3 328.9 243.3 296.5 234.9 264.6C228.4 240.1 223.9 221.6 206.6 214.1L206.5 214Z" fill="#F58426"/>
<path d="M326.8 213.8C301.9 191.9 267.3 194.7 238.2 184.4C232.6 187.8 227.1 191.9 222.4 196.1C273.9 212.2 320.6 262.6 331.7 314.6C339.8 302.9 344.6 289.4 346.6 275C347.9 253 347.7 232.9 326.8 213.8Z" fill="#F58426"/>
<path d="M214.8 197.7C209.8 202.5 206.1 207.2 202.2 212.7H202.1C188.5 209.6 177.7 216.7 169.1 225.5C173.2 215.1 181.9 202.8 191 194.7C199.4 195 205.5 194.9 214.8 197.7Z" fill="#F58426"/>
<path d="M218.4 194.5C223.3 190.2 228 186.4 233.8 182.9L220.6 176.4C211.8 180 202.4 184.7 195.9 190.6C206 191.7 210.3 192.3 218.4 194.5Z" fill="#F58426"/>
<path d="M239.9 39.6L235.8 43.6L228.8 44L226.2 41.7L222.9 44.5L215.3 45.2L212 42L216.4 12.3L222.1 11.5L219 37.7L223.1 37.2L226.3 10.9L232 10.4L229.6 36.5L233.6 36.1L235.7 10.1C238.1 9.79998 239.4 9.89998 241.5 9.69998L239.9 39.6Z" fill="#1D428A"/>
<path d="M258.5 9.59999L258.6 28.3H262.3L262.1 9.69999C262.1 9.69999 265.9 9.79999 267.7 9.99999L268.4 31L264.9 34.5L263.7 34.6L263.9 43.6L257.7 43.4L257.6 34.4L256.4 34.3L252.6 30.4L252.8 9.59999C254.7 9.49999 258.5 9.59999 258.5 9.59999Z" fill="#1D428A"/>
<path d="M212.3 13.1L211.3 19.2L204.4 20.5L203.1 27.7C205.6 27.2 207.2 27 210.2 26.6C209.8 29.3 209.7 30.2 209.2 32.7L202.2 33.7L200.9 40.6L208 39.6C208 39.6 207.3 44.2 206.9 46.3C201.9 46.9 196.9 47.6 192.1 48.5C192.1 48.5 197.5 23.6 198.8 15.9L212.3 13.1Z" fill="#1D428A"/>
<path d="M186.1 49.5L178.9 50.9L182.2 37.3L180 32.4L174.3 51.9L167.2 53.5C170.1 42.9 173.2 32.3 176.1 21.8C178.5 21 180.3 20.4 182.5 19.8C183.3 21.6 185.2 25.2 185.2 25.2L186.9 18.6C186.9 18.6 191.4 17.4 193.6 16.9L186.1 49.5Z" fill="#1D428A"/>
<path d="M287.9 15.4C288.6 23.9 290 32.1 290.9 40L287.7 44.8L277.5 44.1L273.8 40.1C273.1 31.4 272.7 22.7 272.2 14C273.1 12.8 274.6 11.8 275.7 10.6L284.2 11.4L287.9 15.4ZM278.3 16.8L280.1 37.1L283.7 37.4L281.8 17.2L278.3 16.8Z" fill="#1D428A"/>
<path d="M320.9 18.4C322.2 23.3 324.7 33.3 324.7 33.3L327.1 33.8L328.3 32.2L325.3 19.7C325.3 19.7 328.3 20.5 331.5 21.5L334.7 33.6L333.2 35.8L336 38.9L340.2 53.6L333.2 52L330.5 41.7L326.1 40.7L328.5 51L321.4 49.6C318.9 38.5 314.4 16.7 314.4 16.7C314.4 16.7 318.1 17.5 320.9 18.4Z" fill="#1D428A"/>
<path d="M309.9 19.6L312.2 31.7L310.8 33.6L313.2 36.4L315.3 48.5L308.5 47.3L306.6 37.3L302.5 36.8L303.9 46.6L297.1 45.7L292.6 12.4L305.6 14.7L309.9 19.6ZM300 20L301.2 28.5L305 28.9L303.4 20.6L300 20Z" fill="#1D428A"/>
</svg>
