<svg width="389" height="221" viewBox="0 0 389 221" fill="none" xmlns="http://www.w3.org/2000/svg">
<path d="M146.1 101.8C174.9 97.4 203.7 98.7 228.9 109.3L231.9 102.5C191.2 89.4 139.9 90.1 101.7 111L112.6 85.7C64.7 98.7 32.4 125.7 0 153.6C23.7 97.7 75.1 51.8 133.2 35.1L130.3 44.4C181.3 27.8 237.2 24.6 282.4 32.1L271.8 18.4L297.8 25L314.5 0L321.1 30.8L346.7 39.1C346.7 39.1 328.1 46.9 329 47.3C425.7 87.1 394.7 219.5 302.8 220.2C256.3 220.6 220.2 178.5 221.7 134.6C198 119 174.3 111.5 146.1 101.8Z" fill="#C2CCD2"/>
<path d="M319.4 47.3C324.8 45 334.7 40.6 334.7 40.6L335.4 40.3L334.6 40.1C334.6 40.1 318.6 34.8 315.2 33.7C314.7 30.1 312.2 12.7 312.2 12.7L312.1 11.9L306.2 21.4C306.2 21.4 302.9 26.8 301 29.7C297.2 28.7 280.7 24.5 280.7 24.5L279.9 24.2L280.4 24.9C280.4 24.9 287.1 33.6 291.2 38.9C274.6 35.3 255.4 33.2 233.4 33.2C226.2 33.2 218.6 33.4 210.9 33.9C181 35.6 151.5 41.2 123.2 51.4L126.4 41.8L125.8 42C81.6002 55.8 33.2002 97.4 11.7002 138.3L12.2002 138.7C42.4002 110.3 83.4002 87.6 120.1 79.4L110.5 101.8L111.2 101.4C128.3 93.1 150.7 89.5 173.4 89.5C196.6 89.5 219.9 93.3 238 99.9L231.1 115C214.6 107.4 190.9 102.4 171.1 102.4C167.6 102.4 164.2 102.6 161 102.9L160.9 103.5C184.3 110.1 208.4 117.6 227.5 132.9C227.4 134.5 227.3 136.1 227.3 137.8C227.3 178.2 262.2 214.7 303.1 214.7C303.4 214.7 303.6 214.7 303.9 214.7C349 214.2 382.4 172.8 382.4 129.7C382.4 98.1 364.2 65.3 319.4 47.3Z" fill="black"/>
<path d="M294.7 121.3C278 121.3 261.3 115.2 244.7 109.1C240.3 118.4 238 128.2 238 138.1C238 143.4 238.6 148.7 239.9 154.1C241.3 154.1 242.6 154.1 244 154.1C276.3 154.1 310.6 145.1 338.3 128.7C335.1 122.7 331.1 117.2 327.1 111.9C316.3 118.7 305.5 121.3 294.7 121.3Z" fill="#C2CCD2"/>
<path d="M242.9 160.5H241.8C251.9 186.6 275.1 204 303.4 204.4C312.4 182.2 322.5 157.8 345.5 146.4C344.3 142.4 342.9 138.5 341.3 134.7C311.6 151.8 277.1 160.5 242.9 160.5Z" fill="#C2CCD2"/>
<path d="M312.8 78.5C302.8 74.7 296.3 73.4 295.7 73.3C292.9 73.7 289 74.1 286 74.7C303.1 81.5 315.7 89.8 328.4 103.9C334.9 98.7 340.6 92.9 344.6 85.8C333 74.5 311.1 60.6 256.5 56.4C279.5 61.9 300.7 69.2 313 78L312.8 78.5Z" fill="#C2CCD2"/>
<path d="M159.8 70.9C163.1 70.8 166.9 70.8 170.7 70.8C209.4 70.8 269.3 75.3 292.5 102.9L292.1 103.4C284.1 99 268 91.5 258 91.6C257.7 91.6 257.4 91.6 257.1 91.6C253.7 95.4 250.6 99.6 247.9 103.9C263.4 109.7 279.1 115.3 294.7 115.3C304.5 115.3 314.2 113.1 323.8 107.2C296.9 77.9 251.4 65.1 208.5 65.1C191.4 65 174.7 67 159.8 70.9Z" fill="#C2CCD2"/>
<path d="M343.2 125.7C350.7 120.6 357.2 115.3 363 108.4C359.3 101.3 352.9 93.4 348.3 89.4C344.1 97 338.6 103.1 331.9 108.6C335.9 113.8 340.1 119.9 343.2 125.7Z" fill="#C2CCD2"/>
<path d="M310 204C323.6 202.4 336.2 197.7 346.7 188.7C348.3 182.6 349 176.5 349 170.2C349 164.2 348.4 158.3 347.3 152.4C326.7 162.3 318.1 184 310 204Z" fill="#C2CCD2"/>
<path d="M355 174.3C355 176.3 354.9 178.4 354.9 180.5C362.9 169.7 367.1 160.3 369.6 146.5C363.7 147 358 148 352.5 149.8C354.2 157.9 355 166 355 174.3Z" fill="#C2CCD2"/>
<path d="M346 131.4C347.8 135.5 349.4 139.7 350.8 144C357.2 141.9 363.4 140.9 370.1 140.5C370.1 140 370.1 139.6 370.1 139.1C370.1 130.3 368.8 123.4 366 115C359.8 121.2 353.3 126.5 346 131.4Z" fill="#C2CCD2"/>
<path d="M370.1 140.4C363.4 140.8 357.3 141.9 350.8 143.9C349.4 139.7 347.8 135.4 346 131.3C353.3 126.4 359.7 121.1 365.9 114.8C368.7 123.3 370 130.1 370 138.9C370.1 139.5 370.1 139.9 370.1 140.4Z" fill="#C2CCD2"/>
<path d="M370.1 140.4C363.4 140.8 357.3 141.9 350.8 143.9C349.4 139.7 347.8 135.4 346 131.3C353.3 126.4 359.7 121.1 365.9 114.8C368.7 123.3 370 130.1 370 138.9C370.1 139.5 370.1 139.9 370.1 140.4Z" fill="#C2CCD2"/>
<path d="M348.4 89.4C352.9 93.4 359.4 101.3 363.1 108.4C357.2 115.3 350.8 120.6 343.3 125.7C340.2 119.9 336 113.9 332.1 108.6C338.7 103.1 344.1 97 348.4 89.4Z" fill="#C2CCD2"/>
<path d="M348.4 89.4C352.9 93.4 359.4 101.3 363.1 108.4C357.2 115.3 350.8 120.6 343.3 125.7C340.2 119.9 336 113.9 332.1 108.6C338.7 103.1 344.1 97 348.4 89.4Z" fill="#C2CCD2"/>
<path d="M256.5 56.2C311.1 60.4 332.9 74.3 344.6 85.6C340.7 92.8 334.9 98.5 328.4 103.7C315.8 89.5 303.1 81.4 286 74.5C289 73.9 292.9 73.5 295.7 73.1C296.3 73.2 302.7 74.4 312.8 78.3L313.1 77.8C300.8 69.2 279.5 61.8 256.5 56.2Z" fill="#C2CCD2"/>
<path d="M256.5 56.2C311.1 60.4 332.9 74.3 344.6 85.6C340.7 92.8 334.9 98.5 328.4 103.7C315.8 89.5 303.1 81.4 286 74.5C289 73.9 292.9 73.5 295.7 73.1C296.3 73.2 302.7 74.4 312.8 78.3L313.1 77.8C300.8 69.2 279.5 61.8 256.5 56.2Z" fill="#C2CCD2"/>
<path d="M244.1 154.2C242.7 154.2 241.4 154.2 240 154.2C238.7 148.8 238.1 143.5 238.1 138.2C238.1 128.3 240.3 118.5 244.8 109.2C261.6 115.4 278.2 121.4 294.8 121.4C305.6 121.4 316.4 118.8 327.3 112C331.4 117.4 335.4 122.9 338.5 128.8C310.7 145.2 276.4 154.2 244.1 154.2Z" fill="#C2CCD2"/>
<path d="M244.1 154.2C242.7 154.2 241.4 154.2 240 154.2C238.7 148.8 238.1 143.5 238.1 138.2C238.1 128.3 240.3 118.5 244.8 109.2C261.6 115.4 278.2 121.4 294.8 121.4C305.6 121.4 316.4 118.8 327.3 112C331.4 117.4 335.4 122.9 338.5 128.8C310.7 145.2 276.4 154.2 244.1 154.2Z" fill="#C2CCD2"/>
<path d="M303.4 204.2C275.1 203.8 251.9 186.5 241.8 160.3H242.9C277.1 160.3 311.5 151.6 341.1 134.3C342.7 138.1 344.2 142.1 345.3 146C322.5 157.6 312.5 182 303.4 204.2Z" fill="#C2CCD2"/>
<path d="M303.4 204.2C275.1 203.8 251.9 186.5 241.8 160.3H242.9C277.1 160.3 311.5 151.6 341.1 134.3C342.7 138.1 344.2 142.1 345.3 146C322.5 157.6 312.5 182 303.4 204.2Z" fill="#C2CCD2"/>
<path d="M354.8 180.5C354.9 178.5 354.9 176.4 354.9 174.3C354.9 166.1 354.1 157.9 352.3 149.8C357.8 148 363.6 147 369.4 146.5C367.2 160.3 362.8 169.7 354.8 180.5Z" fill="#C2CCD2"/>
<path d="M354.8 180.5C354.9 178.5 354.9 176.4 354.9 174.3C354.9 166.1 354.1 157.9 352.3 149.8C357.8 148 363.6 147 369.4 146.5C367.2 160.3 362.8 169.7 354.8 180.5Z" fill="#C2CCD2"/>
<path d="M323.7 107.1C314.1 113 304.4 115.2 294.6 115.2C279 115.2 263.4 109.5 247.8 103.8C250.5 99.5 253.6 95.2 257 91.5C257.3 91.5 257.6 91.5 257.9 91.5C267.9 91.5 284 98.9 292 103.3L292.4 102.8C269.2 75.3 209.4 70.7 170.6 70.7C166.8 70.7 163.1 70.7 159.7 70.8C174.6 67.1 191.2 65 208.3 65C251.3 65 296.8 77.9 323.7 107.1Z" fill="#C2CCD2"/>
<path d="M323.7 107.1C314.1 113 304.4 115.2 294.6 115.2C279 115.2 263.4 109.5 247.8 103.8C250.5 99.5 253.6 95.2 257 91.5C257.3 91.5 257.6 91.5 257.9 91.5C267.9 91.5 284 98.9 292 103.3L292.4 102.8C269.2 75.3 209.4 70.7 170.6 70.7C166.8 70.7 163.1 70.7 159.7 70.8C174.6 67.1 191.2 65 208.3 65C251.3 65 296.8 77.9 323.7 107.1Z" fill="#C2CCD2"/>
<path d="M346.7 188.8C336.2 197.7 323.7 202.3 310 204.1C318.2 184.1 326.8 162.4 347.3 152.5C348.4 158.4 349 164.3 349 170.3C349 176.5 348.3 182.7 346.7 188.8Z" fill="#C2CCD2"/>
<path d="M346.7 188.8C336.2 197.7 323.7 202.3 310 204.1C318.2 184.1 326.8 162.4 347.3 152.5C348.4 158.4 349 164.3 349 170.3C349 176.5 348.3 182.7 346.7 188.8Z" fill="#C2CCD2"/>
<path d="M292.8 53.2L304.6 49L313.6 59.3L312.6 45.9L324 40.9L311.6 36.8L309.7 23.5L302.9 34.3L290.2 31.1L298.6 41.9L292.8 53.2Z" fill="#C2CCD2"/>
<path d="M229.5 62.8L237.8 58.8L244.6 64.8L243.3 55.7L251.2 51.2L242.1 49.6L240.2 40.7L236 48.7L226.9 47.8L233.2 54.4L229.5 62.8Z" fill="white"/>
<path d="M136.9 81L142.2 78.4L146.8 82.3L145.9 76.3L151.1 73.3L145.2 72.3L143.9 66.4L141.1 71.8L135.1 71.2L139.3 75.5L136.9 81Z" fill="white"/>
<path d="M342 163V161.9L334.3 174.7L336.5 163.4L336 163.1C324.8 176.6 320.5 186.5 317 198.5L316.8 199.1L317.4 198.9C329.9 194.6 336.5 189.5 339.1 187.4H339.2V187.3C341.1 183.3 341.9 175 341.9 165C342 164.3 342 163.6 342 163Z" fill="#0B77BD"/>
<path d="M316.4 133.3C304.2 135.8 289.9 137.2 276.8 137.2C274.9 137.2 272.9 137.2 271 137.1L299.1 128.8L299 128.2C280.5 127.3 266.1 127 248 118.5L247.7 118.4L247.6 118.6C244.9 123.5 243.4 130.2 243.4 137.1C243.4 141 243.9 144.9 244.9 148.5L245 148.7H245.2C245.2 148.7 245.8 148.7 247 148.7C255.1 148.7 288.3 147.8 316.6 133.7L316.4 133.3Z" fill="#0B77BD"/>
<path d="M322.6 156.1C308.4 166.6 297.7 175.1 276.9 179C296.2 169 309.3 162 321.4 149.7L321 149.2C299.4 161.7 271.3 167.2 251.3 167.9H250.8L251.1 168.4C267.5 194.3 288.1 196.6 294.9 196.6C296.3 196.6 297.1 196.5 297.1 196.5H297.2L297.3 196.4C306.1 182.6 311.7 169.2 323 156.6L322.6 156.1Z" fill="#0B77BD"/>
<path d="M359.2 106.7C357.4 108.7 355.6 110.4 353.7 112.2C351.7 107.9 349.4 103.7 346.5 99.7C347.9 98 349.3 96.2 350.6 94.3C354.1 98.1 357.2 102.6 359.2 106.7ZM366.7 134.2C364.5 134.5 362.5 134.8 360.5 135.2C360.1 132 359.4 128.7 358.6 125.6C360.7 123.8 362.8 122 365 119.9C366.1 124.6 366.6 128.9 366.7 134.2ZM359.6 163.5L359.5 162.4C360.4 157.9 360.9 153.4 361.1 149C362.3 148.7 363.5 148.4 364.7 148.2C363.4 153.7 361.8 158.7 359.6 163.5ZM308.1 69.9C307.1 69.4 306 68.9 305 68.4C321.7 73.4 333 79.8 339.3 84.7C338.3 86.1 337.3 87.5 336.2 88.8C328.4 80.8 319 74.2 308.1 69.9Z" fill="white"/>
</svg>
