<svg width="308" height="308" viewBox="0 0 308 308" fill="none" xmlns="http://www.w3.org/2000/svg">
<path d="M160.5 256.2C164.9 256.2 178.3 256.2 189.4 246.6C199.3 237.6 200.3 227.1 200.6 215.2L200.5 181.7C200.5 171.2 200.5 158.4 189.6 149.3C187.3 147.4 184.6 145.8 181.4 144.4C186.5 141 189.9 136.3 191.9 130.4C193.6 125.2 193.5 118.6 193.5 116.1L193.4 86.3C193.1 78 192.2 68.6 185.5 61C179.6 54.5 170.7 51.1 159.5 51.1C159.4 51.1 159.4 51.1 159.3 51.1L118.8 51.2C117.6 51.2 116.5 51.7 115.5 52.6C114.6 53.5 114.2 54.6 114.2 55.8L114.5 251.6C114.5 253.2 115.3 254.7 116.7 255.5C117.4 256 118.3 256.2 119.3 256.2H160.5ZM176.1 169.5C177.3 173.3 177.5 177.4 177.5 181.3L177.6 209.1C177.6 221.8 176.8 227.7 172 231.4C169.1 233.5 165.6 234.7 156.6 235C156.6 235 141.1 235 139.9 235C138.5 235 138 234.2 138 232.8C138 221.4 137.8 158.4 137.8 157.9C137.8 157.3 138 156.5 139.1 156.5C144.6 156.5 150 156.5 155.4 157C160.1 157.5 165.2 158.4 169.3 161C172.5 163.1 174.7 165.9 176.1 169.5ZM138.7 72.1H149.8C164.3 72.1 170.6 74.2 170.6 89.1C170.6 89.1 170.6 113.5 170.6 114.2C170.4 120.2 170.3 130.5 158.4 134C155.1 134.9 153.5 135.2 146.2 135.5H139H138.9C137.8 135.5 137.5 134.9 137.5 134C137.5 133.4 137.4 73.7 137.4 73.7C137.3 72.7 137.7 72.2 138.7 72.1ZM153.7 0C68.9 0 0 69 0 153.7C0 238.4 69 307.4 153.7 307.4C238.4 307.4 307.4 238.4 307.4 153.7C307.4 69 238.5 0 153.7 0ZM292.9 116.2C295.5 126 297.2 136.1 297.7 146.6C293.5 155 285.1 161.9 279 165.3C278.5 161.3 277.8 156.8 276.9 152.7C276 148.5 274.9 144.3 273.8 140.2C278.7 137.1 282.9 133.4 286.2 128.9C289.3 124.7 291.5 120.4 292.9 116.2ZM153.7 9.6C208.9 9.6 256.9 40.8 281.1 86.4C287.1 97.7 286.6 111.5 279.3 122C279 122.4 278.7 122.8 278.5 123.2C276.4 126 273.9 128.5 270.9 130.6C263.1 105.9 252 84.4 237.9 66.5C223.2 47.9 205.2 33.1 184.3 22.4C172.4 16.2 161 12.2 151.1 9.6C152 9.6 152.8 9.6 153.7 9.6ZM60 263.2C30 237.5 10.6 199.6 9.6 157.3C15.8 163.9 25.5 172.6 39 181C54 190.4 75.9 200.4 104.9 205.2V195.5C78.4 190.9 58.4 181.8 44.5 173.2C24.6 160.9 13.5 147.6 10 143C11.7 119.7 19 98 30.5 79.1C36.6 76.8 64.9 68.1 100.6 87.6C102 88.3 103.4 89.1 104.8 89.9V78.9C76.8 63.7 52.9 64.3 38.8 66.9C52.9 48.2 71.5 33.1 92.9 23.1C108.9 15.6 127 13.7 144.2 17.8C154.6 20.2 167 24.3 180 30.9C199.6 40.9 216.6 54.9 230.5 72.4C244.3 89.9 255 111 262.5 135.3C257.9 137.2 252.6 138.6 246.6 139.5C232.9 141.4 217.5 138 201.5 131.9C200.5 135.6 199.9 137.2 197.8 140.7C211.9 146.1 225.8 149.6 238.8 149.6C241.9 149.6 244.9 149.4 247.9 149C254.2 148.1 260 146.7 265.1 144.6C266 147.9 266.8 151.3 267.6 154.8C268.7 159.9 269.6 165 270.1 170C256 177.2 236 184.6 210.3 190.1V199.8C233.6 194.9 254.5 188.2 270.8 180.4C271 188.8 270.4 197.2 269 205.5C262.1 209.6 254.1 215.8 244.7 224C221.9 244.2 199.7 261.9 159.8 274.7C139.7 281.1 119.5 281.9 104.4 281C88 280.1 72.5 273.8 60 263.2ZM258.7 238.4C257.1 242 255.4 245.3 253.7 248.3C245.3 263.5 232.4 275.6 216.8 283.2C197.7 292.6 176.2 297.8 153.6 297.8C138.2 297.8 123.3 295.4 109.4 290.9C111 290.9 112.6 291 114.3 291C128.5 291 145.5 289.4 162.6 283.9C204.3 270.6 228.2 251.4 251 231.2C256.8 226.1 261.7 222.1 265.8 219.1C264 225.6 261.6 232 258.7 238.4ZM267.8 241.7C271.5 233.5 275.1 223.4 277.4 211.8C283.2 208.9 285.8 209.1 286.7 209.4C281.8 221 275.4 231.9 267.8 241.7ZM290.5 199.1C290.2 198.9 289.3 198.8 287.1 198.8C283.5 198.9 279.3 200.5 279.3 200.5C280.3 192.7 280.6 184.3 280.1 175.5C283.2 173.7 286.1 171.8 288.8 169.9C292.4 167.3 295.3 164.8 297.7 162.4C296.8 175.1 294.4 187.4 290.5 199.1Z" fill="black"/>
<path d="M139 135.5H146.2C153.5 135.3 155.1 135 158.4 134C170.4 130.4 170.5 120.2 170.6 114.2C170.6 113.4 170.6 89.1 170.6 89.1C170.6 74.2 164.3 72.1 149.8 72.1H138.7C137.7 72.2 137.3 72.8 137.3 73.8C137.3 73.8 137.4 133.5 137.4 134.1C137.4 135 137.7 135.6 138.8 135.6C138.9 135.5 138.9 135.5 139 135.5Z" fill="white"/>
<path d="M176.1 169.5C174.7 165.8 172.5 163.1 169.3 161.1C165.2 158.5 160.2 157.6 155.4 157.1C150 156.5 144.5 156.6 139.1 156.6C137.9 156.6 137.8 157.4 137.8 158C137.8 158.5 138 221.5 138 232.9C138 234.2 138.5 235.1 139.9 235.1C141.1 235.1 156.6 235.1 156.6 235.1C165.6 234.8 169.2 233.6 172 231.5C176.8 227.8 177.6 221.8 177.6 209.2L177.5 181.4C177.5 177.5 177.4 173.3 176.1 169.5Z" fill="white"/>
<path d="M270.7 180.4C254.4 188.3 233.5 194.9 210.2 199.8V190.1C235.9 184.6 256 177.2 270 170C269.5 164.9 268.6 159.9 267.5 154.8C266.7 151.3 265.9 148 265 144.6C259.9 146.6 254.1 148.1 247.8 149C244.8 149.4 241.8 149.6 238.7 149.6C225.7 149.6 211.8 146.1 197.7 140.7C199.8 137.2 200.3 135.6 201.4 131.9C217.3 138 232.8 141.4 246.5 139.5C252.4 138.7 257.7 137.3 262.4 135.3C254.9 111 244.2 89.9 230.4 72.4C216.6 54.9 199.6 40.9 179.9 30.9C166.9 24.3 154.5 20.2 144.1 17.8C126.9 13.8 108.8 15.6 92.8 23.1C71.4 33.1 52.8 48.3 38.7 66.9C52.8 64.3 76.7 63.7 104.7 78.9V89.9C103.3 89.1 101.9 88.3 100.5 87.6C64.8 68.1 36.5 76.8 30.4 79.1C18.9 98 11.6 119.7 9.9 143C13.4 147.6 24.5 160.8 44.4 173.2C58.3 181.8 78.3 191 104.8 195.5V205.2C75.8 200.4 53.9 190.4 38.9 181C25.4 172.6 15.8 163.9 9.5 157.3C10.5 199.6 29.9 237.5 59.9 263.2C72.3 273.8 87.9 280.1 104.2 281.1C119.2 281.9 139.5 281.2 159.6 274.8C199.5 262 221.7 244.3 244.5 224.1C253.8 215.8 261.9 209.7 268.8 205.6C270.3 197.2 270.9 188.8 270.7 180.4ZM189.4 246.6C178.2 256.1 164.8 256.2 160.5 256.2L119.3 256.3C118.4 256.3 117.5 256 116.7 255.6C115.3 254.8 114.5 253.3 114.5 251.7L114.2 55.8C114.2 54.6 114.6 53.5 115.5 52.6C116.4 51.7 117.6 51.2 118.8 51.2L159.3 51.1C159.4 51.1 159.4 51.1 159.5 51.1C170.7 51.1 179.6 54.5 185.5 61C192.2 68.6 193.1 78 193.4 86.3L193.5 116.1C193.6 118.6 193.6 125.2 191.9 130.4C190 136.3 186.5 141 181.4 144.4C184.7 145.7 187.4 147.4 189.6 149.3C200.5 158.4 200.5 171.2 200.5 181.7L200.6 215.2C200.4 227.1 199.3 237.6 189.4 246.6Z" fill="white"/>
<path d="M251 231.2C228.2 251.3 204.3 270.5 162.6 283.9C145.5 289.4 128.5 291 114.3 291C112.6 291 111 291 109.4 290.9C123.3 295.4 138.2 297.8 153.6 297.8C176.3 297.8 197.7 292.5 216.8 283.2C232.4 275.6 245.3 263.5 253.7 248.3C255.4 245.3 257.1 242 258.7 238.4C261.6 232 263.9 225.6 265.8 219.1C261.7 222.1 256.8 226.1 251 231.2Z" fill="white"/>
<path d="M292.9 116.2C291.5 120.4 289.4 124.8 286.2 128.9C282.8 133.4 278.7 137.1 273.8 140.2C274.9 144.3 275.9 148.4 276.9 152.7C277.8 156.8 278.5 161.3 279 165.3C285.1 161.9 293.4 155 297.7 146.6C297.1 136.1 295.5 125.9 292.9 116.2Z" fill="white"/>
<path d="M277.4 211.8C275 223.5 271.4 233.6 267.8 241.7C275.4 231.8 281.8 221 286.7 209.3C285.8 209.1 283.2 208.9 277.4 211.8Z" fill="white"/>
<path d="M237.9 66.4C252.1 84.4 263.2 105.9 270.9 130.5C273.9 128.4 276.4 125.9 278.5 123.1C278.8 122.7 279.1 122.3 279.3 121.9C286.5 111.4 287 97.6 281.1 86.3C256.9 40.6 208.9 9.5 153.7 9.5C152.8 9.5 152 9.5 151.1 9.5C161 12.2 172.4 16.2 184.3 22.2C205.1 33 223.2 47.8 237.9 66.4Z" fill="white"/>
<path d="M290.5 199.1C294.4 187.4 296.8 175.1 297.6 162.4C295.2 164.8 292.3 167.3 288.7 169.9C286.1 171.8 283.2 173.7 280 175.5C280.5 184.3 280.2 192.7 279.2 200.5C279.2 200.5 283.5 199 287 198.8C289.4 198.7 290.2 198.9 290.5 199.1Z" fill="white"/>
</svg>
