<svg width="301" height="301" viewBox="0 0 301 301" fill="none" xmlns="http://www.w3.org/2000/svg">
<path d="M150.1 0C190.1 0 227.8 15.6 256.2 44C284.6 72.4 300.2 110.1 300.2 150.1C300.2 232.9 232.9 300.2 150.1 300.2C110 300.2 72.2 284.6 43.9 256.2C15.6 227.8 0 190.1 0 150C0 110.1 15.7 72.2 43.9 43.9C72.4 15.6 110.1 0 150.1 0Z" fill="#FFC627"/>
<path d="M150.1 288.3C226.2 288.3 288.2 226.3 288.2 150C288.2 73.9 226.2 11.8 150.1 11.8C73.8999 11.8 11.8999 73.9 11.8999 150C11.9999 226.3 73.9999 288.3 150.1 288.3Z" fill="#8B2332"/>
<path d="M22.2002 150.1C22.2002 79.7 79.6002 22.3 150.1 22.3C220.6 22.2 278 79.6 278 150.1C278 220.6 220.7 278 150.2 278C79.6002 278.1 22.2002 220.7 22.2002 150.1Z" fill="#0D2240"/>
<path d="M250.9 96.6L253.7 95L244.5 80.8L242 82.7C226.4 63 198.6 41 172.2 37.7C192.1 46.8 214.5 70 228.1 87.9L213.7 98.2L215.5 100.8L150.7 142.9L85.8998 100.8L87.6998 98.2L73.2998 87.7C86.9998 69.9 109.4 46.7 129.2 37.5C102.8 40.8 74.9998 62.7 59.4998 82.4L56.7998 80.5L47.5998 94.7L50.3998 96.4L50.2998 96.5C38.8998 118.9 30.4998 153.6 38.6998 178.9C38.4998 157 50.2998 126.9 60.7998 106.8L76.2998 115.6L77.8998 113.2L138.1 151L58.6998 202.6L58.5998 202.4L47.9998 205.2L48.0998 205.5C47.5998 207.4 48.5998 211.2 50.7998 214.7C52.9998 218.3 55.8998 220.6 57.9998 221L58.1998 221.3L65.2998 212.7L65.1998 212.5L223.4 113L225 115.4L240.5 106.6C251 126.7 262.8 156.8 262.7 178.7C270.8 153.7 262.3 119 250.9 96.6Z" fill="#FFC627"/>
<path d="M242.7 202.5L242.6 202.7L169.5 155.2L156.7 162.8L236 212.8L235.9 213L242.9 221.6L243.1 221.3C245.2 220.9 248.1 218.6 250.3 215C252.5 211.5 253.5 207.8 253 205.8L253.1 205.5L242.7 202.5Z" fill="#FFC627"/>
<path d="M163.2 50.4L157.7 57.5L150.1 39.4V123.2L175.6 90.5L201.3 97.1L163.2 50.4Z" fill="#FFC627"/>
<path d="M163.2 70V50.4L157.7 57.5L163.2 70Z" fill="white"/>
<path d="M150.1 39.4L103.8 95.9L124.1 90.6L150.1 123.2V39.4Z" fill="white"/>
<path d="M122.9 250.8C129.4 244.5 137.8 240.7 146.9 239.8V227.2H112.3C113 236.4 116.8 244.6 122.9 250.8Z" fill="#FFC627"/>
<path d="M146.7 262.4V247.6C140 248.4 133.7 251.2 128.7 255.9C134.1 259.4 140.2 261.7 146.7 262.4Z" fill="#FFC627"/>
<path d="M154.4 185.4V200.2C161.1 199.4 167.4 196.6 172.4 192C167.2 188.4 161.1 186.1 154.4 185.4Z" fill="white"/>
<path d="M178.4 197.1C171.9 203.3 163.5 207.2 154.5 208V219.4H189.1C188 210.9 184.1 203 178.4 197.1Z" fill="white"/>
<path d="M146.7 200.2V185.4C140.1 186.1 133.9 188.4 128.8 192C133.9 196.6 140.1 199.5 146.7 200.2Z" fill="white"/>
<path d="M154.4 227.2V239.8C163.4 240.7 171.7 244.5 178.3 250.8C184.3 244.6 188.3 236.4 189 227.2H154.4Z" fill="#FFC627"/>
<path d="M112.2 219.4H146.7V208C137.7 207.2 129.4 203.2 122.7 197.1C117.1 203 113.2 210.9 112.2 219.4Z" fill="white"/>
<path d="M154.4 262.4C161 261.7 167.2 259.4 172.4 255.8C167.4 251.1 161.1 248.3 154.4 247.5V262.4Z" fill="#FFC627"/>
</svg>
