<svg width="394" height="153" viewBox="0 0 394 153" fill="none" xmlns="http://www.w3.org/2000/svg">
<path d="M393.8 48.1L390.4 46C338.2 15.6 262.4 0.5 227.6 0H227.1C221.4 0 217.4 1.99999 215.3 5.89999C213.5 9.19999 213.7 12.5 214.6 15.4C214 14.7 213.1 14 212.2 13.3C209.4 11.2 206.1 9.5 206.1 9.5C206.1 9.5 206.5 12.2 205.5 11.9C205 11.7 204.4 11.5 203.8 11.2C201 9.9 196.9 7.39999 196.9 7.39999C196.9 7.39999 192.7 9.9 189.9 11.2C189.3 11.5 188.7 11.7 188.2 11.9C187.2 12.2 187.6 9.5 187.6 9.5C187.6 9.5 184.3 11.2 181.5 13.3C180.6 14 179.7 14.7 179.1 15.4C180 12.6 180.2 9.29999 178.4 5.89999C176.3 1.99999 172.4 0 166.6 0H166.1C131.4 0.6 55.6 15.6 3.4 46L0 48.1C0 48.1 5.1 61.2 17.8 64.9L16.1 65.7C16.1 65.7 23.3 77.3 34.4 79.7L32.3 80.6C32.3 80.6 40.1 93.3 55.3 95.9L53.1 97C53.1 97 63.9 108.7 80.6 109.8L78.2 111.6C78.2 111.6 89.2 118.9 105.5 120.8L102.9 123.1C102.9 123.1 131.7 133.6 155.8 124.9C162.5 141.6 178.8 153 197.1 153C215.4 153 231.8 141.7 238.4 124.9C262.5 133.7 291.3 123.1 291.3 123.1L288.7 120.8C304.9 119 316 111.6 316 111.6L313.6 109.8C330.2 108.8 341.1 97 341.1 97L338.9 95.9C354.1 93.2 361.9 80.6 361.9 80.6L359.8 79.7C370.9 77.3 378.1 65.7 378.1 65.7L376.4 64.9C388.7 61.2 393.8 48.1 393.8 48.1Z" fill="#B4975A"/>
<path d="M388.3 49.7C337.2 19.9 262.2 4.79999 227.5 4.19999C223.3 4.09999 220.5 5.09999 219 7.89999C216.6 12.4 220 17.5 221.4 19.7C224.5 24.4 228.7 31.7 228.7 40.5C228.7 57.6 214.9 70.2 197.9 70.2C197.5 70.2 197.2 70.2 196.8 70.2C196.4 70.2 196.1 70.2 195.7 70.2C178.7 70.2 164.9 57.6 164.9 40.5C164.9 31.7 169.1 24.4 172.2 19.7C173.7 17.5 177.1 12.5 174.6 7.89999C173.1 5.19999 170.3 4.19999 166.1 4.19999C131.4 4.79999 56.3998 19.9 5.2998 49.7C5.2998 49.8 13.4998 63.8 29.6998 62.6C27.1998 63.8 24.6998 65.1 22.1998 66.4C22.1998 66.6 29.6998 78.7 47.5998 77C44.5998 78.4 41.6998 79.8 38.6998 81.3C38.6998 81.5 47.2998 93.5 66.1998 93.1C61.8998 95.3 59.1998 96.7 59.1998 96.7C59.1998 96.8 71.6998 108.8 91.7998 105.5C89.5998 107.1 87.3998 108.8 84.7998 110.6C84.7998 110.6 99.5998 118.7 117 116.2C114.8 117.9 112.5 119.6 110.3 121.4C110.3 121.2 136.9 128.7 155.9 120.3C172.2 113.1 181.3 95.5 183.4 91.1C186.6 91.8 189.4 92.2 191.6 92.5C191.6 92.7 195.1 93 196.8 93C198.5 93.1 202 92.8 202 92.5C204.1 92.2 207 91.8 210.2 91.1C212.3 95.5 221.3 113.2 237.7 120.3C256.7 128.7 283.3 121.1 283.3 121.4C281.1 119.7 278.8 117.9 276.6 116.2C294 118.7 308.8 110.6 308.8 110.6C306.2 108.8 304 107.1 301.8 105.5C321.9 108.8 334.4 96.8 334.4 96.7C334.4 96.7 331.8 95.3 327.4 93.1C346.3 93.4 354.8 81.4 354.9 81.3C351.9 79.8 349 78.4 346 77C363.9 78.8 371.3 66.6 371.4 66.4C368.9 65.1 366.4 63.9 363.9 62.6C380.2 63.7 388.3 49.8 388.3 49.7Z" fill="#0A2240"/>
<path d="M182.2 82C182.2 82 136.6 66.7 156.4 18.1C156.4 18.1 108.1 20.1 41.9999 46.8C41.9999 46.8 37.3999 48.7 34.6999 49.7C31.9999 50.7 27.5999 52.4 21.3999 49.4C21.3999 49.4 81.8999 17.8 159.6 10.4C169.8 9.4 171.2 11 168.5 14.8C166.3 18.1 138.5 53.4 182.2 82Z" fill="white"/>
<path d="M141.7 31.9C102.6 37 64.2998 50.6 64.2998 50.6C70.7998 62.2 88.4998 57.3 88.4998 57.3C121.6 47.9 136.4 44.7 141.2 43.8C141 40.1 141.1 36.2 141.7 31.9Z" fill="#B4975A"/>
<path d="M141.9 50.9C135.4 52.2 108 57.8 80.3999 68.1C80.3999 68.1 89.0999 78 106.4 73.1C120.9 69 139.6 63 145.1 61.3C143.7 58.2 142.6 54.7 141.9 50.9Z" fill="#B4975A"/>
<path d="M148 66.8C142.1 68.7 112.6 78.3 100.1 83.1C100.1 83.1 107.2 92.7 127.9 84.6C142.3 78.9 150.2 75.6 153.7 74.1C151.6 71.9 149.7 69.5 148 66.8Z" fill="#B4975A"/>
<path d="M158.3 78.2C153.1 80.4 134 88.8 122.9 94.1C122.9 94.1 136.8 100.9 154.4 90.1L165.3 82.9C162.9 81.6 160.5 80.1 158.3 78.2Z" fill="#B4975A"/>
<path d="M170.6 85.8C167.1 88 152.6 97.1 145.5 102.4C145.5 102.4 157.5 107.4 169.9 95.7C173.9 91.9 176.1 89.8 177.3 88.5C175.1 87.8 172.9 86.9 170.6 85.8Z" fill="#B4975A"/>
<path d="M211.6 82C211.6 82 257.2 66.7 237.4 18.1C237.4 18.1 285.7 20.1 351.8 46.8C351.8 46.8 356.4 48.7 359.1 49.7C361.8 50.7 366.2 52.4 372.4 49.4C372.4 49.4 311.9 17.8 234.2 10.4C223.9 9.4 222.6 11 225.3 14.8C227.6 18.1 255.3 53.4 211.6 82Z" fill="white"/>
<path d="M252.1 31.9C291.2 37 329.5 50.6 329.5 50.6C323 62.2 305.3 57.3 305.3 57.3C272.2 47.9 257.4 44.7 252.6 43.8C252.9 40.1 252.7 36.2 252.1 31.9Z" fill="#B4975A"/>
<path d="M251.9 50.9C258.4 52.2 285.8 57.8 313.4 68.1C313.4 68.1 304.7 78 287.4 73.1C272.9 69 254.2 63 248.7 61.3C250.1 58.2 251.2 54.7 251.9 50.9Z" fill="#B4975A"/>
<path d="M245.8 66.8C251.7 68.7 281.2 78.3 293.7 83.1C293.7 83.1 286.6 92.7 265.9 84.6C251.5 78.9 243.6 75.6 240.1 74.1C242.2 71.9 244.1 69.5 245.8 66.8Z" fill="#B4975A"/>
<path d="M235.5 78.2C240.7 80.4 259.8 88.8 270.9 94.1C270.9 94.1 257 100.9 239.4 90.1L228.5 82.9C230.9 81.6 233.3 80.1 235.5 78.2Z" fill="#B4975A"/>
<path d="M223.2 85.8C226.7 88 241.199 97.1 248.299 102.4C248.299 102.4 236.3 107.4 223.9 95.7C219.9 91.9 217.7 89.8 216.5 88.5C218.7 87.8 220.9 86.9 223.2 85.8Z" fill="#B4975A"/>
<path d="M234.299 108.5C234.299 129.2 217.6 145.9 196.9 145.9C176.2 145.9 159.5 129.2 159.5 108.5C159.5 87.9 176.2 71.1 196.9 71.1C217.5 71.2 234.299 87.9 234.299 108.5Z" fill="white"/>
<path d="M226.5 116.3C226.5 132.7 213.2 146 196.9 146C180.5 146 167.3 132.7 167.3 116.3C167.3 99.9 180.6 86.7 196.9 86.7C213.3 86.6 226.5 99.9 226.5 116.3Z" fill="#B4975A"/>
<path d="M196.9 68.2C174.7 68.2 156.6 86.3 156.6 108.5C156.6 130.7 174.7 148.8 196.9 148.8C219.1 148.8 237.2 130.7 237.2 108.5C237.2 86.3 219.1 68.2 196.9 68.2ZM230.7 102C228.2 112 221.4 120.1 212.5 124.6C213.2 119.7 215.4 114.8 217.6 109.7C220.8 102.4 224.4 94.3 222.8 85.8C226.8 90.4 229.6 95.9 230.7 102ZM179.2 79C183.7 76.3 188.9 74.6 194.4 74.2V128.4C191.6 128.2 189 127.7 186.4 126.9C186.1 120.2 183.4 113.9 180.7 107.8C176.2 97.7 172.4 88.8 179.2 79ZM186.1 132C188.8 132.7 191.5 133.2 194.4 133.4V143C189.9 142.7 185.6 141.5 181.7 139.6C183.6 137.7 185.6 135.2 186.1 132ZM199.4 133.3C202.3 133.1 205 132.7 207.7 131.9C208.3 135.1 210.2 137.7 212.1 139.4C208.2 141.3 203.9 142.5 199.4 142.8V133.3ZM207.4 126.8C204.8 127.6 202.2 128.2 199.4 128.4V74.2C204.9 74.6 210.1 76.3 214.6 79C221.4 88.9 217.6 97.7 213.1 107.8C210.4 113.9 207.7 120.1 207.4 126.8ZM170.9 85.9C169.4 94.4 172.9 102.4 176.1 109.8C178.3 114.9 180.5 119.8 181.2 124.8C172.3 120.4 165.5 112.2 163 102C164.2 95.9 167 90.4 170.9 85.9ZM163 114.6C167.3 121.7 173.8 127.2 181.4 130.3C181.4 130.5 181.4 130.8 181.3 131C180.9 133.6 178.8 135.7 177.3 136.8C169.9 131.7 164.6 123.7 163 114.6ZM216.6 136.8C215.1 135.6 213 133.5 212.6 131C212.6 130.8 212.5 130.5 212.5 130.3C220.1 127.1 226.5 121.6 230.9 114.6C229.2 123.8 223.9 131.7 216.6 136.8Z" fill="#0A2240"/>
<path d="M208.9 15.9C208.9 15.9 208.6 17.2 207.8 17.2C207 17.2 202.2 14.9 199.9 13.6C198.9 13.1 197.5 12.3 197 12C197 12 194.9 13.1 193.9 13.6C191.6 14.9 186.7 17.2 186 17.2C185.2 17.2 184.9 15.9 184.9 15.9C184.9 15.9 172.2 23.6 172.2 44.7C172.2 60.5 180.4 67.6 180.4 67.6L181.5 72.1H195.5H198.3H212.3L213.4 67.6C213.4 67.6 221.6 60.5 221.6 44.7C221.6 23.6 208.9 15.9 208.9 15.9Z" fill="#0A2240"/>
<path d="M214.9 39.4C214.9 32.9 212.2 27.5 209.4 24.4C209.4 24.4 209.3 26.3 206.2 24.2C203.5 22.4 200.3 21.3 196.9 21.3C193.5 21.3 190.3 22.4 187.6 24.2C184.6 26.3 184.4 24.4 184.4 24.4C181.5 27.6 178.9 32.9 178.9 39.4C178.9 44.8 180.2 47.5 180.7 48.3C183.4 55.2 189.6 60.1 196.9 60.1C204.1 60.1 210.3 55.3 213 48.5C213.2 48.3 214.9 45.7 214.9 39.4Z" fill="white"/>
<path d="M203.7 54.2C203.7 54.2 203.7 54.1 203.6 54.1C203.6 54.1 201.8 50.7 204.8 48.4C204.8 48.4 211.4 49.8 211.6 41C211.6 41 211.4 40.1 212.4 38.2C212.4 38.2 210.7 36.6 207 39.4C203.3 42.2 201.3 50.1 199.3 48.2C197.3 46.4 198 36.1 197 35.7C196 36.1 196.7 46.4 194.7 48.2C192.7 50.1 190.7 42.2 187 39.4C183.3 36.6 181.6 38.2 181.6 38.2C182.5 40.1 182.4 41 182.4 41C182.6 49.8 189.2 48.4 189.2 48.4C192.1 50.7 190.4 54.1 190.4 54.1C190.4 54.1 190.4 54.2 190.3 54.2C182.4 45.7 177.8 46.8 180 56.4C182.2 65.8 190.8 106 192.2 115.3C192 123.7 191 126.7 190.8 127.3L189.9 129L190.9 130.9C192.4 133.1 193.5 135.6 193.8 136.5L197.1 144.8L200.3 136.5C200.7 135.5 201.7 133.1 203.2 130.9L204.2 129.1L203.3 127.3C203 126.7 202.1 123.8 201.9 115.7C203 107.3 211.8 65.9 214.1 56.3C216.2 46.8 211.6 45.7 203.7 54.2Z" fill="#0A2240"/>
<path d="M191.5 96.1C188.7 81.1 186.4 70 184.6 62C183.2 55.9 186.9 58.3 188.9 62.2L191.5 96.1Z" fill="#CE0E2D"/>
<path d="M202.3 96.1C205.2 81.1 207.4 70 209.2 62C210.6 55.9 206.9 58.3 204.9 62.2L202.3 96.1Z" fill="#CE0E2D"/>
<path d="M187 45.4C186.4 45.2 186.1 44.7 186.3 44.1C186.4 43.9 186.5 43.7 186.7 43.6C186.3 43.2 185.9 42.8 185.4 42.4C185.4 42.4 184.5 46.7 188.3 46.3C188.3 46.3 188.2 45.9 187.9 45.4C187.6 45.5 187.3 45.5 187 45.4Z" fill="#CE0E2D"/>
<path d="M208.5 42.4C208 42.8 207.5 43.2 207.2 43.6C207.4 43.7 207.5 43.9 207.6 44.1C207.8 44.7 207.4 45.2 206.9 45.4C206.6 45.5 206.3 45.4 206.1 45.3C205.8 45.8 205.7 46.2 205.7 46.2C209.4 46.7 208.5 42.4 208.5 42.4Z" fill="#CE0E2D"/>
<path d="M198.7 101.7C199.9 78.6 201.8 62.2 201.8 60.1C201.8 59.4 201.7 58.4 201.4 57.4L200.1 61.8L199.7 54C199 53.1 198.1 52.3 196.9 51.4H196.8C195.6 52.2 194.8 53.1 194.1 54L193.7 61.8L192.3 57.4C192 58.4 191.9 59.4 191.9 60.1C191.9 62.1 193.7 78.5 195 101.7C196.2 124.8 193.4 129.1 193.4 129.1C195.1 131.5 196.9 135.8 196.9 135.8C196.9 135.8 198.7 131.5 200.4 129.1C200.4 129.1 197.5 124.8 198.7 101.7Z" fill="#CE0E2D"/>
<path d="M388.3 49.7C337.2 19.9 262.2 4.79999 227.5 4.19999C223.3 4.09999 220.5 5.09999 219 7.89999C216.6 12.4 220 17.5 221.4 19.7C224.5 24.4 228.7 31.7 228.7 40.5C228.7 57.6 214.9 70.2 197.9 70.2C197.5 70.2 197.2 70.2 196.8 70.2C196.4 70.2 196.1 70.2 195.7 70.2C178.7 70.2 164.9 57.6 164.9 40.5C164.9 31.7 169.1 24.4 172.2 19.7C173.7 17.5 177.1 12.5 174.6 7.89999C173.1 5.19999 170.3 4.19999 166.1 4.19999C131.4 4.79999 56.3998 19.9 5.2998 49.7C5.2998 49.8 13.4998 63.8 29.6998 62.6C27.1998 63.8 24.6998 65.1 22.1998 66.4C22.1998 66.6 29.6998 78.7 47.5998 77C44.5998 78.4 41.6998 79.8 38.6998 81.3C38.6998 81.5 47.2998 93.5 66.1998 93.1C61.8998 95.3 59.1998 96.7 59.1998 96.7C59.1998 96.8 71.6998 108.8 91.7998 105.5C89.5998 107.1 87.3998 108.8 84.7998 110.6C84.7998 110.6 99.5998 118.7 117 116.2C114.8 117.9 112.5 119.6 110.3 121.4C110.3 121.2 136.9 128.7 155.9 120.3C172.2 113.1 181.3 95.5 183.4 91.1C186.6 91.8 189.4 92.2 191.6 92.5C191.6 92.7 195.1 93 196.8 93C198.5 93.1 202 92.8 202 92.5C204.1 92.2 207 91.8 210.2 91.1C212.3 95.5 221.3 113.2 237.7 120.3C256.7 128.7 283.3 121.1 283.3 121.4C281.1 119.7 278.8 117.9 276.6 116.2C294 118.7 308.8 110.6 308.8 110.6C306.2 108.8 304 107.1 301.8 105.5C321.9 108.8 334.4 96.8 334.4 96.7C334.4 96.7 331.8 95.3 327.4 93.1C346.3 93.4 354.8 81.4 354.9 81.3C351.9 79.8 349 78.4 346 77C363.9 78.8 371.3 66.6 371.4 66.4C368.9 65.1 366.4 63.9 363.9 62.6C380.2 63.7 388.3 49.8 388.3 49.7Z" fill="#0A2240"/>
<path d="M182.2 82C182.2 82 136.6 66.7 156.4 18.1C156.4 18.1 108.1 20.1 41.9999 46.8C41.9999 46.8 37.3999 48.7 34.6999 49.7C31.9999 50.7 27.5999 52.4 21.3999 49.4C21.3999 49.4 81.8999 17.8 159.6 10.4C169.8 9.4 171.2 11 168.5 14.8C166.3 18.1 138.5 53.4 182.2 82Z" fill="white"/>
<path d="M141.7 31.9C102.6 37 64.2998 50.6 64.2998 50.6C70.7998 62.2 88.4998 57.3 88.4998 57.3C121.6 47.9 136.4 44.7 141.2 43.8C141 40.1 141.1 36.2 141.7 31.9Z" fill="#B4975A"/>
<path d="M141.9 50.9C135.4 52.2 108 57.8 80.3999 68.1C80.3999 68.1 89.0999 78 106.4 73.1C120.9 69 139.6 63 145.1 61.3C143.7 58.2 142.6 54.7 141.9 50.9Z" fill="#B4975A"/>
<path d="M148 66.8C142.1 68.7 112.6 78.3 100.1 83.1C100.1 83.1 107.2 92.7 127.9 84.6C142.3 78.9 150.2 75.6 153.7 74.1C151.6 71.9 149.7 69.5 148 66.8Z" fill="#B4975A"/>
<path d="M158.3 78.2C153.1 80.4 134 88.8 122.9 94.1C122.9 94.1 136.8 100.9 154.4 90.1L165.3 82.9C162.9 81.6 160.5 80.1 158.3 78.2Z" fill="#B4975A"/>
<path d="M170.6 85.8C167.1 88 152.6 97.1 145.5 102.4C145.5 102.4 157.5 107.4 169.9 95.7C173.9 91.9 176.1 89.8 177.3 88.5C175.1 87.8 172.9 86.9 170.6 85.8Z" fill="#B4975A"/>
<path d="M211.6 82C211.6 82 257.2 66.7 237.4 18.1C237.4 18.1 285.7 20.1 351.8 46.8C351.8 46.8 356.4 48.7 359.1 49.7C361.8 50.7 366.2 52.4 372.4 49.4C372.4 49.4 311.9 17.8 234.2 10.4C223.9 9.4 222.6 11 225.3 14.8C227.6 18.1 255.3 53.4 211.6 82Z" fill="white"/>
<path d="M252.1 31.9C291.2 37 329.5 50.6 329.5 50.6C323 62.2 305.3 57.3 305.3 57.3C272.2 47.9 257.4 44.7 252.6 43.8C252.9 40.1 252.7 36.2 252.1 31.9Z" fill="#B4975A"/>
<path d="M251.9 50.9C258.4 52.2 285.8 57.8 313.4 68.1C313.4 68.1 304.7 78 287.4 73.1C272.9 69 254.2 63 248.7 61.3C250.1 58.2 251.2 54.7 251.9 50.9Z" fill="#B4975A"/>
<path d="M245.8 66.8C251.7 68.7 281.2 78.3 293.7 83.1C293.7 83.1 286.6 92.7 265.9 84.6C251.5 78.9 243.6 75.6 240.1 74.1C242.2 71.9 244.1 69.5 245.8 66.8Z" fill="#B4975A"/>
<path d="M235.5 78.2C240.7 80.4 259.8 88.8 270.9 94.1C270.9 94.1 257 100.9 239.4 90.1L228.5 82.9C230.9 81.6 233.3 80.1 235.5 78.2Z" fill="#B4975A"/>
<path d="M223.2 85.8C226.7 88 241.199 97.1 248.299 102.4C248.299 102.4 236.3 107.4 223.9 95.7C219.9 91.9 217.7 89.8 216.5 88.5C218.7 87.8 220.9 86.9 223.2 85.8Z" fill="#B4975A"/>
<path d="M234.299 108.5C234.299 129.2 217.6 145.9 196.9 145.9C176.2 145.9 159.5 129.2 159.5 108.5C159.5 87.9 176.2 71.1 196.9 71.1C217.5 71.2 234.299 87.9 234.299 108.5Z" fill="white"/>
<path d="M226.5 116.3C226.5 132.7 213.2 146 196.9 146C180.5 146 167.3 132.7 167.3 116.3C167.3 99.9 180.6 86.7 196.9 86.7C213.3 86.6 226.5 99.9 226.5 116.3Z" fill="#B4975A"/>
<path d="M196.9 68.2C174.7 68.2 156.6 86.3 156.6 108.5C156.6 130.7 174.7 148.8 196.9 148.8C219.1 148.8 237.2 130.7 237.2 108.5C237.2 86.3 219.1 68.2 196.9 68.2ZM230.7 102C228.2 112 221.4 120.1 212.5 124.6C213.2 119.7 215.4 114.8 217.6 109.7C220.8 102.4 224.4 94.3 222.8 85.8C226.8 90.4 229.6 95.9 230.7 102ZM179.2 79C183.7 76.3 188.9 74.6 194.4 74.2V128.4C191.6 128.2 189 127.7 186.4 126.9C186.1 120.2 183.4 113.9 180.7 107.8C176.2 97.7 172.4 88.8 179.2 79ZM186.1 132C188.8 132.7 191.5 133.2 194.4 133.4V143C189.9 142.7 185.6 141.5 181.7 139.6C183.6 137.7 185.6 135.2 186.1 132ZM199.4 133.3C202.3 133.1 205 132.7 207.7 131.9C208.3 135.1 210.2 137.7 212.1 139.4C208.2 141.3 203.9 142.5 199.4 142.8V133.3ZM207.4 126.8C204.8 127.6 202.2 128.2 199.4 128.4V74.2C204.9 74.6 210.1 76.3 214.6 79C221.4 88.9 217.6 97.7 213.1 107.8C210.4 113.9 207.7 120.1 207.4 126.8ZM170.9 85.9C169.4 94.4 172.9 102.4 176.1 109.8C178.3 114.9 180.5 119.8 181.2 124.8C172.3 120.4 165.5 112.2 163 102C164.2 95.9 167 90.4 170.9 85.9ZM163 114.6C167.3 121.7 173.8 127.2 181.4 130.3C181.4 130.5 181.4 130.8 181.3 131C180.9 133.6 178.8 135.7 177.3 136.8C169.9 131.7 164.6 123.7 163 114.6ZM216.6 136.8C215.1 135.6 213 133.5 212.6 131C212.6 130.8 212.5 130.5 212.5 130.3C220.1 127.1 226.5 121.6 230.9 114.6C229.2 123.8 223.9 131.7 216.6 136.8Z" fill="#0A2240"/>
<path d="M208.9 15.9C208.9 15.9 208.6 17.2 207.8 17.2C207 17.2 202.2 14.9 199.9 13.6C198.9 13.1 197.5 12.3 197 12C197 12 194.9 13.1 193.9 13.6C191.6 14.9 186.7 17.2 186 17.2C185.2 17.2 184.9 15.9 184.9 15.9C184.9 15.9 172.2 23.6 172.2 44.7C172.2 60.5 180.4 67.6 180.4 67.6L181.5 72.1H195.5H198.3H212.3L213.4 67.6C213.4 67.6 221.6 60.5 221.6 44.7C221.6 23.6 208.9 15.9 208.9 15.9Z" fill="#0A2240"/>
<path d="M214.9 39.4C214.9 32.9 212.2 27.5 209.4 24.4C209.4 24.4 209.3 26.3 206.2 24.2C203.5 22.4 200.3 21.3 196.9 21.3C193.5 21.3 190.3 22.4 187.6 24.2C184.6 26.3 184.4 24.4 184.4 24.4C181.5 27.6 178.9 32.9 178.9 39.4C178.9 44.8 180.2 47.5 180.7 48.3C183.4 55.2 189.6 60.1 196.9 60.1C204.1 60.1 210.3 55.3 213 48.5C213.2 48.3 214.9 45.7 214.9 39.4Z" fill="white"/>
<path d="M203.7 54.2C203.7 54.2 203.7 54.1 203.6 54.1C203.6 54.1 201.8 50.7 204.8 48.4C204.8 48.4 211.4 49.8 211.6 41C211.6 41 211.4 40.1 212.4 38.2C212.4 38.2 210.7 36.6 207 39.4C203.3 42.2 201.3 50.1 199.3 48.2C197.3 46.4 198 36.1 197 35.7C196 36.1 196.7 46.4 194.7 48.2C192.7 50.1 190.7 42.2 187 39.4C183.3 36.6 181.6 38.2 181.6 38.2C182.5 40.1 182.4 41 182.4 41C182.6 49.8 189.2 48.4 189.2 48.4C192.1 50.7 190.4 54.1 190.4 54.1C190.4 54.1 190.4 54.2 190.3 54.2C182.4 45.7 177.8 46.8 180 56.4C182.2 65.8 190.8 106 192.2 115.3C192 123.7 191 126.7 190.8 127.3L189.9 129L190.9 130.9C192.4 133.1 193.5 135.6 193.8 136.5L197.1 144.8L200.3 136.5C200.7 135.5 201.7 133.1 203.2 130.9L204.2 129.1L203.3 127.3C203 126.7 202.1 123.8 201.9 115.7C203 107.3 211.8 65.9 214.1 56.3C216.2 46.8 211.6 45.7 203.7 54.2Z" fill="#0A2240"/>
<path d="M191.5 96.1C188.7 81.1 186.4 70 184.6 62C183.2 55.9 186.9 58.3 188.9 62.2L191.5 96.1Z" fill="#CE0E2D"/>
<path d="M202.3 96.1C205.2 81.1 207.4 70 209.2 62C210.6 55.9 206.9 58.3 204.9 62.2L202.3 96.1Z" fill="#CE0E2D"/>
<path d="M187 45.4C186.4 45.2 186.1 44.7 186.3 44.1C186.4 43.9 186.5 43.7 186.7 43.6C186.3 43.2 185.9 42.8 185.4 42.4C185.4 42.4 184.5 46.7 188.3 46.3C188.3 46.3 188.2 45.9 187.9 45.4C187.6 45.5 187.3 45.5 187 45.4Z" fill="#CE0E2D"/>
<path d="M208.5 42.4C208 42.8 207.5 43.2 207.2 43.6C207.4 43.7 207.5 43.9 207.6 44.1C207.8 44.7 207.4 45.2 206.9 45.4C206.6 45.5 206.3 45.4 206.1 45.3C205.8 45.8 205.7 46.2 205.7 46.2C209.4 46.7 208.5 42.4 208.5 42.4Z" fill="#CE0E2D"/>
<path d="M198.7 101.7C199.9 78.6 201.8 62.2 201.8 60.1C201.8 59.4 201.7 58.4 201.4 57.4L200.1 61.8L199.7 54C199 53.1 198.1 52.3 196.9 51.4H196.8C195.6 52.2 194.8 53.1 194.1 54L193.7 61.8L192.3 57.4C192 58.4 191.9 59.4 191.9 60.1C191.9 62.1 193.7 78.5 195 101.7C196.2 124.8 193.4 129.1 193.4 129.1C195.1 131.5 196.9 135.8 196.9 135.8C196.9 135.8 198.7 131.5 200.4 129.1C200.4 129.1 197.5 124.8 198.7 101.7Z" fill="#CE0E2D"/>
</svg>
