<svg width="435" height="437" viewBox="0 0 435 437" fill="none" xmlns="http://www.w3.org/2000/svg">
<path fill-rule="evenodd" clip-rule="evenodd" d="M290.8 421.4C291.2 421.8 291.4 422.3 291.6 422.3C292.7 422.3 295 421.9 295 421.9L297.3 420.9L303.7 418.4L319.7 410.8L322.5 409.3L324 408.7L325.7 407.5L328.5 405.8L331.9 404L336.2 401.2L343.7 395.9L347.4 393L352.7 389.2L357.5 385.6L359.8 383.9L363 380.9L366.3 377.6L371.6 371.9L377.8 365.9L385 357.7L388.9 352.5L390.3 350.6L394.5 345.4L402.7 333.6L405 329.7L410.5 318.8L413.7 312.9L419 302.1L421.9 295.6L425 285.6C425 285.6 428.7 272.3 430.7 265.4C430.9 264.6 431 263.9 430.5 263.2C429.4 261.6 428.5 259.6 427.5 257.8C426.9 256.9 426.1 255.9 425.6 255.2C425.1 254.4 423.7 252.7 423.1 252C422.5 251.3 421.8 250.7 421.1 250.2C419.4 248.6 417.9 247 416.4 246C415.7 245.6 415.1 245.1 414.5 244.6C410 241.2 405.5 238.4 400.4 236.2C398.3 235.3 396.1 234.5 393.8 233.7C392.3 233.2 389.8 232.6 388.1 232.3C387.2 232.1 386.4 232.1 385.7 232.6C385 233.1 385 234.2 384.9 235.2C384.6 238 384.5 241 384.3 243.8C384 246.7 383.8 249.5 383.6 252.4C383.4 255 383.2 257.6 382.9 260.2C382.5 263.6 382 267 381.4 270.4C380.2 276.7 378.8 283 377.5 289.4C377.1 291.1 376.9 292.9 376.2 294.6C375 297.3 374.2 300 373.7 302.9C372.5 308.9 370.3 314.6 368.3 320.2C366.6 324.8 365 329.6 362.3 333.8C362.1 334.1 362 334.4 361.9 334.7C360.6 337.6 359.5 340.6 358.2 343.5C357.4 345.4 356.1 347.1 355.3 349C354.3 351.4 352.9 353.6 351.6 355.7C349.4 359.1 347.1 362.5 345.1 366C343.8 368.5 342.2 370.9 340.6 373.2C340.2 373.8 339.8 374.4 339.4 375C338.1 377 336.9 379 335.4 380.8C332.6 384.3 329.7 387.8 326.8 391.2C325 393.4 322.9 395.3 321 397.4C319.2 399.3 317.5 401.1 315.7 403C315.3 403.4 314.8 403.7 314.4 404.1C313.3 405 312.2 405.8 311.2 406.8C308.9 409.1 306.5 411.3 303.8 413.1C302.6 413.9 301.5 414.6 300.4 415.5C297.5 418 294.3 419.8 290.7 421.6V421.4H290.8Z" fill="white"/>
<path fill-rule="evenodd" clip-rule="evenodd" d="M432.2 250.9C432.3 250.9 432.4 250.7 432.4 250.5C432.4 250 432.6 249 432.6 249L434.1 235.1L435 222.1V207.1L433.5 192.4C433.5 192.4 431.7 179.2 430.4 172.4C429.9 170 428.5 168.8 426.5 167.8C424.5 166.8 425.2 167.1 424.5 166.9C423.1 166.5 421.5 165.7 420.1 165.4C416.9 164.6 413.8 163.5 410.5 162.9C406.6 162.2 402.7 161.8 398.8 161.4C395.6 161.1 392.3 161 389.1 160.9H382.4C379.8 160.9 379.6 160.9 378.9 161.8C378.3 162.7 378.7 164.2 378.9 165.8C379.4 169 379.9 170.6 380.4 173.8C382 183.2 383.6 192.6 383.9 202.2C384.1 206.5 384.3 210.8 384.5 215.1V218.3C384.5 219 384.7 219.9 385 220.4C385.4 221 386 221.1 386.6 221.3C387.4 221.6 388.2 221.6 389 221.8C389.8 222 391.3 222.3 392.3 222.7C396 223.9 400 225.3 403.7 226.8C406.3 227.9 408.7 229.4 411.1 230.7C411.4 230.8 411.7 231 411.9 231.2C413.3 232.3 414.8 233.4 416.2 234.5C419.6 237 423.1 239.5 425.7 243C426.2 243.7 426.8 244.3 427.4 244.8C428.4 245.7 430.1 249 431.4 250.5C431.6 250.8 431.8 250.8 431.9 250.8H432.2V250.9Z" fill="white"/>
<path fill-rule="evenodd" clip-rule="evenodd" d="M335.6 93.8C336.9 93.8 338.1 93.7 339.1 93.6C339.9 93.6 340.5 93.5 340.9 92.7C341.2 91.9 340.6 91.1 340.5 90.8C340.2 90.2 337.7 85.8 337.7 85.8L335.3 82L325 67.4L322.9 64.9L320.9 62.2L309.2 49.5L305.6 46L292.7 34.2L282.1 26.1L278.3 24.1L265.9 16.6L257.2 12L255.5 11.3L248.4 8.8L237.9 4.9L237.1 4.7L233.7 3.9L232.8 3.7L229.9 2.9L223.7 1.8H220.7L215.1 0.700001L208.4 0.300003L206.1 0H194.9L188 0.900002H182.7L178 1.5L173.1 2.5L169.4 3.6L163.4 4.7H162L156.4 6.6L153.1 7.5L151.1 8.7L146.2 10L143.9 11.3L141 12.4L133.8 15.4L124.6 18.9L121.6 20.3L115.2 23.7L109.6 27.3L104.4 30L102.5 31.1L96.8002 34.1L95.9002 34.7L89.4002 39.7L84.0002 43.3L82.9002 44L76.8002 48.7L74.6002 50.5C74.6002 50.5 71.3002 53.3 71.2002 53.6L73.5002 52.9C73.5002 52.9 77.7002 51.4 77.8002 51.4H78.6002L84.6002 49H85.5002L92.1002 46.4C92.1002 46.4 95.6002 45.2 95.6002 45.3C95.6002 45.4 99.1002 44 99.1002 44L104 42.3L115.9 37.8H117L123.1 35.6L127.9 33.6L128.6 34.1C128.6 34.1 137.8 34.3 137.9 34.3L143.8 34.8H144L156 35.8H156.1L172.6 36.5V36.9L178.6 41.9H179L185 47.6L185.5 47.3L193.7 47.5L194.1 47.2L214.8 48.4V48.9C214.9 48.9 224.1 54.2 224.1 54.2H224.5L240.8 62V62.9C240.9 62.9 250.2 59.3 250.2 59.3L263.7 63.8L266 67.5L271 67.8L275.8 73.1H276.3L280.2 77.5V77.8H280.8L291.5 80.2L295.4 86.2L305.3 89.7C305.3 89.7 315.9 92.4 321.3 93.1C326.1 93.7 331.8 93.5 335.6 93.2V93.8Z" fill="white"/>
<path fill-rule="evenodd" clip-rule="evenodd" d="M428.8 158.2C428.5 156.6 427.4 153.5 427.4 153.5L426.8 151.8L426.2 149.7L424.4 144.5L422.8 140L417.7 128.8L415.4 123.3L412.5 116.9L409 111.3L408.2 109.7L405.9 105.1L403.7 101.6L387.9 80.6C387.9 80.6 386.5 78.9 385.7 78.1C385.4 77.7 385.2 77.3 384.8 77.3C384.4 77.3 384.8 77.3 384.7 77.3C384.7 77.3 380.1 84.6 378.2 86.8C376.3 88.9 372.5 92.3 372.5 92.3C372.5 92.3 369.3 94.9 368.7 95.3C368.2 95.7 365.7 97.3 365.7 97.3L362.3 99.2C362.3 99.2 359.7 100.4 359.3 100.5C358.9 100.7 358.4 100.8 358.1 101.2C357.9 101.5 357.8 101.8 357.9 102.3C357.9 102.7 358.1 103.2 358.3 103.6C359.7 106.4 360.9 109.3 362.4 112.1C364.7 116.2 366.1 120.6 368 124.9C368.6 126.3 369.3 127.7 369.7 129.2C371 133 372.2 136.8 373.4 140.6C373.9 142.3 374.5 144 375 145.7C375.5 147.4 375.9 149.1 376.4 150.8C376.7 151.9 377.5 152.4 378.6 152.4H382C386 152.3 390 152.2 394 152.1C395.1 152.1 403.1 152.8 403.1 152.8C403.1 152.8 406 153.1 407.4 153.3C410.4 153.9 413.5 154.5 416.5 155.1C419 155.6 421.7 156.5 424 157.5C425.1 158 426.4 158.3 427.7 158.7C428.1 158.8 428.7 158.9 428.8 158.8C428.8 158.8 429 158.3 429 158.1H428.8V158.2Z" fill="white"/>
<path fill-rule="evenodd" clip-rule="evenodd" d="M376.5 70.6C376.4 70 375.3 68.5 375.3 68.5L374.5 67.2L372.3 64.8L370.9 62.7L368.2 60.1C368.2 60.1 367.6 59.6 367.3 59.4C362.6 55.6 353.1 48.1 353.1 48L350.5 46L345.6 41.7L321 27.1L301.6 18L291.3 14C291.3 14 287.6 12.7 287.5 12.7L274.8 8.39999L265.9 6.19999L257.2 4.39999H255.8L255 4.99999L255.3 5.39999C255.3 5.39999 256.2 5.79999 256.6 5.99999C259.3 7.09999 262 7.99999 264.7 9.09999C266.5 9.79999 268.1 10.7 269.9 11.2C271.2 11.6 272.3 12 273.4 12.7C277.5 15 281.6 17.4 285.7 19.8C288.1 21.3 290.4 22.9 292.5 24.9C294.1 26.3 295.8 27.7 297.7 28.8C298.6 29.2 299.3 30 300 30.6C300.4 30.9 300.9 31.3 301.3 31.7C303.7 33.7 306.3 35.3 308.5 37.6C310.8 40 313.2 42.3 315.6 44.6C317.9 46.8 320.2 49 322.1 51.5C323.7 53.6 325.4 55.6 327.2 57.4C330.8 60.9 333.5 65 336.7 68.7C337.1 69.1 337.3 69.7 337.7 70.3C339.8 73.5 341.7 76.9 344.2 79.9C346 82 347.6 84.2 348.7 86.7C349.4 88.2 350.5 89.5 351.4 90.9C351.9 91.7 352.9 92.1 353.4 92.1C353.9 92.1 354.8 91.7 354.8 91.7L356.5 91C356.5 91 358.8 90 359.6 89.7C360.3 89.3 361.9 88.5 362.4 88C363 87.5 365.3 85.9 366.6 84.8C367.9 83.6 370.5 80.6 370.5 80.6L372.4 78.1L375.7 72.7C375.7 72.7 376.4 71.5 376.2 70.9L376.5 70.6Z" fill="white"/>
<path fill-rule="evenodd" clip-rule="evenodd" d="M365.9 152.1C364.6 148 363.6 144.2 362.1 140.2C360.9 136.9 360 133.5 358.4 130.4C357.5 128.5 357 126.4 356.3 124.4C355.9 123.4 355.4 122.5 355.1 121.5C353.3 116.4 350.9 112.2 348.4 107.4C348.3 107.1 348.2 106.9 347.9 106.5C347.7 106.1 347.5 105.6 346.9 105.3C346.3 105 345.8 105.2 344.7 105.3C342.6 105.5 340 105.8 338.9 105.8C337.8 105.8 333.8 106.1 330.5 106.4L329.7 106.2H325.7L315.2 104.8C311.4 104.2 302.5 102 302.5 102L296 99.8L288.1 97.1L287.5 97.4L275.1 96.4L274.7 96.6L267.7 91.3H266.9L262.6 87.3L262.4 86.5L257.6 85.8L257.2 86L253.2 84.6L252.8 84.2L243.7 84.9L235.5 81.5L206.9 83L206.4 82.7L201 83.1L200.4 83.5L186.3 84.6L185.9 84.3L165.8 95.9L165.6 96.8L164.7 97.6L164.2 97.3L154.1 96.3L153.5 96.5H135.7C135.7 96.6 135.3 96.5 135.3 96.5L130.2 96.3L128.7 95.4L110 109.9V110.3L103.4 115.5L96.1 112L95.7 112.2L93 111.4C93 111.4 79.5 114.8 79.6 114.9L67 112.9L66.1 112.2L63.7 114.6L58.7 117V117.4L48.5 125.1L34.2 135.4L18.1 147.4L10.9 152.7L10.5 155.8L7.5 162.9L6.2 169L4.2 181.3L3 186.6L2.6 193L0.799999 206.3L0 235.4L0.799999 237.1L1.3 245.1C1.3 245.1 1.3 246.5 1.7 246.6L37.3 209.7L49 205L58.8 204.5L64.7 197.7L65.3 196.4L66 196.7L82 194.9L82.7 194.4H88.7L89.6 194.7L91.5 192.2L98.7 187.8L106.4 182.5L128 182.8V183.2C128.1 183.2 136.6 184 136.6 184L143.2 182.7L155.3 170.3H155.5L165.1 161.1L179.5 159.2L180.1 158.8L180.8 159.4L188.3 162.9L188.8 162.4L195.4 161.6L195.7 161.2L201.9 160.1L202.5 159.8L209.3 165.6L209.7 165.2L223.6 165L224.8 164.1L236 164.6L236.6 164.8L238.3 164.4L238.6 163.9L243.1 161.9H243.6L248.8 159.6L249.2 159.1L254.7 157L255.1 156.4L270.3 150.6V150.4C270.4 150.4 273.1 149.5 273.1 149.5L273.7 148.9L274.5 149.7L278.9 151.9H280.3L285.2 154.7L285.6 154.2L287.1 153.5H287.2L289.7 152.4V152.2C289.8 152.2 293.4 151.4 293.4 151.4L302.5 153.8L304.4 153.4L306.1 154.5L312.8 155.5L319.3 158L323.1 157.7L324.3 158.5L325.3 157.9C325.3 157.9 338.2 156.3 344.6 155.7C348.8 155.4 353 154.9 357.2 154.5C359.6 154.3 361.9 154.1 364.3 153.8C365.6 153.7 366.2 153.1 365.8 151.7V152.1H365.9Z" fill="white"/>
<path fill-rule="evenodd" clip-rule="evenodd" d="M374.4 218.1C374.4 217.2 374.2 216.7 374.2 215.8C374.1 213.3 373.9 210.8 373.8 208.3C373.8 207.5 373.7 206.6 373.6 205.8C373.4 202.7 373.3 199.6 373 196.5C372.6 192.5 372 188.7 371.4 184.8C371 181.8 370.4 178.7 369.8 175.7C369.2 172.6 368.7 169.7 368 166.5C367.3 163.3 366.6 162.9 363.4 163.3C363.1 163.3 362.9 163.3 362.6 163.4C361.4 163.6 359.7 163.8 358.5 164C352.2 164.8 346.2 165.2 339.9 165.9L321.7 172.3L295.5 171.6L292.6 170.7V171.2L284.9 176.9H283.8C283.8 177 277.7 182.7 277.7 182.7L277.4 183.5L261.7 185.6L247.4 196.7H245.9L238.3 201.2L235.3 201.6L232.3 204.2L231.5 203.6L216.9 202.6L214.4 205.5V206L201.8 219.8V220.6C201.7 220.6 201.2 220.7 201.2 220.7L185.1 239.2H180.7L180.4 239.7L167.2 242H166.2L165.9 242.6L144.1 254.8L134.3 253.6L132.2 254.3L122.5 253.7L112.8 264.2L107 265.4H103.7C103.7 265.3 100.3 266.7 100.3 266.7L98.3001 266.5V266.9C98.4001 266.9 86.4001 276.2 86.4001 276.2L85.3001 276.4L66.5001 291.1L66.7001 292L55.1001 320.2L55.6001 321.4L36.5001 323.2L30.2001 328.6L29.6001 330.6L38.1001 342.5L44.4001 352.2L49.8001 359.2L58.6001 368.8C58.6001 368.8 58.6001 369.5 58.8001 369.5C59.0001 369.5 60.0001 369.6 60.0001 369.7L65.3001 371.5L71.8001 373.5V373.8H72.5001L83.3001 378H84.1001L84.7001 378.7H85.7001L88.3001 380.4L92.8001 377.9H93.0001L95.0001 376.6L111.4 380.8L123.4 374.6L150.1 372L161 354.3C162.8 352.6 165.9 349.4 165.9 349.4H166.3C166.3 349.4 170.1 345.9 170.1 345.8V345.3L177 339L180.2 335.6C180.2 335.6 180.9 335.2 181 335.1L184.7 331.2L187.7 328.1H188.5C188.5 328 187.7 325.2 187.7 325.2L190.8 313.8L196.8 312L197 311.8L198.8 311.4V310.4L206.9 297.3L207.6 297L210.9 290.6L216.4 287.5L217.1 286.6L218.2 286.8C218.2 286.8 221.4 284.9 221.5 284.9H221.9L227.8 282.3L228.3 281.6L247.9 272.5H249.1C249.1 272.4 249.3 271.3 249.3 271.3L250.1 270.7L252.1 263.8L258.3 261.1L265.5 260.2L272 255.7L281.3 256.1L282.2 256.9L282.7 256.3L295.7 250.5V248.8L298.8 242.8L305.2 241.1L305.5 240.7L314.2 238.9L317.6 234.9H318C318 234.9 320 232.8 320.1 232.8L326.1 233.6L326.4 233.8L329.7 234.3L331.7 234.5C331.7 234.5 340.5 230.3 344.2 228.9C345.8 228.3 347.3 227.9 348.7 227.4C350.7 226.7 352.8 225.9 354.8 225.3C355.9 225 356.8 224.7 357.9 224.4L362 223.6L366.8 222.8L369.7 222.6C369.7 222.6 371.1 222.4 371.6 222.3C372.1 222.2 372.9 222.2 373.6 221.7C374.2 221.1 374.2 220.5 374.3 220V218.1H374.4Z" fill="white"/>
<path fill-rule="evenodd" clip-rule="evenodd" d="M374.4 235.2C374.4 234.5 374.5 233.4 374 232.7C373.5 232.1 372.7 232 372.3 232C371.9 232 369.6 232.3 369.6 232.3L365.8 232.9C365.4 232.9 364.9 233 364.5 233.1C362.2 233.6 359.9 234.1 357.7 234.7C355.2 235.4 352.6 236.1 350.3 237.1C347.8 238.2 345 239.1 342.4 240.3C341.5 240.7 333 244.9 329.2 246.8L324.3 252.1L324.1 253.3L323.4 253L320.3 253.2L320.1 253.5L310.1 256.8V257.9L309.1 258.9V259.5L304.4 267.8H303.7V268.7C303.7 268.7 302.7 270.3 301.7 272L280.5 285.6H280.1L276.9 288.2L274.7 297.1L272.6 299.1L264.3 329.7L265.4 333.2L253.2 339.1H251.2L248.9 349.8L248.5 350.1L245.5 359.8L245.7 360.3L244.5 368.6L244 369.2L244.4 370L232.6 388.7L231.7 389L228.8 393.5V394.4C228.8 394.4 218.7 408.6 218.7 408.5L208.1 414.8L208.7 415.7C208.7 415.8 208.1 420 208.1 420L209 421.6L207.5 422.1L199.8 426.6L199 426.4L187.7 433.1L186.4 435.2C186.4 435.4 190.8 435.8 190.8 435.8L198.1 436.4L203.1 436.6H208.9L211.6 436.8H216C216 436.9 220.3 436.8 220.3 436.8L236 434.9L245.4 433.3L252.5 431.4L260.2 429.2L270 425.3L270.7 424.9L273.5 423.3C273.5 423.3 281.4 419.1 285 416.5C291.1 411.9 297.2 407.3 302.8 402.1C304.7 400.3 306.6 398.5 308.4 396.6C310.2 394.8 311.9 393 313.7 391.3C314 391 314.4 390.7 314.5 390.3C315.1 388.8 316.2 387.9 317.3 386.8C318 386 318.8 385.3 319.4 384.4C320.6 382.5 322.4 381.1 323.9 379.6C325.4 378.1 326.3 377 327.3 375.5C329.2 372.9 330.9 370.1 332.7 367.4C335.1 363.8 337.7 360.3 339.7 356.6C341.9 352.6 344 348.5 346.3 344.6C348.2 341.2 350.2 337.8 351.7 334.3C354.2 328.4 356.7 322.5 359 316.5C361.4 310.1 363.3 303.6 365.1 297C366.4 292.1 367.1 287.1 369 282.3C369.2 281.7 369.3 281 369.4 280.4C370.1 276.4 370.8 272.4 371.4 268.4C372 264.6 372.5 260.8 373.1 257C373.5 254.4 373.9 251.8 374.1 249.2C374.4 245.6 374.6 242 374.7 238.4V235.4L374.4 235.2Z" fill="white"/>
</svg>
