<svg width="363" height="480" viewBox="0 0 363 480" fill="none" xmlns="http://www.w3.org/2000/svg">
<path fill-rule="evenodd" clip-rule="evenodd" d="M242 275.5L242.6 225.3C288.4 231.2 326.1 237.7 326.2 248.7C326.2 261.3 291.8 271 242 275.5ZM207.1 189.8L206.3 277.6C197.9 277.9 189.3 278 180.5 278C171.7 278 162.4 277.8 153.8 277.5L154.2 266.6C154 261.4 154 256 154 250.4C154 225.3 155.3 195.8 155.7 164.8C178.2 167.1 207.3 173.2 207.3 189.3V189.7L207.1 189.8ZM152.9 80.8C184.8 83.9 212.8 91.5 215.2 108.8C215.5 111 215.6 113.2 215.6 115.2C215.6 147.1 180.9 158 155.5 161.7C155.5 157.1 155.5 152.4 155.5 147.7C155.5 125.6 154.9 103 152.8 80.9L152.9 80.8ZM119.1 225.3C119.1 238.7 118.8 253.3 118.4 269.3L118.6 275.4C69.4 270.9 35.9 261.2 35.9 248.7C35.9 237.4 77.5 231.5 119.1 225.2V225.3ZM260.2 224.7C254.5 224.7 248.6 224.8 242.7 225.1L243.2 181.6C243.2 161.9 223.4 158.1 207.9 158.1C192.4 158.1 197.2 158.6 193.9 159C207.8 156.5 253.9 145.1 253.9 103.9C253.9 62.7 253.9 101.3 253.8 100C252.1 74.9 225.1 60.6 179.3 60.6C133.5 60.6 163 61 154 61.9C153 61.9 152 62.1 151 62.2C148.1 40.5 143.7 19.5 137 0C128.5 26.3 123.6 47 120.8 66.3C101.9 69.5 85.7 73.2 74.3 76.2C64.6 78.7 58.3 80.7 56.6 81.2C60.1 80.9 83.4 79 111.1 79C138.8 79 116.4 79 119.2 79C118 91.7 117.6 104.1 117.6 117.6C117.6 144.2 119.2 174.9 119.2 219.1C119.2 263.3 119.2 223.1 119.2 225.1C114.2 224.9 109.2 224.8 104.4 224.8C75.7 224.8 49.7 227.7 30.7 232.9C11.8 238 0 245.3 0 253.9V254.2C0.5 270.7 49.9 286 119.2 291.9L122.1 385.1L126.9 322.2C126.9 318.3 128.5 316.4 130 316.4C131.5 316.4 133.2 318.3 133.2 321.8L135.3 404.9L140.4 337.5C140.4 337.5 140.4 337.4 140.4 337.3C140.4 332.8 142 330.6 143.6 330.6C145.2 330.6 146.7 332.7 146.7 336.5V336.9L149 422.8L153.2 293.8C162.1 294.1 171.2 294.3 180.5 294.3C189.8 294.3 197.9 294.2 206.4 293.9L210.5 425.7L214 357.3C214 352.8 215.5 350.7 217.1 350.7C218.7 350.7 220.1 352.8 220.1 356.7L223.7 453.1L227.3 370C227.4 365.9 229.1 363.9 230.9 363.9C232.7 363.9 234.4 366 234.5 370L237.4 479.8L241.8 292V291.8C312 286 362.8 270.7 362.8 254.2C362.1 237.7 316.8 224.6 260.2 224.6V224.7Z" fill="white"/>
</svg>
