<svg width="391" height="480" viewBox="0 0 391 480" fill="none" xmlns="http://www.w3.org/2000/svg">
<path fill-rule="evenodd" clip-rule="evenodd" d="M336.8 4.8L308.2 55.5L303.2 96L252.1 187H185.2L235.1 98.8V4.8H183.3L155.9 55.1L151.2 96.1L78.3998 225.8L90.5998 256.4H135.9L115.3 308.6L76.6998 266.8L81.1998 328.1L14.2998 330.9L67.4998 368.4L29.5998 424.9L90.7998 404.9L116 465.5L135.2 399.5L203.5 417.1L159.4 366.2L213.6 321.4L157.6 324.9L218.2 256.5H297.9L386.2 100V4.8H336.7H336.8Z" fill="black"/>
<path fill-rule="evenodd" clip-rule="evenodd" d="M88.1 410.9L17.9 433.9L61 369.7L0 326.8L76.1 323.6L70.9 253.5L113.7 299.8L128.9 261.2H87.4L73.1 225.5L146.5 94.6L151.1 53.6L180.3 0H239.8V100.1L193.3 182.3H249.1L298.3 94.6L303.3 54L333.8 0H390.9V101.2L300.6 261.2H220.2L168.8 319.3L227.9 315.6L166 366.7L216.9 425.6L138.2 405.3L116.5 479.9L87.7 410.8L88.1 410.9Z" fill="black"/>
<path fill-rule="evenodd" clip-rule="evenodd" d="M336.8 4.8L308.2 55.5L303.2 96L252.1 187H185.2L235.1 98.8V4.8H183.3L155.9 55.1L151.2 96.1L78.3998 225.8L90.5998 256.4H135.9L115.3 308.6L76.6998 266.8L81.1998 328.1L14.2998 330.9L67.4998 368.4L29.5998 424.9L90.7998 404.9L116 465.5L135.2 399.5L203.5 417.1L159.4 366.2L213.6 321.4L157.6 324.9L218.2 256.5H297.9L386.2 100V4.8H336.7H336.8Z" fill="white"/>
<path fill-rule="evenodd" clip-rule="evenodd" d="M326 50.1H350.2L367 18.5H343.7L326 50.1Z" fill="black"/>
<path fill-rule="evenodd" clip-rule="evenodd" d="M174 50.1H200L216.6 18.4H191.5L174 50.1Z" fill="black"/>
<path fill-rule="evenodd" clip-rule="evenodd" d="M167.8 89.9H191.3L193.5 62.8H170.8L167.9 89.9H167.8Z" fill="black"/>
<path fill-rule="evenodd" clip-rule="evenodd" d="M319.3 89.9H342.8L345 62.8H322.3L319.4 89.9H319.3Z" fill="black"/>
<path fill-rule="evenodd" clip-rule="evenodd" d="M106.5 372.9C100.5 372.9 95.7 368.1 95.7 362.2C95.7 356.3 100.5 351.5 106.5 351.5C112.5 351.5 117.3 356.3 117.3 362.2C117.3 368.1 112.5 372.9 106.5 372.9ZM314.3 106.2L261.4 199.4H134.4L187.4 106.2H162.5L98.6 219H169.5L115.8 339.2L93.6 314.5L94.8 343.6L59 345.6L87.9 365.9L67.3 396.5L100.5 385.7L114.2 418.5L124.6 382.7L161.6 392.2L137.7 364.6L167.1 340.3L121.7 342.3L205.2 219H276.2L339 106.2H314.5H314.3Z" fill="black"/>
</svg>
