<svg width="398" height="231" viewBox="0 0 398 231" fill="none" xmlns="http://www.w3.org/2000/svg">
<path d="M76.2534 182.8C74.9534 182.7 73.7534 182.5 72.5534 182.2C60.1534 176.8 66.5534 164 70.2534 155.6C75.0534 144.8 79.9534 134.1 84.9534 123.5C58.1534 131.9 32.0534 140.7 6.85336 149.9C0.553364 152.6 -3.34664 148.3 3.95336 144C29.6534 127.7 57.9534 112.8 88.5534 99.7C81.0534 84.1 75.0534 67.4 70.6534 49.6L67.1534 35.5C111.553 12.6 149.053 0 199.453 0C249.853 0 287.353 12.6 331.753 35.5C330.953 38.9 330.053 42.3 329.153 45.6C351.253 44.8 372.753 45.3 393.453 46.9C398.353 47.3 398.353 52.9 393.653 53.4C370.653 56.7 347.253 60.4 323.553 64.7C322.053 69.2 320.553 73.7 318.853 78.1C344.153 72.7 368.953 69.1 392.953 67.2C399.153 66.6 399.153 72.6 394.153 73.6C366.053 82.2 337.453 91.7 308.553 102.2C283.953 153.2 247.753 187.3 199.553 216.2C178.153 203.3 158.653 189.1 140.653 171.7C101.053 190.2 63.1534 209.5 27.2534 229.4C21.8534 232.8 16.9534 229.9 23.4534 224C39.7534 209.7 57.3534 195.9 76.2534 182.8Z" fill="white"/>
<path d="M313.553 82.7C340.753 76.7 367.453 72.6 393.253 70.6C364.753 79.3 335.653 89.1 306.153 99.7C308.753 94.2 311.253 88.5 313.553 82.7ZM25.7534 226.5C48.5534 206.4 74.1534 187.2 102.353 169.6C107.653 166.9 112.953 164.3 118.253 161.6C120.453 160.5 124.753 158.4 130.153 155.9C133.753 160 137.553 163.9 141.453 167.8C100.953 186.6 62.2534 206.3 25.7534 226.5Z" fill="#057DC1"/>
<path d="M324.854 49.1C348.354 48.1 371.254 48.5 393.254 50.2C369.554 53.6 345.453 57.4 321.053 61.9C322.353 57.7 323.654 53.4 324.854 49.1ZM5.85352 146.8C32.2535 130 61.5535 114.7 93.1535 101.4C94.1535 103.5 95.2535 105.6 96.3535 107.7C94.6535 111.2 92.9535 114.7 91.2535 118.1C61.9535 127.2 33.4535 136.8 5.85352 146.8Z" fill="#EE3C33"/>
<path d="M175.554 134.3L179.354 132.5L189.254 124.6L191.454 118.5C192.854 121.4 193.654 122.5 195.054 125.4L198.254 124C198.354 127.1 198.454 130.2 198.454 133.1C191.354 134.7 183.654 135.6 175.654 135.7L175.554 134.3ZM203.854 121.6C207.954 119.8 212.054 118 216.154 116.2L218.054 114.2C218.854 114.3 219.754 114.4 220.854 114.3C222.454 114 224.354 113.5 226.554 112.8C225.154 117.8 224.354 122.2 223.954 125.9C218.154 128 211.554 129.9 204.154 131.8C204.154 128.5 204.054 125.1 203.854 121.6ZM199.554 11.5C244.054 11.5 279.054 21.9 318.454 41.6C299.154 114.3 263.854 163.2 199.554 202.9C175.354 188 154.854 171.3 137.654 152.3C145.254 148.7 153.854 144.6 161.454 141C164.554 141.3 167.454 141.4 170.154 141.5C169.954 145.7 168.654 148.8 166.554 151C167.754 152.4 169.054 153.8 170.254 155.2C173.554 152.2 175.754 147.8 175.854 141.6C183.654 141.5 191.254 140.7 198.254 139.2C197.854 150.7 196.254 159.1 193.054 162.4C192.954 162.5 192.854 162.6 192.854 162.7C192.054 163.6 191.254 164.3 190.654 164.8C193.854 164.2 196.854 163.5 199.954 162.6C203.854 154.5 203.954 140.2 204.054 137.7C211.354 135.9 217.854 134 223.654 132C223.854 138.7 226.554 145.1 231.654 147.5C233.954 145.9 236.154 144.2 238.354 142.4C237.054 142.6 228.954 143.2 229.054 130.1C246.154 123.6 257.254 115.9 267.154 104.3C269.754 98.4 271.854 92.3 273.354 86C261.654 104.5 250.854 115.3 229.754 123.8C230.354 120.1 231.454 115.6 233.154 110.3C239.254 107.7 245.754 104.7 249.554 103.1L258.754 93.4C261.054 84.5 263.354 75.5 265.654 66.5L258.454 68.7L266.954 59.8C268.754 52.8 270.454 45.8 272.254 38.8C267.954 39.4 263.754 40.1 259.454 40.7C260.154 37.2 260.654 33.7 260.954 30.3C258.954 29.8 256.854 29.3 254.754 28.8C254.354 32.7 253.554 37 252.354 41.8L251.754 41.9C247.754 42.6 243.654 43.9 240.154 46.9L241.254 43.5C234.454 44.7 227.554 46 220.754 47.3L213.954 54.4L214.154 53.8L216.354 48.1C209.654 49.5 202.854 50.9 196.154 52.4C194.754 43.3 193.354 35.1 192.154 28.4C190.254 28.6 188.354 28.9 186.454 29.2C187.654 35.9 189.154 44.3 190.554 53.6L185.754 54.7L179.654 61.1C175.454 56.6 166.754 59.4 161.354 60.8C155.454 62.3 149.554 63.8 143.754 65.4C141.954 65.9 140.254 66.4 138.554 67C134.154 60.7 130.054 54.1 126.554 47L125.954 45.7C124.154 46.4 122.354 47.2 120.654 48L121.454 49.6C124.754 56.5 128.754 62.9 133.154 69.2C126.854 72 120.954 75.9 115.854 81.5C115.854 81.5 107.654 90.1 106.654 91.2C104.554 93.7 102.654 96.3 101.054 98.9C92.3535 81.5 85.5535 62.5 80.3535 41.8C120.054 21.9 154.954 11.5 199.554 11.5Z" fill="white"/>
<path d="M175.554 134.4L179.454 132.6L189.354 124.7L191.554 118.6C192.954 121.5 193.754 122.6 195.154 125.5L198.354 124.1C198.454 127.2 198.554 130.3 198.554 133.2C191.454 134.8 183.754 135.7 175.754 135.8L175.554 134.4ZM203.954 121.6C208.054 119.8 212.154 118 216.254 116.2L218.154 114.2C218.954 114.3 219.854 114.4 220.954 114.3C222.554 114 224.454 113.5 226.654 112.8C225.254 117.8 224.454 122.2 224.054 125.9C218.254 128 211.654 129.9 204.254 131.8C204.154 128.5 204.054 125.1 203.954 121.6ZM126.254 45.6C145.854 37.6 165.954 32 186.754 29C187.954 35.7 189.454 44.1 190.854 53.4L186.054 54.5L179.954 60.9C175.754 56.4 167.054 59.2 161.654 60.6C155.754 62.1 149.854 63.6 144.054 65.2C142.254 65.7 140.554 66.2 138.854 66.8C134.454 60.5 130.354 53.9 126.854 46.9L126.254 45.6ZM121.354 76.3C118.154 68.2 115.354 59.9 112.954 51.5C115.654 50.2 118.254 49 120.954 47.9L121.754 49.5C125.054 56.4 129.054 62.8 133.454 69.1C129.054 70.8 125.054 73.2 121.354 76.3ZM166.654 150.9C164.154 148 161.654 145 159.254 142L161.554 140.9C164.654 141.2 167.554 141.3 170.254 141.4C170.054 145.6 168.754 148.7 166.654 150.9ZM190.754 164.7C187.554 165.3 184.254 165.7 180.954 166C177.254 162.4 173.754 158.8 170.354 155C173.654 152 175.854 147.6 175.954 141.4C183.754 141.3 191.354 140.5 198.354 139C197.954 150.5 196.354 158.9 193.154 162.2C193.054 162.3 192.954 162.4 192.954 162.5C192.054 163.5 191.354 164.2 190.754 164.7ZM231.754 147.5C222.254 154.2 211.554 159.4 200.054 162.6C203.954 154.5 204.054 140.2 204.054 137.7C211.354 135.9 217.854 134 223.654 132C223.954 138.7 226.654 145.1 231.754 147.5ZM267.254 104.2C260.654 119 250.754 132 238.454 142.3C237.154 142.5 229.054 143 229.154 130C246.254 123.6 257.454 115.8 267.254 104.2ZM223.554 26.4C232.954 26.4 242.254 26.9 251.454 27.9C258.454 29.4 265.354 31.1 272.154 33.2C274.754 42.3 276.154 52 276.154 62C276.154 70.2 275.254 78.3 273.354 86C261.654 104.5 250.854 115.3 229.754 123.8C230.354 120.1 231.454 115.6 233.154 110.3C239.354 107.7 245.754 104.7 249.654 103.1L258.854 93.4C261.154 84.5 263.454 75.5 265.754 66.5L258.554 68.8L267.054 59.9C268.854 52.9 270.554 45.9 272.354 38.9C268.154 39.5 263.854 40.2 259.554 40.8C260.254 37.3 260.754 33.8 261.054 30.4C259.054 29.9 256.954 29.4 254.854 28.9C254.454 32.8 253.654 37.1 252.554 41.9L251.954 42C247.954 42.7 243.854 44 240.354 47L241.454 43.6C234.654 44.8 227.854 46.1 220.954 47.4L214.154 54.5L214.354 53.9L216.554 48.2C209.854 49.6 203.054 51 196.354 52.5C194.954 43.4 193.554 35.2 192.354 28.5C202.654 27 212.954 26.4 223.554 26.4Z" fill="#EE3C33"/>
<path d="M112.254 85.3C106.754 73.2 102.054 60.6 98.3535 47.6C131.354 32 165.554 23.6 201.854 22.6C218.854 22.7 235.354 24.5 251.454 27.9C242.254 26.9 232.954 26.4 223.554 26.4C213.054 26.4 202.654 27 192.454 28.3C190.554 28.5 188.654 28.8 186.754 29.1C166.054 32.1 145.954 37.6 126.254 45.7C124.454 46.4 122.754 47.2 120.954 48C118.254 49.2 115.554 50.4 112.954 51.6C115.354 60.1 118.154 68.4 121.354 76.4C119.554 77.9 117.754 79.6 116.054 81.4L112.254 85.3ZM201.454 190.7C182.554 177.9 165.654 162.8 151.054 145.8L159.154 142C161.554 145 164.054 148 166.554 150.9C167.754 152.3 169.054 153.7 170.254 155.1C181.054 167 193.054 177.8 206.054 187.6C204.654 188.7 203.054 189.7 201.454 190.7Z" fill="#F9B82F"/>
<path d="M175.553 134.3L175.753 135.7C183.653 135.6 191.353 134.7 198.553 133.1C198.553 130.2 198.453 127.2 198.353 124L195.153 125.4C193.753 122.5 192.953 121.4 191.553 118.5L189.353 124.6L179.453 132.5L175.553 134.3ZM203.953 121.6C204.053 125.1 204.153 128.5 204.153 131.7C211.553 129.8 218.153 127.9 223.953 125.8C224.353 122 225.153 117.7 226.553 112.7C224.453 113.4 222.453 114 220.853 114.3C219.853 114.4 218.853 114.4 218.053 114.2L216.153 116.2C212.053 118 207.953 119.8 203.953 121.6ZM199.553 11.5C154.953 11.5 120.053 21.9 80.5533 41.6C85.6533 62.4 92.5533 81.3 101.253 98.7C102.853 96 104.753 93.4 106.853 91C107.853 89.9 116.053 81.3 116.053 81.3C121.153 75.7 126.953 71.8 133.353 69C129.053 62.7 125.053 56.3 121.653 49.4L120.853 47.8C122.653 47 124.353 46.3 126.153 45.6L126.753 46.9C130.153 53.9 134.253 60.5 138.753 66.9C140.453 66.3 142.253 65.8 143.953 65.3C149.853 63.7 155.753 62.2 161.553 60.7C166.953 59.3 175.653 56.5 179.853 61L185.953 54.6L190.753 53.5C189.353 44.2 187.853 35.8 186.653 29.1C188.553 28.8 190.453 28.6 192.353 28.3C193.553 34.9 194.953 43.2 196.353 52.3C203.053 50.8 209.853 49.4 216.553 48L214.353 53.7L214.153 54.3L220.953 47.2C227.753 45.9 234.553 44.6 241.453 43.4L240.353 46.8C243.953 43.8 247.953 42.5 251.953 41.8L252.553 41.7C253.753 36.9 254.453 32.6 254.853 28.7C256.953 29.2 258.953 29.7 261.053 30.2C260.753 33.7 260.253 37.1 259.553 40.7C263.753 40 268.053 39.4 272.353 38.8C270.653 45.8 268.853 52.8 267.053 59.9L258.553 68.8L265.753 66.6C263.453 75.6 261.153 84.5 258.853 93.5L249.653 103.2C245.753 104.8 239.353 107.9 233.253 110.4C231.553 115.7 230.453 120.2 229.853 123.9C250.953 115.4 261.753 104.6 273.453 86.1C271.953 92.5 269.853 98.6 267.253 104.4C257.453 116 246.353 123.8 229.153 130.2C229.053 143.2 237.153 142.7 238.453 142.5C236.253 144.3 234.053 146 231.753 147.6C226.653 145.2 223.953 138.9 223.753 132.2C217.953 134.2 211.353 136 204.153 137.9C204.053 140.4 204.053 154.6 200.153 162.8C197.053 163.7 193.953 164.4 190.853 165C191.453 164.4 192.253 163.7 193.053 162.9C193.053 162.8 193.153 162.7 193.253 162.6C196.553 159.3 198.153 150.8 198.553 139.4C191.553 140.9 183.953 141.7 176.153 141.8C175.953 148.1 173.853 152.5 170.553 155.4C169.253 154 168.053 152.6 166.853 151.2C168.953 149 170.253 145.9 170.453 141.7C167.753 141.6 164.753 141.5 161.753 141.2C154.153 144.8 145.553 148.9 137.953 152.5C155.153 171.5 175.653 188.2 199.853 203.1C264.153 163.4 299.453 114.6 318.753 41.8C279.053 21.9 244.053 11.5 199.553 11.5ZM71.0533 37.2C113.753 15.2 151.153 3.29999 199.553 3.29999C247.953 3.29999 285.353 15.3 327.953 37.2C308.153 117 270.353 169.9 199.553 212.4C172.853 196.4 149.553 177.6 130.053 155.9C124.653 158.5 120.353 160.6 118.153 161.7C111.453 165 104.753 168.4 98.1533 171.8C90.6533 175.6 82.3533 181.4 73.6533 179.2C64.2533 175.1 70.4533 163.6 73.3533 157.1C80.6533 140.6 88.3533 124.1 96.3533 107.9C86.7533 89.9 79.2533 70.3 73.9533 49L71.0533 37.2Z" fill="#1E3160"/>
<path fill-rule="evenodd" clip-rule="evenodd" d="M252.353 45.1C248.253 45.8 244.553 47.1 241.453 50.2C238.953 52.9 237.653 56.1 236.553 59.5C233.253 69.7 230.053 80 226.753 90.2C225.453 94.2 223.353 101.6 229.853 101.1C232.053 100.7 234.153 99.8 236.253 98.9C242.853 96.1 249.353 93.3 255.953 90.6C257.653 84.2 259.253 77.7 260.953 71.3C257.453 72.4 254.053 73.5 250.553 74.6C249.753 77.5 248.953 80.4 248.153 83.3C245.753 84.2 243.353 85.1 240.953 85.9C243.953 75.5 247.053 65.1 250.053 54.7C252.153 54.2 254.353 53.8 256.453 53.3C255.953 55.1 255.453 57 254.953 58.8C258.053 58.1 261.153 57.3 264.253 56.6C265.453 51.9 266.653 47.2 267.753 42.6C262.653 43.5 257.453 44.3 252.353 45.1ZM222.853 50.2C215.553 59.8 208.253 69.5 201.053 79.2C204.453 70.3 207.753 61.4 211.153 52.5C203.553 54.1 195.953 55.7 188.353 57.4C186.353 62 184.453 66.6 182.453 71.2C184.053 70.7 185.753 70.3 187.353 69.8C181.353 84.2 175.553 98.7 169.853 113.3C167.553 119.2 165.153 125.1 162.853 131C170.453 127.4 178.053 123.8 185.753 120.3C189.253 110.8 192.653 101.2 196.253 91.7C199.453 98.2 202.653 104.7 205.853 111.2C210.753 109 215.753 106.8 220.653 104.7C217.653 97.8 214.553 91 211.553 84.2C217.053 75.9 222.553 67.6 228.153 59.4C229.753 59 231.253 58.7 232.853 58.3C234.053 54.7 235.253 51.2 236.353 47.6C231.953 48.5 227.353 49.3 222.853 50.2ZM132.053 129.8C126.753 132.2 121.453 134.5 116.153 137C123.853 119.2 131.753 101.6 140.053 84.1C144.653 82.6 149.353 81.2 154.053 79.8C146.553 96.3 139.153 113 132.053 129.8ZM144.753 68.5C134.753 71.2 125.753 75.5 118.553 83.4C114.453 88.1 111.553 93.5 108.753 99.1C100.753 115.4 93.0533 131.9 85.6533 148.4C83.7533 152.7 77.8533 163.3 84.1533 166C91.0533 167.8 99.7533 162 105.953 158.8C112.653 155.4 119.253 152.1 125.953 148.7C137.353 143 147.553 136.2 154.553 125.1C157.353 120.4 159.353 115.5 161.353 110.5C165.653 99.8 170.153 89.1 174.653 78.4C176.353 74.4 179.353 69.4 178.353 65C176.453 59.1 166.553 62.7 162.253 63.8C156.453 65.4 150.653 67 144.753 68.5Z" fill="white"/>
<path d="M280.554 36.3C283.454 37.3 286.454 38.4 289.354 39.4C286.454 38.3 283.454 37.3 280.554 36.3ZM280.054 35.6C283.154 36.6 286.054 37.7 289.054 38.8C296.354 41.5 302.854 44.3 308.154 46.8C291.654 103.5 257.854 151 210.054 184.9L206.154 187.6C192.154 177.1 183.954 168.9 183.954 168.9L190.554 167.8C210.554 164.5 229.754 155.4 245.654 140.6C272.754 115.3 283.754 79.2 278.154 45.2C278.054 44.4 277.854 43.7 277.754 42.9L277.654 42.6L277.554 42.2L277.454 41.8L277.354 41.4L277.254 41L277.154 40.6L277.054 40.2L276.954 39.8L276.854 39.4L276.754 39.1L276.654 38.7L276.554 38.3L276.454 38L276.354 37.7L276.254 37.4C275.954 36.2 275.654 35.1 275.354 34.1C277.154 34.7 278.554 35.2 280.054 35.6Z" fill="#057DC1"/>
</svg>
