<svg width="300" height="300" viewBox="0 0 300 300" fill="none" xmlns="http://www.w3.org/2000/svg">
<path d="M149.807 299.7C86.1067 299.7 29.2067 259.2 8.30672 199C-18.7933 121 22.6067 35.4 100.607 8.3C116.507 2.8 133.007 0 149.707 0C213.407 0 270.307 40.5 291.207 100.7L291.907 102.7C317.607 180.2 276.207 264.5 198.807 291.3C183.007 296.9 166.507 299.7 149.807 299.7Z" fill="#A0A2A3"/>
<path d="M273.207 82.1C255.107 49.1 225.307 25.2 189.107 14.7C182.907 12.9 176.507 11.5 170.107 10.6C101.007 0.400025 34.1068 43.4 14.6068 110.6C4.10681 146.7 8.30681 184.7 26.4068 217.7C44.5068 250.7 74.4068 274.6 110.507 285.1C116.707 286.9 123.107 288.3 129.507 289.2C143.607 291.3 157.707 291.1 171.207 289C171.407 289.1 171.507 289.2 171.707 289.3L171.907 288.9C224.407 280.5 269.607 242.5 285.107 189.2C295.507 153.1 291.307 115.1 273.207 82.1Z" fill="#0C233F"/>
<path d="M141.307 110.2C141.307 110.2 139.407 115.4 139.207 120.3C139.207 120.3 127.307 122.1 121.607 125.9C121.607 126 133.407 114.1 141.307 110.2Z" fill="#79BC43"/>
<path d="M221.307 109.7C222.607 109.4 223.607 109.3 224.307 109.4C224.107 108.8 223.707 107.9 222.907 107C221.907 105.7 220.307 104.8 220.307 104.8C221.407 106.3 221.407 108.3 221.307 109.7Z" fill="white"/>
<path d="M210.607 115.1C212.107 114 213.507 113.2 214.807 112.5C214.607 111.9 214.207 111.2 213.707 110.2C212.707 108.4 210.007 106.8 210.007 106.8C211.107 110 210.907 113.3 210.607 115.1Z" fill="white"/>
<path d="M83.2066 195.2C73.1066 199.3 49.2065 193.7 49.2065 193.7C73.3065 192.3 96.9065 175 96.9065 175C96.9065 175 96.9065 175.1 96.8065 175.1C89.7065 186 80.0065 192.2 80.0065 192.2C81.2065 193.7 82.2066 194.6 83.2066 195.2Z" fill="#A0A2A3"/>
<path d="M203.507 51.3C203.507 51.3 197.607 46.7 190.807 53.9C198.107 40.7 202.307 48.2 203.507 51.3Z" fill="#79BC43"/>
<path d="M227.007 115C227.007 115 226.407 114.6 226.207 114.5C222.407 112.5 215.707 118.3 211.307 120.8C206.907 123.2 200.507 128.4 197.307 121.3C194.207 114.2 201.407 103.1 203.907 96C209.407 80.5 209.607 71.4 208.407 66.5C213.507 72.2 215.107 83.3 215.107 83.3C215.107 83.3 217.007 62.6 206.907 57.2C207.107 57.9 206.907 60.5 206.707 62.5C202.007 63.4 191.607 62.2 188.207 60.4C175.407 74.1 161.507 93.2 151.007 110.7C146.507 120 142.007 130.8 140.907 139.7C140.907 139.7 139.507 135.7 139.107 130.4C133.307 132.6 113.607 142.3 109.407 172C109.407 172 121.907 159.1 135.807 154C135.807 154 127.007 177 143.807 217.7C143.807 217.7 150.607 192.7 164.807 186.4C173.407 229.1 198.607 229.8 205.907 258.8C205.907 258.8 213.607 243.8 204.307 218.2C204.307 218.2 207.507 219.1 210.207 222.3C210.207 222.3 209.807 214.8 202.807 198.7C198.207 190.1 196.807 178.4 196.807 178.4C192.707 182.1 191.707 194.6 191.707 194.6C179.207 160.7 214.707 127.1 221.207 122.1C224.407 119.7 226.307 119.6 227.507 120.2C228.607 117.7 228.407 116.1 227.007 115Z" fill="#A0A2A3"/>
<path d="M128.107 44.3C137.007 40.7 146.807 36.9 156.107 33.8C167.907 29.5 178.407 27.1 186.607 25.9C186.407 25.8 186.207 25.8 186.007 25.7C180.207 24 174.407 22.7 168.507 21.9C152.507 19.5 136.607 20.3 121.407 23.7C120.507 26.5 119.307 32 121.307 37C122.507 40 124.807 42.4 128.107 44.3Z" fill="#266092"/>
<path d="M57.5067 133.3C62.1067 119 68.2067 106.9 74.7067 96.7999C75.7067 94.7999 77.3067 91.7999 79.3067 88.1999C54.4067 85.4999 31.8067 112.1 23.1067 124C15.9067 158.9 23.7067 194 42.4067 221.9C46.8067 214.9 53.6067 204.2 53.6067 204.2C43.6067 200.7 33.6067 191.8 33.6067 191.8C39.2067 188.3 44.7067 184.2 50.0067 179.8C50.3067 163.8 52.7067 148.2 57.5067 133.3Z" fill="#266092"/>
<path d="M62.5068 54.4C63.1068 54.4 63.8068 54.4 64.5068 54.4C76.7068 53.7 94.2068 54.2 104.207 54.6C108.407 52.7 113.507 50.5 119.207 48.1C116.707 45.8 114.807 43.1 113.607 40C111.707 35.1 111.707 30.1 112.407 26.1C93.9068 31.6 76.8068 41.3 62.5068 54.4Z" fill="#266092"/>
<path d="M218.407 259.5C232.007 251 244.107 239.9 253.907 226.7C249.007 202.3 233.607 176 213.007 151.7C209.607 159.8 207.807 168.7 207.607 181.6C207.307 197 219.107 206.9 219.807 235.2C219.807 235.2 216.407 232.8 215.007 232.2C215.007 232.2 217.507 244.4 218.407 259.5Z" fill="#266092"/>
<path d="M109.507 80.7C106.007 82.4 102.107 84.4 98.3071 86.5C106.407 91.8 112.907 99.9 118.207 109.6C132.307 98.7 145.407 98.5 145.407 98.5C146.607 97 147.707 95.6 148.807 94.2C144.407 91.2 140.007 88.4 135.507 85.7C129.307 83.5 114.507 81.4 109.507 80.7Z" fill="#266092"/>
<path d="M176.607 62.8C174.807 62.6 173.007 62.4 171.107 62.2L170.107 62.1C169.007 62 167.807 61.9 166.407 61.8C159.307 61.3 147.907 60.4 134.307 55.7C131.507 58.8 129.207 62 127.507 64.8C131.007 68.4 137.707 75.4 141.007 79.1C145.407 81.8 149.807 84.6 154.207 87.6C162.507 77.7 169.707 70 176.607 62.8Z" fill="#266092"/>
<path d="M28.707 104.4C41.907 90.8 61.607 76.2 83.607 80.5C85.307 77.4 87.107 74.3 88.707 71.5C81.807 67 77.607 63.7 65.707 62.7C60.807 62.6 56.807 62.7 53.907 62.9C43.207 74.7 34.607 88.7 28.707 104.4Z" fill="#266092"/>
<path d="M274.007 186C278.607 170.3 280.007 154.5 278.707 139.1C275.107 122.6 262.807 91.1 221.107 73.7C222.407 86.1 219.707 98 219.707 98C219.707 98 227.407 102.5 229.307 111C229.307 111 230.307 111.4 231.107 112.6C233.307 115.2 236.107 121.3 231.607 133.4C231.607 133.4 229.007 127.8 223.407 133.8C221.007 137.2 218.907 140.3 217.107 143.4C237.407 166.8 253.307 192.4 260.107 217.3C266.007 207.8 270.707 197.3 274.007 186Z" fill="#266092"/>
<path d="M198.907 41.8C202.707 43.2 204.707 45.5 206.107 48.7C213.307 51.7 217.307 57.8 219.407 64.7C236.807 71.3 255.107 81.8 268.607 98.6C256.307 70.1 233.807 46.2 204.407 32.6V32.8C204.007 32.8 176.807 32.2 143.207 48.5C142.607 48.8 142.007 49.2 141.507 49.6C152.007 52.7 160.807 53.3 167.007 53.7C168.507 53.8 169.807 53.9 170.907 54L171.807 54.1C174.907 54.4 178.907 54.8 183.507 55.5C187.707 47.7 194.707 42.7 198.907 41.8Z" fill="#266092"/>
<path d="M111.907 115.2C106.407 104.5 99.4071 96 90.5071 91.5C88.5071 92.9 86.8071 94.4 85.3071 95.9C71.1071 115.9 60.7071 141.7 58.8071 172.3C81.5071 151.5 100.407 126.7 111.907 115.2Z" fill="#266092"/>
<path d="M124.607 52.8L115.707 65.8C115.707 65.8 122.507 70.5 128.007 76.9C118.307 74.9 107.607 73.1 107.607 73.1L90.7069 82.3L98.6069 69.1C98.6069 69.1 93.3069 64.5 87.1069 60.6C93.9069 60.8 106.707 61.9 106.707 61.9L124.607 52.8Z" fill="#79BC43"/>
</svg>
