<svg width="300" height="301" viewBox="0 0 300 301" fill="none" xmlns="http://www.w3.org/2000/svg">
<path d="M150.3 3.4H150C69.0998 3.4 3.5998 68.9 3.2998 149.8V150.1C3.2998 231 68.7998 296.6 149.7 296.8H149.8H149.9C230.8 296.8 296.4 231.3 296.6 150.4V150.3V150.2C296.7 69.2 231.2 3.5 150.3 3.4Z" fill="white"/>
<path d="M300 149.6C299.8 67 232.7 0 150.1 0H150H149.7C67 0.2 0 67.3 0 149.9V150.1V150.2C0.1 233 67.2 300 149.9 300.1H150H150.1C232.9 300 299.8 232.9 299.9 150.3C299.9 150.2 299.9 150.2 299.9 150.1C299.9 150 300 149.8 300 149.6ZM296.7 150.2C296.6 231.2 231.1 296.7 150 296.7H149.9H149.8C68.9 296.6 3.4 231 3.4 150.1V149.8C3.5 68.9 69.2 3.4 150.1 3.4H150.4C231.3 3.6 296.7 69.2 296.7 150.1V150.2Z" fill="#C4CDD3"/>
<path d="M101 116.7C116.3 101.4 122.6 83.7 122.6 83.7L126 71.3L126.8 68.4L111.1 59.6C111.1 59.6 102 53.3 81.6 65.1C57.8 79.2 38.4 97.4 28.3 116.6C22.7 127.2 18.3 139.7 16 153.6C16.7 180.1 25.1 204.6 39.1 225.2C35.2 187 72.1 145.2 101 116.7Z" fill="#002B5C"/>
<path d="M218.6 65.2C198.3 53.3 189.1 59.7 189.1 59.7L173.4 68.5L174.2 71.4L177.6 83.8C177.6 83.8 184 101.6 199.2 116.8C228 145.2 264.6 186.8 261 224.9C274.9 204.2 283.3 179.3 283.7 152.6C281.4 139.1 277 127.2 271.6 116.8C261.7 97.5 242.3 79.3 218.6 65.2Z" fill="#002B5C"/>
<path d="M169.5 42.4C223 48.4 258.2 78.7 276.3 105.7C262.7 66.8 231.5 36.1 192.4 23.2C183.9 25.6 174.3 31 169.5 42.4Z" fill="#E21936"/>
<path d="M130.7 42.4C125.9 31.1 116.3 25.7 107.6 23.2C68.2004 36.4 36.9004 67.2 23.4004 106.4C41.5004 79.3 76.8004 48.4 130.7 42.4Z" fill="#E21936"/>
<path d="M139.5 40.7L150.2 25L160.8 40.7C165.1 29.1 171.8 22.7 178.6 19.1C169.4 17.1 159.9 16 150.3 16C140.5 16 131.1 17.1 121.8 19C128.5 22.7 135.2 29.1 139.5 40.7Z" fill="#E21936"/>
<path d="M222.8 158.1C201.1 123 151.7 87.4 150 86.3C148.4 87.4 99.0997 123 77.1997 158.1C47.7997 205.6 51.6997 233.1 59.2997 248.7C78.1997 266.2 102.1 278.1 128.8 282.3L140.3 120L149.8 110.5L149.9 110.4L150 110.5L159.5 120L171.2 282L171 282.1C197.8 277.9 221.9 265.7 240.8 248.1C248.5 232.6 252 205.2 222.8 158.1Z" fill="#002B5C"/>
<path d="M159.7 120L150.2 110.4L150.3 294.1L171 282.2L171.2 282.1L159.7 120Z" fill="#C4CDD3"/>
<path d="M150.1 73.9L145.9 77L128.4 89.8L133 73.1L133.8 70.2L135.3 64.6L130.3 61.9L113.8 53C122 51.2 130.5 50 139.2 49.4L143.4 49.1L143.6 48.8L145.2 45.4L145.5 44.9L150.2 35.5L155 45.4L155.1 45.6L156.7 49L156.9 49.3L161.1 49.6C169.7 50.1 178.1 51.2 186.5 53.2L170 62.1L165 64.8L166.5 70.4L167.3 73.3L171.9 90L154.4 77.2L150.2 74.1V74H150.1V73.9Z" fill="#C4CDD3"/>
<path d="M150.3 73.9L154.5 77.1L172 89.9L167.4 73.2L166.6 70.3L165.1 64.7L170.1 62L186.6 53.1C178.4 51.3 169.9 50.1 161.2 49.5L157 49.2L156.8 48.9L155.2 45.5L155.1 45.3L150.3 35.4L145.6 44.8L145.3 45.3L143.7 48.7L143.5 49L139.3 49.3C130.7 49.8 122.3 50.9 113.9 52.9L130.4 61.8L135.4 64.5L134 70.1L133.2 73L128.6 89.7L146.1 76.9L150.3 73.8V73.7V73.9Z" fill="#C4CDD3"/>
</svg>
